G04*
G04 #@! TF.GenerationSoftware,Altium Limited,Altium Designer,23.8.1 (32)*
G04*
G04 Layer_Color=16711935*
%FSLAX44Y44*%
%MOMM*%
G71*
G04*
G04 #@! TF.SameCoordinates,92C49762-E6E1-4201-94AC-3A3CAB1C571E*
G04*
G04*
G04 #@! TF.FilePolarity,Positive*
G04*
G01*
G75*
%ADD10C,0.2000*%
%ADD67C,0.1270*%
%ADD68C,0.0508*%
%ADD69C,0.0600*%
%ADD70C,0.0500*%
%ADD71C,0.0762*%
D10*
X511000Y20000D02*
G03*
X541000Y50000I0J30000D01*
G01*
X21000D02*
G03*
X51000Y20000I30000J0D01*
G01*
X541000Y510000D02*
G03*
X511000Y540000I-30000J0D01*
G01*
X51000D02*
G03*
X21000Y510000I0J-30000D01*
G01*
X51000Y540000D02*
X511000D01*
X541000Y50000D02*
Y510000D01*
X51000Y20000D02*
X511000D01*
X21000Y50000D02*
Y510000D01*
D67*
X573000Y20000D02*
X575540Y12380D01*
X570460D02*
X573000Y20000D01*
X570460Y40620D02*
X573000Y33000D01*
X575540Y40620D01*
X573000Y4760D02*
Y20000D01*
Y33000D02*
Y48240D01*
X570460Y547620D02*
X573000Y540000D01*
X575540Y547620D01*
X573000Y527000D02*
X575540Y519380D01*
X570460D02*
X573000Y527000D01*
Y540000D02*
Y555240D01*
Y511760D02*
Y527000D01*
X561000Y540000D02*
X563540Y532380D01*
X558460D02*
X561000Y540000D01*
X558460Y27620D02*
X561000Y20000D01*
X563540Y27620D01*
X561000Y300948D02*
Y540000D01*
Y20000D02*
Y256512D01*
X21000Y557000D02*
X28620Y559540D01*
X21000Y557000D02*
X28620Y554460D01*
X533380D02*
X541000Y557000D01*
X533380Y559540D02*
X541000Y557000D01*
X21000D02*
X257512D01*
X301948D02*
X541000D01*
D68*
X408000Y33000D02*
X573508D01*
X512508Y20000D02*
X573508D01*
X408000Y527000D02*
X573508D01*
X512508Y540000D02*
X573508D01*
X512508D02*
X561508D01*
X512508Y20000D02*
X561508D01*
X21000Y511508D02*
Y557508D01*
X541000Y511508D02*
Y557508D01*
D69*
X217100Y149959D02*
Y146626D01*
X216434Y145960D01*
X215101D01*
X214434Y146626D01*
Y149959D01*
X210436D02*
X213101D01*
Y147959D01*
X211768Y148626D01*
X211102D01*
X210436Y147959D01*
Y146626D01*
X211102Y145960D01*
X212435D01*
X213101Y146626D01*
D70*
X205859Y425720D02*
X202526D01*
X201860Y425053D01*
Y423721D01*
X202526Y423054D01*
X205859D01*
X201860Y421721D02*
Y420388D01*
Y421055D01*
X205859D01*
X205192Y421721D01*
D71*
X591283Y8725D02*
Y11264D01*
Y9995D01*
X583666D01*
X584935Y8725D01*
X591283Y15073D02*
X590014D01*
Y16343D01*
X591283D01*
Y15073D01*
X584935Y21421D02*
X583666Y22691D01*
Y25230D01*
X584935Y26500D01*
X586205D01*
X587474Y25230D01*
Y23960D01*
Y25230D01*
X588744Y26500D01*
X590014D01*
X591283Y25230D01*
Y22691D01*
X590014Y21421D01*
X591283Y29039D02*
X586205D01*
Y30308D01*
X587474Y31578D01*
X591283D01*
X587474D01*
X586205Y32848D01*
X587474Y34117D01*
X591283D01*
Y36656D02*
X586205D01*
Y37926D01*
X587474Y39195D01*
X591283D01*
X587474D01*
X586205Y40465D01*
X587474Y41735D01*
X591283D01*
Y515725D02*
Y518265D01*
Y516995D01*
X583666D01*
X584935Y515725D01*
X591283Y522073D02*
X590014D01*
Y523343D01*
X591283D01*
Y522073D01*
X584935Y528421D02*
X583666Y529691D01*
Y532230D01*
X584935Y533500D01*
X586205D01*
X587474Y532230D01*
Y530960D01*
Y532230D01*
X588744Y533500D01*
X590014D01*
X591283Y532230D01*
Y529691D01*
X590014Y528421D01*
X591283Y536039D02*
X586205D01*
Y537308D01*
X587474Y538578D01*
X591283D01*
X587474D01*
X586205Y539847D01*
X587474Y541117D01*
X591283D01*
Y543656D02*
X586205D01*
Y544926D01*
X587474Y546195D01*
X591283D01*
X587474D01*
X586205Y547465D01*
X587474Y548735D01*
X591283D01*
X557953Y262860D02*
Y257782D01*
X561762D01*
X560492Y260321D01*
Y261591D01*
X561762Y262860D01*
X564301D01*
X565571Y261591D01*
Y259051D01*
X564301Y257782D01*
X565571Y270478D02*
Y265399D01*
X560492Y270478D01*
X559223D01*
X557953Y269208D01*
Y266669D01*
X559223Y265399D01*
X565571Y273017D02*
X564301D01*
Y274286D01*
X565571D01*
Y273017D01*
X559223Y279365D02*
X557953Y280634D01*
Y283174D01*
X559223Y284443D01*
X564301D01*
X565571Y283174D01*
Y280634D01*
X564301Y279365D01*
X559223D01*
X565571Y286982D02*
X560492D01*
Y288252D01*
X561762Y289522D01*
X565571D01*
X561762D01*
X560492Y290791D01*
X561762Y292061D01*
X565571D01*
Y294600D02*
X560492D01*
Y295870D01*
X561762Y297139D01*
X565571D01*
X561762D01*
X560492Y298409D01*
X561762Y299678D01*
X565571D01*
X263860Y560047D02*
X258782D01*
Y556238D01*
X261321Y557508D01*
X262591D01*
X263860Y556238D01*
Y553699D01*
X262591Y552429D01*
X260051D01*
X258782Y553699D01*
X271478Y552429D02*
X266399D01*
X271478Y557508D01*
Y558777D01*
X270208Y560047D01*
X267669D01*
X266399Y558777D01*
X274017Y552429D02*
Y553699D01*
X275286D01*
Y552429D01*
X274017D01*
X280365Y558777D02*
X281634Y560047D01*
X284174D01*
X285443Y558777D01*
Y553699D01*
X284174Y552429D01*
X281634D01*
X280365Y553699D01*
Y558777D01*
X287982Y552429D02*
Y557508D01*
X289252D01*
X290522Y556238D01*
Y552429D01*
Y556238D01*
X291791Y557508D01*
X293061Y556238D01*
Y552429D01*
X295600D02*
Y557508D01*
X296870D01*
X298139Y556238D01*
Y552429D01*
Y556238D01*
X299409Y557508D01*
X300678Y556238D01*
Y552429D01*
M02*
