G04*
G04 #@! TF.GenerationSoftware,Altium Limited,Altium Designer,23.8.1 (32)*
G04*
G04 Layer_Physical_Order=2*
G04 Layer_Color=5220458*
%FSLAX44Y44*%
%MOMM*%
G71*
G04*
G04 #@! TF.SameCoordinates,050FA7AA-ABA3-4C18-851E-56E06D371AC9*
G04*
G04*
G04 #@! TF.FilePolarity,Negative*
G04*
G01*
G75*
%ADD34C,1.2000*%
%ADD46C,1.0160*%
%ADD47C,0.7000*%
D34*
X95200Y59900D02*
D03*
X115200D02*
D03*
X135200D02*
D03*
X155200D02*
D03*
X175200D02*
D03*
X195200D02*
D03*
X215200D02*
D03*
X235200D02*
D03*
X255200D02*
D03*
X275200D02*
D03*
X95200Y316000D02*
D03*
X115200D02*
D03*
X135200D02*
D03*
X155200D02*
D03*
X175200D02*
D03*
X195200D02*
D03*
X215200D02*
D03*
D46*
X48000Y348000D02*
G03*
X23000Y323000I0J-25000D01*
G01*
X453000Y323000D02*
G03*
X428000Y348000I-25000J0D01*
G01*
X428000Y28000D02*
G03*
X453000Y53000I0J25000D01*
G01*
X23000Y53000D02*
G03*
X48000Y28000I25000J0D01*
G01*
X23000Y53000D02*
X23000Y323100D01*
X23000Y323000D02*
X23000Y323100D01*
X48000Y348000D02*
X428000Y348000D01*
X453000Y53000D02*
Y323000D01*
X48000Y28000D02*
X428000Y28000D01*
D47*
X129400Y133600D02*
D03*
X110500Y77000D02*
D03*
Y97500D02*
D03*
Y117000D02*
D03*
Y137000D02*
D03*
X282000Y161000D02*
D03*
X271000D02*
D03*
X306500Y181880D02*
D03*
X44000Y133000D02*
D03*
Y153000D02*
D03*
Y173000D02*
D03*
Y193000D02*
D03*
Y213000D02*
D03*
Y234000D02*
D03*
X255800Y76400D02*
D03*
X181600Y99300D02*
D03*
X208000Y277000D02*
D03*
X216000D02*
D03*
Y269000D02*
D03*
X208000D02*
D03*
X210000Y256000D02*
D03*
X218000D02*
D03*
X166000Y247000D02*
D03*
Y255000D02*
D03*
X158000D02*
D03*
Y263000D02*
D03*
X166000D02*
D03*
Y271000D02*
D03*
X158000D02*
D03*
X164500Y234200D02*
D03*
X197000Y234000D02*
D03*
X131500Y160200D02*
D03*
X153900Y122900D02*
D03*
X306000Y116500D02*
D03*
Y75580D02*
D03*
X306500Y222920D02*
D03*
X307000Y288000D02*
D03*
Y328920D02*
D03*
X360000Y91000D02*
D03*
X350000D02*
D03*
X340000D02*
D03*
X360000Y101000D02*
D03*
X350000D02*
D03*
X340000D02*
D03*
X360000Y111000D02*
D03*
X350000D02*
D03*
X340000D02*
D03*
X360000Y121000D02*
D03*
X350000D02*
D03*
X340000D02*
D03*
X360000Y201000D02*
D03*
X350000D02*
D03*
X340000D02*
D03*
X360000Y211000D02*
D03*
X350000D02*
D03*
X340000D02*
D03*
X360000Y221000D02*
D03*
X350000D02*
D03*
X340000D02*
D03*
X360000Y231000D02*
D03*
X350000D02*
D03*
X340000D02*
D03*
X360000Y306000D02*
D03*
X350000D02*
D03*
X340000D02*
D03*
X360000Y316000D02*
D03*
X350000D02*
D03*
X340000D02*
D03*
X360000Y326000D02*
D03*
X350000D02*
D03*
X340000D02*
D03*
X360000Y336000D02*
D03*
X350000D02*
D03*
X340000D02*
D03*
M02*
