G04*
G04 #@! TF.GenerationSoftware,Altium Limited,Altium Designer,23.8.1 (32)*
G04*
G04 Layer_Color=128*
%FSLAX44Y44*%
%MOMM*%
G71*
G04*
G04 #@! TF.SameCoordinates,050FA7AA-ABA3-4C18-851E-56E06D371AC9*
G04*
G04*
G04 #@! TF.FilePolarity,Positive*
G04*
G01*
G75*
%ADD55C,0.1270*%
D55*
X91200Y39900D02*
X99200D01*
X95200Y35900D02*
Y43900D01*
X111200Y39900D02*
X119200D01*
X115200Y35900D02*
Y43900D01*
X131200Y39900D02*
X139200D01*
X135200Y35900D02*
Y43900D01*
X151200Y39900D02*
X159200D01*
X155200Y35900D02*
Y43900D01*
X171200Y39900D02*
X179200D01*
X175200Y35900D02*
Y43900D01*
X191200Y39900D02*
X199200D01*
X195200Y35900D02*
Y43900D01*
X211200Y39900D02*
X219200D01*
X215200Y35900D02*
Y43900D01*
X231200Y39900D02*
X239200D01*
X235200Y35900D02*
Y43900D01*
X91200Y59900D02*
X99200D01*
X95200Y55900D02*
Y63900D01*
X111200Y59900D02*
X119200D01*
X115200Y55900D02*
Y63900D01*
X131200Y59900D02*
X139200D01*
X135200Y55900D02*
Y63900D01*
X151200Y59900D02*
X159200D01*
X155200Y55900D02*
Y63900D01*
X171200Y59900D02*
X179200D01*
X175200Y55900D02*
Y63900D01*
X191200Y59900D02*
X199200D01*
X195200Y55900D02*
Y63900D01*
X211200Y59900D02*
X219200D01*
X215200Y55900D02*
Y63900D01*
X231200Y59900D02*
X239200D01*
X235200Y55900D02*
Y63900D01*
X251200Y39900D02*
X259200D01*
X255200Y35900D02*
Y43900D01*
X251200Y59900D02*
X259200D01*
X255200Y55900D02*
Y63900D01*
X271200Y39900D02*
X279200D01*
X275200Y35900D02*
Y43900D01*
X271200Y59900D02*
X279200D01*
X275200Y55900D02*
Y63900D01*
X91200Y316000D02*
X99200D01*
X95200Y312000D02*
Y320000D01*
X111200Y316000D02*
X119200D01*
X115200Y312000D02*
Y320000D01*
X131200Y316000D02*
X139200D01*
X135200Y312000D02*
Y320000D01*
X151200Y316000D02*
X159200D01*
X155200Y312000D02*
Y320000D01*
X171200Y316000D02*
X179200D01*
X175200Y312000D02*
Y320000D01*
X191200Y316000D02*
X199200D01*
X195200Y312000D02*
Y320000D01*
X211200Y316000D02*
X219200D01*
X215200Y312000D02*
Y320000D01*
X231200Y316000D02*
X239200D01*
X235200Y312000D02*
Y320000D01*
X91200Y336000D02*
X99200D01*
X95200Y332000D02*
Y340000D01*
X111200Y336000D02*
X119200D01*
X115200Y332000D02*
Y340000D01*
X131200Y336000D02*
X139200D01*
X135200Y332000D02*
Y340000D01*
X151200Y336000D02*
X159200D01*
X155200Y332000D02*
Y340000D01*
X171200Y336000D02*
X179200D01*
X175200Y332000D02*
Y340000D01*
X191200Y336000D02*
X199200D01*
X195200Y332000D02*
Y340000D01*
X211200Y336000D02*
X219200D01*
X215200Y332000D02*
Y340000D01*
X231200Y336000D02*
X239200D01*
X235200Y332000D02*
Y340000D01*
X251200Y316000D02*
X259200D01*
X255200Y312000D02*
Y320000D01*
X251200Y336000D02*
X259200D01*
X255200Y332000D02*
Y340000D01*
X271200Y316000D02*
X279200D01*
X275200Y312000D02*
Y320000D01*
X271200Y336000D02*
X279200D01*
X275200Y332000D02*
Y340000D01*
X37750Y323100D02*
X58250D01*
X48000Y312850D02*
Y333350D01*
X37750Y53000D02*
X58250D01*
X48000Y42750D02*
Y63250D01*
X417750Y323100D02*
X438250D01*
X428000Y312850D02*
Y333350D01*
X417750Y53000D02*
X438250D01*
X428000Y42750D02*
Y63250D01*
X127900Y133600D02*
X130900D01*
X129400Y132100D02*
Y135100D01*
X155000Y160200D02*
X158000D01*
X156500Y158700D02*
Y161700D01*
X147500Y171898D02*
X150500D01*
X149000Y170398D02*
Y173398D01*
X141506Y178390D02*
X144506D01*
X143006Y176890D02*
Y179890D01*
X135506Y172288D02*
X138506D01*
X137006Y170788D02*
Y173788D01*
X135500Y185000D02*
X138500D01*
X137000Y183500D02*
Y186500D01*
X109500Y254000D02*
X112500D01*
X111000Y252500D02*
Y255500D01*
X120500Y247000D02*
X123500D01*
X122000Y245500D02*
Y248500D01*
X120500Y234000D02*
X123500D01*
X122000Y232500D02*
Y235500D01*
X109500Y239000D02*
X112500D01*
X111000Y237500D02*
Y240500D01*
X113500Y225000D02*
X116500D01*
X115000Y223500D02*
Y226500D01*
X109000Y77000D02*
X112000D01*
X110500Y75500D02*
Y78500D01*
X109000Y97500D02*
X112000D01*
X110500Y96000D02*
Y99000D01*
X109000Y117000D02*
X112000D01*
X110500Y115500D02*
Y118500D01*
X109000Y137000D02*
X112000D01*
X110500Y135500D02*
Y138500D01*
X99500Y87000D02*
X102500D01*
X101000Y85500D02*
Y88500D01*
X99500Y107000D02*
X102500D01*
X101000Y105500D02*
Y108500D01*
X99500Y127000D02*
X102500D01*
X101000Y125500D02*
Y128500D01*
X99500Y147000D02*
X102500D01*
X101000Y145500D02*
Y148500D01*
X53500Y142000D02*
X56500D01*
X55000Y140500D02*
Y143500D01*
X53500Y162000D02*
X56500D01*
X55000Y160500D02*
Y163500D01*
X53500Y182000D02*
X56500D01*
X55000Y180500D02*
Y183500D01*
X53500Y202000D02*
X56500D01*
X55000Y200500D02*
Y203500D01*
X53500Y221000D02*
X56500D01*
X55000Y219500D02*
Y222500D01*
X53500Y242000D02*
X56500D01*
X55000Y240500D02*
Y243500D01*
X280500Y161000D02*
X283500D01*
X282000Y159500D02*
Y162500D01*
X269500Y161000D02*
X272500D01*
X271000Y159500D02*
Y162500D01*
X141750Y138500D02*
X144750D01*
X143250Y137000D02*
Y140000D01*
X149250Y138500D02*
X152250D01*
X150750Y137000D02*
Y140000D01*
X305000Y181880D02*
X308000D01*
X306500Y180380D02*
Y183380D01*
X189500Y80000D02*
X192500D01*
X191000Y78500D02*
Y81500D01*
X172500Y80000D02*
X175500D01*
X174000Y78500D02*
Y81500D01*
X154500Y102000D02*
X157500D01*
X156000Y100500D02*
Y103500D01*
X154500Y80000D02*
X157500D01*
X156000Y78500D02*
Y81500D01*
X42500Y133000D02*
X45500D01*
X44000Y131500D02*
Y134500D01*
X42500Y153000D02*
X45500D01*
X44000Y151500D02*
Y154500D01*
X42500Y173000D02*
X45500D01*
X44000Y171500D02*
Y174500D01*
X42500Y193000D02*
X45500D01*
X44000Y191500D02*
Y194500D01*
X42500Y213000D02*
X45500D01*
X44000Y211500D02*
Y214500D01*
X42500Y234000D02*
X45500D01*
X44000Y232500D02*
Y235500D01*
X254300Y76400D02*
X257300D01*
X255800Y74900D02*
Y77900D01*
X180100Y99300D02*
X183100D01*
X181600Y97800D02*
Y100800D01*
X268200Y75000D02*
X271200D01*
X269700Y73500D02*
Y76500D01*
X206500Y277000D02*
X209500D01*
X208000Y275500D02*
Y278500D01*
X214500Y277000D02*
X217500D01*
X216000Y275500D02*
Y278500D01*
X214500Y269000D02*
X217500D01*
X216000Y267500D02*
Y270500D01*
X206500Y269000D02*
X209500D01*
X208000Y267500D02*
Y270500D01*
X208500Y256000D02*
X211500D01*
X210000Y254500D02*
Y257500D01*
X216500Y256000D02*
X219500D01*
X218000Y254500D02*
Y257500D01*
X164500Y247000D02*
X167500D01*
X166000Y245500D02*
Y248500D01*
X164500Y255000D02*
X167500D01*
X166000Y253500D02*
Y256500D01*
X156500Y255000D02*
X159500D01*
X158000Y253500D02*
Y256500D01*
X156500Y263000D02*
X159500D01*
X158000Y261500D02*
Y264500D01*
X164500Y263000D02*
X167500D01*
X166000Y261500D02*
Y264500D01*
X164500Y271000D02*
X167500D01*
X166000Y269500D02*
Y272500D01*
X156500Y271000D02*
X159500D01*
X158000Y269500D02*
Y272500D01*
X156000Y193700D02*
X159000D01*
X157500Y192200D02*
Y195200D01*
X153200Y234300D02*
X156200D01*
X154700Y232800D02*
Y235800D01*
X196200Y296100D02*
X199200D01*
X197700Y294600D02*
Y297600D01*
X222400Y287100D02*
X225400D01*
X223900Y285600D02*
Y288600D01*
X163000Y234200D02*
X166000D01*
X164500Y232700D02*
Y235700D01*
X144000Y160000D02*
X147000D01*
X145500Y158500D02*
Y161500D01*
X196250Y175000D02*
X199250D01*
X197750Y173500D02*
Y176500D01*
X188000Y298500D02*
X191000D01*
X189500Y297000D02*
Y300000D01*
X189000Y106000D02*
X192000D01*
X190500Y104500D02*
Y107500D01*
X195500Y234000D02*
X198500D01*
X197000Y232500D02*
Y235500D01*
X130000Y160200D02*
X133000D01*
X131500Y158700D02*
Y161700D01*
X243500Y256000D02*
X246500D01*
X245000Y254500D02*
Y257500D01*
X156750Y138500D02*
X159750D01*
X158250Y137000D02*
Y140000D01*
X152400Y122900D02*
X155400D01*
X153900Y121400D02*
Y124400D01*
X316500Y125000D02*
X319500D01*
X318000Y123500D02*
Y126500D01*
X308500Y125000D02*
X311500D01*
X310000Y123500D02*
Y126500D01*
X300500Y125000D02*
X303500D01*
X302000Y123500D02*
Y126500D01*
X292500Y125000D02*
X295500D01*
X294000Y123500D02*
Y126500D01*
X316500Y232000D02*
X319500D01*
X318000Y230500D02*
Y233500D01*
X308500Y232000D02*
X311500D01*
X310000Y230500D02*
Y233500D01*
X300500Y232000D02*
X303500D01*
X302000Y230500D02*
Y233500D01*
X292500Y232000D02*
X295500D01*
X294000Y230500D02*
Y233500D01*
X316500Y338000D02*
X319500D01*
X318000Y336500D02*
Y339500D01*
X308500Y338000D02*
X311500D01*
X310000Y336500D02*
Y339500D01*
X300500Y338000D02*
X303500D01*
X302000Y336500D02*
Y339500D01*
X292500Y338000D02*
X295500D01*
X294000Y336500D02*
Y339500D01*
X304500Y116500D02*
X307500D01*
X306000Y115000D02*
Y118000D01*
X304500Y75580D02*
X307500D01*
X306000Y74080D02*
Y77080D01*
X305000Y222920D02*
X308000D01*
X306500Y221420D02*
Y224420D01*
X305500Y288000D02*
X308500D01*
X307000Y286500D02*
Y289500D01*
X305500Y328920D02*
X308500D01*
X307000Y327420D02*
Y330420D01*
X358500Y91000D02*
X361500D01*
X360000Y89500D02*
Y92500D01*
X348500Y91000D02*
X351500D01*
X350000Y89500D02*
Y92500D01*
X338500Y91000D02*
X341500D01*
X340000Y89500D02*
Y92500D01*
X358500Y101000D02*
X361500D01*
X360000Y99500D02*
Y102500D01*
X348500Y101000D02*
X351500D01*
X350000Y99500D02*
Y102500D01*
X338500Y101000D02*
X341500D01*
X340000Y99500D02*
Y102500D01*
X358500Y111000D02*
X361500D01*
X360000Y109500D02*
Y112500D01*
X348500Y111000D02*
X351500D01*
X350000Y109500D02*
Y112500D01*
X338500Y111000D02*
X341500D01*
X340000Y109500D02*
Y112500D01*
X358500Y121000D02*
X361500D01*
X360000Y119500D02*
Y122500D01*
X348500Y121000D02*
X351500D01*
X350000Y119500D02*
Y122500D01*
X338500Y121000D02*
X341500D01*
X340000Y119500D02*
Y122500D01*
X358500Y201000D02*
X361500D01*
X360000Y199500D02*
Y202500D01*
X348500Y201000D02*
X351500D01*
X350000Y199500D02*
Y202500D01*
X338500Y201000D02*
X341500D01*
X340000Y199500D02*
Y202500D01*
X358500Y211000D02*
X361500D01*
X360000Y209500D02*
Y212500D01*
X348500Y211000D02*
X351500D01*
X350000Y209500D02*
Y212500D01*
X338500Y211000D02*
X341500D01*
X340000Y209500D02*
Y212500D01*
X358500Y221000D02*
X361500D01*
X360000Y219500D02*
Y222500D01*
X348500Y221000D02*
X351500D01*
X350000Y219500D02*
Y222500D01*
X338500Y221000D02*
X341500D01*
X340000Y219500D02*
Y222500D01*
X358500Y231000D02*
X361500D01*
X360000Y229500D02*
Y232500D01*
X348500Y231000D02*
X351500D01*
X350000Y229500D02*
Y232500D01*
X338500Y231000D02*
X341500D01*
X340000Y229500D02*
Y232500D01*
X358500Y306000D02*
X361500D01*
X360000Y304500D02*
Y307500D01*
X348500Y306000D02*
X351500D01*
X350000Y304500D02*
Y307500D01*
X338500Y306000D02*
X341500D01*
X340000Y304500D02*
Y307500D01*
X358500Y316000D02*
X361500D01*
X360000Y314500D02*
Y317500D01*
X348500Y316000D02*
X351500D01*
X350000Y314500D02*
Y317500D01*
X338500Y316000D02*
X341500D01*
X340000Y314500D02*
Y317500D01*
X358500Y326000D02*
X361500D01*
X360000Y324500D02*
Y327500D01*
X348500Y326000D02*
X351500D01*
X350000Y324500D02*
Y327500D01*
X338500Y326000D02*
X341500D01*
X340000Y324500D02*
Y327500D01*
X358500Y336000D02*
X361500D01*
X360000Y334500D02*
Y337500D01*
X348500Y336000D02*
X351500D01*
X350000Y334500D02*
Y337500D01*
X338500Y336000D02*
X341500D01*
X340000Y334500D02*
Y337500D01*
X212800Y192700D02*
X215800D01*
X214300Y191200D02*
Y194200D01*
X215700Y224700D02*
X218700D01*
X217200Y223200D02*
Y226200D01*
X206600Y224600D02*
X209600D01*
X208100Y223100D02*
Y226100D01*
X37200Y313900D02*
X40200D01*
X38700Y312400D02*
Y315400D01*
X55700Y313900D02*
X58700D01*
X57200Y312400D02*
Y315400D01*
X33500Y323100D02*
X36500D01*
X35000Y321600D02*
Y324600D01*
X46500Y336100D02*
X49500D01*
X48000Y334600D02*
Y337600D01*
X59500Y323100D02*
X62500D01*
X61000Y321600D02*
Y324600D01*
X46500Y310100D02*
X49500D01*
X48000Y308600D02*
Y311600D01*
X36800Y331900D02*
X39800D01*
X38300Y330400D02*
Y333400D01*
X56600Y331600D02*
X59600D01*
X58100Y330100D02*
Y333100D01*
X56600Y61500D02*
X59600D01*
X58100Y60000D02*
Y63000D01*
X36800Y61800D02*
X39800D01*
X38300Y60300D02*
Y63300D01*
X46500Y40000D02*
X49500D01*
X48000Y38500D02*
Y41500D01*
X59500Y53000D02*
X62500D01*
X61000Y51500D02*
Y54500D01*
X46500Y66000D02*
X49500D01*
X48000Y64500D02*
Y67500D01*
X33500Y53000D02*
X36500D01*
X35000Y51500D02*
Y54500D01*
X55700Y43800D02*
X58700D01*
X57200Y42300D02*
Y45300D01*
X37200Y43800D02*
X40200D01*
X38700Y42300D02*
Y45300D01*
X436600Y331600D02*
X439600D01*
X438100Y330100D02*
Y333100D01*
X416800Y331900D02*
X419800D01*
X418300Y330400D02*
Y333400D01*
X426500Y310100D02*
X429500D01*
X428000Y308600D02*
Y311600D01*
X439500Y323100D02*
X442500D01*
X441000Y321600D02*
Y324600D01*
X426500Y336100D02*
X429500D01*
X428000Y334600D02*
Y337600D01*
X413500Y323100D02*
X416500D01*
X415000Y321600D02*
Y324600D01*
X435700Y313900D02*
X438700D01*
X437200Y312400D02*
Y315400D01*
X417200Y313900D02*
X420200D01*
X418700Y312400D02*
Y315400D01*
X436600Y61500D02*
X439600D01*
X438100Y60000D02*
Y63000D01*
X416800Y61800D02*
X419800D01*
X418300Y60300D02*
Y63300D01*
X426500Y40000D02*
X429500D01*
X428000Y38500D02*
Y41500D01*
X439500Y53000D02*
X442500D01*
X441000Y51500D02*
Y54500D01*
X426500Y66000D02*
X429500D01*
X428000Y64500D02*
Y67500D01*
X413500Y53000D02*
X416500D01*
X415000Y51500D02*
Y54500D01*
X435700Y43800D02*
X438700D01*
X437200Y42300D02*
Y45300D01*
X417200Y43800D02*
X420200D01*
X418700Y42300D02*
Y45300D01*
M02*
