G04*
G04 #@! TF.GenerationSoftware,Altium Limited,Altium Designer,23.8.1 (32)*
G04*
G04 Layer_Color=16711935*
%FSLAX44Y44*%
%MOMM*%
G71*
G04*
G04 #@! TF.SameCoordinates,92C49762-E6E1-4201-94AC-3A3CAB1C571E*
G04*
G04*
G04 #@! TF.FilePolarity,Positive*
G04*
G01*
G75*
%ADD49C,0.1000*%
D49*
X159290Y151110D02*
G03*
X159290Y151110I-2540J0D01*
G01*
X175540Y236590D02*
G03*
X175540Y236590I-5000J0D01*
G01*
X311810Y303080D02*
G03*
X311810Y303080I-5000J0D01*
G01*
X263000Y113500D02*
Y178500D01*
Y113500D02*
X309000D01*
Y178500D01*
X263000D02*
X309000D01*
X131830Y162030D02*
X161830D01*
X131830D02*
X131830Y146030D01*
X161830Y146030D01*
Y162030D01*
X219500Y133250D02*
Y163750D01*
X202000Y133250D02*
Y163750D01*
X219500D01*
X202000Y133250D02*
X219500D01*
X127760Y208430D02*
Y244430D01*
X177760Y208430D02*
Y244430D01*
X127760Y208430D02*
X177760D01*
X127760Y244430D02*
X177760D01*
X187880Y425580D02*
X218380Y425580D01*
X187880Y408080D02*
X218380D01*
Y425580D01*
X187880Y408080D02*
X187880Y425580D01*
X264030Y310920D02*
X314030D01*
X264030Y274920D02*
X314030D01*
Y310920D01*
X264030Y274920D02*
Y310920D01*
M02*
