G04*
G04 #@! TF.GenerationSoftware,Altium Limited,Altium Designer,23.8.1 (32)*
G04*
G04 Layer_Color=2752767*
%FSLAX44Y44*%
%MOMM*%
G71*
G04*
G04 #@! TF.SameCoordinates,050FA7AA-ABA3-4C18-851E-56E06D371AC9*
G04*
G04*
G04 #@! TF.FilePolarity,Positive*
G04*
G01*
G75*
%ADD12C,0.2540*%
%ADD55C,0.1270*%
%ADD59C,0.1693*%
%ADD60C,0.4064*%
%ADD61C,0.1185*%
D12*
X579711Y246872D02*
X583044D01*
X581377D01*
Y256869D01*
X579711Y255203D01*
X594706Y256869D02*
X588042D01*
Y251871D01*
X591374Y253537D01*
X593040D01*
X594706Y251871D01*
Y248538D01*
X593040Y246872D01*
X589708D01*
X588042Y248538D01*
X598039Y255203D02*
X599705Y256869D01*
X603037D01*
X604703Y255203D01*
Y253537D01*
X603037Y251871D01*
X604703Y250205D01*
Y248538D01*
X603037Y246872D01*
X599705D01*
X598039Y248538D01*
Y250205D01*
X599705Y251871D01*
X598039Y253537D01*
Y255203D01*
X599705Y251871D02*
X603037D01*
X699872Y255203D02*
X701538Y256869D01*
X704871D01*
X706537Y255203D01*
Y248538D01*
X704871Y246872D01*
X701538D01*
X699872Y248538D01*
Y255203D01*
X709869Y246872D02*
Y248538D01*
X711535D01*
Y246872D01*
X709869D01*
X718200Y255203D02*
X719866Y256869D01*
X723198D01*
X724864Y255203D01*
Y253537D01*
X723198Y251871D01*
X721532D01*
X723198D01*
X724864Y250205D01*
Y248538D01*
X723198Y246872D01*
X719866D01*
X718200Y248538D01*
X728196Y246872D02*
Y253537D01*
X729863D01*
X731529Y251871D01*
Y246872D01*
Y251871D01*
X733195Y253537D01*
X734861Y251871D01*
Y246872D01*
X738193D02*
Y253537D01*
X739859D01*
X741525Y251871D01*
Y246872D01*
Y251871D01*
X743192Y253537D01*
X744858Y251871D01*
Y246872D01*
X761519D02*
X758187Y250205D01*
Y253537D01*
X761519Y256869D01*
X766517Y246872D02*
X769850D01*
X768184D01*
Y256869D01*
X766517Y255203D01*
X774848Y246872D02*
X778180D01*
X776514D01*
Y256869D01*
X774848Y255203D01*
X783179Y246872D02*
Y248538D01*
X784845D01*
Y246872D01*
X783179D01*
X791509Y255203D02*
X793176Y256869D01*
X796508D01*
X798174Y255203D01*
Y253537D01*
X796508Y251871D01*
X798174Y250205D01*
Y248538D01*
X796508Y246872D01*
X793176D01*
X791509Y248538D01*
Y250205D01*
X793176Y251871D01*
X791509Y253537D01*
Y255203D01*
X793176Y251871D02*
X796508D01*
X801506Y246872D02*
X804838D01*
X803172D01*
Y256869D01*
X801506Y255203D01*
X809837Y246872D02*
X813169D01*
X811503D01*
Y256869D01*
X809837Y255203D01*
X818167Y246872D02*
Y253537D01*
X819834D01*
X821500Y251871D01*
Y246872D01*
Y251871D01*
X823166Y253537D01*
X824832Y251871D01*
Y246872D01*
X828164D02*
X831496D01*
X829830D01*
Y253537D01*
X828164D01*
X836495Y246872D02*
X839827D01*
X838161D01*
Y256869D01*
X836495D01*
X844825Y246872D02*
X848158Y250205D01*
Y253537D01*
X844825Y256869D01*
X927998Y246872D02*
Y256869D01*
X932997D01*
X934663Y255203D01*
Y251871D01*
X932997Y250205D01*
X927998D01*
X937995Y256869D02*
X944660D01*
X941327D01*
Y246872D01*
X947992Y256869D02*
Y246872D01*
Y251871D01*
X954656D01*
Y256869D01*
Y246872D01*
X1016170D02*
Y256869D01*
X1021168D01*
X1022834Y255203D01*
Y251871D01*
X1021168Y250205D01*
X1016170D01*
X1019502D02*
X1022834Y246872D01*
X1027832D02*
X1031165D01*
X1032831Y248538D01*
Y251871D01*
X1031165Y253537D01*
X1027832D01*
X1026166Y251871D01*
Y248538D01*
X1027832Y246872D01*
X1036163Y253537D02*
Y248538D01*
X1037829Y246872D01*
X1042828D01*
Y253537D01*
X1046160Y246872D02*
Y253537D01*
X1051158D01*
X1052824Y251871D01*
Y246872D01*
X1062821Y256869D02*
Y246872D01*
X1057823D01*
X1056157Y248538D01*
Y251871D01*
X1057823Y253537D01*
X1062821D01*
X584710Y226872D02*
Y236869D01*
X579711Y231871D01*
X586376D01*
X589708Y235203D02*
X591374Y236869D01*
X594706D01*
X596372Y235203D01*
Y228538D01*
X594706Y226872D01*
X591374D01*
X589708Y228538D01*
Y235203D01*
X699872D02*
X701538Y236869D01*
X704871D01*
X706537Y235203D01*
Y228538D01*
X704871Y226872D01*
X701538D01*
X699872Y228538D01*
Y235203D01*
X709869Y226872D02*
Y228538D01*
X711535D01*
Y226872D01*
X709869D01*
X718200Y235203D02*
X719866Y236869D01*
X723198D01*
X724864Y235203D01*
Y233537D01*
X723198Y231871D01*
X724864Y230205D01*
Y228538D01*
X723198Y226872D01*
X719866D01*
X718200Y228538D01*
Y230205D01*
X719866Y231871D01*
X718200Y233537D01*
Y235203D01*
X719866Y231871D02*
X723198D01*
X728196Y226872D02*
Y233537D01*
X729863D01*
X731529Y231871D01*
Y226872D01*
Y231871D01*
X733195Y233537D01*
X734861Y231871D01*
Y226872D01*
X738193D02*
Y233537D01*
X739859D01*
X741525Y231871D01*
Y226872D01*
Y231871D01*
X743192Y233537D01*
X744858Y231871D01*
Y226872D01*
X761519D02*
X758187Y230205D01*
Y233537D01*
X761519Y236869D01*
X766517Y235203D02*
X768184Y236869D01*
X771516D01*
X773182Y235203D01*
Y233537D01*
X771516Y231871D01*
X769850D01*
X771516D01*
X773182Y230205D01*
Y228538D01*
X771516Y226872D01*
X768184D01*
X766517Y228538D01*
X776514Y226872D02*
X779846D01*
X778180D01*
Y236869D01*
X776514Y235203D01*
X784845Y226872D02*
Y228538D01*
X786511D01*
Y226872D01*
X784845D01*
X798174D02*
Y236869D01*
X793176Y231871D01*
X799840D01*
X803172Y228538D02*
X804838Y226872D01*
X808171D01*
X809837Y228538D01*
Y235203D01*
X808171Y236869D01*
X804838D01*
X803172Y235203D01*
Y233537D01*
X804838Y231871D01*
X809837D01*
X819834Y236869D02*
X816501Y235203D01*
X813169Y231871D01*
Y228538D01*
X814835Y226872D01*
X818167D01*
X819834Y228538D01*
Y230205D01*
X818167Y231871D01*
X813169D01*
X823166Y226872D02*
Y233537D01*
X824832D01*
X826498Y231871D01*
Y226872D01*
Y231871D01*
X828164Y233537D01*
X829830Y231871D01*
Y226872D01*
X833163D02*
X836495D01*
X834829D01*
Y233537D01*
X833163D01*
X841493Y226872D02*
X844826D01*
X843159D01*
Y236869D01*
X841493D01*
X849824Y226872D02*
X853156Y230205D01*
Y233537D01*
X849824Y236869D01*
X927998Y226872D02*
Y236869D01*
X932997D01*
X934663Y235203D01*
Y231871D01*
X932997Y230205D01*
X927998D01*
X937995Y236869D02*
X944660D01*
X941327D01*
Y226872D01*
X947992Y236869D02*
Y226872D01*
Y231871D01*
X954656D01*
Y236869D01*
Y226872D01*
X1016170D02*
Y236869D01*
X1021168D01*
X1022834Y235203D01*
Y231871D01*
X1021168Y230205D01*
X1016170D01*
X1019502D02*
X1022834Y226872D01*
X1027832D02*
X1031165D01*
X1032831Y228538D01*
Y231871D01*
X1031165Y233537D01*
X1027832D01*
X1026166Y231871D01*
Y228538D01*
X1027832Y226872D01*
X1036163Y233537D02*
Y228538D01*
X1037829Y226872D01*
X1042828D01*
Y233537D01*
X1046160Y226872D02*
Y233537D01*
X1051158D01*
X1052824Y231871D01*
Y226872D01*
X1062821Y236869D02*
Y226872D01*
X1057823D01*
X1056157Y228538D01*
Y231871D01*
X1057823Y233537D01*
X1062821D01*
X584710Y206872D02*
Y216869D01*
X579711Y211871D01*
X586376D01*
X706537Y206872D02*
X699872D01*
X706537Y213537D01*
Y215203D01*
X704871Y216869D01*
X701538D01*
X699872Y215203D01*
X709869Y206872D02*
Y208538D01*
X711535D01*
Y206872D01*
X709869D01*
X718200Y215203D02*
X719866Y216869D01*
X723198D01*
X724864Y215203D01*
Y208538D01*
X723198Y206872D01*
X719866D01*
X718200Y208538D01*
Y215203D01*
X734861Y216869D02*
X728196D01*
Y211871D01*
X731529Y213537D01*
X733195D01*
X734861Y211871D01*
Y208538D01*
X733195Y206872D01*
X729863D01*
X728196Y208538D01*
X738193Y206872D02*
Y213537D01*
X739859D01*
X741525Y211871D01*
Y206872D01*
Y211871D01*
X743192Y213537D01*
X744858Y211871D01*
Y206872D01*
X748190D02*
Y213537D01*
X749856D01*
X751522Y211871D01*
Y206872D01*
Y211871D01*
X753188Y213537D01*
X754855Y211871D01*
Y206872D01*
X771516D02*
X768184Y210205D01*
Y213537D01*
X771516Y216869D01*
X776514Y215203D02*
X778180Y216869D01*
X781513D01*
X783179Y215203D01*
Y213537D01*
X781513Y211871D01*
X783179Y210205D01*
Y208538D01*
X781513Y206872D01*
X778180D01*
X776514Y208538D01*
Y210205D01*
X778180Y211871D01*
X776514Y213537D01*
Y215203D01*
X778180Y211871D02*
X781513D01*
X786511Y215203D02*
X788177Y216869D01*
X791509D01*
X793176Y215203D01*
Y208538D01*
X791509Y206872D01*
X788177D01*
X786511Y208538D01*
Y215203D01*
X796508Y206872D02*
Y208538D01*
X798174D01*
Y206872D01*
X796508D01*
X804838Y216869D02*
X811503D01*
Y215203D01*
X804838Y208538D01*
Y206872D01*
X814835Y215203D02*
X816501Y216869D01*
X819834D01*
X821500Y215203D01*
Y208538D01*
X819834Y206872D01*
X816501D01*
X814835Y208538D01*
Y215203D01*
X824832Y208538D02*
X826498Y206872D01*
X829830D01*
X831496Y208538D01*
Y215203D01*
X829830Y216869D01*
X826498D01*
X824832Y215203D01*
Y213537D01*
X826498Y211871D01*
X831496D01*
X834829Y206872D02*
Y213537D01*
X836495D01*
X838161Y211871D01*
Y206872D01*
Y211871D01*
X839827Y213537D01*
X841493Y211871D01*
Y206872D01*
X844826D02*
X848158D01*
X846492D01*
Y213537D01*
X844826D01*
X853156Y206872D02*
X856488D01*
X854822D01*
Y216869D01*
X853156D01*
X861487Y206872D02*
X864819Y210205D01*
Y213537D01*
X861487Y216869D01*
X927998Y206872D02*
Y216869D01*
X932997D01*
X934663Y215203D01*
Y211871D01*
X932997Y210205D01*
X927998D01*
X937995Y216869D02*
X944660D01*
X941327D01*
Y206872D01*
X947992Y216869D02*
Y206872D01*
Y211871D01*
X954656D01*
Y216869D01*
Y206872D01*
X1016170D02*
Y216869D01*
X1021168D01*
X1022834Y215203D01*
Y211871D01*
X1021168Y210205D01*
X1016170D01*
X1019502D02*
X1022834Y206872D01*
X1027832D02*
X1031165D01*
X1032831Y208538D01*
Y211871D01*
X1031165Y213537D01*
X1027832D01*
X1026166Y211871D01*
Y208538D01*
X1027832Y206872D01*
X1036163Y213537D02*
Y208538D01*
X1037829Y206872D01*
X1042828D01*
Y213537D01*
X1046160Y206872D02*
Y213537D01*
X1051158D01*
X1052824Y211871D01*
Y206872D01*
X1062821Y216869D02*
Y206872D01*
X1057823D01*
X1056157Y208538D01*
Y211871D01*
X1057823Y213537D01*
X1062821D01*
X586376Y186872D02*
X579711D01*
X586376Y193537D01*
Y195203D01*
X584710Y196869D01*
X581377D01*
X579711Y195203D01*
X589708D02*
X591374Y196869D01*
X594706D01*
X596372Y195203D01*
Y188538D01*
X594706Y186872D01*
X591374D01*
X589708Y188538D01*
Y195203D01*
X606369Y186872D02*
X599705D01*
X606369Y193537D01*
Y195203D01*
X604703Y196869D01*
X601371D01*
X599705Y195203D01*
X627513Y196869D02*
X634178D01*
X630846D01*
Y186872D01*
X639176D02*
X642508D01*
X644175Y188538D01*
Y191871D01*
X642508Y193537D01*
X639176D01*
X637510Y191871D01*
Y188538D01*
X639176Y186872D01*
X649173Y195203D02*
Y193537D01*
X647507D01*
X650839D01*
X649173D01*
Y188538D01*
X650839Y186872D01*
X657504Y193537D02*
X660836D01*
X662502Y191871D01*
Y186872D01*
X657504D01*
X655837Y188538D01*
X657504Y190205D01*
X662502D01*
X665834Y186872D02*
X669167D01*
X667500D01*
Y196869D01*
X665834D01*
D55*
X90120Y34820D02*
X92660Y39900D01*
X90120Y44980D01*
X95200Y42440D01*
X100280Y44980D01*
X97740Y39900D01*
X100280Y34820D01*
X95200Y37360D01*
X90120Y34820D01*
X110120D02*
X112660Y39900D01*
X110120Y44980D01*
X115200Y42440D01*
X120280Y44980D01*
X117740Y39900D01*
X120280Y34820D01*
X115200Y37360D01*
X110120Y34820D01*
X130120D02*
X132660Y39900D01*
X130120Y44980D01*
X135200Y42440D01*
X140280Y44980D01*
X137740Y39900D01*
X140280Y34820D01*
X135200Y37360D01*
X130120Y34820D01*
X150120D02*
X152660Y39900D01*
X150120Y44980D01*
X155200Y42440D01*
X160280Y44980D01*
X157740Y39900D01*
X160280Y34820D01*
X155200Y37360D01*
X150120Y34820D01*
X170120D02*
X172660Y39900D01*
X170120Y44980D01*
X175200Y42440D01*
X180280Y44980D01*
X177740Y39900D01*
X180280Y34820D01*
X175200Y37360D01*
X170120Y34820D01*
X190120D02*
X192660Y39900D01*
X190120Y44980D01*
X195200Y42440D01*
X200280Y44980D01*
X197740Y39900D01*
X200280Y34820D01*
X195200Y37360D01*
X190120Y34820D01*
X210120D02*
X212660Y39900D01*
X210120Y44980D01*
X215200Y42440D01*
X220280Y44980D01*
X217740Y39900D01*
X220280Y34820D01*
X215200Y37360D01*
X210120Y34820D01*
X230120D02*
X232660Y39900D01*
X230120Y44980D01*
X235200Y42440D01*
X240280Y44980D01*
X237740Y39900D01*
X240280Y34820D01*
X235200Y37360D01*
X230120Y34820D01*
X90120Y54820D02*
X92660Y59900D01*
X90120Y64980D01*
X95200Y62440D01*
X100280Y64980D01*
X97740Y59900D01*
X100280Y54820D01*
X95200Y57360D01*
X90120Y54820D01*
X110120D02*
X112660Y59900D01*
X110120Y64980D01*
X115200Y62440D01*
X120280Y64980D01*
X117740Y59900D01*
X120280Y54820D01*
X115200Y57360D01*
X110120Y54820D01*
X130120D02*
X132660Y59900D01*
X130120Y64980D01*
X135200Y62440D01*
X140280Y64980D01*
X137740Y59900D01*
X140280Y54820D01*
X135200Y57360D01*
X130120Y54820D01*
X150120D02*
X152660Y59900D01*
X150120Y64980D01*
X155200Y62440D01*
X160280Y64980D01*
X157740Y59900D01*
X160280Y54820D01*
X155200Y57360D01*
X150120Y54820D01*
X170120D02*
X172660Y59900D01*
X170120Y64980D01*
X175200Y62440D01*
X180280Y64980D01*
X177740Y59900D01*
X180280Y54820D01*
X175200Y57360D01*
X170120Y54820D01*
X190120D02*
X192660Y59900D01*
X190120Y64980D01*
X195200Y62440D01*
X200280Y64980D01*
X197740Y59900D01*
X200280Y54820D01*
X195200Y57360D01*
X190120Y54820D01*
X210120D02*
X212660Y59900D01*
X210120Y64980D01*
X215200Y62440D01*
X220280Y64980D01*
X217740Y59900D01*
X220280Y54820D01*
X215200Y57360D01*
X210120Y54820D01*
X230120D02*
X232660Y59900D01*
X230120Y64980D01*
X235200Y62440D01*
X240280Y64980D01*
X237740Y59900D01*
X240280Y54820D01*
X235200Y57360D01*
X230120Y54820D01*
X250120Y34820D02*
X252660Y39900D01*
X250120Y44980D01*
X255200Y42440D01*
X260280Y44980D01*
X257740Y39900D01*
X260280Y34820D01*
X255200Y37360D01*
X250120Y34820D01*
Y54820D02*
X252660Y59900D01*
X250120Y64980D01*
X255200Y62440D01*
X260280Y64980D01*
X257740Y59900D01*
X260280Y54820D01*
X255200Y57360D01*
X250120Y54820D01*
X270120Y34820D02*
X272660Y39900D01*
X270120Y44980D01*
X275200Y42440D01*
X280280Y44980D01*
X277740Y39900D01*
X280280Y34820D01*
X275200Y37360D01*
X270120Y34820D01*
Y54820D02*
X272660Y59900D01*
X270120Y64980D01*
X275200Y62440D01*
X280280Y64980D01*
X277740Y59900D01*
X280280Y54820D01*
X275200Y57360D01*
X270120Y54820D01*
X90120Y310920D02*
X92660Y316000D01*
X90120Y321080D01*
X95200Y318540D01*
X100280Y321080D01*
X97740Y316000D01*
X100280Y310920D01*
X95200Y313460D01*
X90120Y310920D01*
X110120D02*
X112660Y316000D01*
X110120Y321080D01*
X115200Y318540D01*
X120280Y321080D01*
X117740Y316000D01*
X120280Y310920D01*
X115200Y313460D01*
X110120Y310920D01*
X130120D02*
X132660Y316000D01*
X130120Y321080D01*
X135200Y318540D01*
X140280Y321080D01*
X137740Y316000D01*
X140280Y310920D01*
X135200Y313460D01*
X130120Y310920D01*
X150120D02*
X152660Y316000D01*
X150120Y321080D01*
X155200Y318540D01*
X160280Y321080D01*
X157740Y316000D01*
X160280Y310920D01*
X155200Y313460D01*
X150120Y310920D01*
X170120D02*
X172660Y316000D01*
X170120Y321080D01*
X175200Y318540D01*
X180280Y321080D01*
X177740Y316000D01*
X180280Y310920D01*
X175200Y313460D01*
X170120Y310920D01*
X190120D02*
X192660Y316000D01*
X190120Y321080D01*
X195200Y318540D01*
X200280Y321080D01*
X197740Y316000D01*
X200280Y310920D01*
X195200Y313460D01*
X190120Y310920D01*
X210120D02*
X212660Y316000D01*
X210120Y321080D01*
X215200Y318540D01*
X220280Y321080D01*
X217740Y316000D01*
X220280Y310920D01*
X215200Y313460D01*
X210120Y310920D01*
X230120D02*
X232660Y316000D01*
X230120Y321080D01*
X235200Y318540D01*
X240280Y321080D01*
X237740Y316000D01*
X240280Y310920D01*
X235200Y313460D01*
X230120Y310920D01*
X90120Y330920D02*
X92660Y336000D01*
X90120Y341080D01*
X95200Y338540D01*
X100280Y341080D01*
X97740Y336000D01*
X100280Y330920D01*
X95200Y333460D01*
X90120Y330920D01*
X110120D02*
X112660Y336000D01*
X110120Y341080D01*
X115200Y338540D01*
X120280Y341080D01*
X117740Y336000D01*
X120280Y330920D01*
X115200Y333460D01*
X110120Y330920D01*
X130120D02*
X132660Y336000D01*
X130120Y341080D01*
X135200Y338540D01*
X140280Y341080D01*
X137740Y336000D01*
X140280Y330920D01*
X135200Y333460D01*
X130120Y330920D01*
X150120D02*
X152660Y336000D01*
X150120Y341080D01*
X155200Y338540D01*
X160280Y341080D01*
X157740Y336000D01*
X160280Y330920D01*
X155200Y333460D01*
X150120Y330920D01*
X170120D02*
X172660Y336000D01*
X170120Y341080D01*
X175200Y338540D01*
X180280Y341080D01*
X177740Y336000D01*
X180280Y330920D01*
X175200Y333460D01*
X170120Y330920D01*
X190120D02*
X192660Y336000D01*
X190120Y341080D01*
X195200Y338540D01*
X200280Y341080D01*
X197740Y336000D01*
X200280Y330920D01*
X195200Y333460D01*
X190120Y330920D01*
X210120D02*
X212660Y336000D01*
X210120Y341080D01*
X215200Y338540D01*
X220280Y341080D01*
X217740Y336000D01*
X220280Y330920D01*
X215200Y333460D01*
X210120Y330920D01*
X230120D02*
X232660Y336000D01*
X230120Y341080D01*
X235200Y338540D01*
X240280Y341080D01*
X237740Y336000D01*
X240280Y330920D01*
X235200Y333460D01*
X230120Y330920D01*
X250120Y310920D02*
X252660Y316000D01*
X250120Y321080D01*
X255200Y318540D01*
X260280Y321080D01*
X257740Y316000D01*
X260280Y310920D01*
X255200Y313460D01*
X250120Y310920D01*
Y330920D02*
X252660Y336000D01*
X250120Y341080D01*
X255200Y338540D01*
X260280Y341080D01*
X257740Y336000D01*
X260280Y330920D01*
X255200Y333460D01*
X250120Y330920D01*
X270120Y310920D02*
X272660Y316000D01*
X270120Y321080D01*
X275200Y318540D01*
X280280Y321080D01*
X277740Y316000D01*
X280280Y310920D01*
X275200Y313460D01*
X270120Y310920D01*
Y330920D02*
X272660Y336000D01*
X270120Y341080D01*
X275200Y338540D01*
X280280Y341080D01*
X277740Y336000D01*
X280280Y330920D01*
X275200Y333460D01*
X270120Y330920D01*
X42920Y318020D02*
Y328180D01*
X53080D01*
Y318020D01*
X42920D01*
Y47920D02*
Y58080D01*
X53080D01*
Y47920D01*
X42920D01*
X422920Y318020D02*
Y328180D01*
X433080D01*
Y318020D01*
X422920D01*
Y47920D02*
Y58080D01*
X433080D01*
Y47920D01*
X422920D01*
X491540Y228316D02*
X493318Y231872D01*
X491540Y235428D01*
X495096Y233650D01*
X498652Y235428D01*
X496874Y231872D01*
X498652Y228316D01*
X495096Y230094D01*
X491540Y228316D01*
Y208316D02*
Y215428D01*
X498652D01*
Y208316D01*
X491540D01*
D59*
X134480Y133600D02*
G03*
X134480Y133600I-5080J0D01*
G01*
X161580Y160200D02*
G03*
X161580Y160200I-5080J0D01*
G01*
X154080Y171898D02*
G03*
X154080Y171898I-5080J0D01*
G01*
X148086Y178390D02*
G03*
X148086Y178390I-5080J0D01*
G01*
X142086Y172288D02*
G03*
X142086Y172288I-5080J0D01*
G01*
X142080Y185000D02*
G03*
X142080Y185000I-5080J0D01*
G01*
X116080Y254000D02*
G03*
X116080Y254000I-5080J0D01*
G01*
X127080Y247000D02*
G03*
X127080Y247000I-5080J0D01*
G01*
Y234000D02*
G03*
X127080Y234000I-5080J0D01*
G01*
X116080Y239000D02*
G03*
X116080Y239000I-5080J0D01*
G01*
X120080Y225000D02*
G03*
X120080Y225000I-5080J0D01*
G01*
X115580Y77000D02*
G03*
X115580Y77000I-5080J0D01*
G01*
Y97500D02*
G03*
X115580Y97500I-5080J0D01*
G01*
Y117000D02*
G03*
X115580Y117000I-5080J0D01*
G01*
Y137000D02*
G03*
X115580Y137000I-5080J0D01*
G01*
X106080Y87000D02*
G03*
X106080Y87000I-5080J0D01*
G01*
Y107000D02*
G03*
X106080Y107000I-5080J0D01*
G01*
Y127000D02*
G03*
X106080Y127000I-5080J0D01*
G01*
Y147000D02*
G03*
X106080Y147000I-5080J0D01*
G01*
X60080Y142000D02*
G03*
X60080Y142000I-5080J0D01*
G01*
Y162000D02*
G03*
X60080Y162000I-5080J0D01*
G01*
Y182000D02*
G03*
X60080Y182000I-5080J0D01*
G01*
Y202000D02*
G03*
X60080Y202000I-5080J0D01*
G01*
Y221000D02*
G03*
X60080Y221000I-5080J0D01*
G01*
Y242000D02*
G03*
X60080Y242000I-5080J0D01*
G01*
X287080Y161000D02*
G03*
X287080Y161000I-5080J0D01*
G01*
X276080D02*
G03*
X276080Y161000I-5080J0D01*
G01*
X148330Y138500D02*
G03*
X148330Y138500I-5080J0D01*
G01*
X155830D02*
G03*
X155830Y138500I-5080J0D01*
G01*
X311580Y181880D02*
G03*
X311580Y181880I-5080J0D01*
G01*
X196080Y80000D02*
G03*
X196080Y80000I-5080J0D01*
G01*
X179080D02*
G03*
X179080Y80000I-5080J0D01*
G01*
X161080Y102000D02*
G03*
X161080Y102000I-5080J0D01*
G01*
Y80000D02*
G03*
X161080Y80000I-5080J0D01*
G01*
X49080Y133000D02*
G03*
X49080Y133000I-5080J0D01*
G01*
Y153000D02*
G03*
X49080Y153000I-5080J0D01*
G01*
Y173000D02*
G03*
X49080Y173000I-5080J0D01*
G01*
Y193000D02*
G03*
X49080Y193000I-5080J0D01*
G01*
Y213000D02*
G03*
X49080Y213000I-5080J0D01*
G01*
Y234000D02*
G03*
X49080Y234000I-5080J0D01*
G01*
X260880Y76400D02*
G03*
X260880Y76400I-5080J0D01*
G01*
X186680Y99300D02*
G03*
X186680Y99300I-5080J0D01*
G01*
X274780Y75000D02*
G03*
X274780Y75000I-5080J0D01*
G01*
X213080Y277000D02*
G03*
X213080Y277000I-5080J0D01*
G01*
X221080D02*
G03*
X221080Y277000I-5080J0D01*
G01*
Y269000D02*
G03*
X221080Y269000I-5080J0D01*
G01*
X213080D02*
G03*
X213080Y269000I-5080J0D01*
G01*
X215080Y256000D02*
G03*
X215080Y256000I-5080J0D01*
G01*
X223080D02*
G03*
X223080Y256000I-5080J0D01*
G01*
X171080Y247000D02*
G03*
X171080Y247000I-5080J0D01*
G01*
Y255000D02*
G03*
X171080Y255000I-5080J0D01*
G01*
X163080D02*
G03*
X163080Y255000I-5080J0D01*
G01*
Y263000D02*
G03*
X163080Y263000I-5080J0D01*
G01*
X171080D02*
G03*
X171080Y263000I-5080J0D01*
G01*
Y271000D02*
G03*
X171080Y271000I-5080J0D01*
G01*
X163080D02*
G03*
X163080Y271000I-5080J0D01*
G01*
X162580Y193700D02*
G03*
X162580Y193700I-5080J0D01*
G01*
X159780Y234300D02*
G03*
X159780Y234300I-5080J0D01*
G01*
X202780Y296100D02*
G03*
X202780Y296100I-5080J0D01*
G01*
X228980Y287100D02*
G03*
X228980Y287100I-5080J0D01*
G01*
X169580Y234200D02*
G03*
X169580Y234200I-5080J0D01*
G01*
X150580Y160000D02*
G03*
X150580Y160000I-5080J0D01*
G01*
X202830Y175000D02*
G03*
X202830Y175000I-5080J0D01*
G01*
X194580Y298500D02*
G03*
X194580Y298500I-5080J0D01*
G01*
X195580Y106000D02*
G03*
X195580Y106000I-5080J0D01*
G01*
X202080Y234000D02*
G03*
X202080Y234000I-5080J0D01*
G01*
X136580Y160200D02*
G03*
X136580Y160200I-5080J0D01*
G01*
X250080Y256000D02*
G03*
X250080Y256000I-5080J0D01*
G01*
X163330Y138500D02*
G03*
X163330Y138500I-5080J0D01*
G01*
X158980Y122900D02*
G03*
X158980Y122900I-5080J0D01*
G01*
X323080Y125000D02*
G03*
X323080Y125000I-5080J0D01*
G01*
X315080D02*
G03*
X315080Y125000I-5080J0D01*
G01*
X307080D02*
G03*
X307080Y125000I-5080J0D01*
G01*
X299080D02*
G03*
X299080Y125000I-5080J0D01*
G01*
X323080Y232000D02*
G03*
X323080Y232000I-5080J0D01*
G01*
X315080D02*
G03*
X315080Y232000I-5080J0D01*
G01*
X307080D02*
G03*
X307080Y232000I-5080J0D01*
G01*
X299080D02*
G03*
X299080Y232000I-5080J0D01*
G01*
X323080Y338000D02*
G03*
X323080Y338000I-5080J0D01*
G01*
X315080D02*
G03*
X315080Y338000I-5080J0D01*
G01*
X307080D02*
G03*
X307080Y338000I-5080J0D01*
G01*
X299080D02*
G03*
X299080Y338000I-5080J0D01*
G01*
X311080Y116500D02*
G03*
X311080Y116500I-5080J0D01*
G01*
Y75580D02*
G03*
X311080Y75580I-5080J0D01*
G01*
X311580Y222920D02*
G03*
X311580Y222920I-5080J0D01*
G01*
X312080Y288000D02*
G03*
X312080Y288000I-5080J0D01*
G01*
Y328920D02*
G03*
X312080Y328920I-5080J0D01*
G01*
X365080Y91000D02*
G03*
X365080Y91000I-5080J0D01*
G01*
X355080D02*
G03*
X355080Y91000I-5080J0D01*
G01*
X345080D02*
G03*
X345080Y91000I-5080J0D01*
G01*
X365080Y101000D02*
G03*
X365080Y101000I-5080J0D01*
G01*
X355080D02*
G03*
X355080Y101000I-5080J0D01*
G01*
X345080D02*
G03*
X345080Y101000I-5080J0D01*
G01*
X365080Y111000D02*
G03*
X365080Y111000I-5080J0D01*
G01*
X355080D02*
G03*
X355080Y111000I-5080J0D01*
G01*
X345080D02*
G03*
X345080Y111000I-5080J0D01*
G01*
X365080Y121000D02*
G03*
X365080Y121000I-5080J0D01*
G01*
X355080D02*
G03*
X355080Y121000I-5080J0D01*
G01*
X345080D02*
G03*
X345080Y121000I-5080J0D01*
G01*
X365080Y201000D02*
G03*
X365080Y201000I-5080J0D01*
G01*
X355080D02*
G03*
X355080Y201000I-5080J0D01*
G01*
X345080D02*
G03*
X345080Y201000I-5080J0D01*
G01*
X365080Y211000D02*
G03*
X365080Y211000I-5080J0D01*
G01*
X355080D02*
G03*
X355080Y211000I-5080J0D01*
G01*
X345080D02*
G03*
X345080Y211000I-5080J0D01*
G01*
X365080Y221000D02*
G03*
X365080Y221000I-5080J0D01*
G01*
X355080D02*
G03*
X355080Y221000I-5080J0D01*
G01*
X345080D02*
G03*
X345080Y221000I-5080J0D01*
G01*
X365080Y231000D02*
G03*
X365080Y231000I-5080J0D01*
G01*
X355080D02*
G03*
X355080Y231000I-5080J0D01*
G01*
X345080D02*
G03*
X345080Y231000I-5080J0D01*
G01*
X365080Y306000D02*
G03*
X365080Y306000I-5080J0D01*
G01*
X355080D02*
G03*
X355080Y306000I-5080J0D01*
G01*
X345080D02*
G03*
X345080Y306000I-5080J0D01*
G01*
X365080Y316000D02*
G03*
X365080Y316000I-5080J0D01*
G01*
X355080D02*
G03*
X355080Y316000I-5080J0D01*
G01*
X345080D02*
G03*
X345080Y316000I-5080J0D01*
G01*
X365080Y326000D02*
G03*
X365080Y326000I-5080J0D01*
G01*
X355080D02*
G03*
X355080Y326000I-5080J0D01*
G01*
X345080D02*
G03*
X345080Y326000I-5080J0D01*
G01*
X365080Y336000D02*
G03*
X365080Y336000I-5080J0D01*
G01*
X355080D02*
G03*
X355080Y336000I-5080J0D01*
G01*
X345080D02*
G03*
X345080Y336000I-5080J0D01*
G01*
X219380Y192700D02*
G03*
X219380Y192700I-5080J0D01*
G01*
X222280Y224700D02*
G03*
X222280Y224700I-5080J0D01*
G01*
X213180Y224600D02*
G03*
X213180Y224600I-5080J0D01*
G01*
X43780Y313900D02*
G03*
X43780Y313900I-5080J0D01*
G01*
X62280D02*
G03*
X62280Y313900I-5080J0D01*
G01*
X40080Y323100D02*
G03*
X40080Y323100I-5080J0D01*
G01*
X53080Y336100D02*
G03*
X53080Y336100I-5080J0D01*
G01*
X66080Y323100D02*
G03*
X66080Y323100I-5080J0D01*
G01*
X53080Y310100D02*
G03*
X53080Y310100I-5080J0D01*
G01*
X43380Y331900D02*
G03*
X43380Y331900I-5080J0D01*
G01*
X63180Y331600D02*
G03*
X63180Y331600I-5080J0D01*
G01*
Y61500D02*
G03*
X63180Y61500I-5080J0D01*
G01*
X43380Y61800D02*
G03*
X43380Y61800I-5080J0D01*
G01*
X53080Y40000D02*
G03*
X53080Y40000I-5080J0D01*
G01*
X66080Y53000D02*
G03*
X66080Y53000I-5080J0D01*
G01*
X53080Y66000D02*
G03*
X53080Y66000I-5080J0D01*
G01*
X40080Y53000D02*
G03*
X40080Y53000I-5080J0D01*
G01*
X62280Y43800D02*
G03*
X62280Y43800I-5080J0D01*
G01*
X43780D02*
G03*
X43780Y43800I-5080J0D01*
G01*
X443180Y331600D02*
G03*
X443180Y331600I-5080J0D01*
G01*
X423380Y331900D02*
G03*
X423380Y331900I-5080J0D01*
G01*
X433080Y310100D02*
G03*
X433080Y310100I-5080J0D01*
G01*
X446080Y323100D02*
G03*
X446080Y323100I-5080J0D01*
G01*
X433080Y336100D02*
G03*
X433080Y336100I-5080J0D01*
G01*
X420080Y323100D02*
G03*
X420080Y323100I-5080J0D01*
G01*
X442280Y313900D02*
G03*
X442280Y313900I-5080J0D01*
G01*
X423780D02*
G03*
X423780Y313900I-5080J0D01*
G01*
X443180Y61500D02*
G03*
X443180Y61500I-5080J0D01*
G01*
X423380Y61800D02*
G03*
X423380Y61800I-5080J0D01*
G01*
X433080Y40000D02*
G03*
X433080Y40000I-5080J0D01*
G01*
X446080Y53000D02*
G03*
X446080Y53000I-5080J0D01*
G01*
X433080Y66000D02*
G03*
X433080Y66000I-5080J0D01*
G01*
X420080Y53000D02*
G03*
X420080Y53000I-5080J0D01*
G01*
X442280Y43800D02*
G03*
X442280Y43800I-5080J0D01*
G01*
X423780D02*
G03*
X423780Y43800I-5080J0D01*
G01*
D60*
X499537Y280869D02*
X497538Y282868D01*
X493539D01*
X491540Y280869D01*
Y278870D01*
X493539Y276870D01*
X497538D01*
X499537Y274871D01*
Y272872D01*
X497538Y270872D01*
X493539D01*
X491540Y272872D01*
X503536Y278870D02*
Y272872D01*
X505536Y270872D01*
X511534D01*
Y268873D01*
X509534Y266874D01*
X507535D01*
X511534Y270872D02*
Y278870D01*
X515532Y270872D02*
Y278870D01*
X517532D01*
X519531Y276870D01*
Y270872D01*
Y276870D01*
X521530Y278870D01*
X523530Y276870D01*
Y270872D01*
X527528Y282868D02*
Y270872D01*
X533526D01*
X535526Y272872D01*
Y274871D01*
Y276870D01*
X533526Y278870D01*
X527528D01*
X541524Y270872D02*
X545522D01*
X547522Y272872D01*
Y276870D01*
X545522Y278870D01*
X541524D01*
X539524Y276870D01*
Y272872D01*
X541524Y270872D01*
X551521D02*
X555519D01*
X553520D01*
Y282868D01*
X551521D01*
X579711D02*
Y270872D01*
Y276870D01*
X587709D01*
Y282868D01*
Y270872D01*
X591707D02*
X595706D01*
X593707D01*
Y278870D01*
X591707D01*
X603703Y280869D02*
Y278870D01*
X601704D01*
X605703D01*
X603703D01*
Y272872D01*
X605703Y270872D01*
X631694Y280869D02*
X629695Y282868D01*
X625696D01*
X623697Y280869D01*
Y272872D01*
X625696Y270872D01*
X629695D01*
X631694Y272872D01*
X637692Y270872D02*
X641691D01*
X643691Y272872D01*
Y276870D01*
X641691Y278870D01*
X637692D01*
X635693Y276870D01*
Y272872D01*
X637692Y270872D01*
X647689Y278870D02*
Y272872D01*
X649689Y270872D01*
X655687D01*
Y278870D01*
X659685Y270872D02*
Y278870D01*
X665684D01*
X667683Y276870D01*
Y270872D01*
X673681Y280869D02*
Y278870D01*
X671682D01*
X675680D01*
X673681D01*
Y272872D01*
X675680Y270872D01*
X707870Y282868D02*
X699872D01*
Y276870D01*
X703871D01*
X699872D01*
Y270872D01*
X711868D02*
X715867D01*
X713868D01*
Y278870D01*
X711868D01*
X721865Y270872D02*
Y278870D01*
X727863D01*
X729863Y276870D01*
Y270872D01*
X733861D02*
X737860D01*
X735861D01*
Y278870D01*
X733861D01*
X743858Y270872D02*
X749856D01*
X751855Y272872D01*
X749856Y274871D01*
X745857D01*
X743858Y276870D01*
X745857Y278870D01*
X751855D01*
X755854Y282868D02*
Y270872D01*
Y276870D01*
X757853Y278870D01*
X761852D01*
X763851Y276870D01*
Y270872D01*
X773848D02*
X769850D01*
X767850Y272872D01*
Y276870D01*
X769850Y278870D01*
X773848D01*
X775848Y276870D01*
Y274871D01*
X767850D01*
X787844Y282868D02*
Y270872D01*
X781846D01*
X779846Y272872D01*
Y276870D01*
X781846Y278870D01*
X787844D01*
X803839Y282868D02*
Y270872D01*
Y276870D01*
X811836D01*
Y282868D01*
Y270872D01*
X817834D02*
X821833D01*
X823832Y272872D01*
Y276870D01*
X821833Y278870D01*
X817834D01*
X815835Y276870D01*
Y272872D01*
X817834Y270872D01*
X827831D02*
X831830D01*
X829830D01*
Y282868D01*
X827831D01*
X843826Y270872D02*
X839827D01*
X837828Y272872D01*
Y276870D01*
X839827Y278870D01*
X843826D01*
X845825Y276870D01*
Y274871D01*
X837828D01*
X869817Y280869D02*
X867818Y282868D01*
X863819D01*
X861820Y280869D01*
Y278870D01*
X863819Y276870D01*
X867818D01*
X869817Y274871D01*
Y272872D01*
X867818Y270872D01*
X863819D01*
X861820Y272872D01*
X873816Y270872D02*
X877815D01*
X875815D01*
Y278870D01*
X873816D01*
X883813D02*
X891810D01*
X883813Y270872D01*
X891810D01*
X901807D02*
X897808D01*
X895809Y272872D01*
Y276870D01*
X897808Y278870D01*
X901807D01*
X903806Y276870D01*
Y274871D01*
X895809D01*
X927998Y270872D02*
Y282868D01*
X933996D01*
X935996Y280869D01*
Y276870D01*
X933996Y274871D01*
X927998D01*
X939994Y270872D02*
X943993D01*
X941994D01*
Y282868D01*
X939994D01*
X951991Y278870D02*
X955989D01*
X957989Y276870D01*
Y270872D01*
X951991D01*
X949991Y272872D01*
X951991Y274871D01*
X957989D01*
X963987Y280869D02*
Y278870D01*
X961987D01*
X965986D01*
X963987D01*
Y272872D01*
X965986Y270872D01*
X977982D02*
X973983D01*
X971984Y272872D01*
Y276870D01*
X973983Y278870D01*
X977982D01*
X979982Y276870D01*
Y274871D01*
X971984D01*
X991978Y282868D02*
Y270872D01*
X985980D01*
X983980Y272872D01*
Y276870D01*
X985980Y278870D01*
X991978D01*
X1016170Y282868D02*
Y270872D01*
Y276870D01*
X1024167D01*
Y282868D01*
Y270872D01*
X1030165D02*
X1034164D01*
X1036163Y272872D01*
Y276870D01*
X1034164Y278870D01*
X1030165D01*
X1028166Y276870D01*
Y272872D01*
X1030165Y270872D01*
X1040162D02*
X1044161D01*
X1042161D01*
Y282868D01*
X1040162D01*
X1056157Y270872D02*
X1052158D01*
X1050159Y272872D01*
Y276870D01*
X1052158Y278870D01*
X1056157D01*
X1058156Y276870D01*
Y274871D01*
X1050159D01*
X1074151Y282868D02*
X1082148D01*
X1078149D01*
Y270872D01*
X1086147Y278870D02*
Y272872D01*
X1088146Y270872D01*
X1094144D01*
Y268873D01*
X1092145Y266874D01*
X1090146D01*
X1094144Y270872D02*
Y278870D01*
X1098143Y266874D02*
Y278870D01*
X1104141D01*
X1106141Y276870D01*
Y272872D01*
X1104141Y270872D01*
X1098143D01*
X1116137D02*
X1112139D01*
X1110139Y272872D01*
Y276870D01*
X1112139Y278870D01*
X1116137D01*
X1118137Y276870D01*
Y274871D01*
X1110139D01*
X475476Y288872D02*
X1142329D01*
X475476Y261872D02*
X1142329D01*
X475476Y288872D02*
Y181872D01*
X1142329Y288872D02*
Y181872D01*
X571679Y288872D02*
Y181872D01*
X691840Y288872D02*
Y181872D01*
X919966Y288872D02*
Y181872D01*
X1008138Y288872D02*
Y181872D01*
X475476Y201872D02*
X1142329D01*
X475476Y181872D02*
X1142329D01*
D61*
X498652Y251872D02*
G03*
X498652Y251872I-3556J0D01*
G01*
M02*
