G04*
G04 #@! TF.GenerationSoftware,Altium Limited,Altium Designer,23.8.1 (32)*
G04*
G04 Layer_Physical_Order=4*
G04 Layer_Color=16711680*
%FSLAX44Y44*%
%MOMM*%
G71*
G04*
G04 #@! TF.SameCoordinates,92C49762-E6E1-4201-94AC-3A3CAB1C571E*
G04*
G04*
G04 #@! TF.FilePolarity,Positive*
G04*
G01*
G75*
%ADD10C,0.2000*%
%ADD13C,0.5000*%
%ADD14C,0.2500*%
%ADD25R,0.5000X0.4000*%
%ADD39R,0.4000X0.5000*%
%ADD44C,1.6000*%
%ADD45R,1.6000X1.6000*%
%ADD46C,3.2000*%
%ADD49C,0.1000*%
%ADD50C,0.3000*%
%ADD53C,0.5000*%
%ADD54C,0.3000*%
%ADD59R,0.4500X1.0000*%
%ADD60R,1.3000X1.1000*%
G04:AMPARAMS|DCode=61|XSize=0.55mm|YSize=0.8mm|CornerRadius=0.0495mm|HoleSize=0mm|Usage=FLASHONLY|Rotation=90.000|XOffset=0mm|YOffset=0mm|HoleType=Round|Shape=RoundedRectangle|*
%AMROUNDEDRECTD61*
21,1,0.5500,0.7010,0,0,90.0*
21,1,0.4510,0.8000,0,0,90.0*
1,1,0.0990,0.3505,0.2255*
1,1,0.0990,0.3505,-0.2255*
1,1,0.0990,-0.3505,-0.2255*
1,1,0.0990,-0.3505,0.2255*
%
%ADD61ROUNDEDRECTD61*%
%ADD62R,0.2540X0.2540*%
G04:AMPARAMS|DCode=63|XSize=1.8052mm|YSize=0.6098mm|CornerRadius=0.3049mm|HoleSize=0mm|Usage=FLASHONLY|Rotation=270.000|XOffset=0mm|YOffset=0mm|HoleType=Round|Shape=RoundedRectangle|*
%AMROUNDEDRECTD63*
21,1,1.8052,0.0000,0,0,270.0*
21,1,1.1954,0.6098,0,0,270.0*
1,1,0.6098,0.0000,-0.5977*
1,1,0.6098,0.0000,0.5977*
1,1,0.6098,0.0000,0.5977*
1,1,0.6098,0.0000,-0.5977*
%
%ADD63ROUNDEDRECTD63*%
%ADD64R,0.6098X1.8052*%
%ADD65R,0.2286X0.3048*%
G36*
X516865Y539487D02*
X520664Y538469D01*
X524297Y536964D01*
X527703Y534998D01*
X530823Y532604D01*
X533604Y529823D01*
X535998Y526703D01*
X537964Y523297D01*
X539469Y519664D01*
X540487Y515865D01*
X541000Y511966D01*
Y510000D01*
Y50000D01*
Y48034D01*
X540487Y44135D01*
X539469Y40336D01*
X537964Y36703D01*
X535998Y33297D01*
X533604Y30177D01*
X530823Y27396D01*
X527703Y25002D01*
X524297Y23036D01*
X520664Y21531D01*
X516865Y20513D01*
X512966Y20000D01*
X49034D01*
X45135Y20513D01*
X41336Y21531D01*
X37703Y23036D01*
X34297Y25002D01*
X31177Y27396D01*
X28396Y30177D01*
X26002Y33297D01*
X24036Y36703D01*
X22531Y40336D01*
X21513Y44135D01*
X21000Y48034D01*
Y50000D01*
Y510000D01*
Y511966D01*
X21513Y515865D01*
X22531Y519664D01*
X24036Y523297D01*
X26002Y526703D01*
X28396Y529823D01*
X31177Y532604D01*
X34297Y534998D01*
X37703Y536964D01*
X41336Y538469D01*
X45135Y539487D01*
X49034Y540000D01*
X512966D01*
X516865Y539487D01*
D02*
G37*
%LPC*%
G36*
X345816Y498800D02*
X343184D01*
X340640Y498119D01*
X338360Y496802D01*
X336498Y494940D01*
X335182Y492660D01*
X334500Y490117D01*
Y487483D01*
X335182Y484940D01*
X336498Y482660D01*
X338360Y480798D01*
X339588Y480089D01*
X338908Y477549D01*
X333956D01*
X327740Y483765D01*
X328419Y484940D01*
X329100Y487483D01*
Y490117D01*
X328419Y492660D01*
X327102Y494940D01*
X325240Y496802D01*
X322960Y498119D01*
X320416Y498800D01*
X317784D01*
X315240Y498119D01*
X312960Y496802D01*
X311098Y494940D01*
X309781Y492660D01*
X309100Y490117D01*
Y487483D01*
X309781Y484940D01*
X311098Y482660D01*
X312960Y480798D01*
X315240Y479482D01*
X317784Y478800D01*
X320416D01*
X322960Y479482D01*
X324135Y480160D01*
X331098Y473198D01*
X331925Y472645D01*
X332900Y472451D01*
X376987D01*
X383451Y465987D01*
Y424000D01*
X379000D01*
Y417226D01*
X377698Y415924D01*
X377145Y415097D01*
X376951Y414121D01*
Y401556D01*
X374944Y399549D01*
X342090D01*
X341114Y399355D01*
X340287Y398802D01*
X330589Y389104D01*
X328049Y389922D01*
Y399157D01*
X327855Y400132D01*
X327302Y400959D01*
X320549Y407713D01*
Y459000D01*
X320355Y459976D01*
X319802Y460802D01*
X302802Y477802D01*
X301975Y478355D01*
X301018Y478545D01*
X300945Y478656D01*
X300333Y479842D01*
X300131Y481089D01*
X301702Y482660D01*
X303018Y484940D01*
X303700Y487483D01*
Y490117D01*
X303018Y492660D01*
X301702Y494940D01*
X299840Y496802D01*
X297560Y498119D01*
X295016Y498800D01*
X292383D01*
X289840Y498119D01*
X287560Y496802D01*
X285698Y494940D01*
X284382Y492660D01*
X283700Y490117D01*
Y487483D01*
X284382Y484940D01*
X285698Y482660D01*
X287269Y481089D01*
X287072Y479871D01*
X286375Y478549D01*
X282156D01*
X276940Y483765D01*
X277619Y484940D01*
X278300Y487483D01*
Y490117D01*
X277619Y492660D01*
X276302Y494940D01*
X274440Y496802D01*
X272160Y498119D01*
X269617Y498800D01*
X266984D01*
X264440Y498119D01*
X262160Y496802D01*
X260298Y494940D01*
X258981Y492660D01*
X258300Y490117D01*
Y487483D01*
X258981Y484940D01*
X260298Y482660D01*
X262160Y480798D01*
X264440Y479482D01*
X265905Y479089D01*
X265571Y476549D01*
X258756D01*
X251540Y483765D01*
X252218Y484940D01*
X252900Y487483D01*
Y490117D01*
X252218Y492660D01*
X250902Y494940D01*
X249040Y496802D01*
X246760Y498119D01*
X244216Y498800D01*
X241583D01*
X239040Y498119D01*
X236760Y496802D01*
X234898Y494940D01*
X233582Y492660D01*
X232900Y490117D01*
Y487483D01*
X233582Y484940D01*
X234898Y482660D01*
X236760Y480798D01*
X239040Y479482D01*
X241583Y478800D01*
X244216D01*
X246760Y479482D01*
X247935Y480160D01*
X251200Y476896D01*
X250228Y474549D01*
X235356D01*
X226140Y483765D01*
X226819Y484940D01*
X227500Y487483D01*
Y490117D01*
X226819Y492660D01*
X225502Y494940D01*
X223640Y496802D01*
X221360Y498119D01*
X218817Y498800D01*
X216183D01*
X213640Y498119D01*
X211360Y496802D01*
X209498Y494940D01*
X208181Y492660D01*
X207500Y490117D01*
Y487483D01*
X208181Y484940D01*
X209498Y482660D01*
X211360Y480798D01*
X213640Y479482D01*
X216183Y478800D01*
X218817D01*
X221360Y479482D01*
X222535Y480160D01*
X232498Y470198D01*
X233325Y469645D01*
X234300Y469451D01*
X297944D01*
X311451Y455944D01*
Y405000D01*
X311645Y404025D01*
X312198Y403198D01*
X315451Y399944D01*
Y334000D01*
X315645Y333025D01*
X316198Y332198D01*
X318451Y329944D01*
Y230000D01*
X318645Y229025D01*
X319198Y228198D01*
X323951Y223444D01*
Y180631D01*
X321451D01*
Y158579D01*
X321829D01*
X322542Y156941D01*
X322744Y156039D01*
X321744Y154542D01*
X321551Y153574D01*
X318962D01*
X318797Y154401D01*
X318023Y155559D01*
X305759Y167823D01*
X304601Y168597D01*
X303235Y168869D01*
X204039D01*
Y174000D01*
X203884Y174780D01*
X203442Y175442D01*
X202780Y175884D01*
X202000Y176039D01*
X153000D01*
X152220Y175884D01*
X151558Y175442D01*
X151116Y174780D01*
X150961Y174000D01*
Y162719D01*
X141580D01*
Y175030D01*
X133080D01*
Y173792D01*
X131009Y172659D01*
X122009D01*
Y166200D01*
X122009Y164659D01*
X122009D01*
X122010Y163660D01*
X122010D01*
Y156539D01*
X120500D01*
X119720Y156384D01*
X119058Y155942D01*
X118616Y155280D01*
X118461Y154500D01*
Y134000D01*
X118616Y133220D01*
X119058Y132558D01*
X119720Y132116D01*
X120500Y131961D01*
X134230D01*
Y129299D01*
X134186Y129080D01*
X134230Y128861D01*
Y125810D01*
X134317D01*
Y125016D01*
X134472Y124236D01*
X134914Y123574D01*
X135575Y123132D01*
X136356Y122977D01*
X138642D01*
X139961Y120670D01*
Y116500D01*
X140116Y115720D01*
X140558Y115058D01*
X141220Y114616D01*
X142000Y114461D01*
X193000D01*
X193780Y114616D01*
X194442Y115058D01*
X194884Y115720D01*
X195039Y116500D01*
Y133961D01*
X227500D01*
X228280Y134116D01*
X228942Y134558D01*
X229384Y135220D01*
X229539Y136000D01*
Y136451D01*
X300944D01*
X305198Y132198D01*
X306024Y131645D01*
X307000Y131451D01*
X322294D01*
X323000Y130395D01*
Y128605D01*
X323195Y128135D01*
X323105Y128000D01*
X321451Y127315D01*
X320185Y126049D01*
X319500Y124395D01*
Y122605D01*
X320185Y120951D01*
X321451Y119685D01*
X323105Y119000D01*
X324895D01*
X326549Y119685D01*
X326805Y119941D01*
X447700D01*
X447700Y119941D01*
X448871Y120174D01*
X449863Y120837D01*
X452826Y123800D01*
X453895D01*
X455549Y124485D01*
X456815Y125751D01*
X457500Y127405D01*
Y129195D01*
X456815Y130849D01*
X455549Y132115D01*
X454194Y132676D01*
X453604Y133977D01*
X453266Y135340D01*
X457963Y140037D01*
X457963Y140037D01*
X458626Y141030D01*
X458859Y142200D01*
X458859Y142200D01*
Y202633D01*
X463126Y206900D01*
X464195D01*
X465849Y207585D01*
X467115Y208851D01*
X467800Y210505D01*
Y212295D01*
X467115Y213949D01*
X465849Y215215D01*
X464195Y215900D01*
X462405D01*
X460751Y215215D01*
X459485Y213949D01*
X458800Y212295D01*
Y211226D01*
X453637Y206063D01*
X452974Y205071D01*
X452741Y203900D01*
X452741Y203900D01*
Y143467D01*
X441833Y132559D01*
X351482D01*
X350510Y134905D01*
X352802Y137198D01*
X353355Y138025D01*
X353549Y139000D01*
Y216500D01*
X353355Y217475D01*
X352802Y218302D01*
X350951Y220153D01*
X351669Y223028D01*
X352049Y223185D01*
X353315Y224451D01*
X354000Y226105D01*
Y227174D01*
X355867Y229041D01*
X449695D01*
X450251Y228485D01*
X451905Y227800D01*
X453695D01*
X455349Y228485D01*
X456615Y229751D01*
X457300Y231405D01*
Y233195D01*
X456615Y234849D01*
X455349Y236115D01*
X453695Y236800D01*
X451905D01*
X450251Y236115D01*
X449295Y235159D01*
X354600D01*
X354600Y235159D01*
X353429Y234926D01*
X352437Y234263D01*
X352437Y234263D01*
X351166Y232992D01*
X348258Y233676D01*
X348127Y234068D01*
X348173Y234568D01*
X352802Y239198D01*
X353355Y240025D01*
X353549Y241000D01*
Y328000D01*
X353355Y328975D01*
X352802Y329802D01*
X340639Y341966D01*
X342258Y343939D01*
X342530Y343757D01*
X344500Y343365D01*
X346470Y343757D01*
X348140Y344873D01*
X349256Y346543D01*
X349648Y348513D01*
Y359527D01*
X349787Y359585D01*
X351053Y360851D01*
X351738Y362505D01*
Y364295D01*
X351053Y365949D01*
X350374Y366628D01*
X350958Y367212D01*
X351643Y368866D01*
Y370657D01*
X350958Y372310D01*
X349692Y373576D01*
X349648Y373595D01*
Y383477D01*
X349256Y385447D01*
X348278Y386911D01*
X348516Y387930D01*
X349219Y389451D01*
X378323D01*
X378576Y389198D01*
X379403Y388645D01*
X380379Y388451D01*
X387000D01*
X387975Y388645D01*
X388802Y389198D01*
X393802Y394198D01*
X394355Y395025D01*
X394549Y396000D01*
Y467944D01*
X396802Y470198D01*
X397355Y471025D01*
X397549Y472000D01*
Y479050D01*
X399160Y479482D01*
X401440Y480798D01*
X403302Y482660D01*
X404618Y484940D01*
X405300Y487483D01*
Y490117D01*
X404618Y492660D01*
X403302Y494940D01*
X401440Y496802D01*
X399160Y498119D01*
X396617Y498800D01*
X393983D01*
X391440Y498119D01*
X389160Y496802D01*
X387298Y494940D01*
X385981Y492660D01*
X385300Y490117D01*
Y487483D01*
X385981Y484940D01*
X387298Y482660D01*
X389160Y480798D01*
X391440Y479482D01*
X392451Y479211D01*
Y473446D01*
X390379Y471926D01*
X378540Y483765D01*
X379218Y484940D01*
X379900Y487483D01*
Y490117D01*
X379218Y492660D01*
X377902Y494940D01*
X376040Y496802D01*
X373760Y498119D01*
X371217Y498800D01*
X368583D01*
X366040Y498119D01*
X363760Y496802D01*
X361898Y494940D01*
X360582Y492660D01*
X359900Y490117D01*
Y487483D01*
X360582Y484940D01*
X361898Y482660D01*
X362469Y482089D01*
X361417Y479549D01*
X357356D01*
X353140Y483765D01*
X353819Y484940D01*
X354500Y487483D01*
Y490117D01*
X353819Y492660D01*
X352502Y494940D01*
X350640Y496802D01*
X348360Y498119D01*
X345816Y498800D01*
D02*
G37*
G36*
X414395Y469000D02*
X412605D01*
X410951Y468315D01*
X409685Y467049D01*
X409000Y465395D01*
Y463605D01*
X409685Y461951D01*
X410951Y460685D01*
X412605Y460000D01*
X414395D01*
X416049Y460685D01*
X417315Y461951D01*
X418000Y463605D01*
Y465395D01*
X417315Y467049D01*
X416049Y468315D01*
X414395Y469000D01*
D02*
G37*
G36*
X480895Y459500D02*
X479105D01*
X477451Y458815D01*
X476185Y457549D01*
X475500Y455895D01*
Y454105D01*
X476185Y452451D01*
X477451Y451185D01*
X479105Y450500D01*
X480895D01*
X482549Y451185D01*
X483815Y452451D01*
X484500Y454105D01*
Y455895D01*
X483815Y457549D01*
X482549Y458815D01*
X480895Y459500D01*
D02*
G37*
G36*
X467395D02*
X465605D01*
X463951Y458815D01*
X462685Y457549D01*
X462000Y455895D01*
Y454105D01*
X462685Y452451D01*
X463951Y451185D01*
X465605Y450500D01*
X467395D01*
X469049Y451185D01*
X470315Y452451D01*
X471000Y454105D01*
Y455895D01*
X470315Y457549D01*
X469049Y458815D01*
X467395Y459500D01*
D02*
G37*
G36*
X447895D02*
X446105D01*
X444451Y458815D01*
X443185Y457549D01*
X442500Y455895D01*
Y454105D01*
X443185Y452451D01*
X444451Y451185D01*
X446105Y450500D01*
X447895D01*
X449549Y451185D01*
X450815Y452451D01*
X451500Y454105D01*
Y455895D01*
X450815Y457549D01*
X449549Y458815D01*
X447895Y459500D01*
D02*
G37*
G36*
X435895D02*
X434105D01*
X432451Y458815D01*
X431185Y457549D01*
X430500Y455895D01*
Y454105D01*
X431185Y452451D01*
X432451Y451185D01*
X434105Y450500D01*
X435895D01*
X437549Y451185D01*
X438815Y452451D01*
X439500Y454105D01*
Y455895D01*
X438815Y457549D01*
X437549Y458815D01*
X435895Y459500D01*
D02*
G37*
G36*
X414395Y454500D02*
X412605D01*
X410951Y453815D01*
X409685Y452549D01*
X409000Y450895D01*
Y449105D01*
X409685Y447451D01*
X410951Y446185D01*
X412605Y445500D01*
X414395D01*
X416049Y446185D01*
X417315Y447451D01*
X418000Y449105D01*
Y450895D01*
X417315Y452549D01*
X416049Y453815D01*
X414395Y454500D01*
D02*
G37*
G36*
X348895Y447500D02*
X347105D01*
X345451Y446815D01*
X344185Y445549D01*
X343500Y443895D01*
Y442105D01*
X344185Y440451D01*
X345451Y439185D01*
X347105Y438500D01*
X348895D01*
X350549Y439185D01*
X351815Y440451D01*
X352500Y442105D01*
Y443895D01*
X351815Y445549D01*
X350549Y446815D01*
X348895Y447500D01*
D02*
G37*
G36*
X481395Y439500D02*
X479605D01*
X477951Y438815D01*
X476685Y437549D01*
X476000Y435895D01*
Y434105D01*
X476685Y432451D01*
X477951Y431185D01*
X479605Y430500D01*
X481395D01*
X483049Y431185D01*
X484315Y432451D01*
X485000Y434105D01*
Y435895D01*
X484315Y437549D01*
X483049Y438815D01*
X481395Y439500D01*
D02*
G37*
G36*
X426895Y430500D02*
X425105D01*
X423451Y429815D01*
X422185Y428549D01*
X421500Y426895D01*
Y425105D01*
X422185Y423451D01*
X423451Y422185D01*
X425105Y421500D01*
X426895D01*
X428549Y422185D01*
X429815Y423451D01*
X430500Y425105D01*
Y426895D01*
X429815Y428549D01*
X428549Y429815D01*
X426895Y430500D01*
D02*
G37*
G36*
X414895D02*
X413105D01*
X411451Y429815D01*
X410185Y428549D01*
X409500Y426895D01*
Y425105D01*
X410185Y423451D01*
X411451Y422185D01*
X413105Y421500D01*
X414895D01*
X416549Y422185D01*
X417815Y423451D01*
X418500Y425105D01*
Y426895D01*
X417815Y428549D01*
X416549Y429815D01*
X414895Y430500D01*
D02*
G37*
G36*
X402895D02*
X401105D01*
X399451Y429815D01*
X398185Y428549D01*
X397500Y426895D01*
Y425105D01*
X398185Y423451D01*
X399451Y422185D01*
X401105Y421500D01*
X402895D01*
X404549Y422185D01*
X405815Y423451D01*
X406500Y425105D01*
Y426895D01*
X405815Y428549D01*
X404549Y429815D01*
X402895Y430500D01*
D02*
G37*
G36*
X481395Y426500D02*
X479605D01*
X477951Y425815D01*
X476685Y424549D01*
X476000Y422895D01*
Y421105D01*
X476685Y419451D01*
X477951Y418185D01*
X479605Y417500D01*
X481395D01*
X483049Y418185D01*
X484315Y419451D01*
X485000Y421105D01*
Y422895D01*
X484315Y424549D01*
X483049Y425815D01*
X481395Y426500D01*
D02*
G37*
G36*
X280895Y445500D02*
X279105D01*
X277451Y444815D01*
X276185Y443549D01*
X275500Y441895D01*
Y440105D01*
X276185Y438451D01*
X277183Y437453D01*
X277330Y436000D01*
X277183Y434547D01*
X276185Y433549D01*
X275500Y431895D01*
Y430105D01*
X276185Y428451D01*
X277451Y427185D01*
X278268Y426847D01*
Y424153D01*
X277451Y423815D01*
X276185Y422549D01*
X275500Y420895D01*
Y419105D01*
X276185Y417451D01*
X277451Y416185D01*
X279105Y415500D01*
X280895D01*
X282549Y416185D01*
X283815Y417451D01*
X284500Y419105D01*
Y420895D01*
X283815Y422549D01*
X282549Y423815D01*
X281732Y424153D01*
Y426847D01*
X282549Y427185D01*
X283815Y428451D01*
X284500Y430105D01*
Y431895D01*
X283815Y433549D01*
X282817Y434547D01*
X282670Y436000D01*
X282817Y437453D01*
X283815Y438451D01*
X284500Y440105D01*
Y441895D01*
X283815Y443549D01*
X282549Y444815D01*
X280895Y445500D01*
D02*
G37*
G36*
X268895Y424500D02*
X267105D01*
X265451Y423815D01*
X264185Y422549D01*
X263500Y420895D01*
Y419105D01*
X264185Y417451D01*
X265451Y416185D01*
X267105Y415500D01*
X268895D01*
X270549Y416185D01*
X271815Y417451D01*
X272500Y419105D01*
Y420895D01*
X271815Y422549D01*
X270549Y423815D01*
X268895Y424500D01*
D02*
G37*
G36*
X256895D02*
X255105D01*
X253451Y423815D01*
X252185Y422549D01*
X251500Y420895D01*
Y419105D01*
X252185Y417451D01*
X253451Y416185D01*
X255105Y415500D01*
X256895D01*
X258549Y416185D01*
X259815Y417451D01*
X260500Y419105D01*
Y420895D01*
X259815Y422549D01*
X258549Y423815D01*
X256895Y424500D01*
D02*
G37*
G36*
X264895Y411500D02*
X263105D01*
X261451Y410815D01*
X260453Y409817D01*
X259000Y409669D01*
X257547Y409817D01*
X256549Y410815D01*
X254895Y411500D01*
X253105D01*
X251451Y410815D01*
X250185Y409549D01*
X249500Y407895D01*
Y406105D01*
X250185Y404451D01*
X251451Y403185D01*
X253105Y402500D01*
X254895D01*
X256549Y403185D01*
X257547Y404183D01*
X259000Y404330D01*
X260453Y404183D01*
X261451Y403185D01*
X263105Y402500D01*
X264895D01*
X266549Y403185D01*
X267815Y404451D01*
X268500Y406105D01*
Y407895D01*
X267815Y409549D01*
X266549Y410815D01*
X264895Y411500D01*
D02*
G37*
G36*
X426895Y418500D02*
X425105D01*
X423451Y417815D01*
X422185Y416549D01*
X421500Y414895D01*
Y413105D01*
X422185Y411451D01*
X423451Y410185D01*
X425105Y409500D01*
X426895D01*
X428549Y410185D01*
X429815Y411451D01*
X430500Y413105D01*
Y414895D01*
X429815Y416549D01*
X428549Y417815D01*
X426895Y418500D01*
D02*
G37*
G36*
X414895D02*
X413105D01*
X411451Y417815D01*
X410185Y416549D01*
X409500Y414895D01*
Y413105D01*
X410185Y411451D01*
X411451Y410185D01*
X413105Y409500D01*
X414895D01*
X416549Y410185D01*
X417815Y411451D01*
X418500Y413105D01*
Y414895D01*
X417815Y416549D01*
X416549Y417815D01*
X414895Y418500D01*
D02*
G37*
G36*
X402895D02*
X401105D01*
X399451Y417815D01*
X398185Y416549D01*
X397500Y414895D01*
Y413105D01*
X398185Y411451D01*
X399451Y410185D01*
X401105Y409500D01*
X402895D01*
X404549Y410185D01*
X405815Y411451D01*
X406500Y413105D01*
Y414895D01*
X405815Y416549D01*
X404549Y417815D01*
X402895Y418500D01*
D02*
G37*
G36*
X426895Y406500D02*
X425105D01*
X423451Y405815D01*
X422185Y404549D01*
X421500Y402895D01*
Y401105D01*
X422185Y399451D01*
X423451Y398185D01*
X425105Y397500D01*
X426895D01*
X428549Y398185D01*
X429815Y399451D01*
X430500Y401105D01*
Y402895D01*
X429815Y404549D01*
X428549Y405815D01*
X426895Y406500D01*
D02*
G37*
G36*
X414895D02*
X413105D01*
X411451Y405815D01*
X410185Y404549D01*
X409500Y402895D01*
Y401105D01*
X410185Y399451D01*
X411451Y398185D01*
X413105Y397500D01*
X414895D01*
X416549Y398185D01*
X417815Y399451D01*
X418500Y401105D01*
Y402895D01*
X417815Y404549D01*
X416549Y405815D01*
X414895Y406500D01*
D02*
G37*
G36*
X402895D02*
X401105D01*
X399451Y405815D01*
X398185Y404549D01*
X397500Y402895D01*
Y401105D01*
X398185Y399451D01*
X399451Y398185D01*
X401105Y397500D01*
X402895D01*
X404549Y398185D01*
X405815Y399451D01*
X406500Y401105D01*
Y402895D01*
X405815Y404549D01*
X404549Y405815D01*
X402895Y406500D01*
D02*
G37*
G36*
X235895Y393500D02*
X234105D01*
X232451Y392815D01*
X231185Y391549D01*
X230847Y390732D01*
X228153D01*
X227815Y391549D01*
X226549Y392815D01*
X224895Y393500D01*
X223105D01*
X221451Y392815D01*
X220185Y391549D01*
X219847Y390732D01*
X217153D01*
X216815Y391549D01*
X215549Y392815D01*
X213895Y393500D01*
X212105D01*
X210451Y392815D01*
X209185Y391549D01*
X208500Y389895D01*
Y388105D01*
X209185Y386451D01*
X210451Y385185D01*
X211268Y384847D01*
Y382153D01*
X210451Y381815D01*
X209185Y380549D01*
X208500Y378895D01*
Y377105D01*
X209185Y375451D01*
X210451Y374185D01*
X211268Y373847D01*
Y371153D01*
X210451Y370815D01*
X209185Y369549D01*
X208500Y367895D01*
Y366105D01*
X209185Y364451D01*
X210451Y363185D01*
X211268Y362847D01*
Y360153D01*
X210451Y359815D01*
X209185Y358549D01*
X208500Y356895D01*
Y355105D01*
X209185Y353451D01*
X210451Y352185D01*
X212105Y351500D01*
X213895D01*
X215549Y352185D01*
X216815Y353451D01*
X217153Y354268D01*
X219847D01*
X220185Y353451D01*
X221451Y352185D01*
X223105Y351500D01*
X224895D01*
X226549Y352185D01*
X227815Y353451D01*
X228153Y354268D01*
X230847D01*
X231185Y353451D01*
X232451Y352185D01*
X234105Y351500D01*
X235895D01*
X237549Y352185D01*
X238815Y353451D01*
X239500Y355105D01*
Y356895D01*
X238815Y358549D01*
X237549Y359815D01*
X236732Y360153D01*
Y362847D01*
X237549Y363185D01*
X238815Y364451D01*
X239500Y366105D01*
Y367895D01*
X238815Y369549D01*
X237549Y370815D01*
X236732Y371153D01*
Y373847D01*
X237549Y374185D01*
X238815Y375451D01*
X239500Y377105D01*
Y378895D01*
X238815Y380549D01*
X237549Y381815D01*
X236732Y382153D01*
Y384847D01*
X237549Y385185D01*
X238815Y386451D01*
X239500Y388105D01*
Y389895D01*
X238815Y391549D01*
X237549Y392815D01*
X235895Y393500D01*
D02*
G37*
G36*
X426895Y394500D02*
X425105D01*
X423451Y393815D01*
X422185Y392549D01*
X421500Y390895D01*
Y389105D01*
X422185Y387451D01*
X423451Y386185D01*
X425105Y385500D01*
X426895D01*
X428549Y386185D01*
X429815Y387451D01*
X430500Y389105D01*
Y390895D01*
X429815Y392549D01*
X428549Y393815D01*
X426895Y394500D01*
D02*
G37*
G36*
X414895D02*
X413105D01*
X411451Y393815D01*
X410185Y392549D01*
X409500Y390895D01*
Y389105D01*
X410185Y387451D01*
X411451Y386185D01*
X413105Y385500D01*
X414895D01*
X416549Y386185D01*
X417815Y387451D01*
X418500Y389105D01*
Y390895D01*
X417815Y392549D01*
X416549Y393815D01*
X414895Y394500D01*
D02*
G37*
G36*
X402895D02*
X401105D01*
X399451Y393815D01*
X398185Y392549D01*
X397500Y390895D01*
Y389105D01*
X398185Y387451D01*
X399451Y386185D01*
X401105Y385500D01*
X402895D01*
X404549Y386185D01*
X405815Y387451D01*
X406500Y389105D01*
Y390895D01*
X405815Y392549D01*
X404549Y393815D01*
X402895Y394500D01*
D02*
G37*
G36*
X259895Y400500D02*
X258105D01*
X256451Y399815D01*
X255185Y398549D01*
X254500Y396895D01*
Y395105D01*
X255185Y393451D01*
X256451Y392185D01*
X257268Y391847D01*
Y389153D01*
X256451Y388815D01*
X255185Y387549D01*
X254500Y385895D01*
Y384105D01*
X255185Y382451D01*
X256451Y381185D01*
X257268Y380847D01*
Y378153D01*
X256451Y377815D01*
X255185Y376549D01*
X254500Y374895D01*
Y373105D01*
X255185Y371451D01*
X256451Y370185D01*
X258105Y369500D01*
X259895D01*
X261549Y370185D01*
X262815Y371451D01*
X263500Y373105D01*
Y374895D01*
X262815Y376549D01*
X261549Y377815D01*
X260732Y378153D01*
Y380847D01*
X261549Y381185D01*
X262815Y382451D01*
X263500Y384105D01*
Y385895D01*
X262815Y387549D01*
X261549Y388815D01*
X260732Y389153D01*
Y391847D01*
X261549Y392185D01*
X262815Y393451D01*
X263500Y395105D01*
Y396895D01*
X262815Y398549D01*
X261549Y399815D01*
X259895Y400500D01*
D02*
G37*
G36*
Y366500D02*
X258105D01*
X256451Y365815D01*
X255185Y364549D01*
X254500Y362895D01*
Y361105D01*
X255185Y359451D01*
X256451Y358185D01*
X258105Y357500D01*
X259895D01*
X261549Y358185D01*
X262815Y359451D01*
X263500Y361105D01*
Y362895D01*
X262815Y364549D01*
X261549Y365815D01*
X259895Y366500D01*
D02*
G37*
G36*
X94895Y357500D02*
X93105D01*
X91451Y356815D01*
X90185Y355549D01*
X89500Y353895D01*
Y352105D01*
X90185Y350451D01*
X91451Y349185D01*
X93105Y348500D01*
X94895D01*
X96549Y349185D01*
X97815Y350451D01*
X98500Y352105D01*
Y353895D01*
X97815Y355549D01*
X96549Y356815D01*
X94895Y357500D01*
D02*
G37*
G36*
X259895Y354500D02*
X258105D01*
X256451Y353815D01*
X255185Y352549D01*
X254500Y350895D01*
Y349105D01*
X255185Y347451D01*
X256451Y346185D01*
X258105Y345500D01*
X259895D01*
X261549Y346185D01*
X262815Y347451D01*
X263500Y349105D01*
Y350895D01*
X262815Y352549D01*
X261549Y353815D01*
X259895Y354500D01*
D02*
G37*
G36*
X135895Y347500D02*
X134105D01*
X132451Y346815D01*
X131185Y345549D01*
X130500Y343895D01*
Y342105D01*
X131185Y340451D01*
X132451Y339185D01*
X134105Y338500D01*
X135895D01*
X137549Y339185D01*
X138815Y340451D01*
X139500Y342105D01*
Y343895D01*
X138815Y345549D01*
X137549Y346815D01*
X135895Y347500D01*
D02*
G37*
G36*
X453795Y339500D02*
X452005D01*
X450351Y338815D01*
X449595Y338059D01*
X361805D01*
X361049Y338815D01*
X359395Y339500D01*
X357605D01*
X355951Y338815D01*
X354685Y337549D01*
X354000Y335895D01*
Y334105D01*
X354685Y332451D01*
X355951Y331185D01*
X356666Y330889D01*
X357696Y329904D01*
X357993Y327960D01*
X357800Y327495D01*
Y325705D01*
X358485Y324051D01*
X359751Y322785D01*
X361405Y322100D01*
X363195D01*
X364849Y322785D01*
X365605Y323541D01*
X390859D01*
X392544Y321001D01*
X392500Y320895D01*
Y319105D01*
X393185Y317451D01*
X394451Y316185D01*
X395268Y315847D01*
Y313153D01*
X394451Y312815D01*
X393185Y311549D01*
X392500Y309895D01*
Y308105D01*
X393185Y306451D01*
X394451Y305185D01*
X395268Y304847D01*
Y302153D01*
X394451Y301815D01*
X393185Y300549D01*
X392500Y298895D01*
Y297105D01*
X393185Y295451D01*
X394451Y294185D01*
X395268Y293847D01*
Y291153D01*
X394451Y290815D01*
X393185Y289549D01*
X392500Y287895D01*
Y286105D01*
X393185Y284451D01*
X394451Y283185D01*
X396105Y282500D01*
X397895D01*
X399549Y283185D01*
X400815Y284451D01*
X401500Y286105D01*
Y287895D01*
X400815Y289549D01*
X399549Y290815D01*
X398732Y291153D01*
Y293847D01*
X399549Y294185D01*
X400815Y295451D01*
X401500Y297105D01*
Y298895D01*
X400815Y300549D01*
X399549Y301815D01*
X398732Y302153D01*
Y304847D01*
X399549Y305185D01*
X400815Y306451D01*
X401500Y308105D01*
Y309895D01*
X400815Y311549D01*
X399549Y312815D01*
X398732Y313153D01*
Y315847D01*
X399549Y316185D01*
X400815Y317451D01*
X401500Y319105D01*
Y320895D01*
X403463Y321639D01*
X405500Y319442D01*
Y319105D01*
X406185Y317451D01*
X407451Y316185D01*
X408268Y315847D01*
Y313153D01*
X407451Y312815D01*
X406185Y311549D01*
X405500Y309895D01*
Y308105D01*
X406185Y306451D01*
X407451Y305185D01*
X408268Y304847D01*
Y302153D01*
X407451Y301815D01*
X406185Y300549D01*
X405500Y298895D01*
Y297105D01*
X406185Y295451D01*
X407451Y294185D01*
X408268Y293847D01*
Y291153D01*
X407451Y290815D01*
X406185Y289549D01*
X405500Y287895D01*
Y286105D01*
X406185Y284451D01*
X407451Y283185D01*
X409105Y282500D01*
X410895D01*
X412549Y283185D01*
X413815Y284451D01*
X414500Y286105D01*
Y287895D01*
X413815Y289549D01*
X412549Y290815D01*
X411732Y291153D01*
Y293847D01*
X412549Y294185D01*
X413815Y295451D01*
X414500Y297105D01*
Y298895D01*
X413815Y300549D01*
X412549Y301815D01*
X411732Y302153D01*
Y304847D01*
X412549Y305185D01*
X413815Y306451D01*
X414500Y308105D01*
Y309895D01*
X413815Y311549D01*
X412549Y312815D01*
X411732Y313153D01*
Y315847D01*
X412549Y316185D01*
X413815Y317451D01*
X414500Y319105D01*
Y320895D01*
X416463Y321639D01*
X418500Y319442D01*
Y319105D01*
X419185Y317451D01*
X420451Y316185D01*
X421268Y315847D01*
Y313153D01*
X420451Y312815D01*
X419185Y311549D01*
X418500Y309895D01*
Y308105D01*
X419185Y306451D01*
X420451Y305185D01*
X421268Y304847D01*
Y302153D01*
X420451Y301815D01*
X419185Y300549D01*
X418500Y298895D01*
Y297105D01*
X419185Y295451D01*
X420451Y294185D01*
X421268Y293847D01*
Y291153D01*
X420451Y290815D01*
X419185Y289549D01*
X418500Y287895D01*
Y286105D01*
X419185Y284451D01*
X420451Y283185D01*
X422105Y282500D01*
X423895D01*
X425549Y283185D01*
X426815Y284451D01*
X427500Y286105D01*
Y287895D01*
X426815Y289549D01*
X425549Y290815D01*
X424732Y291153D01*
Y293847D01*
X425549Y294185D01*
X426815Y295451D01*
X427500Y297105D01*
Y298895D01*
X426815Y300549D01*
X425549Y301815D01*
X424732Y302153D01*
Y304847D01*
X425549Y305185D01*
X426815Y306451D01*
X427500Y308105D01*
Y309895D01*
X426815Y311549D01*
X425549Y312815D01*
X424732Y313153D01*
Y315847D01*
X425549Y316185D01*
X426815Y317451D01*
X427500Y319105D01*
Y320895D01*
X427456Y321001D01*
X429141Y323541D01*
X451233D01*
X459000Y315774D01*
Y314705D01*
X459685Y313051D01*
X460951Y311785D01*
X462605Y311100D01*
X464395D01*
X466049Y311785D01*
X467315Y313051D01*
X468000Y314705D01*
Y316495D01*
X467315Y318149D01*
X466049Y319415D01*
X464395Y320100D01*
X463326D01*
X455124Y328301D01*
X455179Y330353D01*
X455444Y331168D01*
X455513Y331249D01*
X456715Y332451D01*
X457400Y334105D01*
Y335895D01*
X456715Y337549D01*
X455449Y338815D01*
X453795Y339500D01*
D02*
G37*
G36*
X121895Y346500D02*
X120105D01*
X118451Y345815D01*
X117185Y344549D01*
X116500Y342895D01*
Y341105D01*
X117185Y339451D01*
X118451Y338185D01*
X120105Y337500D01*
X121895D01*
X123549Y338185D01*
X124815Y339451D01*
X125500Y341105D01*
Y342895D01*
X124815Y344549D01*
X123549Y345815D01*
X121895Y346500D01*
D02*
G37*
G36*
X106895D02*
X105105D01*
X103451Y345815D01*
X102185Y344549D01*
X101500Y342895D01*
Y341105D01*
X102185Y339451D01*
X103451Y338185D01*
X105105Y337500D01*
X106895D01*
X108549Y338185D01*
X109815Y339451D01*
X110500Y341105D01*
Y342895D01*
X109815Y344549D01*
X108549Y345815D01*
X106895Y346500D01*
D02*
G37*
G36*
X94895Y340500D02*
X93105D01*
X91451Y339815D01*
X90185Y338549D01*
X89500Y336895D01*
Y335105D01*
X90185Y333451D01*
X91451Y332185D01*
X93105Y331500D01*
X94895D01*
X96549Y332185D01*
X97815Y333451D01*
X98500Y335105D01*
Y336895D01*
X97815Y338549D01*
X96549Y339815D01*
X94895Y340500D01*
D02*
G37*
G36*
X128895Y328500D02*
X127105D01*
X125451Y327815D01*
X124185Y326549D01*
X123500Y324895D01*
Y323105D01*
X124185Y321451D01*
X125451Y320185D01*
X127105Y319500D01*
X128895D01*
X130549Y320185D01*
X131815Y321451D01*
X132500Y323105D01*
Y324895D01*
X131815Y326549D01*
X130549Y327815D01*
X128895Y328500D01*
D02*
G37*
G36*
X94895Y327500D02*
X93105D01*
X91451Y326815D01*
X90185Y325549D01*
X89500Y323895D01*
Y322105D01*
X90185Y320451D01*
X91451Y319185D01*
X93105Y318500D01*
X94895D01*
X96549Y319185D01*
X97815Y320451D01*
X98500Y322105D01*
Y323895D01*
X97815Y325549D01*
X96549Y326815D01*
X94895Y327500D01*
D02*
G37*
G36*
X113895Y325500D02*
X112105D01*
X110451Y324815D01*
X109185Y323549D01*
X108500Y321895D01*
Y320105D01*
X109185Y318451D01*
X110451Y317185D01*
X112105Y316500D01*
X113895D01*
X115549Y317185D01*
X116815Y318451D01*
X117500Y320105D01*
Y321895D01*
X116815Y323549D01*
X115549Y324815D01*
X113895Y325500D01*
D02*
G37*
G36*
X128895Y315500D02*
X127105D01*
X125451Y314815D01*
X124185Y313549D01*
X123500Y311895D01*
Y310105D01*
X124185Y308451D01*
X125451Y307185D01*
X127105Y306500D01*
X128895D01*
X130549Y307185D01*
X131815Y308451D01*
X132500Y310105D01*
Y311895D01*
X131815Y313549D01*
X130549Y314815D01*
X128895Y315500D01*
D02*
G37*
G36*
X94895Y313500D02*
X93105D01*
X91451Y312815D01*
X90185Y311549D01*
X89500Y309895D01*
Y308105D01*
X90185Y306451D01*
X91451Y305185D01*
X93105Y304500D01*
X94895D01*
X96549Y305185D01*
X97815Y306451D01*
X98500Y308105D01*
Y309895D01*
X97815Y311549D01*
X96549Y312815D01*
X94895Y313500D01*
D02*
G37*
G36*
X113895Y305500D02*
X112105D01*
X110451Y304815D01*
X109185Y303549D01*
X108500Y301895D01*
Y300105D01*
X109185Y298451D01*
X110451Y297185D01*
X112105Y296500D01*
X113895D01*
X115549Y297185D01*
X116815Y298451D01*
X117500Y300105D01*
Y301895D01*
X116815Y303549D01*
X115549Y304815D01*
X113895Y305500D01*
D02*
G37*
G36*
X128895Y302500D02*
X127105D01*
X125451Y301815D01*
X124185Y300549D01*
X123500Y298895D01*
Y297105D01*
X124185Y295451D01*
X125451Y294185D01*
X127105Y293500D01*
X128895D01*
X130549Y294185D01*
X131815Y295451D01*
X132500Y297105D01*
Y298895D01*
X131815Y300549D01*
X130549Y301815D01*
X128895Y302500D01*
D02*
G37*
G36*
X94895Y300500D02*
X93105D01*
X91451Y299815D01*
X90185Y298549D01*
X89500Y296895D01*
Y295105D01*
X90185Y293451D01*
X91451Y292185D01*
X93105Y291500D01*
X94895D01*
X96549Y292185D01*
X97815Y293451D01*
X98500Y295105D01*
Y296895D01*
X97815Y298549D01*
X96549Y299815D01*
X94895Y300500D01*
D02*
G37*
G36*
X128895Y289500D02*
X127105D01*
X125451Y288815D01*
X124185Y287549D01*
X123500Y285895D01*
Y284105D01*
X124185Y282451D01*
X125451Y281185D01*
X127105Y280500D01*
X128895D01*
X130549Y281185D01*
X131815Y282451D01*
X132500Y284105D01*
Y285895D01*
X131815Y287549D01*
X130549Y288815D01*
X128895Y289500D01*
D02*
G37*
G36*
X113895Y288500D02*
X112105D01*
X110451Y287815D01*
X109185Y286549D01*
X108500Y284895D01*
Y283105D01*
X109185Y281451D01*
X110451Y280185D01*
X112105Y279500D01*
X113895D01*
X115549Y280185D01*
X116815Y281451D01*
X117500Y283105D01*
Y284895D01*
X116815Y286549D01*
X115549Y287815D01*
X113895Y288500D01*
D02*
G37*
G36*
X94895Y287500D02*
X93105D01*
X91451Y286815D01*
X90185Y285549D01*
X89500Y283895D01*
Y282105D01*
X90185Y280451D01*
X91451Y279185D01*
X93105Y278500D01*
X94895D01*
X96549Y279185D01*
X97815Y280451D01*
X98500Y282105D01*
Y283895D01*
X97815Y285549D01*
X96549Y286815D01*
X94895Y287500D01*
D02*
G37*
G36*
X128895Y275500D02*
X127105D01*
X125451Y274815D01*
X124185Y273549D01*
X123500Y271895D01*
Y270105D01*
X124185Y268451D01*
X125451Y267185D01*
X127105Y266500D01*
X128895D01*
X130549Y267185D01*
X131815Y268451D01*
X132500Y270105D01*
Y271895D01*
X131815Y273549D01*
X130549Y274815D01*
X128895Y275500D01*
D02*
G37*
G36*
X94895Y273500D02*
X93105D01*
X91451Y272815D01*
X90185Y271549D01*
X89500Y269895D01*
Y268105D01*
X90185Y266451D01*
X91451Y265185D01*
X93105Y264500D01*
X94895D01*
X96549Y265185D01*
X97815Y266451D01*
X98500Y268105D01*
Y269895D01*
X97815Y271549D01*
X96549Y272815D01*
X94895Y273500D01*
D02*
G37*
G36*
X113895Y271500D02*
X112105D01*
X110451Y270815D01*
X109185Y269549D01*
X108500Y267895D01*
Y266105D01*
X109185Y264451D01*
X110451Y263185D01*
X112105Y262500D01*
X113895D01*
X115549Y263185D01*
X116815Y264451D01*
X117500Y266105D01*
Y267895D01*
X116815Y269549D01*
X115549Y270815D01*
X113895Y271500D01*
D02*
G37*
G36*
X94895Y258500D02*
X93105D01*
X91451Y257815D01*
X90185Y256549D01*
X89500Y254895D01*
Y253105D01*
X90185Y251451D01*
X91451Y250185D01*
X93105Y249500D01*
X94895D01*
X96549Y250185D01*
X97815Y251451D01*
X98023Y251953D01*
X99223Y252027D01*
X100667Y251700D01*
X101185Y250451D01*
X102451Y249185D01*
X104105Y248500D01*
X105895D01*
X107549Y249185D01*
X108815Y250451D01*
X109500Y252105D01*
Y253895D01*
X108815Y255549D01*
X107549Y256815D01*
X105895Y257500D01*
X104105D01*
X102451Y256815D01*
X101185Y255549D01*
X100977Y255047D01*
X99777Y254973D01*
X98332Y255299D01*
X97815Y256549D01*
X96549Y257815D01*
X94895Y258500D01*
D02*
G37*
G36*
Y245500D02*
X93105D01*
X91451Y244815D01*
X90185Y243549D01*
X89500Y241895D01*
Y240105D01*
X90185Y238451D01*
X91451Y237185D01*
X93105Y236500D01*
X94895D01*
X96549Y237185D01*
X97815Y238451D01*
X98500Y240105D01*
Y241895D01*
X97815Y243549D01*
X96549Y244815D01*
X94895Y245500D01*
D02*
G37*
G36*
X424895Y220500D02*
X423105D01*
X421451Y219815D01*
X420185Y218549D01*
X419500Y216895D01*
Y215105D01*
X420185Y213451D01*
X421451Y212185D01*
X422268Y211847D01*
Y209153D01*
X421451Y208815D01*
X420185Y207549D01*
X419500Y205895D01*
Y204105D01*
X420185Y202451D01*
X421451Y201185D01*
X422268Y200847D01*
Y198153D01*
X421451Y197815D01*
X420185Y196549D01*
X419500Y194895D01*
Y193105D01*
X420185Y191451D01*
X421451Y190185D01*
X422268Y189847D01*
Y187153D01*
X421451Y186815D01*
X420185Y185549D01*
X419500Y183895D01*
Y182105D01*
X420185Y180451D01*
X421451Y179185D01*
X423105Y178500D01*
X424895D01*
X426549Y179185D01*
X427815Y180451D01*
X428500Y182105D01*
Y183895D01*
X427815Y185549D01*
X426549Y186815D01*
X425732Y187153D01*
Y189847D01*
X426549Y190185D01*
X427815Y191451D01*
X428500Y193105D01*
Y194895D01*
X427815Y196549D01*
X426549Y197815D01*
X425732Y198153D01*
Y200847D01*
X426549Y201185D01*
X427815Y202451D01*
X428500Y204105D01*
Y205895D01*
X427815Y207549D01*
X426549Y208815D01*
X425732Y209153D01*
Y211847D01*
X426549Y212185D01*
X427815Y213451D01*
X428500Y215105D01*
Y216895D01*
X427815Y218549D01*
X426549Y219815D01*
X424895Y220500D01*
D02*
G37*
G36*
X411895D02*
X410105D01*
X408451Y219815D01*
X407185Y218549D01*
X406500Y216895D01*
Y215105D01*
X407185Y213451D01*
X408451Y212185D01*
X409268Y211847D01*
Y209153D01*
X408451Y208815D01*
X407185Y207549D01*
X406500Y205895D01*
Y204105D01*
X407185Y202451D01*
X408451Y201185D01*
X409268Y200847D01*
Y198153D01*
X408451Y197815D01*
X407185Y196549D01*
X406500Y194895D01*
Y193105D01*
X407185Y191451D01*
X408451Y190185D01*
X409268Y189847D01*
Y187153D01*
X408451Y186815D01*
X407185Y185549D01*
X406500Y183895D01*
Y182105D01*
X407185Y180451D01*
X408451Y179185D01*
X410105Y178500D01*
X411895D01*
X413549Y179185D01*
X414815Y180451D01*
X415500Y182105D01*
Y183895D01*
X414815Y185549D01*
X413549Y186815D01*
X412732Y187153D01*
Y189847D01*
X413549Y190185D01*
X414815Y191451D01*
X415500Y193105D01*
Y194895D01*
X414815Y196549D01*
X413549Y197815D01*
X412732Y198153D01*
Y200847D01*
X413549Y201185D01*
X414815Y202451D01*
X415500Y204105D01*
Y205895D01*
X414815Y207549D01*
X413549Y208815D01*
X412732Y209153D01*
Y211847D01*
X413549Y212185D01*
X414815Y213451D01*
X415500Y215105D01*
Y216895D01*
X414815Y218549D01*
X413549Y219815D01*
X411895Y220500D01*
D02*
G37*
G36*
X398895D02*
X397105D01*
X395451Y219815D01*
X394185Y218549D01*
X393500Y216895D01*
Y215105D01*
X394185Y213451D01*
X395451Y212185D01*
X396268Y211847D01*
Y209153D01*
X395451Y208815D01*
X394185Y207549D01*
X393500Y205895D01*
Y204105D01*
X394185Y202451D01*
X395451Y201185D01*
X396268Y200847D01*
Y198153D01*
X395451Y197815D01*
X394185Y196549D01*
X393500Y194895D01*
Y193105D01*
X394185Y191451D01*
X395451Y190185D01*
X396268Y189847D01*
Y187153D01*
X395451Y186815D01*
X394185Y185549D01*
X393500Y183895D01*
Y182105D01*
X394185Y180451D01*
X395451Y179185D01*
X397105Y178500D01*
X398895D01*
X400549Y179185D01*
X401815Y180451D01*
X402500Y182105D01*
Y183895D01*
X401815Y185549D01*
X400549Y186815D01*
X399732Y187153D01*
Y189847D01*
X400549Y190185D01*
X401815Y191451D01*
X402500Y193105D01*
Y194895D01*
X401815Y196549D01*
X400549Y197815D01*
X399732Y198153D01*
Y200847D01*
X400549Y201185D01*
X401815Y202451D01*
X402500Y204105D01*
Y205895D01*
X401815Y207549D01*
X400549Y208815D01*
X399732Y209153D01*
Y211847D01*
X400549Y212185D01*
X401815Y213451D01*
X402500Y215105D01*
Y216895D01*
X401815Y218549D01*
X400549Y219815D01*
X398895Y220500D01*
D02*
G37*
G36*
X469395Y114000D02*
X467605D01*
X465951Y113315D01*
X464685Y112049D01*
X464000Y110395D01*
Y108605D01*
X464685Y106951D01*
X465951Y105685D01*
X467605Y105000D01*
X469395D01*
X471049Y105685D01*
X472315Y106951D01*
X473000Y108605D01*
Y110395D01*
X472315Y112049D01*
X471049Y113315D01*
X469395Y114000D01*
D02*
G37*
G36*
X447395D02*
X445605D01*
X443951Y113315D01*
X442685Y112049D01*
X442000Y110395D01*
Y108605D01*
X442685Y106951D01*
X443951Y105685D01*
X445605Y105000D01*
X447395D01*
X449049Y105685D01*
X450315Y106951D01*
X451000Y108605D01*
Y110395D01*
X450315Y112049D01*
X449049Y113315D01*
X447395Y114000D01*
D02*
G37*
G36*
Y100500D02*
X445605D01*
X443951Y99815D01*
X442685Y98549D01*
X442000Y96895D01*
Y95105D01*
X442685Y93451D01*
X443951Y92185D01*
X445605Y91500D01*
X447395D01*
X449049Y92185D01*
X450315Y93451D01*
X451000Y95105D01*
Y96895D01*
X450315Y98549D01*
X449049Y99815D01*
X447395Y100500D01*
D02*
G37*
G36*
X469395Y100000D02*
X467605D01*
X465951Y99315D01*
X464685Y98049D01*
X464000Y96395D01*
Y94605D01*
X464685Y92951D01*
X465951Y91685D01*
X467605Y91000D01*
X469395D01*
X471049Y91685D01*
X472315Y92951D01*
X473000Y94605D01*
Y96395D01*
X472315Y98049D01*
X471049Y99315D01*
X469395Y100000D01*
D02*
G37*
G36*
X480895Y80000D02*
X479105D01*
X477451Y79315D01*
X476185Y78049D01*
X475500Y76395D01*
Y74605D01*
X476185Y72951D01*
X477451Y71685D01*
X479105Y71000D01*
X480895D01*
X482549Y71685D01*
X483815Y72951D01*
X484500Y74605D01*
Y76395D01*
X483815Y78049D01*
X482549Y79315D01*
X480895Y80000D01*
D02*
G37*
G36*
X467395D02*
X465605D01*
X463951Y79315D01*
X462685Y78049D01*
X462000Y76395D01*
Y74605D01*
X462685Y72951D01*
X463951Y71685D01*
X465605Y71000D01*
X467395D01*
X469049Y71685D01*
X470315Y72951D01*
X471000Y74605D01*
Y76395D01*
X470315Y78049D01*
X469049Y79315D01*
X467395Y80000D01*
D02*
G37*
G36*
X447895D02*
X446105D01*
X444451Y79315D01*
X443185Y78049D01*
X442500Y76395D01*
Y74605D01*
X443185Y72951D01*
X444451Y71685D01*
X446105Y71000D01*
X447895D01*
X449549Y71685D01*
X450815Y72951D01*
X451500Y74605D01*
Y76395D01*
X450815Y78049D01*
X449549Y79315D01*
X447895Y80000D01*
D02*
G37*
G36*
X435895D02*
X434105D01*
X432451Y79315D01*
X431185Y78049D01*
X430500Y76395D01*
Y74605D01*
X431185Y72951D01*
X432451Y71685D01*
X434105Y71000D01*
X435895D01*
X437549Y71685D01*
X438815Y72951D01*
X439500Y74605D01*
Y76395D01*
X438815Y78049D01*
X437549Y79315D01*
X435895Y80000D01*
D02*
G37*
G36*
X405300Y81200D02*
X385300D01*
Y61200D01*
X405300D01*
Y81200D01*
D02*
G37*
G36*
X371217D02*
X368583D01*
X366040Y80519D01*
X363760Y79202D01*
X361898Y77340D01*
X360582Y75060D01*
X359900Y72516D01*
Y69883D01*
X360582Y67340D01*
X361898Y65060D01*
X363760Y63198D01*
X366040Y61881D01*
X368583Y61200D01*
X371217D01*
X373760Y61881D01*
X376040Y63198D01*
X377902Y65060D01*
X379218Y67340D01*
X379900Y69883D01*
Y72516D01*
X379218Y75060D01*
X377902Y77340D01*
X376040Y79202D01*
X373760Y80519D01*
X371217Y81200D01*
D02*
G37*
G36*
X345816D02*
X343184D01*
X340640Y80519D01*
X338360Y79202D01*
X336498Y77340D01*
X335182Y75060D01*
X334500Y72516D01*
Y69883D01*
X335182Y67340D01*
X336498Y65060D01*
X338360Y63198D01*
X340640Y61881D01*
X343184Y61200D01*
X345816D01*
X348360Y61881D01*
X350640Y63198D01*
X352502Y65060D01*
X353819Y67340D01*
X354500Y69883D01*
Y72516D01*
X353819Y75060D01*
X352502Y77340D01*
X350640Y79202D01*
X348360Y80519D01*
X345816Y81200D01*
D02*
G37*
G36*
X320416D02*
X317784D01*
X315240Y80519D01*
X312960Y79202D01*
X311098Y77340D01*
X309781Y75060D01*
X309100Y72516D01*
Y69883D01*
X309781Y67340D01*
X311098Y65060D01*
X312960Y63198D01*
X315240Y61881D01*
X317784Y61200D01*
X320416D01*
X322960Y61881D01*
X325240Y63198D01*
X327102Y65060D01*
X328419Y67340D01*
X329100Y69883D01*
Y72516D01*
X328419Y75060D01*
X327102Y77340D01*
X325240Y79202D01*
X322960Y80519D01*
X320416Y81200D01*
D02*
G37*
G36*
X295016D02*
X292383D01*
X289840Y80519D01*
X287560Y79202D01*
X285698Y77340D01*
X284382Y75060D01*
X283700Y72516D01*
Y69883D01*
X284382Y67340D01*
X285698Y65060D01*
X287560Y63198D01*
X289840Y61881D01*
X292383Y61200D01*
X295016D01*
X297560Y61881D01*
X299840Y63198D01*
X301702Y65060D01*
X303018Y67340D01*
X303700Y69883D01*
Y72516D01*
X303018Y75060D01*
X301702Y77340D01*
X299840Y79202D01*
X297560Y80519D01*
X295016Y81200D01*
D02*
G37*
G36*
X269617D02*
X266984D01*
X264440Y80519D01*
X262160Y79202D01*
X260298Y77340D01*
X258981Y75060D01*
X258300Y72516D01*
Y69883D01*
X258981Y67340D01*
X260298Y65060D01*
X262160Y63198D01*
X264440Y61881D01*
X266984Y61200D01*
X269617D01*
X272160Y61881D01*
X274440Y63198D01*
X276302Y65060D01*
X277619Y67340D01*
X278300Y69883D01*
Y72516D01*
X277619Y75060D01*
X276302Y77340D01*
X274440Y79202D01*
X272160Y80519D01*
X269617Y81200D01*
D02*
G37*
G36*
X244216D02*
X241583D01*
X239040Y80519D01*
X236760Y79202D01*
X234898Y77340D01*
X233582Y75060D01*
X232900Y72516D01*
Y69883D01*
X233582Y67340D01*
X234898Y65060D01*
X236760Y63198D01*
X239040Y61881D01*
X241583Y61200D01*
X244216D01*
X246760Y61881D01*
X249040Y63198D01*
X250902Y65060D01*
X252218Y67340D01*
X252900Y69883D01*
Y72516D01*
X252218Y75060D01*
X250902Y77340D01*
X249040Y79202D01*
X246760Y80519D01*
X244216Y81200D01*
D02*
G37*
G36*
X218817D02*
X216183D01*
X213640Y80519D01*
X211360Y79202D01*
X209498Y77340D01*
X208181Y75060D01*
X207500Y72516D01*
Y69883D01*
X208181Y67340D01*
X209498Y65060D01*
X211360Y63198D01*
X213640Y61881D01*
X216183Y61200D01*
X218817D01*
X221360Y61881D01*
X223640Y63198D01*
X225502Y65060D01*
X226819Y67340D01*
X227500Y69883D01*
Y72516D01*
X226819Y75060D01*
X225502Y77340D01*
X223640Y79202D01*
X221360Y80519D01*
X218817Y81200D01*
D02*
G37*
G36*
X193417D02*
X190784D01*
X188240Y80519D01*
X185960Y79202D01*
X184098Y77340D01*
X182782Y75060D01*
X182100Y72516D01*
Y69883D01*
X182782Y67340D01*
X184098Y65060D01*
X185960Y63198D01*
X188240Y61881D01*
X190784Y61200D01*
X193417D01*
X195960Y61881D01*
X198240Y63198D01*
X200102Y65060D01*
X201418Y67340D01*
X202100Y69883D01*
Y72516D01*
X201418Y75060D01*
X200102Y77340D01*
X198240Y79202D01*
X195960Y80519D01*
X193417Y81200D01*
D02*
G37*
G36*
X168016D02*
X165383D01*
X162840Y80519D01*
X160560Y79202D01*
X158698Y77340D01*
X157381Y75060D01*
X156700Y72516D01*
Y69883D01*
X157381Y67340D01*
X158698Y65060D01*
X160560Y63198D01*
X162840Y61881D01*
X165383Y61200D01*
X168016D01*
X170560Y61881D01*
X172840Y63198D01*
X174702Y65060D01*
X176019Y67340D01*
X176700Y69883D01*
Y72516D01*
X176019Y75060D01*
X174702Y77340D01*
X172840Y79202D01*
X170560Y80519D01*
X168016Y81200D01*
D02*
G37*
%LPD*%
G36*
X202000Y157037D02*
X201271Y156309D01*
X195089D01*
X193250Y158266D01*
X193250Y159500D01*
X193250D01*
X193250Y160540D01*
Y167500D01*
X184250D01*
Y167000D01*
X183500D01*
Y158500D01*
X165500D01*
X161500Y162500D01*
X160440D01*
X159340Y162719D01*
X159340Y162719D01*
X153000D01*
Y174000D01*
X202000D01*
Y157037D01*
D02*
G37*
G36*
X227500Y136000D02*
X194572D01*
X194554Y136018D01*
X194500Y136098D01*
Y141902D01*
X194554Y141982D01*
X194572Y142000D01*
X227500D01*
Y136000D01*
D02*
G37*
G36*
X159500Y126000D02*
X153000D01*
Y146500D01*
X151080D01*
Y147030D01*
X142580D01*
Y146500D01*
X140500D01*
Y134000D01*
X120500D01*
Y154500D01*
X159500D01*
Y126000D01*
D02*
G37*
G36*
X193000Y143257D02*
X192696Y143054D01*
X192145Y142228D01*
X191951Y141255D01*
Y136745D01*
X192145Y135772D01*
X192696Y134946D01*
X193000Y134743D01*
Y116500D01*
X142000D01*
Y132000D01*
Y132645D01*
X142384Y133220D01*
X142539Y134000D01*
Y144461D01*
X142580D01*
X143360Y144616D01*
X143921Y144991D01*
X149739D01*
X150300Y144616D01*
X150961Y144485D01*
Y126000D01*
X151116Y125220D01*
X151499Y124646D01*
Y124501D01*
X151500D01*
Y124000D01*
X152803D01*
X153000Y123961D01*
X159500D01*
X159697Y124000D01*
X161000D01*
Y124645D01*
X161384Y125220D01*
X161539Y126000D01*
Y150000D01*
X193000D01*
Y143257D01*
D02*
G37*
D10*
X324000Y123500D02*
X324500Y123000D01*
X447700D01*
X453000Y128300D01*
X327500Y129500D02*
X443100D01*
X455800Y142200D01*
Y203900D02*
X463300Y211400D01*
X455800Y142200D02*
Y203900D01*
X349500Y227000D02*
X354600Y232100D01*
X202539Y153250D02*
X207288Y158000D01*
X223500D01*
X188750Y154000D02*
X192712D01*
X193461Y153250D01*
X202539D01*
X188750Y154000D02*
X188750Y154000D01*
Y163500D01*
X136701Y168659D02*
X137330Y168030D01*
X126509Y168659D02*
X136701D01*
X163500Y149000D02*
Y155500D01*
X159340Y159660D02*
X163500Y155500D01*
X126510Y159660D02*
X159340D01*
X354600Y232100D02*
X452600D01*
X452800Y232300D01*
X358500Y335000D02*
X452900D01*
X362300Y326600D02*
X452500D01*
X463500Y315600D01*
D13*
X191750Y148500D02*
X223500D01*
X188750Y145500D02*
X191750Y148500D01*
D14*
X146420Y129080D02*
X146500Y129000D01*
X137500Y129080D02*
X146420D01*
D25*
X126510Y159660D02*
D03*
X126509Y168659D02*
D03*
X188750Y163500D02*
D03*
X188750Y172000D02*
D03*
X188750Y145500D02*
D03*
X188750Y154000D02*
D03*
X383500Y411500D02*
D03*
Y420000D02*
D03*
Y394500D02*
D03*
Y403000D02*
D03*
X310501Y141001D02*
D03*
X310500Y150000D02*
D03*
D39*
X146500Y129000D02*
D03*
X155499Y129001D02*
D03*
X334200Y336300D02*
D03*
X325201Y336299D02*
D03*
X326601Y231999D02*
D03*
X335600Y232000D02*
D03*
D44*
X192100Y488800D02*
D03*
Y514200D02*
D03*
X242900D02*
D03*
Y488800D02*
D03*
X268300D02*
D03*
Y514200D02*
D03*
X293700Y488800D02*
D03*
Y514200D02*
D03*
X319100Y488800D02*
D03*
Y514200D02*
D03*
X344500Y488800D02*
D03*
Y514200D02*
D03*
X369900Y488800D02*
D03*
Y514200D02*
D03*
X395300Y488800D02*
D03*
X217500Y514200D02*
D03*
Y488800D02*
D03*
X166700Y514200D02*
D03*
Y488800D02*
D03*
X192100Y45800D02*
D03*
Y71200D02*
D03*
X242900D02*
D03*
Y45800D02*
D03*
X268300D02*
D03*
Y71200D02*
D03*
X293700Y45800D02*
D03*
Y71200D02*
D03*
X319100Y45800D02*
D03*
Y71200D02*
D03*
X344500Y45800D02*
D03*
Y71200D02*
D03*
X369900Y45800D02*
D03*
Y71200D02*
D03*
X395300Y45800D02*
D03*
X217500Y71200D02*
D03*
Y45800D02*
D03*
X166700Y71200D02*
D03*
Y45800D02*
D03*
D45*
X395300Y514200D02*
D03*
Y71200D02*
D03*
D46*
X50500Y510500D02*
D03*
X50000Y49500D02*
D03*
X511500Y511000D02*
D03*
Y49500D02*
D03*
D49*
X333500Y134000D02*
X346000D01*
X307000D02*
X333500D01*
X336000Y136500D02*
Y146595D01*
X333500Y134000D02*
X336000Y136500D01*
Y159006D02*
Y169605D01*
X331451Y154457D02*
X336000Y159006D01*
X331451Y138951D02*
Y154457D01*
X328500Y136000D02*
X331451Y138951D01*
X308500Y136000D02*
X328500D01*
X331300Y159300D02*
Y226800D01*
X327475Y147571D02*
Y155476D01*
X326601Y231499D02*
X331300Y226800D01*
X327475Y155476D02*
X331300Y159300D01*
X336000Y169605D02*
Y231600D01*
X320906Y141001D02*
X327475Y147571D01*
X311001Y141001D02*
X320906D01*
X310501D02*
X311001D01*
X345000Y250495D02*
Y257500D01*
X346500Y259000D01*
X345000Y267000D02*
Y273505D01*
Y267000D02*
X346500Y265500D01*
X344500Y354490D02*
Y360662D01*
X347238Y363400D01*
X344500Y372404D02*
Y377500D01*
Y372404D02*
X347143Y369761D01*
X137700Y120900D02*
Y123800D01*
X137500Y124000D02*
X137700Y123800D01*
X392000Y469000D02*
X395000Y472000D01*
Y488500D01*
X392000Y396000D02*
Y469000D01*
X332900Y475000D02*
X378043D01*
X388000Y416000D02*
Y467872D01*
X378872Y477000D02*
X388000Y467872D01*
X386000Y422500D02*
Y467043D01*
X369900Y488800D02*
X390000Y468700D01*
X356300Y477000D02*
X378872D01*
X390000Y401000D02*
Y468700D01*
X378043Y475000D02*
X386000Y467043D01*
X344500Y488800D02*
X356300Y477000D01*
X385500Y413500D02*
X388000Y416000D01*
X319100Y488800D02*
X332900Y475000D01*
X242900Y488800D02*
X257700Y474000D01*
X300000D01*
X281100Y476000D02*
X301000D01*
X268300Y488800D02*
X281100Y476000D01*
X217500Y488800D02*
X234300Y472000D01*
X299000D01*
X314000Y405000D02*
Y457000D01*
X299000Y472000D02*
X314000Y457000D01*
X301000Y476000D02*
X318000Y459000D01*
X300000Y474000D02*
X316000Y458000D01*
X318000Y406657D02*
Y459000D01*
X316000Y405828D02*
Y458000D01*
X326500Y169605D02*
Y224500D01*
X321000Y230000D02*
X326500Y224500D01*
X321000Y230000D02*
Y331000D01*
X318000Y334000D02*
X321000Y331000D01*
X318000Y334000D02*
Y401000D01*
X320000Y335000D02*
X321701Y333299D01*
Y333178D02*
Y333299D01*
Y333178D02*
X326000Y328879D01*
X320000Y335000D02*
Y401828D01*
X326000Y273505D02*
Y328879D01*
X314000Y405000D02*
X318000Y401000D01*
X316000Y405828D02*
X320000Y401828D01*
X318000Y406657D02*
X325500Y399157D01*
Y377500D02*
Y399157D01*
X382464Y418964D02*
X383500Y420000D01*
X382464Y417086D02*
Y418964D01*
X379500Y414121D02*
X382464Y417086D01*
X379500Y400500D02*
Y414121D01*
X383500Y420000D02*
X384000D01*
X376000Y397000D02*
X379500Y400500D01*
X342090Y397000D02*
X376000D01*
X346590Y392000D02*
X379379D01*
X380379Y391000D01*
X335000Y383477D02*
X346023Y394500D01*
X339951Y385361D02*
X346590Y392000D01*
X346023Y394500D02*
X383500D01*
X384000D01*
X380379Y391000D02*
X387000D01*
X330451Y385361D02*
X342090Y397000D01*
X387000Y391000D02*
X392000Y396000D01*
X385500Y421500D02*
Y422000D01*
X384000Y420000D02*
X385500Y421500D01*
Y422000D02*
X386000Y422500D01*
X385500Y413000D02*
Y413500D01*
X383500Y411500D02*
X384000D01*
X385500Y413000D01*
X395000Y488500D02*
X395300Y488800D01*
X306500Y146000D02*
X309000Y148500D01*
X302000Y139000D02*
X307000Y134000D01*
X223500Y139000D02*
X302000D01*
X325500Y354490D02*
Y361628D01*
X330451Y366579D02*
Y385361D01*
X325500Y361628D02*
X330451Y366579D01*
X335000Y377500D02*
Y383477D01*
X339951Y370041D02*
Y385361D01*
X335000Y365089D02*
X339951Y370041D01*
X330400Y340100D02*
Y363700D01*
X334395Y367695D01*
X383500Y403000D02*
Y411500D01*
X385500Y396000D02*
Y396500D01*
X390000Y401000D01*
X384000Y394500D02*
X385500Y396000D01*
X335000Y354490D02*
Y365089D01*
X334395Y367695D02*
Y376895D01*
X335000Y377500D01*
X334200Y336300D02*
Y336800D01*
X332200Y338300D02*
X332700D01*
X334200Y336800D01*
X330400Y340100D02*
X332200Y338300D01*
X334200Y336300D02*
X335500Y335000D01*
Y273505D02*
Y335000D01*
X325500Y336598D02*
Y354490D01*
X325201Y336299D02*
X325500Y336598D01*
X330600Y262400D02*
Y330400D01*
X325201Y335799D02*
Y336299D01*
Y335799D02*
X330600Y330400D01*
X330800Y237300D02*
X335600Y232500D01*
Y232000D02*
Y232500D01*
Y232000D02*
X336000Y231600D01*
X326000Y250495D02*
Y257800D01*
Y232600D02*
Y250495D01*
Y232600D02*
X326601Y231999D01*
Y231499D02*
Y231999D01*
X326000Y257800D02*
X330600Y262400D01*
X330951Y258357D02*
X333616Y261021D01*
X330800Y237300D02*
Y258100D01*
X330951Y258251D02*
Y258357D01*
X330800Y258100D02*
X330951Y258251D01*
X335500Y262400D02*
Y273505D01*
X335400Y262300D02*
X335500Y262400D01*
X333616Y261021D02*
X333721D01*
X335000Y262300D01*
X335400D01*
X335500Y244100D02*
Y250495D01*
Y244100D02*
X344800Y234800D01*
Y222700D02*
X351000Y216500D01*
X344800Y234800D02*
X351000Y241000D01*
X344800Y222700D02*
Y234800D01*
X306500Y138000D02*
X308500Y136000D01*
X346000Y134000D02*
X351000Y139000D01*
X306500Y138000D02*
Y146000D01*
X335000Y344000D02*
Y354490D01*
Y344000D02*
X351000Y328000D01*
Y241000D02*
Y328000D01*
Y139000D02*
Y216500D01*
D50*
X198000Y165300D02*
X303235D01*
X315500Y153035D01*
Y146000D02*
Y153035D01*
X311501Y142001D02*
X315500Y146000D01*
X311501Y141501D02*
Y142001D01*
X311001Y141001D02*
X311501Y141501D01*
X309000Y148500D02*
X310500Y150000D01*
X223500Y148500D02*
X309000D01*
D53*
X258000Y103000D02*
D03*
X292000D02*
D03*
X330000D02*
D03*
X532000Y372000D02*
D03*
X513500Y112500D02*
D03*
Y92500D02*
D03*
X494500Y81500D02*
D03*
X485000Y29500D02*
D03*
X466500D02*
D03*
X450000D02*
D03*
X432500D02*
D03*
X417500Y34500D02*
D03*
X419500Y60000D02*
D03*
Y81500D02*
D03*
X401500Y94500D02*
D03*
X480000Y75500D02*
D03*
X466500D02*
D03*
X447000D02*
D03*
X435000D02*
D03*
X468500Y95500D02*
D03*
Y109500D02*
D03*
X446500Y96000D02*
D03*
Y109500D02*
D03*
X509500Y449000D02*
D03*
X495500Y484500D02*
D03*
X416500Y485000D02*
D03*
X525500Y419000D02*
D03*
Y436000D02*
D03*
X480500Y500500D02*
D03*
X466000D02*
D03*
X447000D02*
D03*
X434000D02*
D03*
X368500Y447500D02*
D03*
Y466000D02*
D03*
X480500Y422000D02*
D03*
Y435000D02*
D03*
X480000Y455000D02*
D03*
X466500D02*
D03*
X447000D02*
D03*
X435000D02*
D03*
X413500Y450000D02*
D03*
Y464500D02*
D03*
X183000Y259000D02*
D03*
X93000Y153000D02*
D03*
Y140000D02*
D03*
X402000Y390000D02*
D03*
X414000D02*
D03*
X426000D02*
D03*
Y402000D02*
D03*
X402000D02*
D03*
X414000D02*
D03*
X402000Y426000D02*
D03*
X414000D02*
D03*
X426000D02*
D03*
X414000Y414000D02*
D03*
X402000D02*
D03*
X426000D02*
D03*
X201000Y123000D02*
D03*
X220000D02*
D03*
X105000Y442000D02*
D03*
X119000Y428000D02*
D03*
X373000Y115000D02*
D03*
X348000D02*
D03*
X396000D02*
D03*
X533000Y149000D02*
D03*
Y190000D02*
D03*
X514000Y213000D02*
D03*
X480000Y212000D02*
D03*
X533000Y233000D02*
D03*
Y267000D02*
D03*
Y297000D02*
D03*
X532000Y329000D02*
D03*
X510000Y316000D02*
D03*
X481000D02*
D03*
X337000Y405000D02*
D03*
X355000Y425000D02*
D03*
X308082Y255840D02*
D03*
X309000Y238000D02*
D03*
X294000Y241000D02*
D03*
Y252000D02*
D03*
X92000Y168000D02*
D03*
X95000Y127000D02*
D03*
X112000Y115000D02*
D03*
X100000D02*
D03*
X236000Y439500D02*
D03*
X163000Y415000D02*
D03*
Y398000D02*
D03*
X150000Y442000D02*
D03*
Y431000D02*
D03*
X158000Y452000D02*
D03*
X169000D02*
D03*
X111000Y72000D02*
D03*
X112000Y95000D02*
D03*
X141000Y60000D02*
D03*
X123000D02*
D03*
X30000Y136000D02*
D03*
Y119000D02*
D03*
Y169000D02*
D03*
Y152000D02*
D03*
X33000Y201000D02*
D03*
Y184000D02*
D03*
Y234000D02*
D03*
Y217000D02*
D03*
Y269000D02*
D03*
Y252000D02*
D03*
Y303000D02*
D03*
Y286000D02*
D03*
Y336000D02*
D03*
Y319000D02*
D03*
Y354000D02*
D03*
Y371000D02*
D03*
X278000Y134000D02*
D03*
X291000D02*
D03*
X297000Y125000D02*
D03*
X282000D02*
D03*
X268000Y129000D02*
D03*
X218000Y182000D02*
D03*
X206000D02*
D03*
X193000D02*
D03*
X217630Y193040D02*
D03*
X205509Y192982D02*
D03*
X193500Y193040D02*
D03*
X218000Y206000D02*
D03*
X206000D02*
D03*
X193000D02*
D03*
X304000Y373000D02*
D03*
Y388000D02*
D03*
X348000Y443000D02*
D03*
X324000Y123500D02*
D03*
X327500Y129500D02*
D03*
X303900Y350900D02*
D03*
X349500Y227000D02*
D03*
X135500Y150000D02*
D03*
X125000Y139500D02*
D03*
Y150000D02*
D03*
X346943Y154790D02*
D03*
Y161269D02*
D03*
X346500Y259000D02*
D03*
Y265500D02*
D03*
X364500Y146500D02*
D03*
X356000Y147000D02*
D03*
X374000Y146500D02*
D03*
Y137500D02*
D03*
X356000Y137000D02*
D03*
X364500Y137500D02*
D03*
X347143Y369761D02*
D03*
X347238Y363400D02*
D03*
X356500Y242000D02*
D03*
X375500D02*
D03*
Y251000D02*
D03*
X356500Y251500D02*
D03*
X366000Y251000D02*
D03*
Y242000D02*
D03*
X355000Y345000D02*
D03*
X363500Y354500D02*
D03*
X372500Y345500D02*
D03*
Y354500D02*
D03*
X355000D02*
D03*
X363500Y345500D02*
D03*
X424000Y216000D02*
D03*
X411000D02*
D03*
X398000D02*
D03*
X411000Y205000D02*
D03*
X398000D02*
D03*
X424000D02*
D03*
X411000Y194000D02*
D03*
X424000D02*
D03*
X398000D02*
D03*
X411000Y183000D02*
D03*
X398000D02*
D03*
X424000D02*
D03*
X423000Y320000D02*
D03*
X410000D02*
D03*
X397000D02*
D03*
X410000Y309000D02*
D03*
X397000D02*
D03*
X423000D02*
D03*
X410000Y298000D02*
D03*
X423000D02*
D03*
X397000D02*
D03*
X410000Y287000D02*
D03*
X397000D02*
D03*
X423000D02*
D03*
X452900Y335000D02*
D03*
X358500D02*
D03*
X362300Y326600D02*
D03*
X463500Y315600D02*
D03*
X452800Y232300D02*
D03*
X463300Y211400D02*
D03*
X453000Y128300D02*
D03*
X311000Y288000D02*
D03*
Y299000D02*
D03*
X300000Y288000D02*
D03*
Y299000D02*
D03*
X289000Y288000D02*
D03*
Y299000D02*
D03*
X277000Y288000D02*
D03*
Y299000D02*
D03*
X295000Y428000D02*
D03*
X198000Y337000D02*
D03*
X181000Y343000D02*
D03*
X199000Y272000D02*
D03*
Y306000D02*
D03*
X187000Y321000D02*
D03*
X188000Y286000D02*
D03*
X164000Y220000D02*
D03*
Y232000D02*
D03*
X153000Y220000D02*
D03*
Y232000D02*
D03*
X141000Y220000D02*
D03*
Y232000D02*
D03*
X129000Y220000D02*
D03*
Y232000D02*
D03*
X111000D02*
D03*
X117000Y222000D02*
D03*
Y207000D02*
D03*
Y191000D02*
D03*
X101000Y192000D02*
D03*
Y207000D02*
D03*
Y221000D02*
D03*
X105000Y253000D02*
D03*
X128000Y271000D02*
D03*
Y285000D02*
D03*
Y298000D02*
D03*
Y311000D02*
D03*
Y324000D02*
D03*
X113000Y267000D02*
D03*
Y284000D02*
D03*
Y301000D02*
D03*
Y321000D02*
D03*
X94000Y241000D02*
D03*
Y254000D02*
D03*
Y269000D02*
D03*
Y283000D02*
D03*
Y296000D02*
D03*
Y309000D02*
D03*
Y323000D02*
D03*
Y336000D02*
D03*
Y353000D02*
D03*
X106000Y342000D02*
D03*
X121000D02*
D03*
X135000Y343000D02*
D03*
X304000Y337000D02*
D03*
X297259Y405549D02*
D03*
X326000Y411000D02*
D03*
X295000Y441000D02*
D03*
X304000Y420000D02*
D03*
X328000Y427000D02*
D03*
Y441000D02*
D03*
X280000Y420000D02*
D03*
X268000D02*
D03*
X256000D02*
D03*
X259000Y350000D02*
D03*
Y362000D02*
D03*
Y374000D02*
D03*
Y385000D02*
D03*
Y396000D02*
D03*
X264000Y407000D02*
D03*
X254000D02*
D03*
X280000Y431000D02*
D03*
Y441000D02*
D03*
X235000Y389000D02*
D03*
Y378000D02*
D03*
Y367000D02*
D03*
Y356000D02*
D03*
X213000Y367000D02*
D03*
Y378000D02*
D03*
Y389000D02*
D03*
Y356000D02*
D03*
X224000Y389000D02*
D03*
Y367000D02*
D03*
Y378000D02*
D03*
Y356000D02*
D03*
D54*
X60600Y519000D02*
D03*
X40800Y519300D02*
D03*
X50500Y497500D02*
D03*
X63500Y510500D02*
D03*
X50500Y523500D02*
D03*
X37500Y510500D02*
D03*
X59700Y501300D02*
D03*
X41200D02*
D03*
X40700Y40300D02*
D03*
X59200D02*
D03*
X37000Y49500D02*
D03*
X50000Y62500D02*
D03*
X63000Y49500D02*
D03*
X50000Y36500D02*
D03*
X40300Y58300D02*
D03*
X60100Y58000D02*
D03*
X502200Y501800D02*
D03*
X520700D02*
D03*
X498500Y511000D02*
D03*
X511500Y524000D02*
D03*
X524500Y511000D02*
D03*
X511500Y498000D02*
D03*
X501800Y519800D02*
D03*
X521600Y519500D02*
D03*
X502200Y40300D02*
D03*
X520700D02*
D03*
X498500Y49500D02*
D03*
X511500Y62500D02*
D03*
X524500Y49500D02*
D03*
X511500Y36500D02*
D03*
X501800Y58300D02*
D03*
X521600Y58000D02*
D03*
D59*
X137330Y168030D02*
D03*
X156330Y168030D02*
D03*
X146830Y140030D02*
D03*
X156330D02*
D03*
X137330D02*
D03*
D60*
X173500Y143000D02*
D03*
Y165000D02*
D03*
D61*
X223500Y158000D02*
D03*
Y148500D02*
D03*
Y139000D02*
D03*
X198000D02*
D03*
Y158000D02*
D03*
D62*
X137500Y124000D02*
D03*
X137500Y129080D02*
D03*
D63*
X325500Y354490D02*
D03*
X335000D02*
D03*
X344500D02*
D03*
Y377500D02*
D03*
X335000D02*
D03*
X335500Y273505D02*
D03*
X345000D02*
D03*
Y250495D02*
D03*
X335500D02*
D03*
X326000D02*
D03*
X336000Y169605D02*
D03*
X345500D02*
D03*
Y146595D02*
D03*
X336000D02*
D03*
X326500D02*
D03*
D64*
X325500Y377500D02*
D03*
X326000Y273505D02*
D03*
X326500Y169605D02*
D03*
D65*
X137499Y126540D02*
D03*
M02*
