G04*
G04 #@! TF.GenerationSoftware,Altium Limited,Altium Designer,23.8.1 (32)*
G04*
G04 Layer_Physical_Order=3*
G04 Layer_Color=16776960*
%FSLAX44Y44*%
%MOMM*%
G71*
G04*
G04 #@! TF.SameCoordinates,050FA7AA-ABA3-4C18-851E-56E06D371AC9*
G04*
G04*
G04 #@! TF.FilePolarity,Negative*
G04*
G01*
G75*
%ADD34C,1.2000*%
%ADD46C,1.0160*%
%ADD47C,0.7000*%
%ADD48C,2.4500*%
D34*
X95200Y39900D02*
D03*
X115200D02*
D03*
X135200D02*
D03*
X155200D02*
D03*
X175200D02*
D03*
X195200D02*
D03*
X215200D02*
D03*
X235200D02*
D03*
X95200Y59900D02*
D03*
X115200D02*
D03*
X135200D02*
D03*
X155200D02*
D03*
X175200D02*
D03*
X195200D02*
D03*
X215200D02*
D03*
X235200D02*
D03*
X255200Y39900D02*
D03*
Y59900D02*
D03*
X275200Y39900D02*
D03*
Y59900D02*
D03*
X95200Y316000D02*
D03*
X115200D02*
D03*
X135200D02*
D03*
X155200D02*
D03*
X175200D02*
D03*
X195200D02*
D03*
X215200D02*
D03*
X235200D02*
D03*
X95200Y336000D02*
D03*
X115200D02*
D03*
X135200D02*
D03*
X155200D02*
D03*
X175200D02*
D03*
X195200D02*
D03*
X215200D02*
D03*
X235200D02*
D03*
X255200Y316000D02*
D03*
Y336000D02*
D03*
X275200Y316000D02*
D03*
Y336000D02*
D03*
D46*
X48000Y348000D02*
G03*
X23000Y323000I0J-25000D01*
G01*
X453000Y323000D02*
G03*
X428000Y348000I-25000J0D01*
G01*
X428000Y28000D02*
G03*
X453000Y53000I0J25000D01*
G01*
X23000Y53000D02*
G03*
X48000Y28000I25000J0D01*
G01*
X23000Y53000D02*
X23000Y323100D01*
X23000Y323000D02*
X23000Y323100D01*
X48000Y348000D02*
X428000Y348000D01*
X453000Y53000D02*
Y323000D01*
X48000Y28000D02*
X428000Y28000D01*
D47*
X129400Y133600D02*
D03*
X156500Y160200D02*
D03*
X149000Y171898D02*
D03*
X143006Y178390D02*
D03*
X137006Y172288D02*
D03*
X137000Y185000D02*
D03*
X111000Y254000D02*
D03*
X122000Y247000D02*
D03*
Y234000D02*
D03*
X111000Y239000D02*
D03*
X115000Y225000D02*
D03*
X101000Y87000D02*
D03*
Y107000D02*
D03*
Y127000D02*
D03*
Y147000D02*
D03*
X55000Y142000D02*
D03*
Y162000D02*
D03*
Y182000D02*
D03*
Y202000D02*
D03*
Y221000D02*
D03*
Y242000D02*
D03*
X282000Y161000D02*
D03*
X271000D02*
D03*
X143250Y138500D02*
D03*
X150750D02*
D03*
X306500Y181880D02*
D03*
X191000Y80000D02*
D03*
X174000D02*
D03*
X156000Y102000D02*
D03*
Y80000D02*
D03*
X255800Y76400D02*
D03*
X181600Y99300D02*
D03*
X269700Y75000D02*
D03*
X157500Y193700D02*
D03*
X154700Y234300D02*
D03*
X197700Y296100D02*
D03*
X223900Y287100D02*
D03*
X164500Y234200D02*
D03*
X145500Y160000D02*
D03*
X197750Y175000D02*
D03*
X189500Y298500D02*
D03*
X190500Y106000D02*
D03*
X197000Y234000D02*
D03*
X131500Y160200D02*
D03*
X245000Y256000D02*
D03*
X158250Y138500D02*
D03*
X153900Y122900D02*
D03*
X318000Y125000D02*
D03*
X310000D02*
D03*
X302000D02*
D03*
X294000D02*
D03*
X318000Y232000D02*
D03*
X310000D02*
D03*
X302000D02*
D03*
X294000D02*
D03*
X318000Y338000D02*
D03*
X310000D02*
D03*
X302000D02*
D03*
X294000D02*
D03*
X306000Y116500D02*
D03*
Y75580D02*
D03*
X306500Y222920D02*
D03*
X307000Y288000D02*
D03*
Y328920D02*
D03*
X214300Y192700D02*
D03*
X217200Y224700D02*
D03*
X208100Y224600D02*
D03*
X38700Y313900D02*
D03*
X57200D02*
D03*
X35000Y323100D02*
D03*
X48000Y336100D02*
D03*
X61000Y323100D02*
D03*
X48000Y310100D02*
D03*
X38300Y331900D02*
D03*
X58100Y331600D02*
D03*
Y61500D02*
D03*
X38300Y61800D02*
D03*
X48000Y40000D02*
D03*
X61000Y53000D02*
D03*
X48000Y66000D02*
D03*
X35000Y53000D02*
D03*
X57200Y43800D02*
D03*
X38700D02*
D03*
X438100Y331600D02*
D03*
X418300Y331900D02*
D03*
X428000Y310100D02*
D03*
X441000Y323100D02*
D03*
X428000Y336100D02*
D03*
X415000Y323100D02*
D03*
X437200Y313900D02*
D03*
X418700D02*
D03*
X438100Y61500D02*
D03*
X418300Y61800D02*
D03*
X428000Y40000D02*
D03*
X441000Y53000D02*
D03*
X428000Y66000D02*
D03*
X415000Y53000D02*
D03*
X437200Y43800D02*
D03*
X418700D02*
D03*
D48*
X48000Y323100D02*
D03*
Y53000D02*
D03*
X428000Y323100D02*
D03*
Y53000D02*
D03*
M02*
