G04*
G04 #@! TF.GenerationSoftware,Altium Limited,Altium Designer,23.8.1 (32)*
G04*
G04 Layer_Physical_Order=1*
G04 Layer_Color=255*
%FSLAX44Y44*%
%MOMM*%
G71*
G04*
G04 #@! TF.SameCoordinates,92C49762-E6E1-4201-94AC-3A3CAB1C571E*
G04*
G04*
G04 #@! TF.FilePolarity,Positive*
G04*
G01*
G75*
%ADD10C,0.2000*%
%ADD13C,0.5000*%
%ADD18R,1.0000X0.8000*%
%ADD19R,1.9600X3.1500*%
%ADD20R,3.2000X2.4000*%
%ADD21R,1.5240X2.5400*%
%ADD22R,2.5400X1.5240*%
%ADD23R,0.2540X0.2540*%
%ADD24O,1.2000X0.2500*%
%ADD25R,0.5000X0.4000*%
%ADD26R,1.2700X0.8890*%
G04:AMPARAMS|DCode=27|XSize=1mm|YSize=0.8mm|CornerRadius=0mm|HoleSize=0mm|Usage=FLASHONLY|Rotation=270.000|XOffset=0mm|YOffset=0mm|HoleType=Round|Shape=Octagon|*
%AMOCTAGOND27*
4,1,8,-0.2000,-0.5000,0.2000,-0.5000,0.4000,-0.3000,0.4000,0.3000,0.2000,0.5000,-0.2000,0.5000,-0.4000,0.3000,-0.4000,-0.3000,-0.2000,-0.5000,0.0*
%
%ADD27OCTAGOND27*%

%ADD28R,0.8000X1.0000*%
%ADD29O,0.5000X1.5000*%
%ADD30R,0.5000X1.5000*%
%ADD31R,1.0000X0.8000*%
G04:AMPARAMS|DCode=32|XSize=1mm|YSize=0.8mm|CornerRadius=0mm|HoleSize=0mm|Usage=FLASHONLY|Rotation=180.000|XOffset=0mm|YOffset=0mm|HoleType=Round|Shape=Octagon|*
%AMOCTAGOND32*
4,1,8,-0.5000,0.2000,-0.5000,-0.2000,-0.3000,-0.4000,0.3000,-0.4000,0.5000,-0.2000,0.5000,0.2000,0.3000,0.4000,-0.3000,0.4000,-0.5000,0.2000,0.0*
%
%ADD32OCTAGOND32*%

%ADD33R,1.5748X1.3970*%
%ADD34R,1.3970X1.5748*%
%ADD35R,2.1600X2.2600*%
%ADD36R,1.3000X1.0000*%
G04:AMPARAMS|DCode=37|XSize=1.3mm|YSize=1mm|CornerRadius=0mm|HoleSize=0mm|Usage=FLASHONLY|Rotation=180.000|XOffset=0mm|YOffset=0mm|HoleType=Round|Shape=Octagon|*
%AMOCTAGOND37*
4,1,8,-0.6500,0.2500,-0.6500,-0.2500,-0.4000,-0.5000,0.4000,-0.5000,0.6500,-0.2500,0.6500,0.2500,0.4000,0.5000,-0.4000,0.5000,-0.6500,0.2500,0.0*
%
%ADD37OCTAGOND37*%

G04:AMPARAMS|DCode=38|XSize=5mm|YSize=5mm|CornerRadius=1.25mm|HoleSize=0mm|Usage=FLASHONLY|Rotation=0.000|XOffset=0mm|YOffset=0mm|HoleType=Round|Shape=RoundedRectangle|*
%AMROUNDEDRECTD38*
21,1,5.0000,2.5000,0,0,0.0*
21,1,2.5000,5.0000,0,0,0.0*
1,1,2.5000,1.2500,-1.2500*
1,1,2.5000,-1.2500,-1.2500*
1,1,2.5000,-1.2500,1.2500*
1,1,2.5000,1.2500,1.2500*
%
%ADD38ROUNDEDRECTD38*%
%ADD39R,0.4000X0.5000*%
%ADD40R,0.8890X1.2700*%
G04:AMPARAMS|DCode=41|XSize=0.55mm|YSize=0.8mm|CornerRadius=0.0495mm|HoleSize=0mm|Usage=FLASHONLY|Rotation=0.000|XOffset=0mm|YOffset=0mm|HoleType=Round|Shape=RoundedRectangle|*
%AMROUNDEDRECTD41*
21,1,0.5500,0.7010,0,0,0.0*
21,1,0.4510,0.8000,0,0,0.0*
1,1,0.0990,0.2255,-0.3505*
1,1,0.0990,-0.2255,-0.3505*
1,1,0.0990,-0.2255,0.3505*
1,1,0.0990,0.2255,0.3505*
%
%ADD41ROUNDEDRECTD41*%
%ADD42R,1.7500X4.5000*%
%ADD43R,3.4000X2.5000*%
%ADD44C,1.6000*%
%ADD45R,1.6000X1.6000*%
%ADD46C,3.2000*%
%AMCUSTOMSHAPE47*
4,1,16,-2.2500,2.3000,-2.2500,-2.3000,2.2500,-2.3000,2.2500,-1.5000,1.4000,-1.5000,1.4000,-1.0300,2.2500,-1.0300,2.2500,-0.2300,1.4000,-0.2300,1.4000,0.2400,2.2500,0.2400,2.2500,1.0400,1.4000,1.0400,1.4000,1.5100,2.2500,1.5100,2.2500,2.3000,-2.2500,2.3000,0.0*%
%ADD47CUSTOMSHAPE47*%

%AMCUSTOMSHAPE48*
4,1,16,2.2500,-2.3000,2.2500,2.3000,-2.2500,2.3000,-2.2500,1.5000,-1.4000,1.5000,-1.4000,1.0300,-2.2500,1.0300,-2.2500,0.2300,-1.4000,0.2300,-1.4000,-0.2400,-2.2500,-0.2400,-2.2500,-1.0400,-1.4000,-1.0400,-1.4000,-1.5100,-2.2500,-1.5100,-2.2500,-2.3000,2.2500,-2.3000,0.0*%
%ADD48CUSTOMSHAPE48*%

%ADD49C,0.1000*%
%ADD50C,0.3000*%
%ADD51C,1.0000*%
%ADD52R,0.3048X0.2286*%
%ADD53C,0.5000*%
%ADD54C,0.3000*%
G36*
X516865Y539487D02*
X520664Y538469D01*
X524297Y536964D01*
X527703Y534998D01*
X530823Y532604D01*
X533604Y529823D01*
X535998Y526703D01*
X537964Y523297D01*
X539469Y519664D01*
X540487Y515865D01*
X541000Y511966D01*
Y510000D01*
Y50000D01*
Y48034D01*
X540487Y44135D01*
X539469Y40336D01*
X537964Y36703D01*
X535998Y33297D01*
X533604Y30177D01*
X530823Y27396D01*
X527703Y25002D01*
X524297Y23036D01*
X520664Y21531D01*
X516865Y20513D01*
X512966Y20000D01*
X49034D01*
X45135Y20513D01*
X41336Y21531D01*
X37703Y23036D01*
X34297Y25002D01*
X31177Y27396D01*
X28396Y30177D01*
X26002Y33297D01*
X24036Y36703D01*
X22531Y40336D01*
X21513Y44135D01*
X21000Y48034D01*
Y50000D01*
Y510000D01*
Y511966D01*
X21513Y515865D01*
X22531Y519664D01*
X24036Y523297D01*
X26002Y526703D01*
X28396Y529823D01*
X31177Y532604D01*
X34297Y534998D01*
X37703Y536964D01*
X41336Y538469D01*
X45135Y539487D01*
X49034Y540000D01*
X512966D01*
X516865Y539487D01*
D02*
G37*
%LPC*%
G36*
X345816Y498800D02*
X343184D01*
X340640Y498119D01*
X338360Y496802D01*
X336498Y494940D01*
X335182Y492660D01*
X334500Y490117D01*
Y487483D01*
X335182Y484940D01*
X336498Y482660D01*
X338360Y480798D01*
X340640Y479482D01*
X343184Y478800D01*
X345816D01*
X348360Y479482D01*
X350640Y480798D01*
X352502Y482660D01*
X353819Y484940D01*
X354500Y487483D01*
Y490117D01*
X353819Y492660D01*
X352502Y494940D01*
X350640Y496802D01*
X348360Y498119D01*
X345816Y498800D01*
D02*
G37*
G36*
X218817D02*
X216183D01*
X213640Y498119D01*
X211360Y496802D01*
X209498Y494940D01*
X208181Y492660D01*
X207500Y490117D01*
Y487483D01*
X208181Y484940D01*
X209498Y482660D01*
X211360Y480798D01*
X213640Y479482D01*
X216183Y478800D01*
X218817D01*
X221360Y479482D01*
X223640Y480798D01*
X225502Y482660D01*
X226819Y484940D01*
X227500Y487483D01*
Y490117D01*
X226819Y492660D01*
X225502Y494940D01*
X223640Y496802D01*
X221360Y498119D01*
X218817Y498800D01*
D02*
G37*
G36*
X396617Y498800D02*
X393983D01*
X391440Y498119D01*
X389160Y496802D01*
X387298Y494940D01*
X385981Y492660D01*
X385300Y490117D01*
Y487483D01*
X385981Y484940D01*
X387298Y482660D01*
X389160Y480798D01*
X391440Y479482D01*
X393983Y478800D01*
X396617D01*
X399160Y479482D01*
X401440Y480798D01*
X403302Y482660D01*
X404618Y484940D01*
X405300Y487483D01*
Y490117D01*
X404618Y492660D01*
X403302Y494940D01*
X401440Y496802D01*
X399160Y498119D01*
X396617Y498800D01*
D02*
G37*
G36*
X371217D02*
X368583D01*
X366040Y498119D01*
X363760Y496802D01*
X361898Y494940D01*
X360582Y492660D01*
X359900Y490117D01*
Y487483D01*
X360582Y484940D01*
X361898Y482660D01*
X363760Y480798D01*
X366040Y479482D01*
X368583Y478800D01*
X371217D01*
X373760Y479482D01*
X376040Y480798D01*
X377902Y482660D01*
X379218Y484940D01*
X379900Y487483D01*
Y490117D01*
X379218Y492660D01*
X377902Y494940D01*
X376040Y496802D01*
X373760Y498119D01*
X371217Y498800D01*
D02*
G37*
G36*
X320416D02*
X317784D01*
X315240Y498119D01*
X312960Y496802D01*
X311098Y494940D01*
X309781Y492660D01*
X309100Y490117D01*
Y487483D01*
X309781Y484940D01*
X311098Y482660D01*
X312960Y480798D01*
X315240Y479482D01*
X317784Y478800D01*
X320416D01*
X322960Y479482D01*
X325240Y480798D01*
X327102Y482660D01*
X328419Y484940D01*
X329100Y487483D01*
Y490117D01*
X328419Y492660D01*
X327102Y494940D01*
X325240Y496802D01*
X322960Y498119D01*
X320416Y498800D01*
D02*
G37*
G36*
X269617D02*
X266984D01*
X264440Y498119D01*
X262160Y496802D01*
X260298Y494940D01*
X258981Y492660D01*
X258300Y490117D01*
Y487483D01*
X258981Y484940D01*
X260298Y482660D01*
X262160Y480798D01*
X264440Y479482D01*
X266984Y478800D01*
X269617D01*
X272160Y479482D01*
X274440Y480798D01*
X276302Y482660D01*
X277619Y484940D01*
X278300Y487483D01*
Y490117D01*
X277619Y492660D01*
X276302Y494940D01*
X274440Y496802D01*
X272160Y498119D01*
X269617Y498800D01*
D02*
G37*
G36*
X244216D02*
X241583D01*
X239040Y498119D01*
X236760Y496802D01*
X234898Y494940D01*
X233582Y492660D01*
X232900Y490117D01*
Y487483D01*
X233582Y484940D01*
X234898Y482660D01*
X236760Y480798D01*
X239040Y479482D01*
X241583Y478800D01*
X244216D01*
X246760Y479482D01*
X249040Y480798D01*
X250902Y482660D01*
X252218Y484940D01*
X252900Y487483D01*
Y490117D01*
X252218Y492660D01*
X250902Y494940D01*
X249040Y496802D01*
X246760Y498119D01*
X244216Y498800D01*
D02*
G37*
G36*
X496000Y473039D02*
X402000D01*
X401220Y472884D01*
X400558Y472442D01*
X400116Y471780D01*
X399961Y471000D01*
Y440000D01*
X399352Y439259D01*
X381900D01*
X381900Y439259D01*
X380729Y439026D01*
X379737Y438363D01*
X379737Y438363D01*
X339737Y398363D01*
X339074Y397370D01*
X338841Y396200D01*
X338841Y396200D01*
Y288167D01*
X330537Y279863D01*
X329874Y278871D01*
X329641Y277700D01*
X329641Y277700D01*
Y238300D01*
X329641Y238300D01*
X329874Y237129D01*
X330242Y236579D01*
X329453Y234039D01*
X323588D01*
Y293191D01*
X326000Y293500D01*
Y293500D01*
X335000D01*
Y299959D01*
X335001Y302499D01*
X335001Y304040D01*
Y310499D01*
X335001D01*
X335001Y311999D01*
X335001D01*
Y319999D01*
X326001D01*
Y313716D01*
X323461Y313466D01*
X323443Y313553D01*
X322780Y314545D01*
X322780Y314545D01*
X317243Y320083D01*
X316251Y320746D01*
X315080Y320979D01*
X315080Y320979D01*
X312580D01*
Y327420D01*
X303580D01*
Y308420D01*
X312580D01*
Y310291D01*
X315120Y311689D01*
X315964Y311154D01*
X316029Y310411D01*
X316029D01*
Y304451D01*
X316029Y301911D01*
X316029Y299871D01*
Y293911D01*
X317470D01*
Y234039D01*
X273054D01*
X272799Y234421D01*
X274157Y236961D01*
X284000D01*
X284780Y237116D01*
X285442Y237558D01*
X285884Y238220D01*
X286039Y239000D01*
Y251000D01*
X286039Y251000D01*
X285884Y251780D01*
X285442Y252442D01*
X285442Y252442D01*
X282008Y255876D01*
X282364Y257177D01*
X283067Y258409D01*
X284436Y258681D01*
X285924Y259676D01*
X286919Y261164D01*
X287268Y262920D01*
Y272920D01*
X286919Y274676D01*
X285924Y276164D01*
X284436Y277159D01*
X282680Y277508D01*
X280924Y277159D01*
X280460Y276849D01*
X279873Y276833D01*
X277482Y277416D01*
X277442Y277442D01*
X277299Y277538D01*
X276780Y277884D01*
X276000Y278039D01*
X268039D01*
X268039Y301000D01*
X267884Y301780D01*
X267442Y302442D01*
X267442Y302442D01*
X258829Y311055D01*
X259930Y313271D01*
X260064Y313412D01*
X265392D01*
Y312920D01*
X265741Y311164D01*
X266736Y309676D01*
X268224Y308681D01*
X269980Y308332D01*
X271736Y308681D01*
X273224Y309676D01*
X274219Y311164D01*
X275150Y311484D01*
X276886Y311552D01*
X277688Y310508D01*
X279150Y309386D01*
X280853Y308680D01*
X281077Y308651D01*
X282680Y308332D01*
X284282Y308651D01*
X284507Y308680D01*
X286210Y309386D01*
X287673Y310508D01*
X288474Y311552D01*
X290210Y311484D01*
X291141Y311164D01*
X292136Y309676D01*
X293624Y308681D01*
X295380Y308332D01*
X297136Y308681D01*
X298624Y309676D01*
X299619Y311164D01*
X299968Y312920D01*
Y322920D01*
X299619Y324676D01*
X298624Y326164D01*
X297136Y327159D01*
X295380Y327508D01*
X293624Y327159D01*
X291042Y328488D01*
X290884Y329220D01*
X291039Y330000D01*
Y449000D01*
X290884Y449780D01*
X290442Y450442D01*
X289780Y450884D01*
X289000Y451039D01*
X248000D01*
X247220Y450884D01*
X246558Y450442D01*
X246116Y449780D01*
X245961Y449000D01*
Y427039D01*
X224059D01*
Y437000D01*
X223826Y438171D01*
X223163Y439163D01*
X221163Y441163D01*
X220634Y441516D01*
X220499Y443842D01*
X220499Y444001D01*
X220499D01*
Y452001D01*
X211499D01*
X211499Y452001D01*
X209140Y452437D01*
X208946Y452622D01*
Y453351D01*
X196056D01*
Y446862D01*
X193516Y445810D01*
X192162Y447164D01*
X191170Y447827D01*
X189999Y448060D01*
X189946Y450463D01*
Y453351D01*
X177056D01*
Y436651D01*
X186092D01*
X187472Y434111D01*
X186789Y433059D01*
X185000D01*
X183829Y432826D01*
X182837Y432163D01*
X182837Y432163D01*
X175130Y424456D01*
X174467Y423463D01*
X174234Y422293D01*
X172276Y421000D01*
X170293D01*
Y409000D01*
X174234D01*
Y404500D01*
X170293D01*
Y392500D01*
X170293D01*
X170102Y390039D01*
X156353D01*
Y398500D01*
X156293Y398959D01*
Y401500D01*
X153293Y404500D01*
X153278D01*
X142060Y415717D01*
Y426126D01*
X143985D01*
Y445874D01*
X126015D01*
Y426126D01*
X127940D01*
Y412793D01*
X128130Y411346D01*
X127323Y410631D01*
X125834Y410050D01*
X94442Y441442D01*
X93780Y441884D01*
X93000Y442039D01*
X34000D01*
X33220Y441884D01*
X32558Y441442D01*
X32116Y440780D01*
X31961Y440000D01*
Y381000D01*
X32116Y380220D01*
X32558Y379558D01*
X33220Y379116D01*
X34000Y378961D01*
X64562D01*
X66961Y378000D01*
Y176000D01*
X67116Y175220D01*
X67558Y174558D01*
X68220Y174116D01*
X69000Y173961D01*
X90000D01*
X90780Y174116D01*
X91442Y174558D01*
X91884Y175220D01*
X92039Y176000D01*
Y226155D01*
X114811Y248927D01*
X117351Y247875D01*
Y242069D01*
X126351D01*
Y242069D01*
X128489Y243038D01*
X129520Y243243D01*
X130147Y243662D01*
X130466Y243186D01*
X131954Y242191D01*
X133710Y241842D01*
X135466Y242191D01*
X135975Y242531D01*
X136870Y242426D01*
X138725Y241878D01*
X138961Y241704D01*
X139058Y241558D01*
X139720Y241116D01*
X140500Y240961D01*
X162000D01*
X162780Y241116D01*
X163442Y241558D01*
X163884Y242220D01*
X164039Y243000D01*
Y264000D01*
X163884Y264780D01*
X163442Y265442D01*
X162780Y265884D01*
X162000Y266039D01*
X157039D01*
Y348000D01*
X158781Y349818D01*
X159042Y349961D01*
X185000D01*
X185794Y348000D01*
X185970D01*
Y347330D01*
X199970D01*
Y347807D01*
Y348000D01*
X199998D01*
X200259Y349785D01*
X202549Y351067D01*
X202816Y351014D01*
X204931Y350013D01*
Y349430D01*
X205086Y348650D01*
X205528Y347988D01*
X206190Y347546D01*
X206970Y347391D01*
X218961D01*
Y344000D01*
X219116Y343220D01*
X219558Y342558D01*
X220220Y342116D01*
X220570Y342046D01*
X221854Y339738D01*
X205558Y323442D01*
X205116Y322780D01*
X204961Y322000D01*
Y293000D01*
X205116Y292220D01*
X205558Y291558D01*
X205558Y291558D01*
X232730Y264386D01*
X231758Y262039D01*
X209843D01*
X209000Y262039D01*
X209000Y262039D01*
X209000Y262039D01*
X208220Y261884D01*
X207757Y261575D01*
X207530Y261490D01*
Y261414D01*
X182558Y236442D01*
X182116Y235780D01*
X181961Y235000D01*
Y214354D01*
X180443Y213303D01*
X180000Y213126D01*
Y213000D01*
X179686D01*
X179459Y212909D01*
X179000Y213000D01*
X166000D01*
X165220Y212845D01*
X164558Y212403D01*
X164116Y211741D01*
X164042Y211372D01*
X162742Y210643D01*
X161421Y210298D01*
X160866Y210669D01*
X159110Y211018D01*
X157354Y210669D01*
X155866Y209674D01*
X154871Y208186D01*
X154522Y206430D01*
Y196430D01*
X154871Y194674D01*
X155866Y193186D01*
X156051Y193062D01*
Y189267D01*
X155745Y188961D01*
X145276D01*
Y174487D01*
X145022Y172238D01*
X142828Y172039D01*
X137861D01*
X135429Y172299D01*
X135429Y176473D01*
X135873Y176917D01*
X135873Y176917D01*
X136536Y177910D01*
X136769Y179080D01*
X136769Y179080D01*
Y193062D01*
X136954Y193186D01*
X137949Y194674D01*
X138298Y196430D01*
Y206430D01*
X137949Y208186D01*
X136954Y209674D01*
X135466Y210669D01*
X133710Y211018D01*
X131954Y210669D01*
X130466Y209674D01*
X129471Y208186D01*
X129122Y206430D01*
Y196430D01*
X129471Y194674D01*
X130466Y193186D01*
X130651Y193062D01*
Y183095D01*
X128855Y181299D01*
X127429D01*
X124889Y181299D01*
X118929D01*
Y179858D01*
X116379D01*
Y181299D01*
X108379D01*
Y173423D01*
X107624Y171957D01*
X106241Y171329D01*
X98301D01*
Y163900D01*
X98220Y163884D01*
X97558Y163442D01*
X97116Y162780D01*
X96961Y162000D01*
Y138000D01*
X97116Y137220D01*
X97558Y136558D01*
X98220Y136116D01*
X99000Y135961D01*
X115961D01*
Y67000D01*
X116116Y66220D01*
X116558Y65558D01*
X117220Y65116D01*
X118000Y64961D01*
X158797D01*
X160560Y63198D01*
X162840Y61881D01*
X165383Y61200D01*
X168016D01*
X170560Y61881D01*
X172840Y63198D01*
X174603Y64961D01*
X184197D01*
X185960Y63198D01*
X188240Y61881D01*
X190784Y61200D01*
X193417D01*
X195960Y61881D01*
X198240Y63198D01*
X200003Y64961D01*
X209597D01*
X211360Y63198D01*
X213640Y61881D01*
X216183Y61200D01*
X218817D01*
X221360Y61881D01*
X223640Y63198D01*
X225403Y64961D01*
X234997D01*
X236760Y63198D01*
X239040Y61881D01*
X241583Y61200D01*
X244216D01*
X246760Y61881D01*
X249040Y63198D01*
X250803Y64961D01*
X252000D01*
X252780Y65116D01*
X253442Y65558D01*
X253884Y66220D01*
X254039Y67000D01*
Y77000D01*
X253884Y77780D01*
X253442Y78442D01*
X253442Y78442D01*
X252713Y79171D01*
X253549Y81927D01*
X253898Y81997D01*
X259660Y76235D01*
X258981Y75060D01*
X258300Y72516D01*
Y69883D01*
X258981Y67340D01*
X260298Y65060D01*
X262160Y63198D01*
X264440Y61881D01*
X266984Y61200D01*
X269617D01*
X272160Y61881D01*
X274440Y63198D01*
X276302Y65060D01*
X277619Y67340D01*
X278300Y69883D01*
Y72516D01*
X277619Y75060D01*
X276302Y77340D01*
X274440Y79202D01*
X272160Y80519D01*
X269617Y81200D01*
X266984D01*
X264440Y80519D01*
X263265Y79840D01*
X260000Y83104D01*
X260972Y85451D01*
X275844D01*
X285060Y76235D01*
X284382Y75060D01*
X283700Y72516D01*
Y69883D01*
X284382Y67340D01*
X285698Y65060D01*
X287560Y63198D01*
X289840Y61881D01*
X292383Y61200D01*
X295016D01*
X297560Y61881D01*
X299840Y63198D01*
X301702Y65060D01*
X303018Y67340D01*
X303700Y69883D01*
Y72516D01*
X303018Y75060D01*
X301702Y77340D01*
X299840Y79202D01*
X297560Y80519D01*
X295016Y81200D01*
X292383D01*
X289840Y80519D01*
X288665Y79840D01*
X283400Y85104D01*
X284372Y87451D01*
X299244D01*
X310460Y76235D01*
X309781Y75060D01*
X309100Y72516D01*
Y69883D01*
X309781Y67340D01*
X311098Y65060D01*
X312960Y63198D01*
X315240Y61881D01*
X317784Y61200D01*
X320416D01*
X322960Y61881D01*
X325240Y63198D01*
X327102Y65060D01*
X328419Y67340D01*
X329100Y69883D01*
Y72516D01*
X328419Y75060D01*
X327102Y77340D01*
X325240Y79202D01*
X322960Y80519D01*
X320416Y81200D01*
X317784D01*
X315240Y80519D01*
X314065Y79840D01*
X306800Y87104D01*
X307772Y89451D01*
X322644D01*
X335860Y76235D01*
X335182Y75060D01*
X334500Y72516D01*
Y69883D01*
X335182Y67340D01*
X336498Y65060D01*
X338360Y63198D01*
X340640Y61881D01*
X343184Y61200D01*
X345816D01*
X348360Y61881D01*
X350640Y63198D01*
X352502Y65060D01*
X353819Y67340D01*
X354500Y69883D01*
Y72516D01*
X353819Y75060D01*
X352502Y77340D01*
X350640Y79202D01*
X348360Y80519D01*
X345816Y81200D01*
X343184D01*
X340640Y80519D01*
X339465Y79840D01*
X330200Y89104D01*
X331172Y91451D01*
X346044D01*
X361260Y76235D01*
X360582Y75060D01*
X359900Y72516D01*
Y69883D01*
X360582Y67340D01*
X361898Y65060D01*
X363760Y63198D01*
X366040Y61881D01*
X368583Y61200D01*
X371217D01*
X373760Y61881D01*
X376040Y63198D01*
X377902Y65060D01*
X379218Y67340D01*
X379900Y69883D01*
Y72516D01*
X379218Y75060D01*
X377902Y77340D01*
X376040Y79202D01*
X373760Y80519D01*
X371217Y81200D01*
X368583D01*
X366040Y80519D01*
X364865Y79840D01*
X353600Y91104D01*
X354572Y93451D01*
X369444D01*
X385300Y77595D01*
Y61200D01*
X405300D01*
Y81200D01*
X388905D01*
X372302Y97802D01*
X371475Y98355D01*
X370500Y98549D01*
X252198D01*
X240549Y110198D01*
Y130826D01*
X240761Y131164D01*
X243089Y132713D01*
X243250Y132681D01*
X262750D01*
X264116Y132953D01*
X265273Y133727D01*
X268023Y136477D01*
X268797Y137634D01*
X269069Y139000D01*
Y177000D01*
X271241Y178931D01*
X275322D01*
X283631Y170622D01*
Y154000D01*
X283903Y152634D01*
X284677Y151477D01*
X293031Y143122D01*
Y140300D01*
X293303Y138934D01*
X294077Y137777D01*
X302931Y128922D01*
Y126500D01*
X303203Y125134D01*
X303977Y123977D01*
X305604Y122349D01*
X304552Y119809D01*
X265414D01*
X264304Y121314D01*
X263885Y122349D01*
X264064Y123250D01*
X263812Y124518D01*
X263093Y125593D01*
X262018Y126311D01*
X260750Y126564D01*
X251250D01*
X249982Y126311D01*
X248907Y125593D01*
X248189Y124518D01*
X248188Y124513D01*
X245837Y122163D01*
X245174Y121171D01*
X244941Y120000D01*
X244941Y120000D01*
Y115404D01*
X244941Y115404D01*
X245174Y114233D01*
X245837Y113241D01*
X250741Y108337D01*
X250741Y108337D01*
X251733Y107674D01*
X252904Y107441D01*
X252904Y107441D01*
X330300D01*
X330300Y107441D01*
X331470Y107674D01*
X332463Y108337D01*
X348467Y124341D01*
X363371D01*
Y122691D01*
X371371D01*
Y122691D01*
X371871Y122691D01*
Y122691D01*
X379871D01*
Y122691D01*
X381380Y122460D01*
X381380Y122460D01*
X382315Y122460D01*
X395380D01*
Y132752D01*
X397920Y133849D01*
X398488Y133626D01*
X399961Y132607D01*
Y122000D01*
X400116Y121220D01*
X400558Y120558D01*
X401220Y120116D01*
X402000Y119961D01*
X429961D01*
Y85120D01*
X426300D01*
Y65880D01*
X455700D01*
Y65961D01*
X458300D01*
Y65880D01*
X487700D01*
Y85120D01*
X485039D01*
Y119961D01*
X527000D01*
X527780Y120116D01*
X528442Y120558D01*
X528884Y121220D01*
X529039Y122000D01*
Y199000D01*
X528884Y199780D01*
X528442Y200442D01*
X527780Y200884D01*
X527000Y201039D01*
X462845D01*
X458640Y205244D01*
X458822Y205683D01*
X460189Y207591D01*
X462405Y206900D01*
X464195D01*
X465849Y207585D01*
X467115Y208851D01*
X467800Y210505D01*
Y212295D01*
X467115Y213949D01*
X465849Y215215D01*
X464195Y215900D01*
X462650D01*
X462379Y215921D01*
X460189Y217731D01*
Y222961D01*
X527000D01*
X527780Y223116D01*
X528442Y223558D01*
X528884Y224220D01*
X529039Y225000D01*
Y302000D01*
X528884Y302780D01*
X528442Y303442D01*
X527780Y303884D01*
X527000Y304039D01*
X462845D01*
X458657Y308227D01*
X459233Y311206D01*
X460189Y311731D01*
X462488Y311148D01*
X462605Y311100D01*
X464395D01*
X466049Y311785D01*
X467315Y313051D01*
X468000Y314705D01*
Y316495D01*
X467315Y318149D01*
X466049Y319415D01*
X464395Y320100D01*
X462675D01*
X462599Y320104D01*
X460189Y321849D01*
Y327961D01*
X526000D01*
X526780Y328116D01*
X527442Y328558D01*
X527884Y329220D01*
X528039Y330000D01*
Y407000D01*
X527884Y407780D01*
X527442Y408442D01*
X526780Y408884D01*
X526000Y409039D01*
X498039D01*
Y471000D01*
X497884Y471780D01*
X497442Y472442D01*
X496780Y472884D01*
X496000Y473039D01*
D02*
G37*
G36*
X295016Y498800D02*
X292383D01*
X289840Y498119D01*
X287560Y496802D01*
X285698Y494940D01*
X284382Y492660D01*
X283700Y490117D01*
Y487483D01*
X284382Y484940D01*
X285698Y482660D01*
X287560Y480798D01*
X289840Y479482D01*
X292383Y478800D01*
X295016D01*
X297560Y479482D01*
X298735Y480160D01*
X312233Y466662D01*
X313060Y466110D01*
X314035Y465916D01*
X317479D01*
X333451Y449944D01*
Y439600D01*
X333645Y438625D01*
X334198Y437798D01*
X336772Y435223D01*
Y431700D01*
X336772Y430328D01*
X336772D01*
X336863Y429197D01*
X336863D01*
Y421197D01*
X345863D01*
Y427826D01*
X345863Y429197D01*
X345863D01*
X345772Y430328D01*
X345772D01*
Y436303D01*
X347055Y438417D01*
X348241Y438500D01*
X348895D01*
X350549Y439185D01*
X351815Y440451D01*
X352500Y442105D01*
Y443895D01*
X351815Y445549D01*
X350549Y446815D01*
X348895Y447500D01*
X347105D01*
X345483Y446828D01*
X338549D01*
Y451000D01*
X338355Y451976D01*
X337802Y452802D01*
X320337Y470267D01*
X319510Y470820D01*
X318535Y471014D01*
X315091D01*
X302340Y483765D01*
X303018Y484940D01*
X303700Y487483D01*
Y490117D01*
X303018Y492660D01*
X301702Y494940D01*
X299840Y496802D01*
X297560Y498119D01*
X295016Y498800D01*
D02*
G37*
G36*
X295380Y277508D02*
X293624Y277159D01*
X292136Y276164D01*
X291141Y274676D01*
X290792Y272920D01*
Y262920D01*
X291141Y261164D01*
X292136Y259676D01*
X293624Y258681D01*
X295380Y258332D01*
X297136Y258681D01*
X298624Y259676D01*
X299619Y261164D01*
X299968Y262920D01*
Y272920D01*
X299619Y274676D01*
X298624Y276164D01*
X297136Y277159D01*
X295380Y277508D01*
D02*
G37*
G36*
X146410Y211018D02*
X144654Y210669D01*
X143166Y209674D01*
X142171Y208186D01*
X141822Y206430D01*
Y196430D01*
X142171Y194674D01*
X143166Y193186D01*
X144654Y192191D01*
X146410Y191842D01*
X148166Y192191D01*
X149654Y193186D01*
X150649Y194674D01*
X150998Y196430D01*
Y206430D01*
X150649Y208186D01*
X149654Y209674D01*
X148166Y210669D01*
X146410Y211018D01*
D02*
G37*
%LPD*%
G36*
X496000Y409000D02*
X495799D01*
X465201D01*
X465000D01*
Y432000D01*
X457000Y440000D01*
X402000D01*
Y471000D01*
X496000D01*
Y409000D01*
D02*
G37*
G36*
X198000Y360000D02*
X185000D01*
Y352000D01*
X138000D01*
Y388000D01*
X186000D01*
Y397000D01*
X198000D01*
Y360000D01*
D02*
G37*
G36*
X135000Y398000D02*
Y389000D01*
Y350000D01*
X111000D01*
X93000Y368000D01*
Y381000D01*
X34000D01*
Y440000D01*
X93000D01*
X135000Y398000D01*
D02*
G37*
G36*
X377000Y388000D02*
X385000Y380000D01*
X397000D01*
Y344000D01*
X382000D01*
Y367000D01*
X377000Y372000D01*
X359000D01*
Y388000D01*
X377000D01*
Y388000D01*
D02*
G37*
G36*
Y340500D02*
X350500D01*
Y360000D01*
X377000D01*
Y340500D01*
D02*
G37*
G36*
X461000Y407000D02*
X464803D01*
X465000Y406961D01*
X496000D01*
X496197Y407000D01*
X526000D01*
Y330000D01*
X401000D01*
Y382000D01*
X432000D01*
Y419000D01*
X449000D01*
X461000Y407000D01*
D02*
G37*
G36*
X289000Y330000D02*
X263000D01*
Y344000D01*
X221000D01*
Y425000D01*
X248000D01*
Y449000D01*
X289000D01*
Y330000D01*
D02*
G37*
G36*
X90000Y367000D02*
X109000Y348000D01*
X110803D01*
X111000Y347961D01*
X135000D01*
X135197Y348000D01*
X155000D01*
Y264000D01*
X162000D01*
Y243000D01*
X140500D01*
Y263000D01*
X126000D01*
X90000Y227000D01*
Y176000D01*
X69000D01*
Y378000D01*
X90000D01*
Y367000D01*
D02*
G37*
G36*
X382105Y279895D02*
X382106Y279890D01*
X382548Y279228D01*
X383210Y278786D01*
X383215Y278785D01*
X386000Y276000D01*
X397000D01*
Y240000D01*
X382000D01*
Y240201D01*
Y255500D01*
Y263000D01*
X377000Y268000D01*
X360000D01*
Y284000D01*
X378000D01*
X382105Y279895D01*
D02*
G37*
G36*
X245000Y322000D02*
X266000Y301000D01*
X266000Y276000D01*
X276000D01*
Y259000D01*
X284000Y251000D01*
Y239000D01*
X268000D01*
X244000Y263000D01*
X237000D01*
X207000Y293000D01*
Y322000D01*
X226000Y341000D01*
X245000D01*
Y322000D01*
D02*
G37*
G36*
X379961Y240000D02*
X380000Y239803D01*
Y236750D01*
X353880D01*
X351559Y237500D01*
X351326Y238671D01*
X351000Y239158D01*
Y255500D01*
X379961D01*
Y240000D01*
D02*
G37*
G36*
X451189Y312811D02*
Y311731D01*
X452269D01*
X462000Y302000D01*
X527000D01*
Y225000D01*
X402000D01*
Y277000D01*
X433000D01*
Y314000D01*
X450000D01*
X451189Y312811D01*
D02*
G37*
G36*
X270000Y232000D02*
X334441D01*
Y217000D01*
X323000D01*
Y222000D01*
X303000D01*
Y217000D01*
X286000D01*
Y222000D01*
X266000D01*
Y217000D01*
X249000D01*
Y222000D01*
X230000D01*
Y213000D01*
X184000D01*
Y235000D01*
X209000Y260000D01*
X242000D01*
X270000Y232000D01*
D02*
G37*
G36*
X382070Y175930D02*
X382106Y175750D01*
X382548Y175088D01*
X383210Y174646D01*
X383390Y174610D01*
X386000Y172000D01*
X397000D01*
Y136000D01*
X382000D01*
Y159000D01*
X377000Y164000D01*
X360000D01*
Y180000D01*
X378000D01*
X382070Y175930D01*
D02*
G37*
G36*
X377500Y132500D02*
X351500D01*
Y152000D01*
X377500D01*
Y132500D01*
D02*
G37*
G36*
X451189Y209811D02*
Y207591D01*
X453409D01*
X462000Y199000D01*
X527000D01*
Y122000D01*
X483197D01*
X483000Y122039D01*
X432000D01*
X431803Y122000D01*
X402000D01*
Y174000D01*
X433000D01*
Y211000D01*
X450000D01*
X451189Y209811D01*
D02*
G37*
G36*
X179000Y117000D02*
X150000D01*
Y169000D01*
X158000D01*
X163000Y174000D01*
Y190000D01*
X166000Y193000D01*
Y210961D01*
X179000D01*
Y117000D01*
D02*
G37*
G36*
X184000Y210961D02*
X225931D01*
Y188500D01*
X226203Y187134D01*
X226977Y185977D01*
X235477Y177477D01*
X236634Y176703D01*
X238000Y176431D01*
X242508D01*
X243480Y174085D01*
X226198Y156802D01*
X225645Y155976D01*
X225451Y155000D01*
Y109751D01*
X223104Y108779D01*
X218442Y113442D01*
X217780Y113884D01*
X217000Y114039D01*
X182393D01*
X181374Y115512D01*
X180956Y116579D01*
X181039Y117000D01*
Y209607D01*
X182557Y210658D01*
X183541Y211052D01*
X184000Y210961D01*
D02*
G37*
G36*
X483000Y68000D02*
X432000D01*
Y120000D01*
X483000D01*
Y68000D01*
D02*
G37*
G36*
X145000Y112000D02*
X217000Y112000D01*
X252000Y77000D01*
Y67000D01*
X118000D01*
Y138000D01*
X99000D01*
Y162000D01*
X119000D01*
Y170000D01*
X145000D01*
Y112000D01*
D02*
G37*
D10*
X341700Y244300D02*
Y273915D01*
X356000Y288215D01*
X332700Y238300D02*
X337500Y233500D01*
X335700Y240300D02*
X340500Y235500D01*
X332700Y277700D02*
X341900Y286900D01*
X335700Y240300D02*
Y276400D01*
X341700Y244300D02*
X348500Y237500D01*
X332700Y238300D02*
Y277700D01*
X338700Y275157D02*
X353000Y289457D01*
X335700Y276400D02*
X350000Y290700D01*
X338700Y242300D02*
Y275157D01*
Y242300D02*
X343500Y237500D01*
X341900Y286900D02*
Y396200D01*
X381900Y436200D01*
X353000Y289457D02*
Y317300D01*
X356000Y288215D02*
Y313500D01*
X350000Y290700D02*
Y326500D01*
X353000Y317300D02*
X362300Y326600D01*
X350000Y326500D02*
X358500Y335000D01*
X356000Y313500D02*
X367500Y325000D01*
X387111Y335471D02*
X388380Y336740D01*
X375871Y335471D02*
X387111D01*
X212630Y395370D02*
Y404080D01*
X252904Y110500D02*
X330300D01*
X248000Y115404D02*
X252904Y110500D01*
X248000Y115404D02*
Y120000D01*
X330300Y110500D02*
X347200Y127400D01*
X367162D02*
X367371Y127191D01*
X347200Y127400D02*
X367162D01*
X255837Y123087D02*
X256000Y123250D01*
X251087Y123087D02*
X255837D01*
X248000Y120000D02*
X251087Y123087D01*
X256000Y116750D02*
X306654D01*
X309904Y113500D02*
X328500D01*
X306654Y116750D02*
X309904Y113500D01*
X328500D02*
X336500Y121500D01*
X341500Y160500D02*
Y173500D01*
X355500Y187500D01*
X336500Y155500D02*
X341500Y160500D01*
X355500Y187500D02*
Y216000D01*
X336500Y121500D02*
Y155500D01*
X355500Y216000D02*
X367500Y228000D01*
Y231202D01*
X367371Y231331D02*
X367500Y231202D01*
X325250Y116750D02*
X332500Y124000D01*
X316000Y116750D02*
X325250D01*
X348500Y234500D02*
Y237500D01*
X354500Y225000D02*
Y228500D01*
X348500Y234500D02*
X354500Y228500D01*
X332500Y124000D02*
Y160772D01*
X338500Y166772D02*
Y174743D01*
X332500Y160772D02*
X338500Y166772D01*
Y174743D02*
X352000Y188243D01*
Y222500D01*
X354500Y225000D01*
X367500Y325000D02*
Y335342D01*
X367371Y335471D02*
X367500Y335342D01*
X316000Y123250D02*
X323750D01*
X324000Y123500D01*
X316000Y129750D02*
X327250D01*
X327500Y129500D01*
X346500Y224000D02*
X349500Y227000D01*
X329000Y150500D02*
Y161515D01*
X335500Y175985D02*
X346500Y186985D01*
X329000Y161515D02*
X335500Y168015D01*
X346500Y186985D02*
Y224000D01*
X335500Y168015D02*
Y175985D01*
X321250Y142750D02*
X329000Y150500D01*
X316000Y142750D02*
X321250D01*
X332500Y169257D02*
Y177228D01*
X325000Y161757D02*
X332500Y169257D01*
Y177228D02*
X343500Y188228D01*
Y237500D01*
X325000Y152500D02*
Y161757D01*
X321750Y149250D02*
X325000Y152500D01*
X316000Y149250D02*
X321750D01*
X329500Y178500D02*
X340500Y189500D01*
X321250Y162250D02*
X329500Y170500D01*
Y178500D01*
X316000Y162250D02*
X321250D01*
X340500Y189500D02*
Y235500D01*
X326500Y180000D02*
X337500Y191000D01*
X326500Y174000D02*
Y180000D01*
X321250Y168750D02*
X326500Y174000D01*
X337500Y191000D02*
Y233500D01*
X316000Y168750D02*
X321250D01*
X449000Y436200D02*
X456101Y429099D01*
X381900Y436200D02*
X449000D01*
X442990Y218630D02*
X454228D01*
X455689Y220091D01*
X442990Y322770D02*
X454228D01*
X455689Y324231D01*
X442990Y426910D02*
X449890D01*
X450400Y426400D01*
Y426300D02*
Y426400D01*
Y426300D02*
X456101Y420599D01*
X387111Y231331D02*
X388380Y232600D01*
X375871Y231331D02*
X387111D01*
Y127191D02*
X388380Y128460D01*
X375871Y127191D02*
X387111D01*
X455689Y315731D02*
X455820Y315600D01*
X463500D01*
X455689Y211591D02*
X455880Y211400D01*
X463300D01*
X320529Y231000D02*
Y297911D01*
X330089D02*
X330500Y297500D01*
X320529Y297911D02*
X330089D01*
X151721Y180611D02*
X159110Y188000D01*
Y201430D01*
X102801Y167329D02*
X103299Y166831D01*
X112959D01*
X112379Y167411D02*
X112959Y166831D01*
X112379Y167411D02*
Y176799D01*
X103879Y183879D02*
X104000Y184000D01*
X103879Y176799D02*
Y183879D01*
X133710Y179080D02*
Y201430D01*
X131429Y176799D02*
X133710Y179080D01*
X112379Y176799D02*
X122929D01*
X128349Y246069D02*
X133710Y251430D01*
X121851Y246069D02*
X128349D01*
X330501Y324499D02*
Y330999D01*
X330501Y315999D02*
X330501Y315999D01*
Y306499D02*
Y315999D01*
X320618Y306499D02*
Y312382D01*
X315080Y317920D02*
X320618Y312382D01*
X308080Y317920D02*
X315080D01*
X320529Y306411D02*
X320618Y306499D01*
X330501D01*
X212001Y448001D02*
X215999D01*
X210000Y446000D02*
X212001Y448001D01*
X210000Y441000D02*
Y446000D01*
X202501Y445001D02*
X205999D01*
X210000Y441000D01*
Y432210D02*
Y441000D01*
Y432210D02*
X212630Y429580D01*
X193630D02*
Y441370D01*
X189999Y445001D02*
X193630Y441370D01*
X183501Y445001D02*
X189999D01*
X193210Y430000D02*
X193630Y429580D01*
X203130D01*
X225007Y420993D02*
X225119D01*
X235111Y411000D02*
X236000D01*
X225119Y420993D02*
X235111Y411000D01*
X221000Y425000D02*
X225007Y420993D01*
X221000Y425000D02*
Y437000D01*
X219000Y439000D02*
X221000Y437000D01*
X215999Y439501D02*
X216500Y439000D01*
X219000D01*
X203000Y403950D02*
X203130Y404080D01*
X203000Y398000D02*
Y403950D01*
X202000Y397000D02*
X203000Y398000D01*
X202000Y355000D02*
Y397000D01*
X192970Y353330D02*
X200330D01*
X202000Y355000D01*
X185000Y430000D02*
X193210D01*
X177293Y422293D02*
X185000Y430000D01*
X177293Y415000D02*
Y422293D01*
Y398500D02*
Y415000D01*
X192970Y391430D02*
X193630Y392090D01*
Y404080D01*
D13*
X313501Y213499D02*
X331000Y196000D01*
X313001Y213499D02*
X313501D01*
X277501D02*
X295000Y196000D01*
X276001Y213499D02*
X277501D01*
X257500Y196000D02*
X258000D01*
X240001Y213499D02*
X257500Y196000D01*
X254079Y323921D02*
Y331889D01*
Y323921D02*
X260000Y318000D01*
X269900D01*
X269980Y317920D01*
D18*
X192970Y391430D02*
D03*
Y378730D02*
D03*
Y366030D02*
D03*
Y353330D02*
D03*
X442990Y426910D02*
D03*
Y414210D02*
D03*
Y401510D02*
D03*
Y388810D02*
D03*
Y284670D02*
D03*
Y297370D02*
D03*
Y310070D02*
D03*
Y322770D02*
D03*
Y218630D02*
D03*
Y205930D02*
D03*
Y193230D02*
D03*
Y180530D02*
D03*
X388380Y374840D02*
D03*
Y362140D02*
D03*
Y349440D02*
D03*
Y336740D02*
D03*
Y232600D02*
D03*
Y245300D02*
D03*
Y258000D02*
D03*
Y270700D02*
D03*
Y166560D02*
D03*
Y153860D02*
D03*
Y141160D02*
D03*
Y128460D02*
D03*
D19*
X123500Y370000D02*
D03*
X172600D02*
D03*
D20*
X225530Y247490D02*
D03*
Y306490D02*
D03*
D21*
X446500Y103000D02*
D03*
X417500D02*
D03*
X413500Y457000D02*
D03*
X384500D02*
D03*
X468500Y103000D02*
D03*
X497500D02*
D03*
X480500Y428000D02*
D03*
X509500D02*
D03*
X274530Y346110D02*
D03*
X303530D02*
D03*
X274530Y380150D02*
D03*
X303530D02*
D03*
X144180Y313960D02*
D03*
X173180D02*
D03*
X144180Y279670D02*
D03*
X173180D02*
D03*
X77930Y327930D02*
D03*
X48930D02*
D03*
X77930Y193310D02*
D03*
X48930D02*
D03*
X77930Y294910D02*
D03*
X48930D02*
D03*
X77930Y260620D02*
D03*
X48930D02*
D03*
X77930Y362220D02*
D03*
X48930D02*
D03*
X77930Y226330D02*
D03*
X48930D02*
D03*
D22*
X473000Y75500D02*
D03*
Y46500D02*
D03*
X441000Y75500D02*
D03*
Y46500D02*
D03*
X473000Y455500D02*
D03*
Y484500D02*
D03*
X441000Y455500D02*
D03*
Y484500D02*
D03*
D23*
X353300Y364600D02*
D03*
X348220D02*
D03*
Y368600D02*
D03*
X353300D02*
D03*
X353265Y160043D02*
D03*
X348185D02*
D03*
X352700Y264300D02*
D03*
X347620D02*
D03*
X353265Y156043D02*
D03*
X348185D02*
D03*
X352680Y260200D02*
D03*
X347600D02*
D03*
D24*
X316000Y116750D02*
D03*
Y123250D02*
D03*
Y129750D02*
D03*
Y136250D02*
D03*
Y142750D02*
D03*
Y149250D02*
D03*
Y155750D02*
D03*
Y162250D02*
D03*
Y168750D02*
D03*
Y175250D02*
D03*
X256000Y116750D02*
D03*
Y123250D02*
D03*
Y129750D02*
D03*
Y136250D02*
D03*
Y142750D02*
D03*
Y149250D02*
D03*
Y155750D02*
D03*
Y162250D02*
D03*
Y168750D02*
D03*
Y175250D02*
D03*
D25*
X242001Y137499D02*
D03*
X242000Y128500D02*
D03*
X456101Y420599D02*
D03*
X456101Y429099D02*
D03*
X112959Y166831D02*
D03*
X112959Y158331D02*
D03*
X455689Y211591D02*
D03*
X455689Y220091D02*
D03*
X455689Y315731D02*
D03*
X455689Y324231D02*
D03*
X102800Y158330D02*
D03*
X102801Y167329D02*
D03*
X330500Y297500D02*
D03*
X330501Y306499D02*
D03*
X341363Y425197D02*
D03*
Y416697D02*
D03*
X341272Y442828D02*
D03*
Y434328D02*
D03*
X121851Y246069D02*
D03*
X121851Y237569D02*
D03*
X330501Y324499D02*
D03*
X330501Y315999D02*
D03*
X320529Y297911D02*
D03*
X320529Y306411D02*
D03*
X215999Y439501D02*
D03*
X215999Y448001D02*
D03*
D26*
X240001Y194499D02*
D03*
Y213499D02*
D03*
X276001Y194499D02*
D03*
Y213499D02*
D03*
X313001D02*
D03*
X313001Y194499D02*
D03*
X107879Y126661D02*
D03*
X107879Y145661D02*
D03*
D27*
X258000Y196000D02*
D03*
X331000D02*
D03*
X295000D02*
D03*
D28*
X258000Y224000D02*
D03*
X331000D02*
D03*
X295000D02*
D03*
D29*
X133710Y201430D02*
D03*
X146410Y201430D02*
D03*
X159110D02*
D03*
X171810Y201430D02*
D03*
X133710Y251430D02*
D03*
X146410Y251430D02*
D03*
X159110D02*
D03*
X295380Y317920D02*
D03*
X282680D02*
D03*
X269980Y317920D02*
D03*
X308080Y267920D02*
D03*
X295380Y267920D02*
D03*
X282680D02*
D03*
X269980Y267920D02*
D03*
D30*
X171810Y251430D02*
D03*
X308080Y317920D02*
D03*
D31*
X177293Y415000D02*
D03*
Y398500D02*
D03*
D32*
X149293Y415000D02*
D03*
Y398500D02*
D03*
D33*
X236000Y439500D02*
D03*
Y411000D02*
D03*
X368700Y172500D02*
D03*
Y144000D02*
D03*
Y276500D02*
D03*
Y248000D02*
D03*
X368060Y380450D02*
D03*
Y351950D02*
D03*
X193500Y193040D02*
D03*
Y221540D02*
D03*
X217630Y193040D02*
D03*
Y221540D02*
D03*
D34*
X163500Y436000D02*
D03*
X135000Y436000D02*
D03*
D35*
X261500Y436000D02*
D03*
X310500D02*
D03*
D36*
X310070Y246800D02*
D03*
D37*
X273070D02*
D03*
D38*
X63430Y410480D02*
D03*
X496790Y377460D02*
D03*
X498422Y271944D02*
D03*
X63430Y145050D02*
D03*
X499330Y170450D02*
D03*
D39*
X367371Y127191D02*
D03*
X375871Y127191D02*
D03*
X367371Y231331D02*
D03*
X375871Y231331D02*
D03*
X367371Y335471D02*
D03*
X375871Y335471D02*
D03*
X112379Y176799D02*
D03*
X103879D02*
D03*
X131429D02*
D03*
X122929D02*
D03*
D40*
X297259Y405549D02*
D03*
X278259Y405549D02*
D03*
X149181Y340631D02*
D03*
X168181Y340631D02*
D03*
X183501Y445001D02*
D03*
X202501Y445001D02*
D03*
X151721Y180611D02*
D03*
X170721Y180611D02*
D03*
X254079Y331889D02*
D03*
X235079D02*
D03*
D41*
X212630Y429580D02*
D03*
X203130D02*
D03*
X193630D02*
D03*
X193630Y404080D02*
D03*
X203130D02*
D03*
X212630D02*
D03*
D42*
X131020Y143780D02*
D03*
X166020D02*
D03*
D43*
X152760Y226430D02*
D03*
X289030Y292920D02*
D03*
D44*
X192100Y488800D02*
D03*
Y514200D02*
D03*
X242900D02*
D03*
Y488800D02*
D03*
X268300D02*
D03*
Y514200D02*
D03*
X293700Y488800D02*
D03*
Y514200D02*
D03*
X319100Y488800D02*
D03*
Y514200D02*
D03*
X344500Y488800D02*
D03*
Y514200D02*
D03*
X369900Y488800D02*
D03*
Y514200D02*
D03*
X395300Y488800D02*
D03*
X217500Y514200D02*
D03*
Y488800D02*
D03*
X166700Y514200D02*
D03*
Y488800D02*
D03*
X192100Y45800D02*
D03*
Y71200D02*
D03*
X242900D02*
D03*
Y45800D02*
D03*
X268300D02*
D03*
Y71200D02*
D03*
X293700Y45800D02*
D03*
Y71200D02*
D03*
X319100Y45800D02*
D03*
Y71200D02*
D03*
X344500Y45800D02*
D03*
Y71200D02*
D03*
X369900Y45800D02*
D03*
Y71200D02*
D03*
X395300Y45800D02*
D03*
X217500Y71200D02*
D03*
Y45800D02*
D03*
X166700Y71200D02*
D03*
Y45800D02*
D03*
D45*
X395300Y514200D02*
D03*
Y71200D02*
D03*
D46*
X50500Y510500D02*
D03*
X50000Y49500D02*
D03*
X511500Y511000D02*
D03*
Y49500D02*
D03*
D47*
X229470Y372430D02*
D03*
X424880Y355840D02*
D03*
Y251700D02*
D03*
Y147560D02*
D03*
D48*
X406490Y407810D02*
D03*
Y303670D02*
D03*
Y199530D02*
D03*
D49*
X367900Y364600D02*
X368000Y364500D01*
X353300Y364600D02*
X367900D01*
Y368600D02*
Y380290D01*
X368060Y380450D01*
X353300Y368600D02*
X367900D01*
X368500Y248200D02*
Y260300D01*
Y248200D02*
X368700Y248000D01*
X368600Y264300D02*
Y276400D01*
X368700Y276500D01*
X352700Y264300D02*
X368600D01*
X352700Y260300D02*
X368500D01*
X347000Y369904D02*
X347143Y369761D01*
X347000Y369904D02*
Y370000D01*
X228000Y105000D02*
Y155000D01*
X248250Y175250D02*
X256000D01*
X228000Y155000D02*
X248250Y175250D01*
X230000Y150000D02*
X248750Y168750D01*
X256000D01*
X230000Y105828D02*
Y150000D01*
X232000Y106657D02*
Y146000D01*
X248250Y162250D01*
X256000D01*
X234000Y141777D02*
X247973Y155750D01*
X256000D01*
X251142Y96000D02*
X370500D01*
X395300Y71200D01*
X250314Y94000D02*
X347100D01*
X369886Y71214D01*
X323700Y92000D02*
X344500Y71200D01*
X249485Y92000D02*
X323700D01*
X300300Y90000D02*
X319100Y71200D01*
X248657Y90000D02*
X300300D01*
X276900Y88000D02*
X293700Y71200D01*
X247828Y88000D02*
X276900D01*
X247000Y86000D02*
X253500D01*
X268300Y71200D01*
X228000Y105000D02*
X247000Y86000D01*
X293700Y488800D02*
X314035Y468465D01*
X318535D01*
X336000Y451000D01*
X340772Y434328D02*
X341272D01*
X339272Y435828D02*
X340772Y434328D01*
X339272Y435828D02*
Y436328D01*
X336000Y439600D02*
X339272Y436328D01*
X336000Y439600D02*
Y451000D01*
X238000Y109142D02*
Y140120D01*
X234000Y107485D02*
X249485Y92000D01*
X234000Y107485D02*
Y141777D01*
X238000Y109142D02*
X251142Y96000D01*
X230000Y105828D02*
X247828Y88000D01*
X236000Y108314D02*
Y140948D01*
Y108314D02*
X250314Y94000D01*
X232000Y106657D02*
X248657Y90000D01*
X341363Y425197D02*
Y434237D01*
X341272Y442828D02*
X341444Y443000D01*
X348000D01*
X244302Y149250D02*
X256000D01*
X236000Y140948D02*
X244302Y149250D01*
X240630Y142750D02*
X256000D01*
X238000Y140120D02*
X240630Y142750D01*
X368700Y144000D02*
X368700Y144000D01*
Y156000D01*
X368657Y156043D02*
X368700Y156000D01*
X353265Y156043D02*
X368657D01*
X368700Y172500D02*
X368700Y172500D01*
Y160100D02*
Y172500D01*
X368643Y160043D02*
X368700Y160100D01*
X353265Y160043D02*
X368643D01*
X368700Y248000D02*
X368700Y248000D01*
X368000Y352010D02*
X368060Y351950D01*
X368000Y352010D02*
Y364500D01*
D50*
X265657Y182500D02*
X276800D01*
X260657Y187500D02*
X265657Y182500D01*
X253300Y187500D02*
X260657D01*
X276800Y182500D02*
X287200Y172100D01*
Y154000D02*
Y172100D01*
X309750Y123250D02*
X316000D01*
X306500Y126500D02*
X309750Y123250D01*
X306500Y126500D02*
Y130400D01*
X296600Y140300D02*
X306500Y130400D01*
X296600Y140300D02*
Y144600D01*
X287200Y154000D02*
X296600Y144600D01*
X246301Y194499D02*
X253300Y187500D01*
X240001Y194499D02*
X246301D01*
X282501D02*
X297500Y179500D01*
Y159100D02*
Y179500D01*
Y159100D02*
X307100Y149500D01*
X310450Y142750D02*
X316000D01*
X307100Y146100D02*
X310450Y142750D01*
X307100Y146100D02*
Y149500D01*
X276001Y194499D02*
X282501D01*
X307000Y164500D02*
Y177500D01*
X313001Y183501D01*
X307000Y164500D02*
X309300Y162200D01*
X309350Y162250D02*
X316000D01*
X309300Y162200D02*
X309350Y162250D01*
X313001Y183501D02*
Y194499D01*
X323000Y188000D02*
X331000Y196000D01*
X321750Y175250D02*
X323000Y176500D01*
Y188000D01*
X316000Y175250D02*
X321750D01*
X308950Y155750D02*
X316000D01*
X302400Y162300D02*
X308950Y155750D01*
X302400Y162300D02*
Y188600D01*
X295000Y196000D02*
X302400Y188600D01*
X258000Y196000D02*
X267000Y187000D01*
X280100D01*
X292300Y174800D01*
Y156700D02*
X301900Y147100D01*
X292300Y156700D02*
Y174800D01*
X308750Y136250D02*
X316000D01*
X301900Y143100D02*
X308750Y136250D01*
X301900Y143100D02*
Y147100D01*
X265500Y139000D02*
Y177000D01*
X262750Y136250D02*
X265500Y139000D01*
X243250Y136250D02*
X256000D01*
X262750D01*
X238000Y180000D02*
X262500D01*
X265500Y177000D01*
X228000Y215000D02*
X229500Y213500D01*
Y188500D02*
Y213500D01*
Y188500D02*
X238000Y180000D01*
X242001Y137499D02*
X243250Y136250D01*
X242000Y128500D02*
X243250Y129750D01*
X256000D01*
D51*
X149293Y382293D02*
Y398500D01*
X135000Y412793D02*
X149293Y398500D01*
X135000Y412793D02*
Y436000D01*
X144180Y279670D02*
X146410Y277440D01*
X282680Y317920D02*
Y334320D01*
Y315500D02*
Y317920D01*
D52*
X350758Y364600D02*
D03*
X350758Y368600D02*
D03*
X350724Y160043D02*
D03*
X350158Y264300D02*
D03*
X350724Y156043D02*
D03*
X350138Y260200D02*
D03*
D53*
X258000Y103000D02*
D03*
X292000D02*
D03*
X330000D02*
D03*
X532000Y372000D02*
D03*
X513500Y112500D02*
D03*
Y92500D02*
D03*
X494500Y81500D02*
D03*
X485000Y29500D02*
D03*
X466500D02*
D03*
X450000D02*
D03*
X432500D02*
D03*
X417500Y34500D02*
D03*
X419500Y60000D02*
D03*
Y81500D02*
D03*
X401500Y94500D02*
D03*
X480000Y75500D02*
D03*
X466500D02*
D03*
X447000D02*
D03*
X435000D02*
D03*
X468500Y95500D02*
D03*
Y109500D02*
D03*
X446500Y96000D02*
D03*
Y109500D02*
D03*
X509500Y449000D02*
D03*
X495500Y484500D02*
D03*
X416500Y485000D02*
D03*
X525500Y419000D02*
D03*
Y436000D02*
D03*
X480500Y500500D02*
D03*
X466000D02*
D03*
X447000D02*
D03*
X434000D02*
D03*
X368500Y447500D02*
D03*
Y466000D02*
D03*
X480500Y422000D02*
D03*
Y435000D02*
D03*
X480000Y455000D02*
D03*
X466500D02*
D03*
X447000D02*
D03*
X435000D02*
D03*
X413500Y450000D02*
D03*
Y464500D02*
D03*
X183000Y259000D02*
D03*
X93000Y153000D02*
D03*
Y140000D02*
D03*
X402000Y390000D02*
D03*
X414000D02*
D03*
X426000D02*
D03*
Y402000D02*
D03*
X402000D02*
D03*
X414000D02*
D03*
X402000Y426000D02*
D03*
X414000D02*
D03*
X426000D02*
D03*
X414000Y414000D02*
D03*
X402000D02*
D03*
X426000D02*
D03*
X201000Y123000D02*
D03*
X220000D02*
D03*
X105000Y442000D02*
D03*
X119000Y428000D02*
D03*
X373000Y115000D02*
D03*
X348000D02*
D03*
X396000D02*
D03*
X533000Y149000D02*
D03*
Y190000D02*
D03*
X514000Y213000D02*
D03*
X480000Y212000D02*
D03*
X533000Y233000D02*
D03*
Y267000D02*
D03*
Y297000D02*
D03*
X532000Y329000D02*
D03*
X510000Y316000D02*
D03*
X481000D02*
D03*
X337000Y405000D02*
D03*
X355000Y425000D02*
D03*
X308082Y255840D02*
D03*
X309000Y238000D02*
D03*
X294000Y241000D02*
D03*
Y252000D02*
D03*
X92000Y168000D02*
D03*
X95000Y127000D02*
D03*
X112000Y115000D02*
D03*
X100000D02*
D03*
X236000Y439500D02*
D03*
X163000Y415000D02*
D03*
Y398000D02*
D03*
X150000Y442000D02*
D03*
Y431000D02*
D03*
X158000Y452000D02*
D03*
X169000D02*
D03*
X111000Y72000D02*
D03*
X112000Y95000D02*
D03*
X141000Y60000D02*
D03*
X123000D02*
D03*
X30000Y136000D02*
D03*
Y119000D02*
D03*
Y169000D02*
D03*
Y152000D02*
D03*
X33000Y201000D02*
D03*
Y184000D02*
D03*
Y234000D02*
D03*
Y217000D02*
D03*
Y269000D02*
D03*
Y252000D02*
D03*
Y303000D02*
D03*
Y286000D02*
D03*
Y336000D02*
D03*
Y319000D02*
D03*
Y354000D02*
D03*
Y371000D02*
D03*
X278000Y134000D02*
D03*
X291000D02*
D03*
X297000Y125000D02*
D03*
X282000D02*
D03*
X268000Y129000D02*
D03*
X218000Y182000D02*
D03*
X206000D02*
D03*
X193000D02*
D03*
X217630Y193040D02*
D03*
X205509Y192982D02*
D03*
X193500Y193040D02*
D03*
X218000Y206000D02*
D03*
X206000D02*
D03*
X193000D02*
D03*
X304000Y373000D02*
D03*
Y388000D02*
D03*
X348000Y443000D02*
D03*
X324000Y123500D02*
D03*
X327500Y129500D02*
D03*
X303900Y350900D02*
D03*
X349500Y227000D02*
D03*
X135500Y150000D02*
D03*
X125000Y139500D02*
D03*
Y150000D02*
D03*
X346943Y154790D02*
D03*
Y161269D02*
D03*
X346500Y259000D02*
D03*
Y265500D02*
D03*
X364500Y146500D02*
D03*
X356000Y147000D02*
D03*
X374000Y146500D02*
D03*
Y137500D02*
D03*
X356000Y137000D02*
D03*
X364500Y137500D02*
D03*
X347143Y369761D02*
D03*
X347238Y363400D02*
D03*
X356500Y242000D02*
D03*
X375500D02*
D03*
Y251000D02*
D03*
X356500Y251500D02*
D03*
X366000Y251000D02*
D03*
Y242000D02*
D03*
X355000Y345000D02*
D03*
X363500Y354500D02*
D03*
X372500Y345500D02*
D03*
Y354500D02*
D03*
X355000D02*
D03*
X363500Y345500D02*
D03*
X424000Y216000D02*
D03*
X411000D02*
D03*
X398000D02*
D03*
X411000Y205000D02*
D03*
X398000D02*
D03*
X424000D02*
D03*
X411000Y194000D02*
D03*
X424000D02*
D03*
X398000D02*
D03*
X411000Y183000D02*
D03*
X398000D02*
D03*
X424000D02*
D03*
X423000Y320000D02*
D03*
X410000D02*
D03*
X397000D02*
D03*
X410000Y309000D02*
D03*
X397000D02*
D03*
X423000D02*
D03*
X410000Y298000D02*
D03*
X423000D02*
D03*
X397000D02*
D03*
X410000Y287000D02*
D03*
X397000D02*
D03*
X423000D02*
D03*
X452900Y335000D02*
D03*
X358500D02*
D03*
X362300Y326600D02*
D03*
X463500Y315600D02*
D03*
X452800Y232300D02*
D03*
X463300Y211400D02*
D03*
X453000Y128300D02*
D03*
X311000Y288000D02*
D03*
Y299000D02*
D03*
X300000Y288000D02*
D03*
Y299000D02*
D03*
X289000Y288000D02*
D03*
Y299000D02*
D03*
X277000Y288000D02*
D03*
Y299000D02*
D03*
X295000Y428000D02*
D03*
X198000Y337000D02*
D03*
X181000Y343000D02*
D03*
X199000Y272000D02*
D03*
Y306000D02*
D03*
X187000Y321000D02*
D03*
X188000Y286000D02*
D03*
X164000Y220000D02*
D03*
Y232000D02*
D03*
X153000Y220000D02*
D03*
Y232000D02*
D03*
X141000Y220000D02*
D03*
Y232000D02*
D03*
X129000Y220000D02*
D03*
Y232000D02*
D03*
X111000D02*
D03*
X117000Y222000D02*
D03*
Y207000D02*
D03*
Y191000D02*
D03*
X101000Y192000D02*
D03*
Y207000D02*
D03*
Y221000D02*
D03*
X105000Y253000D02*
D03*
X128000Y271000D02*
D03*
Y285000D02*
D03*
Y298000D02*
D03*
Y311000D02*
D03*
Y324000D02*
D03*
X113000Y267000D02*
D03*
Y284000D02*
D03*
Y301000D02*
D03*
Y321000D02*
D03*
X94000Y241000D02*
D03*
Y254000D02*
D03*
Y269000D02*
D03*
Y283000D02*
D03*
Y296000D02*
D03*
Y309000D02*
D03*
Y323000D02*
D03*
Y336000D02*
D03*
Y353000D02*
D03*
X106000Y342000D02*
D03*
X121000D02*
D03*
X135000Y343000D02*
D03*
X304000Y337000D02*
D03*
X297259Y405549D02*
D03*
X326000Y411000D02*
D03*
X295000Y441000D02*
D03*
X304000Y420000D02*
D03*
X328000Y427000D02*
D03*
Y441000D02*
D03*
X280000Y420000D02*
D03*
X268000D02*
D03*
X256000D02*
D03*
X259000Y350000D02*
D03*
Y362000D02*
D03*
Y374000D02*
D03*
Y385000D02*
D03*
Y396000D02*
D03*
X264000Y407000D02*
D03*
X254000D02*
D03*
X280000Y431000D02*
D03*
Y441000D02*
D03*
X235000Y389000D02*
D03*
Y378000D02*
D03*
Y367000D02*
D03*
Y356000D02*
D03*
X213000Y367000D02*
D03*
Y378000D02*
D03*
Y389000D02*
D03*
Y356000D02*
D03*
X224000Y389000D02*
D03*
Y367000D02*
D03*
Y378000D02*
D03*
Y356000D02*
D03*
D54*
X60600Y519000D02*
D03*
X40800Y519300D02*
D03*
X50500Y497500D02*
D03*
X63500Y510500D02*
D03*
X50500Y523500D02*
D03*
X37500Y510500D02*
D03*
X59700Y501300D02*
D03*
X41200D02*
D03*
X40700Y40300D02*
D03*
X59200D02*
D03*
X37000Y49500D02*
D03*
X50000Y62500D02*
D03*
X63000Y49500D02*
D03*
X50000Y36500D02*
D03*
X40300Y58300D02*
D03*
X60100Y58000D02*
D03*
X502200Y501800D02*
D03*
X520700D02*
D03*
X498500Y511000D02*
D03*
X511500Y524000D02*
D03*
X524500Y511000D02*
D03*
X511500Y498000D02*
D03*
X501800Y519800D02*
D03*
X521600Y519500D02*
D03*
X502200Y40300D02*
D03*
X520700D02*
D03*
X498500Y49500D02*
D03*
X511500Y62500D02*
D03*
X524500Y49500D02*
D03*
X511500Y36500D02*
D03*
X501800Y58300D02*
D03*
X521600Y58000D02*
D03*
M02*
