G04*
G04 #@! TF.GenerationSoftware,Altium Limited,Altium Designer,23.8.1 (32)*
G04*
G04 Layer_Color=32896*
%FSLAX44Y44*%
%MOMM*%
G71*
G04*
G04 #@! TF.SameCoordinates,92C49762-E6E1-4201-94AC-3A3CAB1C571E*
G04*
G04*
G04 #@! TF.FilePolarity,Positive*
G04*
G01*
G75*
%ADD10C,0.2000*%
%ADD11C,0.2540*%
%ADD14C,0.2500*%
%ADD15C,0.1524*%
%ADD16C,0.1778*%
%ADD66C,0.1500*%
G36*
X284074Y404359D02*
X284514Y404313D01*
X284930Y404255D01*
X285334Y404174D01*
X285716Y404082D01*
X286074Y403978D01*
X286409Y403862D01*
X286721Y403747D01*
X286998Y403620D01*
X287253Y403516D01*
X287472Y403400D01*
X287646Y403308D01*
X287796Y403227D01*
X287900Y403169D01*
X287969Y403123D01*
X287992Y403111D01*
Y400349D01*
X287669Y400615D01*
X287334Y400858D01*
X287010Y401065D01*
X286686Y401239D01*
X286374Y401389D01*
X286062Y401516D01*
X285773Y401609D01*
X285508Y401690D01*
X285253Y401759D01*
X285022Y401805D01*
X284826Y401840D01*
X284652Y401863D01*
X284514Y401875D01*
X284410Y401886D01*
X284132D01*
X283947Y401863D01*
X283774Y401840D01*
X283612Y401805D01*
X283312Y401701D01*
X283069Y401574D01*
X282849Y401424D01*
X282676Y401250D01*
X282537Y401065D01*
X282422Y400881D01*
X282329Y400696D01*
X282260Y400511D01*
X282214Y400337D01*
X282179Y400187D01*
X282156Y400060D01*
X282144Y399968D01*
Y399898D01*
Y399887D01*
Y399875D01*
X282156Y399702D01*
X282168Y399528D01*
X282237Y399205D01*
X282329Y398904D01*
X282433Y398638D01*
X282491Y398523D01*
X282537Y398419D01*
X282584Y398326D01*
X282630Y398257D01*
X282665Y398188D01*
X282699Y398142D01*
X282711Y398119D01*
X282722Y398107D01*
X282838Y397945D01*
X282976Y397795D01*
X283115Y397633D01*
X283277Y397460D01*
X283612Y397148D01*
X283936Y396847D01*
X284098Y396720D01*
X284248Y396593D01*
X284375Y396489D01*
X284502Y396396D01*
X284594Y396316D01*
X284675Y396258D01*
X284722Y396223D01*
X284733Y396212D01*
X285022Y396004D01*
X285288Y395807D01*
X285531Y395611D01*
X285762Y395437D01*
X285970Y395264D01*
X286155Y395102D01*
X286328Y394952D01*
X286478Y394813D01*
X286617Y394686D01*
X286733Y394582D01*
X286837Y394490D01*
X286917Y394409D01*
X286975Y394339D01*
X287022Y394293D01*
X287045Y394270D01*
X287056Y394258D01*
X287322Y393946D01*
X287553Y393634D01*
X287761Y393334D01*
X287923Y393056D01*
X287992Y392941D01*
X288062Y392825D01*
X288108Y392721D01*
X288154Y392640D01*
X288189Y392571D01*
X288212Y392525D01*
X288235Y392490D01*
Y392479D01*
X288374Y392109D01*
X288478Y391739D01*
X288559Y391381D01*
X288605Y391057D01*
X288628Y390907D01*
X288640Y390768D01*
X288651Y390653D01*
Y390549D01*
X288663Y390468D01*
Y390410D01*
Y390364D01*
Y390352D01*
Y389254D01*
X278770D01*
Y391832D01*
X285080D01*
X285068Y391912D01*
X285057Y391993D01*
X284999Y392167D01*
X284918Y392340D01*
X284814Y392502D01*
X284722Y392640D01*
X284641Y392744D01*
X284606Y392791D01*
X284583Y392825D01*
X284560Y392837D01*
Y392849D01*
X284456Y392964D01*
X284329Y393091D01*
X284179Y393218D01*
X284028Y393357D01*
X283693Y393634D01*
X283358Y393900D01*
X283196Y394027D01*
X283034Y394143D01*
X282896Y394247D01*
X282780Y394339D01*
X282676Y394409D01*
X282607Y394467D01*
X282549Y394501D01*
X282537Y394513D01*
X282248Y394721D01*
X281983Y394906D01*
X281740Y395090D01*
X281520Y395275D01*
X281312Y395437D01*
X281127Y395588D01*
X280954Y395738D01*
X280804Y395865D01*
X280677Y395980D01*
X280561Y396096D01*
X280469Y396177D01*
X280399Y396258D01*
X280330Y396316D01*
X280295Y396362D01*
X280272Y396385D01*
X280261Y396396D01*
X280006Y396697D01*
X279787Y396997D01*
X279602Y397275D01*
X279452Y397541D01*
X279382Y397656D01*
X279324Y397760D01*
X279278Y397853D01*
X279244Y397934D01*
X279209Y397991D01*
X279186Y398049D01*
X279174Y398072D01*
Y398084D01*
X279047Y398430D01*
X278955Y398777D01*
X278897Y399112D01*
X278851Y399424D01*
X278839Y399563D01*
X278828Y399702D01*
X278816Y399806D01*
X278804Y399910D01*
Y399991D01*
Y400048D01*
Y400083D01*
Y400095D01*
X278816Y400465D01*
X278862Y400800D01*
X278920Y401123D01*
X279001Y401424D01*
X279105Y401713D01*
X279209Y401967D01*
X279336Y402198D01*
X279452Y402406D01*
X279567Y402603D01*
X279694Y402764D01*
X279798Y402903D01*
X279891Y403019D01*
X279983Y403111D01*
X280041Y403169D01*
X280087Y403215D01*
X280099Y403227D01*
X280353Y403423D01*
X280619Y403608D01*
X280908Y403758D01*
X281197Y403885D01*
X281486Y404001D01*
X281786Y404094D01*
X282075Y404163D01*
X282341Y404232D01*
X282607Y404278D01*
X282849Y404313D01*
X283069Y404336D01*
X283254Y404348D01*
X283404Y404359D01*
X283520Y404371D01*
X283624D01*
X284074Y404359D01*
D02*
G37*
G36*
X295816Y404174D02*
X296198Y403932D01*
X296579Y403700D01*
X296972Y403481D01*
X297353Y403284D01*
X297735Y403100D01*
X298093Y402938D01*
X298440Y402788D01*
X298763Y402649D01*
X299064Y402545D01*
X299330Y402441D01*
X299561Y402360D01*
X299653Y402325D01*
X299746Y402302D01*
X299815Y402279D01*
X299884Y402256D01*
X299931Y402244D01*
X299965Y402233D01*
X299988Y402221D01*
X300000D01*
Y399563D01*
X299676Y399609D01*
X299353Y399679D01*
X299052Y399760D01*
X298763Y399841D01*
X298636Y399887D01*
X298521Y399921D01*
X298417Y399956D01*
X298336Y399991D01*
X298255Y400014D01*
X298209Y400037D01*
X298174Y400048D01*
X298162D01*
X297804Y400199D01*
X297492Y400360D01*
X297226Y400511D01*
X297111Y400580D01*
X296995Y400649D01*
X296903Y400719D01*
X296822Y400777D01*
X296752Y400823D01*
X296695Y400869D01*
X296649Y400904D01*
X296614Y400927D01*
X296602Y400950D01*
X296591D01*
Y389254D01*
X293470D01*
Y404440D01*
X295447D01*
X295816Y404174D01*
D02*
G37*
G36*
X212444D02*
X212826Y403932D01*
X213207Y403700D01*
X213600Y403481D01*
X213981Y403284D01*
X214363Y403100D01*
X214721Y402938D01*
X215068Y402788D01*
X215391Y402649D01*
X215692Y402545D01*
X215958Y402441D01*
X216189Y402360D01*
X216281Y402325D01*
X216374Y402302D01*
X216443Y402279D01*
X216512Y402256D01*
X216558Y402244D01*
X216593Y402233D01*
X216616Y402221D01*
X216628D01*
Y399563D01*
X216304Y399609D01*
X215981Y399679D01*
X215680Y399760D01*
X215391Y399841D01*
X215264Y399887D01*
X215149Y399921D01*
X215044Y399956D01*
X214964Y399991D01*
X214883Y400014D01*
X214837Y400037D01*
X214802Y400048D01*
X214790D01*
X214432Y400199D01*
X214120Y400360D01*
X213854Y400511D01*
X213739Y400580D01*
X213623Y400649D01*
X213531Y400719D01*
X213450Y400777D01*
X213380Y400823D01*
X213323Y400869D01*
X213276Y400904D01*
X213242Y400927D01*
X213230Y400950D01*
X213218D01*
Y389254D01*
X210098D01*
Y404440D01*
X212074D01*
X212444Y404174D01*
D02*
G37*
G36*
X266681Y396951D02*
X266727Y396708D01*
X266785Y396501D01*
X266854Y396316D01*
X266912Y396177D01*
X266970Y396073D01*
X267016Y396015D01*
X267028Y395992D01*
X267167Y395842D01*
X267317Y395726D01*
X267467Y395645D01*
X267606Y395588D01*
X267733Y395553D01*
X267837Y395541D01*
X267906Y395530D01*
X267929D01*
X268045Y395541D01*
X268160Y395564D01*
X268299Y395611D01*
X268449Y395657D01*
X268761Y395784D01*
X269074Y395946D01*
X269224Y396015D01*
X269362Y396096D01*
X269489Y396165D01*
X269594Y396223D01*
X269686Y396269D01*
X269755Y396316D01*
X269802Y396339D01*
X269813Y396350D01*
X270056Y396489D01*
X270287Y396616D01*
X270518Y396720D01*
X270749Y396813D01*
X270957Y396893D01*
X271165Y396951D01*
X271362Y397009D01*
X271535Y397044D01*
X271697Y397078D01*
X271847Y397102D01*
X271974Y397125D01*
X272078Y397136D01*
X272171Y397148D01*
X272286D01*
X272541Y397136D01*
X272795Y397102D01*
X273026Y397055D01*
X273246Y396997D01*
X273454Y396928D01*
X273638Y396836D01*
X273812Y396755D01*
X273974Y396662D01*
X274112Y396570D01*
X274228Y396489D01*
X274343Y396408D01*
X274424Y396327D01*
X274494Y396269D01*
X274540Y396223D01*
X274575Y396189D01*
X274586Y396177D01*
X274736Y395992D01*
X274875Y395784D01*
X274991Y395564D01*
X275095Y395345D01*
X275187Y395114D01*
X275268Y394894D01*
X275326Y394663D01*
X275384Y394443D01*
X275418Y394247D01*
X275453Y394050D01*
X275476Y393877D01*
X275499Y393727D01*
X275511Y393611D01*
X275522Y393519D01*
Y393461D01*
Y393438D01*
X273488D01*
X273465Y393738D01*
X273419Y393993D01*
X273338Y394212D01*
X273257Y394409D01*
X273153Y394571D01*
X273037Y394709D01*
X272910Y394813D01*
X272795Y394906D01*
X272668Y394975D01*
X272552Y395021D01*
X272437Y395067D01*
X272344Y395090D01*
X272252Y395102D01*
X272194Y395114D01*
X272136D01*
X272032Y395102D01*
X271917Y395090D01*
X271801Y395056D01*
X271662Y395010D01*
X271396Y394906D01*
X271131Y394790D01*
X270888Y394663D01*
X270784Y394605D01*
X270692Y394559D01*
X270611Y394513D01*
X270553Y394478D01*
X270518Y394467D01*
X270506Y394455D01*
X270218Y394293D01*
X269940Y394143D01*
X269674Y394016D01*
X269420Y393912D01*
X269177Y393819D01*
X268958Y393750D01*
X268761Y393681D01*
X268577Y393634D01*
X268403Y393600D01*
X268253Y393565D01*
X268126Y393554D01*
X268022Y393530D01*
X267941D01*
X267871Y393519D01*
X267825D01*
X267560Y393530D01*
X267317Y393565D01*
X267086Y393611D01*
X266866Y393669D01*
X266658Y393750D01*
X266473Y393831D01*
X266300Y393923D01*
X266150Y394016D01*
X266011Y394108D01*
X265895Y394201D01*
X265791Y394282D01*
X265699Y394362D01*
X265641Y394420D01*
X265583Y394467D01*
X265560Y394501D01*
X265549Y394513D01*
X265398Y394709D01*
X265260Y394917D01*
X265144Y395137D01*
X265040Y395356D01*
X264959Y395588D01*
X264878Y395819D01*
X264820Y396038D01*
X264763Y396246D01*
X264728Y396454D01*
X264693Y396639D01*
X264670Y396801D01*
X264647Y396951D01*
X264636Y397067D01*
X264624Y397159D01*
Y397206D01*
Y397229D01*
X266658D01*
X266681Y396951D01*
D02*
G37*
G36*
X233143Y389254D02*
X229572D01*
X224406Y404117D01*
X227711D01*
X230924Y393646D01*
X231016Y393357D01*
X231086Y393080D01*
X231143Y392825D01*
X231190Y392594D01*
X231224Y392409D01*
X231236Y392328D01*
X231247Y392271D01*
Y392213D01*
X231259Y392178D01*
Y392155D01*
Y392144D01*
X231317D01*
X231340Y392398D01*
X231386Y392664D01*
X231432Y392906D01*
X231479Y393137D01*
X231525Y393322D01*
X231548Y393403D01*
X231571Y393473D01*
X231583Y393530D01*
X231594Y393577D01*
X231606Y393600D01*
Y393611D01*
X234830Y404117D01*
X238239D01*
X233143Y389254D01*
D02*
G37*
G36*
X255864Y403735D02*
X256060Y403354D01*
X256280Y402961D01*
X256500Y402568D01*
X256719Y402187D01*
X256950Y401805D01*
X257181Y401447D01*
X257389Y401100D01*
X257597Y400777D01*
X257794Y400488D01*
X257967Y400222D01*
X258117Y400002D01*
X258187Y399898D01*
X258245Y399817D01*
X258291Y399737D01*
X258337Y399679D01*
X258372Y399632D01*
X258395Y399598D01*
X258418Y399575D01*
Y399563D01*
X258753Y399089D01*
X259100Y398615D01*
X259447Y398165D01*
X259782Y397714D01*
X260117Y397298D01*
X260429Y396893D01*
X260741Y396512D01*
X261018Y396165D01*
X261296Y395842D01*
X261527Y395553D01*
X261746Y395299D01*
X261931Y395090D01*
X262082Y394917D01*
X262139Y394848D01*
X262185Y394790D01*
X262220Y394744D01*
X262255Y394709D01*
X262266Y394698D01*
X262278Y394686D01*
Y392421D01*
X255633D01*
Y389254D01*
X252813D01*
Y392421D01*
X250709D01*
Y394674D01*
X252813D01*
Y404117D01*
X255679D01*
X255864Y403735D01*
D02*
G37*
G36*
X194080Y389254D02*
X190636D01*
X189538Y392652D01*
X184141D01*
X183032Y389254D01*
X179576D01*
X184904Y404117D01*
X188637D01*
X194080Y389254D01*
D02*
G37*
G36*
X244838Y404348D02*
X245289Y404290D01*
X245509Y404255D01*
X245705Y404209D01*
X245902Y404163D01*
X246075Y404117D01*
X246237Y404059D01*
X246376Y404013D01*
X246491Y403966D01*
X246595Y403932D01*
X246676Y403897D01*
X246745Y403874D01*
X246780Y403862D01*
X246792Y403851D01*
X247173Y403643D01*
X247346Y403527D01*
X247520Y403412D01*
X247670Y403296D01*
X247809Y403180D01*
X247936Y403065D01*
X248051Y402949D01*
X248155Y402845D01*
X248236Y402741D01*
X248317Y402660D01*
X248375Y402579D01*
X248421Y402522D01*
X248467Y402476D01*
X248479Y402441D01*
X248491Y402429D01*
X248594Y402256D01*
X248687Y402082D01*
X248779Y401909D01*
X248849Y401736D01*
X248953Y401389D01*
X249022Y401077D01*
X249057Y400938D01*
X249068Y400811D01*
X249080Y400696D01*
X249091Y400592D01*
X249103Y400511D01*
Y400453D01*
Y400418D01*
Y400407D01*
X249091Y400210D01*
X249080Y400014D01*
X249011Y399656D01*
X248906Y399320D01*
X248849Y399170D01*
X248791Y399043D01*
X248745Y398916D01*
X248687Y398800D01*
X248629Y398696D01*
X248583Y398615D01*
X248548Y398558D01*
X248514Y398500D01*
X248502Y398477D01*
X248491Y398465D01*
X248363Y398303D01*
X248236Y398153D01*
X247947Y397876D01*
X247658Y397633D01*
X247381Y397425D01*
X247242Y397333D01*
X247127Y397252D01*
X247011Y397194D01*
X246919Y397136D01*
X246838Y397090D01*
X246780Y397055D01*
X246745Y397044D01*
X246734Y397032D01*
X246988Y396940D01*
X247231Y396836D01*
X247462Y396720D01*
X247670Y396604D01*
X247855Y396477D01*
X248040Y396362D01*
X248202Y396235D01*
X248340Y396119D01*
X248467Y396004D01*
X248583Y395900D01*
X248675Y395796D01*
X248756Y395715D01*
X248814Y395645D01*
X248860Y395599D01*
X248883Y395564D01*
X248895Y395553D01*
X249022Y395356D01*
X249138Y395171D01*
X249242Y394963D01*
X249334Y394767D01*
X249403Y394571D01*
X249461Y394386D01*
X249508Y394201D01*
X249554Y394027D01*
X249588Y393866D01*
X249611Y393715D01*
X249623Y393588D01*
X249635Y393473D01*
X249646Y393380D01*
Y393311D01*
Y393265D01*
Y393253D01*
X249635Y392918D01*
X249588Y392583D01*
X249508Y392282D01*
X249415Y391993D01*
X249311Y391716D01*
X249184Y391473D01*
X249045Y391242D01*
X248906Y391034D01*
X248779Y390838D01*
X248641Y390676D01*
X248514Y390537D01*
X248410Y390421D01*
X248317Y390329D01*
X248236Y390260D01*
X248190Y390214D01*
X248178Y390202D01*
X247889Y389994D01*
X247589Y389809D01*
X247277Y389659D01*
X246965Y389520D01*
X246641Y389404D01*
X246329Y389312D01*
X246017Y389231D01*
X245717Y389173D01*
X245439Y389127D01*
X245185Y389081D01*
X244954Y389058D01*
X244757Y389046D01*
X244596Y389035D01*
X244469Y389023D01*
X244365D01*
X243937Y389035D01*
X243533Y389069D01*
X243151Y389127D01*
X242781Y389208D01*
X242446Y389300D01*
X242134Y389393D01*
X241845Y389509D01*
X241591Y389613D01*
X241360Y389728D01*
X241152Y389832D01*
X240978Y389925D01*
X240828Y390017D01*
X240713Y390098D01*
X240632Y390156D01*
X240574Y390190D01*
X240562Y390202D01*
X240296Y390433D01*
X240077Y390676D01*
X239881Y390930D01*
X239707Y391184D01*
X239569Y391438D01*
X239441Y391693D01*
X239349Y391947D01*
X239268Y392190D01*
X239210Y392409D01*
X239164Y392617D01*
X239129Y392802D01*
X239106Y392964D01*
X239095Y393091D01*
X239083Y393195D01*
Y393253D01*
Y393276D01*
X239095Y393530D01*
X239118Y393761D01*
X239152Y393993D01*
X239210Y394212D01*
X239268Y394420D01*
X239326Y394617D01*
X239407Y394790D01*
X239476Y394952D01*
X239545Y395102D01*
X239615Y395241D01*
X239684Y395356D01*
X239742Y395449D01*
X239800Y395518D01*
X239834Y395576D01*
X239857Y395611D01*
X239869Y395622D01*
X240019Y395807D01*
X240181Y395980D01*
X240354Y396131D01*
X240528Y396281D01*
X240713Y396420D01*
X240898Y396535D01*
X241071Y396651D01*
X241244Y396743D01*
X241406Y396836D01*
X241545Y396905D01*
X241683Y396974D01*
X241799Y397021D01*
X241891Y397067D01*
X241972Y397090D01*
X242019Y397113D01*
X242030D01*
X241626Y397321D01*
X241441Y397437D01*
X241267Y397552D01*
X241105Y397668D01*
X240955Y397783D01*
X240817Y397899D01*
X240701Y398014D01*
X240585Y398119D01*
X240493Y398211D01*
X240412Y398303D01*
X240343Y398373D01*
X240285Y398442D01*
X240250Y398488D01*
X240227Y398511D01*
X240216Y398523D01*
X240100Y398696D01*
X239984Y398858D01*
X239904Y399031D01*
X239823Y399205D01*
X239753Y399367D01*
X239696Y399528D01*
X239615Y399817D01*
X239592Y399956D01*
X239569Y400072D01*
X239557Y400187D01*
X239545Y400280D01*
X239534Y400349D01*
Y400407D01*
Y400441D01*
Y400453D01*
X239545Y400649D01*
X239557Y400846D01*
X239626Y401227D01*
X239730Y401562D01*
X239788Y401713D01*
X239846Y401851D01*
X239904Y401978D01*
X239961Y402094D01*
X240008Y402198D01*
X240065Y402279D01*
X240100Y402348D01*
X240135Y402395D01*
X240146Y402429D01*
X240158Y402441D01*
X240273Y402603D01*
X240412Y402764D01*
X240690Y403053D01*
X240967Y403296D01*
X241244Y403493D01*
X241371Y403585D01*
X241499Y403654D01*
X241602Y403712D01*
X241695Y403770D01*
X241776Y403805D01*
X241834Y403839D01*
X241868Y403862D01*
X241880D01*
X242088Y403955D01*
X242296Y404036D01*
X242724Y404151D01*
X243140Y404244D01*
X243336Y404278D01*
X243521Y404313D01*
X243694Y404325D01*
X243856Y404348D01*
X243995Y404359D01*
X244110D01*
X244203Y404371D01*
X244596D01*
X244838Y404348D01*
D02*
G37*
G36*
X200517D02*
X200980Y404278D01*
X201407Y404186D01*
X201812Y404047D01*
X202182Y403897D01*
X202517Y403724D01*
X202829Y403539D01*
X203095Y403354D01*
X203337Y403157D01*
X203557Y402972D01*
X203730Y402799D01*
X203880Y402649D01*
X203996Y402510D01*
X204077Y402418D01*
X204135Y402348D01*
X204146Y402337D01*
Y402325D01*
X204401Y401921D01*
X204620Y401493D01*
X204805Y401031D01*
X204967Y400546D01*
X205105Y400060D01*
X205221Y399575D01*
X205313Y399089D01*
X205394Y398627D01*
X205452Y398176D01*
X205487Y397772D01*
X205510Y397575D01*
X205522Y397402D01*
X205533Y397229D01*
X205545Y397078D01*
X205556Y396940D01*
Y396813D01*
Y396708D01*
X205568Y396616D01*
Y396535D01*
Y396489D01*
Y396454D01*
Y396443D01*
X205556Y395772D01*
X205510Y395137D01*
X205441Y394536D01*
X205337Y393981D01*
X205221Y393473D01*
X205082Y392987D01*
X204921Y392548D01*
X204747Y392144D01*
X204551Y391762D01*
X204354Y391415D01*
X204135Y391103D01*
X203904Y390815D01*
X203672Y390560D01*
X203430Y390329D01*
X203187Y390121D01*
X202944Y389936D01*
X202702Y389763D01*
X202459Y389624D01*
X202216Y389497D01*
X201985Y389393D01*
X201754Y389300D01*
X201534Y389231D01*
X201338Y389162D01*
X201141Y389116D01*
X200968Y389081D01*
X200806Y389046D01*
X200668Y389023D01*
X200541Y389012D01*
X200448D01*
X200379Y389000D01*
X200321D01*
X200078Y389012D01*
X199847Y389023D01*
X199396Y389092D01*
X198980Y389185D01*
X198587Y389312D01*
X198229Y389474D01*
X197894Y389636D01*
X197605Y389821D01*
X197328Y390017D01*
X197097Y390202D01*
X196889Y390387D01*
X196715Y390549D01*
X196565Y390710D01*
X196461Y390838D01*
X196380Y390942D01*
X196322Y390999D01*
X196311Y391022D01*
X196068Y391415D01*
X195848Y391855D01*
X195663Y392305D01*
X195502Y392779D01*
X195363Y393253D01*
X195259Y393738D01*
X195166Y394212D01*
X195086Y394663D01*
X195028Y395102D01*
X194982Y395495D01*
X194970Y395680D01*
X194958Y395865D01*
X194947Y396027D01*
X194935Y396177D01*
X194924Y396304D01*
Y396431D01*
X194912Y396535D01*
Y396628D01*
Y396697D01*
Y396743D01*
Y396778D01*
Y396789D01*
X194924Y397483D01*
X194970Y398130D01*
X195039Y398731D01*
X195132Y399297D01*
X195247Y399817D01*
X195386Y400303D01*
X195536Y400754D01*
X195710Y401170D01*
X195895Y401551D01*
X196103Y401909D01*
X196311Y402233D01*
X196530Y402522D01*
X196761Y402788D01*
X196992Y403019D01*
X197235Y403238D01*
X197466Y403423D01*
X197709Y403585D01*
X197952Y403735D01*
X198183Y403862D01*
X198414Y403966D01*
X198634Y404059D01*
X198842Y404140D01*
X199050Y404198D01*
X199235Y404255D01*
X199408Y404290D01*
X199558Y404325D01*
X199697Y404348D01*
X199812Y404359D01*
X199905D01*
X199974Y404371D01*
X200275D01*
X200517Y404348D01*
D02*
G37*
G36*
X141408Y458174D02*
X141870Y457932D01*
X142332Y457701D01*
X142795Y457481D01*
X143245Y457285D01*
X143684Y457099D01*
X144100Y456938D01*
X144505Y456787D01*
X144875Y456649D01*
X145210Y456545D01*
X145510Y456441D01*
X145638Y456406D01*
X145765Y456360D01*
X145869Y456325D01*
X145973Y456302D01*
X146054Y456279D01*
X146123Y456256D01*
X146181Y456244D01*
X146215Y456233D01*
X146238Y456221D01*
X146250D01*
X147151Y453563D01*
X146816Y453609D01*
X146470Y453679D01*
X146135Y453760D01*
X145822Y453840D01*
X145684Y453887D01*
X145557Y453921D01*
X145441Y453956D01*
X145337Y453991D01*
X145268Y454014D01*
X145198Y454037D01*
X145164Y454049D01*
X145152D01*
X144748Y454199D01*
X144378Y454361D01*
X144216Y454441D01*
X144066Y454511D01*
X143916Y454580D01*
X143788Y454650D01*
X143673Y454719D01*
X143569Y454777D01*
X143488Y454823D01*
X143407Y454869D01*
X143361Y454904D01*
X143315Y454927D01*
X143292Y454950D01*
X143280D01*
X147255Y443254D01*
X144135D01*
X138969Y458440D01*
X140945D01*
X141408Y458174D01*
D02*
G37*
G36*
X186954Y443254D02*
X183383D01*
X173155Y458117D01*
X176472D01*
X183244Y447646D01*
X183429Y447357D01*
X183591Y447080D01*
X183741Y446825D01*
X183857Y446594D01*
X183960Y446409D01*
X183995Y446328D01*
X184030Y446271D01*
X184053Y446213D01*
X184076Y446178D01*
X184088Y446155D01*
Y446143D01*
X184146D01*
X184088Y446398D01*
X184030Y446664D01*
X183995Y446906D01*
X183972Y447137D01*
X183949Y447322D01*
Y447403D01*
Y447473D01*
X183937Y447530D01*
Y447577D01*
Y447600D01*
Y447611D01*
X183579Y458117D01*
X187000D01*
X186954Y443254D01*
D02*
G37*
G36*
X168786Y454106D02*
X169202Y454060D01*
X169607Y453979D01*
X170000Y453875D01*
X170369Y453760D01*
X170728Y453621D01*
X171063Y453482D01*
X171375Y453332D01*
X171664Y453182D01*
X171918Y453043D01*
X172138Y452904D01*
X172323Y452789D01*
X172473Y452685D01*
X172589Y452604D01*
X172658Y452558D01*
X172669Y452534D01*
X172681D01*
X173051Y452223D01*
X173386Y451899D01*
X173698Y451564D01*
X173987Y451217D01*
X174253Y450882D01*
X174495Y450535D01*
X174703Y450200D01*
X174888Y449876D01*
X175062Y449576D01*
X175200Y449299D01*
X175316Y449044D01*
X175408Y448836D01*
X175489Y448651D01*
X175512Y448582D01*
X175536Y448524D01*
X175559Y448478D01*
X175570Y448443D01*
X175582Y448420D01*
Y448409D01*
X175720Y447946D01*
X175824Y447507D01*
X175894Y447091D01*
X175940Y446710D01*
X175951Y446352D01*
X175940Y446028D01*
X175917Y445728D01*
X175882Y445462D01*
X175824Y445219D01*
X175767Y445011D01*
X175709Y444838D01*
X175651Y444687D01*
X175605Y444572D01*
X175559Y444491D01*
X175536Y444433D01*
X175524Y444422D01*
X175327Y444167D01*
X175108Y443948D01*
X174865Y443763D01*
X174588Y443601D01*
X174310Y443462D01*
X174021Y443347D01*
X173733Y443254D01*
X173444Y443173D01*
X173178Y443116D01*
X172912Y443081D01*
X172681Y443046D01*
X172473Y443023D01*
X172311Y443012D01*
X172242D01*
X172184Y443000D01*
X172068D01*
X171641Y443012D01*
X171225Y443035D01*
X170820Y443069D01*
X170439Y443127D01*
X170081Y443185D01*
X169745Y443254D01*
X169433Y443335D01*
X169144Y443405D01*
X168890Y443485D01*
X168659Y443555D01*
X168463Y443624D01*
X168301Y443682D01*
X168162Y443740D01*
X168070Y443774D01*
X168012Y443797D01*
X167989Y443809D01*
X167214Y446086D01*
X167526Y445936D01*
X167827Y445797D01*
X168139Y445681D01*
X168440Y445589D01*
X168728Y445496D01*
X169006Y445427D01*
X169283Y445369D01*
X169526Y445323D01*
X169757Y445288D01*
X169965Y445265D01*
X170150Y445242D01*
X170312Y445230D01*
X170439D01*
X170531Y445219D01*
X170612D01*
X170867Y445230D01*
X171098Y445242D01*
X171317Y445277D01*
X171514Y445323D01*
X171687Y445381D01*
X171849Y445450D01*
X171999Y445519D01*
X172126Y445600D01*
X172253Y445693D01*
X172357Y445785D01*
X172438Y445889D01*
X172519Y445993D01*
X172646Y446224D01*
X172739Y446455D01*
X172785Y446675D01*
X172820Y446906D01*
Y447114D01*
X172808Y447299D01*
X172796Y447449D01*
X172773Y447577D01*
X172762Y447623D01*
Y447658D01*
X172750Y447669D01*
Y447681D01*
X165758D01*
X165319Y448998D01*
X165180Y449437D01*
X165088Y449842D01*
X165019Y450235D01*
X164972Y450593D01*
X164949Y450928D01*
Y451240D01*
X164972Y451517D01*
X165007Y451772D01*
X165042Y452003D01*
X165100Y452199D01*
X165146Y452361D01*
X165192Y452500D01*
X165238Y452615D01*
X165273Y452696D01*
X165296Y452743D01*
X165308Y452754D01*
X165469Y452997D01*
X165666Y453205D01*
X165885Y453390D01*
X166128Y453551D01*
X166371Y453679D01*
X166637Y453794D01*
X166891Y453887D01*
X167145Y453956D01*
X167388Y454014D01*
X167619Y454060D01*
X167827Y454083D01*
X168000Y454106D01*
X168162Y454118D01*
X168266Y454129D01*
X168370D01*
X168786Y454106D01*
D02*
G37*
G36*
X155842Y454037D02*
X156027Y454025D01*
X156385Y453956D01*
X156732Y453852D01*
X157056Y453713D01*
X157368Y453540D01*
X157657Y453355D01*
X157934Y453159D01*
X158177Y452962D01*
X158397Y452754D01*
X158604Y452558D01*
X158766Y452373D01*
X158917Y452211D01*
X159032Y452061D01*
X159113Y451957D01*
X159159Y451887D01*
X159182Y451876D01*
Y451864D01*
X159229D01*
X158547Y453864D01*
X161644D01*
X165250Y443254D01*
X162153D01*
X160419Y448351D01*
X160326Y448605D01*
X160222Y448848D01*
X160107Y449079D01*
X160003Y449299D01*
X159887Y449495D01*
X159772Y449668D01*
X159656Y449842D01*
X159552Y449992D01*
X159448Y450119D01*
X159356Y450235D01*
X159263Y450339D01*
X159194Y450420D01*
X159124Y450489D01*
X159078Y450535D01*
X159055Y450558D01*
X159044Y450570D01*
X158870Y450709D01*
X158708Y450836D01*
X158535Y450940D01*
X158362Y451044D01*
X158200Y451113D01*
X158038Y451182D01*
X157888Y451240D01*
X157738Y451275D01*
X157599Y451310D01*
X157484Y451333D01*
X157368Y451356D01*
X157275Y451367D01*
X157206Y451379D01*
X157102D01*
X156813Y451367D01*
X156559Y451333D01*
X156339Y451275D01*
X156166Y451217D01*
X156016Y451159D01*
X155912Y451101D01*
X155854Y451067D01*
X155831Y451055D01*
X154860Y453921D01*
X154964Y453968D01*
X155091Y453991D01*
X155345Y454037D01*
X155472D01*
X155565Y454049D01*
X155657D01*
X155842Y454037D01*
D02*
G37*
G36*
X136785Y446259D02*
X137062Y446213D01*
X137305Y446132D01*
X137524Y446051D01*
X137709Y445970D01*
X137790Y445924D01*
X137848Y445889D01*
X137906Y445866D01*
X137941Y445843D01*
X137964Y445820D01*
X137975D01*
X138218Y445635D01*
X138414Y445438D01*
X138576Y445242D01*
X138703Y445057D01*
X138796Y444895D01*
X138865Y444757D01*
X138888Y444710D01*
X138900Y444676D01*
X138911Y444653D01*
Y444641D01*
X138946Y444514D01*
X138981Y444387D01*
X138992Y444156D01*
X138981Y443959D01*
X138934Y443786D01*
X138888Y443647D01*
X138842Y443543D01*
X138796Y443485D01*
X138784Y443462D01*
X138634Y443312D01*
X138449Y443196D01*
X138264Y443116D01*
X138079Y443058D01*
X137917Y443023D01*
X137790Y443012D01*
X137732Y443000D01*
X137663D01*
X137363Y443023D01*
X137085Y443069D01*
X136831Y443139D01*
X136611Y443231D01*
X136427Y443312D01*
X136357Y443347D01*
X136288Y443381D01*
X136242Y443405D01*
X136207Y443428D01*
X136184Y443451D01*
X136172D01*
X135941Y443636D01*
X135733Y443832D01*
X135571Y444029D01*
X135444Y444213D01*
X135352Y444387D01*
X135282Y444514D01*
X135259Y444572D01*
X135248Y444606D01*
X135236Y444630D01*
Y444641D01*
X135202Y444768D01*
X135178Y444895D01*
X135155Y445126D01*
X135178Y445323D01*
X135213Y445485D01*
X135271Y445623D01*
X135317Y445728D01*
X135363Y445785D01*
X135375Y445808D01*
X135525Y445970D01*
X135710Y446086D01*
X135895Y446167D01*
X136080Y446224D01*
X136242Y446259D01*
X136380Y446271D01*
X136438Y446282D01*
X136508D01*
X136785Y446259D01*
D02*
G37*
G36*
X123818Y458348D02*
X124292Y458278D01*
X124754Y458186D01*
X125205Y458047D01*
X125621Y457897D01*
X126014Y457724D01*
X126384Y457539D01*
X126719Y457354D01*
X127031Y457157D01*
X127308Y456972D01*
X127539Y456799D01*
X127747Y456649D01*
X127909Y456510D01*
X128025Y456418D01*
X128059Y456371D01*
X128094Y456348D01*
X128106Y456337D01*
X128117Y456325D01*
X128498Y455921D01*
X128868Y455493D01*
X129215Y455031D01*
X129539Y454545D01*
X129851Y454060D01*
X130128Y453575D01*
X130382Y453089D01*
X130625Y452627D01*
X130833Y452176D01*
X131018Y451772D01*
X131099Y451575D01*
X131168Y451402D01*
X131237Y451229D01*
X131295Y451078D01*
X131353Y450940D01*
X131399Y450812D01*
X131446Y450709D01*
X131480Y450616D01*
X131503Y450535D01*
X131526Y450489D01*
X131538Y450454D01*
Y450443D01*
X131758Y449772D01*
X131919Y449137D01*
X132058Y448536D01*
X132150Y447981D01*
X132208Y447473D01*
X132231Y446987D01*
X132220Y446548D01*
X132185Y446143D01*
X132116Y445762D01*
X132035Y445415D01*
X131919Y445103D01*
X131792Y444814D01*
X131654Y444560D01*
X131492Y444329D01*
X131318Y444121D01*
X131133Y443936D01*
X130949Y443763D01*
X130752Y443624D01*
X130556Y443497D01*
X130359Y443393D01*
X130163Y443301D01*
X129966Y443231D01*
X129781Y443162D01*
X129608Y443116D01*
X129446Y443081D01*
X129296Y443046D01*
X129169Y443023D01*
X129053Y443012D01*
X128961D01*
X128891Y443000D01*
X128834D01*
X128591Y443012D01*
X128348Y443023D01*
X127874Y443092D01*
X127424Y443185D01*
X126985Y443312D01*
X126568Y443474D01*
X126187Y443636D01*
X125817Y443821D01*
X125482Y444017D01*
X125182Y444202D01*
X124916Y444387D01*
X124685Y444549D01*
X124488Y444710D01*
X124326Y444838D01*
X124211Y444942D01*
X124176Y444976D01*
X124142Y444999D01*
X124118Y445023D01*
X123737Y445415D01*
X123379Y445855D01*
X123032Y446305D01*
X122720Y446779D01*
X122420Y447253D01*
X122142Y447738D01*
X121888Y448212D01*
X121657Y448663D01*
X121460Y449102D01*
X121275Y449495D01*
X121194Y449680D01*
X121125Y449865D01*
X121056Y450027D01*
X120998Y450177D01*
X120940Y450304D01*
X120894Y450431D01*
X120859Y450535D01*
X120825Y450628D01*
X120801Y450697D01*
X120778Y450743D01*
X120767Y450778D01*
Y450789D01*
X120547Y451483D01*
X120374Y452130D01*
X120235Y452731D01*
X120131Y453297D01*
X120073Y453817D01*
X120050Y454303D01*
Y454753D01*
X120073Y455169D01*
X120131Y455551D01*
X120212Y455909D01*
X120316Y456233D01*
X120443Y456522D01*
X120582Y456787D01*
X120732Y457019D01*
X120906Y457238D01*
X121079Y457423D01*
X121264Y457585D01*
X121449Y457735D01*
X121645Y457862D01*
X121830Y457966D01*
X122027Y458059D01*
X122212Y458140D01*
X122385Y458198D01*
X122558Y458255D01*
X122720Y458290D01*
X122859Y458325D01*
X122997Y458348D01*
X123101Y458359D01*
X123194D01*
X123263Y458371D01*
X123575D01*
X123818Y458348D01*
D02*
G37*
G36*
X187000Y409509D02*
X181262D01*
Y426331D01*
Y427743D01*
X181308Y429108D01*
X181331Y429756D01*
Y430358D01*
X181354Y430959D01*
X181377Y431515D01*
X181400Y432001D01*
X181423Y432463D01*
X181447Y432857D01*
X181470Y433204D01*
X181493Y433481D01*
Y433690D01*
X181516Y433805D01*
Y433852D01*
X181354D01*
X181238Y433273D01*
X181123Y432741D01*
X181007Y432255D01*
X180914Y431839D01*
X180845Y431468D01*
X180752Y431144D01*
X180683Y430844D01*
X180637Y430612D01*
X180567Y430404D01*
X180521Y430242D01*
X180498Y430103D01*
X180452Y429987D01*
X180428Y429918D01*
Y429872D01*
X180405Y429826D01*
X172978Y409509D01*
X167910D01*
X160575Y430034D01*
X160505Y430242D01*
X160436Y430473D01*
X160367Y430728D01*
X160274Y431029D01*
X160135Y431654D01*
X159973Y432301D01*
X159904Y432602D01*
X159858Y432903D01*
X159788Y433158D01*
X159742Y433389D01*
X159696Y433574D01*
X159672Y433736D01*
X159649Y433829D01*
Y433852D01*
X159487D01*
X159534Y433158D01*
X159580Y432486D01*
X159603Y431862D01*
X159626Y431260D01*
X159649Y430705D01*
X159672Y430196D01*
X159696Y429710D01*
X159719Y429293D01*
Y428900D01*
Y428553D01*
X159742Y428252D01*
Y427997D01*
Y427812D01*
Y427673D01*
Y427581D01*
Y427558D01*
Y409509D01*
X153471D01*
Y439266D01*
X162449D01*
X168882Y421310D01*
X169113Y420616D01*
X169345Y419899D01*
X169553Y419204D01*
X169738Y418533D01*
X169831Y418233D01*
X169900Y417955D01*
X169969Y417724D01*
X170016Y417515D01*
X170062Y417330D01*
X170108Y417215D01*
X170131Y417122D01*
Y417099D01*
X170247D01*
X170386Y417839D01*
X170548Y418580D01*
X170733Y419274D01*
X170918Y419922D01*
X171011Y420223D01*
X171080Y420477D01*
X171150Y420709D01*
X171219Y420917D01*
X171288Y421079D01*
X171311Y421194D01*
X171358Y421264D01*
Y421287D01*
X177767Y439266D01*
X187000D01*
Y409509D01*
D02*
G37*
G36*
X95461Y417932D02*
X95437Y417122D01*
X95368Y416358D01*
X95275Y415641D01*
X95137Y414993D01*
X94975Y414368D01*
X94766Y413790D01*
X94558Y413258D01*
X94304Y412772D01*
X94026Y412309D01*
X93748Y411892D01*
X93424Y411522D01*
X93100Y411175D01*
X92776Y410874D01*
X92429Y410597D01*
X92082Y410342D01*
X91735Y410111D01*
X91388Y409926D01*
X91064Y409740D01*
X90393Y409463D01*
X89745Y409278D01*
X89190Y409139D01*
X88935Y409093D01*
X88727Y409069D01*
X88519Y409046D01*
X88357Y409023D01*
X88218Y409000D01*
X88033D01*
X87269Y409046D01*
X86552Y409162D01*
X85881Y409347D01*
X85256Y409579D01*
X84678Y409879D01*
X84145Y410180D01*
X83659Y410527D01*
X83220Y410874D01*
X82826Y411221D01*
X82479Y411568D01*
X82179Y411869D01*
X81947Y412170D01*
X81762Y412402D01*
X81623Y412587D01*
X81531Y412702D01*
X81508Y412749D01*
X81415D01*
Y409509D01*
X75260D01*
Y430751D01*
X81415D01*
Y418580D01*
X81438Y418163D01*
X81461Y417793D01*
X81508Y417423D01*
X81600Y417099D01*
X81670Y416775D01*
X81762Y416474D01*
X81878Y416219D01*
X81970Y415988D01*
X82086Y415757D01*
X82179Y415572D01*
X82294Y415410D01*
X82364Y415271D01*
X82433Y415178D01*
X82502Y415109D01*
X82526Y415062D01*
X82549Y415039D01*
X82757Y414808D01*
X82988Y414623D01*
X83243Y414438D01*
X83474Y414299D01*
X83983Y414067D01*
X84446Y413905D01*
X84863Y413813D01*
X85048Y413790D01*
X85210Y413767D01*
X85325Y413744D01*
X85511D01*
X85858Y413767D01*
X86159Y413790D01*
X86459Y413859D01*
X86737Y413952D01*
X87246Y414183D01*
X87663Y414484D01*
X88033Y414854D01*
X88334Y415248D01*
X88565Y415687D01*
X88773Y416127D01*
X88912Y416567D01*
X89028Y417006D01*
X89120Y417400D01*
X89167Y417770D01*
X89213Y418071D01*
X89236Y418302D01*
Y418395D01*
Y418464D01*
Y418487D01*
Y418510D01*
Y430751D01*
X95461D01*
Y417932D01*
D02*
G37*
G36*
X49552Y431237D02*
X50339Y431144D01*
X51102Y430982D01*
X51820Y430774D01*
X52468Y430543D01*
X53092Y430265D01*
X53671Y429987D01*
X54180Y429687D01*
X54666Y429386D01*
X55059Y429108D01*
X55429Y428830D01*
X55730Y428599D01*
X55962Y428391D01*
X56124Y428229D01*
X56216Y428136D01*
X56262Y428090D01*
X56795Y427465D01*
X57257Y426817D01*
X57651Y426146D01*
X57998Y425452D01*
X58276Y424781D01*
X58507Y424087D01*
X58715Y423416D01*
X58877Y422768D01*
X58993Y422166D01*
X59085Y421611D01*
X59155Y421102D01*
X59201Y420685D01*
X59224Y420315D01*
Y420176D01*
X59247Y420061D01*
Y419968D01*
Y419899D01*
Y419852D01*
Y419829D01*
X59224Y418904D01*
X59132Y418024D01*
X58993Y417191D01*
X58808Y416428D01*
X58600Y415710D01*
X58368Y415062D01*
X58114Y414461D01*
X57836Y413929D01*
X57581Y413443D01*
X57327Y413026D01*
X57095Y412679D01*
X56887Y412378D01*
X56702Y412147D01*
X56563Y411985D01*
X56471Y411869D01*
X56448Y411846D01*
X55892Y411337D01*
X55291Y410897D01*
X54666Y410527D01*
X54018Y410203D01*
X53370Y409926D01*
X52699Y409694D01*
X52074Y409509D01*
X51449Y409347D01*
X50848Y409231D01*
X50316Y409162D01*
X49806Y409093D01*
X49390Y409046D01*
X49043Y409023D01*
X48904D01*
X48788Y409000D01*
X48557D01*
X47701Y409023D01*
X46868Y409069D01*
X46104Y409139D01*
X45364Y409254D01*
X44693Y409370D01*
X44068Y409509D01*
X43489Y409671D01*
X42980Y409810D01*
X42518Y409972D01*
X42101Y410111D01*
X41754Y410249D01*
X41476Y410365D01*
X41245Y410481D01*
X41083Y410550D01*
X40967Y410597D01*
X40944Y410620D01*
Y415178D01*
X41453Y414877D01*
X41985Y414600D01*
X42518Y414368D01*
X43050Y414183D01*
X43582Y413998D01*
X44091Y413859D01*
X44577Y413744D01*
X45040Y413651D01*
X45479Y413582D01*
X45896Y413535D01*
X46243Y413489D01*
X46544Y413466D01*
X46798D01*
X46983Y413443D01*
X47146D01*
X47655Y413466D01*
X48141Y413489D01*
X48580Y413559D01*
X49020Y413651D01*
X49413Y413767D01*
X49783Y413905D01*
X50131Y414044D01*
X50454Y414206D01*
X50732Y414392D01*
X51010Y414577D01*
X51496Y414993D01*
X51889Y415456D01*
X52236Y415919D01*
X52491Y416358D01*
X52699Y416821D01*
X52838Y417238D01*
X52954Y417608D01*
X53023Y417909D01*
X53069Y418163D01*
Y418256D01*
X53092Y418325D01*
Y418348D01*
Y418372D01*
X39116D01*
Y421009D01*
X39139Y421889D01*
X39232Y422699D01*
X39348Y423485D01*
X39509Y424203D01*
X39695Y424874D01*
X39926Y425498D01*
X40157Y426054D01*
X40389Y426563D01*
X40620Y427026D01*
X40852Y427419D01*
X41060Y427743D01*
X41268Y428021D01*
X41430Y428252D01*
X41546Y428414D01*
X41638Y428507D01*
X41662Y428530D01*
X42171Y429016D01*
X42703Y429432D01*
X43258Y429802D01*
X43837Y430126D01*
X44415Y430381D01*
X45017Y430612D01*
X45595Y430797D01*
X46150Y430936D01*
X46660Y431052D01*
X47146Y431144D01*
X47585Y431191D01*
X47979Y431237D01*
X48279Y431260D01*
X48511Y431283D01*
X48719D01*
X49552Y431237D01*
D02*
G37*
G36*
X69730Y409509D02*
X63528D01*
Y440956D01*
X69730D01*
Y409509D01*
D02*
G37*
G36*
X137782Y431260D02*
X138708Y431144D01*
X139564Y431006D01*
X140374Y430820D01*
X141138Y430589D01*
X141832Y430335D01*
X142457Y430057D01*
X143035Y429779D01*
X143544Y429501D01*
X144007Y429224D01*
X144377Y428969D01*
X144701Y428738D01*
X144956Y428553D01*
X145141Y428414D01*
X145233Y428298D01*
X145280Y428275D01*
X145835Y427697D01*
X146321Y427049D01*
X146737Y426401D01*
X147085Y425730D01*
X147385Y425036D01*
X147640Y424341D01*
X147848Y423670D01*
X148010Y423022D01*
X148149Y422421D01*
X148242Y421842D01*
X148311Y421333D01*
X148357Y420894D01*
X148380Y420547D01*
Y420385D01*
X148404Y420269D01*
Y420176D01*
Y420107D01*
Y420061D01*
Y420037D01*
X148357Y419112D01*
X148265Y418233D01*
X148126Y417400D01*
X147918Y416613D01*
X147709Y415896D01*
X147455Y415224D01*
X147177Y414623D01*
X146876Y414091D01*
X146599Y413605D01*
X146321Y413165D01*
X146066Y412795D01*
X145835Y412494D01*
X145650Y412263D01*
X145511Y412101D01*
X145395Y412008D01*
X145372Y411962D01*
X144771Y411453D01*
X144146Y410990D01*
X143475Y410597D01*
X142804Y410249D01*
X142110Y409972D01*
X141415Y409717D01*
X140744Y409532D01*
X140097Y409370D01*
X139495Y409254D01*
X138940Y409162D01*
X138430Y409093D01*
X137991Y409046D01*
X137644Y409023D01*
X137482D01*
X137366Y409000D01*
X137135D01*
X136163Y409046D01*
X135260Y409139D01*
X134404Y409278D01*
X133594Y409486D01*
X132854Y409717D01*
X132160Y409972D01*
X131535Y410249D01*
X130956Y410550D01*
X130447Y410828D01*
X130008Y411106D01*
X129637Y411360D01*
X129313Y411592D01*
X129082Y411800D01*
X128897Y411939D01*
X128804Y412054D01*
X128758Y412077D01*
X128203Y412679D01*
X127740Y413327D01*
X127324Y413998D01*
X126953Y414692D01*
X126676Y415387D01*
X126421Y416081D01*
X126213Y416752D01*
X126051Y417400D01*
X125912Y418001D01*
X125820Y418580D01*
X125750Y419089D01*
X125704Y419528D01*
X125681Y419875D01*
X125658Y420037D01*
Y420153D01*
Y420246D01*
Y420315D01*
Y420361D01*
Y420385D01*
X125681Y421287D01*
X125796Y422166D01*
X125935Y422976D01*
X126120Y423740D01*
X126352Y424434D01*
X126606Y425082D01*
X126884Y425684D01*
X127162Y426239D01*
X127462Y426702D01*
X127740Y427118D01*
X127995Y427488D01*
X128203Y427789D01*
X128411Y428021D01*
X128550Y428183D01*
X128643Y428298D01*
X128689Y428321D01*
X129267Y428854D01*
X129892Y429293D01*
X130563Y429687D01*
X131234Y430034D01*
X131905Y430311D01*
X132576Y430566D01*
X133247Y430751D01*
X133872Y430913D01*
X134474Y431029D01*
X135029Y431121D01*
X135538Y431191D01*
X135955Y431237D01*
X136325Y431260D01*
X136464Y431283D01*
X136811D01*
X137782Y431260D01*
D02*
G37*
G36*
X106961Y428275D02*
X107053D01*
X107377Y428807D01*
X107771Y429270D01*
X108187Y429664D01*
X108650Y430011D01*
X109136Y430311D01*
X109622Y430543D01*
X110108Y430751D01*
X110571Y430913D01*
X111033Y431029D01*
X111450Y431121D01*
X111843Y431191D01*
X112190Y431237D01*
X112468Y431260D01*
X112676Y431283D01*
X112861D01*
X113648Y431237D01*
X114389Y431144D01*
X115106Y430982D01*
X115777Y430774D01*
X116379Y430543D01*
X116957Y430265D01*
X117489Y429964D01*
X117975Y429687D01*
X118392Y429386D01*
X118762Y429085D01*
X119086Y428807D01*
X119364Y428576D01*
X119572Y428368D01*
X119734Y428206D01*
X119826Y428113D01*
X119850Y428067D01*
X120312Y427442D01*
X120729Y426794D01*
X121099Y426100D01*
X121400Y425406D01*
X121654Y424688D01*
X121886Y423994D01*
X122048Y423323D01*
X122187Y422652D01*
X122302Y422051D01*
X122395Y421472D01*
X122441Y420963D01*
X122487Y420523D01*
X122510Y420153D01*
X122534Y419991D01*
Y419875D01*
Y419783D01*
Y419714D01*
Y419667D01*
Y419644D01*
X122510Y418742D01*
X122441Y417886D01*
X122302Y417099D01*
X122163Y416358D01*
X121978Y415641D01*
X121770Y415016D01*
X121562Y414438D01*
X121330Y413905D01*
X121122Y413420D01*
X120914Y413003D01*
X120706Y412656D01*
X120520Y412378D01*
X120359Y412147D01*
X120243Y411985D01*
X120173Y411869D01*
X120150Y411846D01*
X119688Y411337D01*
X119178Y410897D01*
X118669Y410527D01*
X118114Y410203D01*
X117582Y409926D01*
X117050Y409694D01*
X116517Y409509D01*
X116008Y409347D01*
X115546Y409231D01*
X115106Y409162D01*
X114712Y409093D01*
X114366Y409046D01*
X114088Y409023D01*
X113879Y409000D01*
X113694D01*
X112885Y409046D01*
X112144Y409162D01*
X111450Y409324D01*
X110802Y409555D01*
X110200Y409810D01*
X109668Y410111D01*
X109159Y410411D01*
X108719Y410759D01*
X108326Y411082D01*
X108002Y411383D01*
X107701Y411684D01*
X107470Y411939D01*
X107285Y412170D01*
X107169Y412355D01*
X107077Y412448D01*
X107053Y412494D01*
X106961D01*
Y409509D01*
X100759D01*
Y440956D01*
X106961D01*
Y428275D01*
D02*
G37*
G36*
X300000Y409000D02*
X193523D01*
Y461924D01*
X300000D01*
Y409000D01*
D02*
G37*
%LPC*%
G36*
X255633Y400118D02*
Y394674D01*
X259539D01*
X259227Y395067D01*
X258938Y395426D01*
X258661Y395772D01*
X258406Y396096D01*
X258175Y396396D01*
X257967Y396674D01*
X257771Y396917D01*
X257609Y397148D01*
X257459Y397356D01*
X257320Y397529D01*
X257216Y397679D01*
X257124Y397806D01*
X257054Y397899D01*
X256996Y397968D01*
X256973Y398014D01*
X256962Y398026D01*
X256650Y398477D01*
X256523Y398685D01*
X256384Y398881D01*
X256268Y399066D01*
X256164Y399240D01*
X256060Y399390D01*
X255968Y399540D01*
X255898Y399679D01*
X255829Y399794D01*
X255771Y399887D01*
X255714Y399979D01*
X255679Y400037D01*
X255656Y400095D01*
X255633Y400118D01*
D02*
G37*
G36*
X186892Y401551D02*
X186811D01*
X186776Y401262D01*
X186741Y401008D01*
X186707Y400788D01*
X186672Y400603D01*
X186637Y400453D01*
X186603Y400349D01*
X186591Y400280D01*
X186580Y400268D01*
Y400257D01*
X184892Y395102D01*
X188856D01*
X187157Y400291D01*
X187088Y400522D01*
X187030Y400742D01*
X186984Y400961D01*
X186949Y401146D01*
X186915Y401320D01*
X186903Y401435D01*
Y401493D01*
X186892Y401528D01*
Y401539D01*
Y401551D01*
D02*
G37*
G36*
X244388Y402106D02*
X244307D01*
X244168Y402094D01*
X244030Y402082D01*
X243787Y402013D01*
X243567Y401921D01*
X243394Y401817D01*
X243244Y401701D01*
X243140Y401609D01*
X243070Y401539D01*
X243047Y401528D01*
Y401516D01*
X242955Y401401D01*
X242874Y401285D01*
X242758Y401054D01*
X242666Y400811D01*
X242596Y400592D01*
X242562Y400395D01*
X242550Y400303D01*
Y400233D01*
X242539Y400176D01*
Y400129D01*
Y400106D01*
Y400095D01*
Y399944D01*
X242562Y399794D01*
X242619Y399517D01*
X242700Y399274D01*
X242793Y399078D01*
X242897Y398904D01*
X242943Y398847D01*
X242978Y398789D01*
X243012Y398743D01*
X243036Y398708D01*
X243047Y398696D01*
X243059Y398685D01*
X243151Y398581D01*
X243255Y398500D01*
X243359Y398419D01*
X243463Y398361D01*
X243671Y398257D01*
X243868Y398188D01*
X244041Y398153D01*
X244122Y398142D01*
X244180Y398130D01*
X244237Y398119D01*
X244307D01*
X244445Y398130D01*
X244584Y398142D01*
X244838Y398211D01*
X245058Y398303D01*
X245243Y398407D01*
X245393Y398511D01*
X245497Y398604D01*
X245567Y398673D01*
X245578Y398685D01*
X245590Y398696D01*
X245682Y398812D01*
X245751Y398927D01*
X245879Y399159D01*
X245959Y399390D01*
X246029Y399609D01*
X246063Y399806D01*
X246075Y399887D01*
Y399956D01*
X246087Y400014D01*
Y400060D01*
Y400083D01*
Y400095D01*
X246075Y400245D01*
X246063Y400395D01*
X246006Y400673D01*
X245925Y400915D01*
X245832Y401123D01*
X245751Y401285D01*
X245705Y401354D01*
X245671Y401412D01*
X245636Y401459D01*
X245613Y401493D01*
X245590Y401505D01*
Y401516D01*
X245497Y401620D01*
X245393Y401713D01*
X245289Y401794D01*
X245174Y401863D01*
X244966Y401967D01*
X244757Y402036D01*
X244584Y402071D01*
X244503Y402082D01*
X244434Y402094D01*
X244388Y402106D01*
D02*
G37*
G36*
X244445Y395796D02*
X244353D01*
X244180Y395784D01*
X244018Y395772D01*
X243717Y395691D01*
X243452Y395588D01*
X243221Y395472D01*
X243128Y395414D01*
X243036Y395356D01*
X242966Y395299D01*
X242908Y395252D01*
X242851Y395206D01*
X242816Y395171D01*
X242804Y395160D01*
X242793Y395148D01*
X242677Y395021D01*
X242585Y394894D01*
X242504Y394755D01*
X242435Y394628D01*
X242319Y394351D01*
X242250Y394097D01*
X242204Y393877D01*
X242192Y393773D01*
X242180Y393692D01*
X242169Y393623D01*
Y393577D01*
Y393542D01*
Y393530D01*
X242180Y393345D01*
X242192Y393161D01*
X242261Y392837D01*
X242307Y392687D01*
X242365Y392548D01*
X242423Y392421D01*
X242469Y392305D01*
X242527Y392213D01*
X242585Y392120D01*
X242643Y392039D01*
X242689Y391982D01*
X242724Y391936D01*
X242758Y391901D01*
X242770Y391878D01*
X242781Y391866D01*
X242897Y391762D01*
X243024Y391658D01*
X243151Y391577D01*
X243290Y391508D01*
X243544Y391392D01*
X243798Y391323D01*
X244018Y391277D01*
X244110Y391265D01*
X244191Y391254D01*
X244261Y391242D01*
X244353D01*
X244538Y391254D01*
X244711Y391265D01*
X245023Y391334D01*
X245301Y391438D01*
X245428Y391496D01*
X245532Y391554D01*
X245636Y391612D01*
X245717Y391670D01*
X245786Y391727D01*
X245844Y391774D01*
X245902Y391808D01*
X245936Y391843D01*
X245948Y391855D01*
X245959Y391866D01*
X246063Y391993D01*
X246156Y392120D01*
X246237Y392248D01*
X246295Y392386D01*
X246410Y392664D01*
X246479Y392929D01*
X246503Y393056D01*
X246514Y393172D01*
X246526Y393276D01*
X246537Y393357D01*
X246549Y393426D01*
Y393484D01*
Y393519D01*
Y393530D01*
X246537Y393704D01*
X246526Y393877D01*
X246456Y394189D01*
X246352Y394467D01*
X246237Y394709D01*
X246191Y394802D01*
X246133Y394894D01*
X246075Y394963D01*
X246029Y395033D01*
X245994Y395079D01*
X245959Y395114D01*
X245948Y395137D01*
X245936Y395148D01*
X245821Y395264D01*
X245694Y395368D01*
X245567Y395449D01*
X245428Y395518D01*
X245162Y395634D01*
X244919Y395715D01*
X244688Y395761D01*
X244596Y395772D01*
X244515Y395784D01*
X244445Y395796D01*
D02*
G37*
G36*
X200228Y401990D02*
X200171D01*
X199974Y401978D01*
X199801Y401932D01*
X199627Y401863D01*
X199477Y401759D01*
X199327Y401643D01*
X199200Y401505D01*
X199073Y401343D01*
X198957Y401158D01*
X198853Y400961D01*
X198749Y400754D01*
X198657Y400534D01*
X198576Y400303D01*
X198437Y399829D01*
X198333Y399332D01*
X198241Y398835D01*
X198183Y398361D01*
X198148Y398130D01*
X198137Y397910D01*
X198113Y397702D01*
X198102Y397506D01*
X198090Y397321D01*
X198079Y397159D01*
Y397021D01*
X198067Y396905D01*
Y396801D01*
Y396732D01*
Y396685D01*
Y396674D01*
X198079Y396189D01*
X198090Y395738D01*
X198125Y395322D01*
X198160Y394929D01*
X198206Y394559D01*
X198264Y394212D01*
X198333Y393900D01*
X198402Y393611D01*
X198483Y393334D01*
X198564Y393091D01*
X198657Y392872D01*
X198749Y392664D01*
X198842Y392479D01*
X198946Y392317D01*
X199050Y392167D01*
X199142Y392028D01*
X199246Y391912D01*
X199350Y391808D01*
X199443Y391727D01*
X199547Y391647D01*
X199639Y391589D01*
X199732Y391531D01*
X199893Y391450D01*
X200032Y391404D01*
X200136Y391381D01*
X200205Y391369D01*
X200228D01*
X200425Y391381D01*
X200610Y391427D01*
X200795Y391496D01*
X200956Y391589D01*
X201107Y391704D01*
X201245Y391843D01*
X201373Y392005D01*
X201500Y392178D01*
X201604Y392363D01*
X201708Y392560D01*
X201893Y392999D01*
X202031Y393461D01*
X202147Y393946D01*
X202239Y394420D01*
X202309Y394883D01*
X202355Y395322D01*
X202378Y395518D01*
X202390Y395715D01*
X202401Y395876D01*
X202413Y396038D01*
Y396177D01*
X202424Y396292D01*
Y396385D01*
Y396454D01*
Y396501D01*
Y396512D01*
X202413Y397009D01*
X202401Y397471D01*
X202367Y397910D01*
X202332Y398315D01*
X202274Y398696D01*
X202216Y399055D01*
X202147Y399378D01*
X202066Y399679D01*
X201985Y399956D01*
X201904Y400210D01*
X201812Y400441D01*
X201708Y400649D01*
X201615Y400846D01*
X201511Y401019D01*
X201407Y401170D01*
X201292Y401308D01*
X201188Y401424D01*
X201084Y401528D01*
X200980Y401620D01*
X200887Y401701D01*
X200783Y401771D01*
X200691Y401828D01*
X200517Y401909D01*
X200379Y401955D01*
X200263Y401978D01*
X200228Y401990D01*
D02*
G37*
G36*
X169191Y452003D02*
X169110D01*
X168936Y451991D01*
X168775Y451980D01*
X168636Y451945D01*
X168509Y451899D01*
X168393Y451853D01*
X168289Y451783D01*
X168197Y451714D01*
X168116Y451633D01*
X167989Y451448D01*
X167908Y451252D01*
X167850Y451032D01*
X167827Y450812D01*
X167815Y450593D01*
X167838Y450373D01*
X167862Y450177D01*
X167896Y449992D01*
X167931Y449842D01*
X167954Y449726D01*
X167966Y449680D01*
X167977Y449645D01*
X167989Y449634D01*
Y449622D01*
X172103D01*
X171895Y450004D01*
X171675Y450350D01*
X171560Y450500D01*
X171444Y450639D01*
X171340Y450766D01*
X171236Y450882D01*
X171132Y450986D01*
X171040Y451078D01*
X170959Y451159D01*
X170890Y451229D01*
X170832Y451275D01*
X170786Y451310D01*
X170762Y451333D01*
X170751Y451344D01*
X170589Y451460D01*
X170439Y451564D01*
X170289Y451645D01*
X170138Y451726D01*
X170000Y451795D01*
X169861Y451841D01*
X169618Y451922D01*
X169503Y451945D01*
X169410Y451968D01*
X169318Y451980D01*
X169249Y451991D01*
X169191Y452003D01*
D02*
G37*
G36*
X124315Y455990D02*
X124257D01*
X124072Y455979D01*
X123910Y455932D01*
X123760Y455863D01*
X123645Y455759D01*
X123540Y455643D01*
X123448Y455505D01*
X123379Y455343D01*
X123321Y455158D01*
X123286Y454962D01*
X123263Y454753D01*
X123240Y454534D01*
Y454303D01*
X123263Y453829D01*
X123321Y453332D01*
X123402Y452835D01*
X123506Y452361D01*
X123552Y452130D01*
X123610Y451910D01*
X123668Y451702D01*
X123714Y451506D01*
X123772Y451321D01*
X123818Y451159D01*
X123853Y451021D01*
X123899Y450905D01*
X123922Y450801D01*
X123945Y450732D01*
X123968Y450685D01*
Y450674D01*
X124142Y450188D01*
X124315Y449738D01*
X124477Y449322D01*
X124650Y448929D01*
X124835Y448559D01*
X125008Y448212D01*
X125182Y447900D01*
X125343Y447611D01*
X125517Y447334D01*
X125690Y447091D01*
X125852Y446872D01*
X126014Y446664D01*
X126175Y446479D01*
X126326Y446317D01*
X126476Y446167D01*
X126626Y446028D01*
X126765Y445912D01*
X126904Y445808D01*
X127031Y445728D01*
X127158Y445647D01*
X127274Y445589D01*
X127378Y445531D01*
X127562Y445450D01*
X127724Y445404D01*
X127840Y445381D01*
X127874Y445369D01*
X127932D01*
X128129Y445381D01*
X128302Y445427D01*
X128452Y445496D01*
X128579Y445589D01*
X128695Y445704D01*
X128787Y445843D01*
X128868Y446005D01*
X128926Y446178D01*
X128972Y446363D01*
X129007Y446560D01*
X129030Y446779D01*
Y446999D01*
X129019Y447461D01*
X128972Y447946D01*
X128903Y448420D01*
X128811Y448882D01*
X128707Y449322D01*
X128660Y449518D01*
X128614Y449715D01*
X128568Y449876D01*
X128522Y450038D01*
X128475Y450177D01*
X128441Y450293D01*
X128418Y450385D01*
X128394Y450454D01*
X128371Y450500D01*
Y450512D01*
X128198Y451009D01*
X128025Y451471D01*
X127840Y451910D01*
X127666Y452315D01*
X127481Y452696D01*
X127308Y453055D01*
X127123Y453378D01*
X126950Y453679D01*
X126777Y453956D01*
X126603Y454210D01*
X126430Y454441D01*
X126256Y454650D01*
X126095Y454846D01*
X125933Y455019D01*
X125771Y455169D01*
X125621Y455308D01*
X125471Y455424D01*
X125332Y455528D01*
X125193Y455620D01*
X125066Y455701D01*
X124951Y455770D01*
X124835Y455828D01*
X124639Y455909D01*
X124477Y455955D01*
X124361Y455979D01*
X124315Y455990D01*
D02*
G37*
G36*
X48927Y427026D02*
X48765D01*
X48418Y427002D01*
X48094Y426979D01*
X47770Y426910D01*
X47493Y426817D01*
X46983Y426586D01*
X46521Y426285D01*
X46150Y425915D01*
X45850Y425522D01*
X45595Y425082D01*
X45387Y424642D01*
X45225Y424203D01*
X45109Y423763D01*
X45017Y423370D01*
X44970Y422999D01*
X44924Y422699D01*
X44901Y422467D01*
Y422375D01*
Y422305D01*
Y422282D01*
Y422259D01*
X53116D01*
X52954Y423022D01*
X52745Y423717D01*
X52629Y424017D01*
X52491Y424295D01*
X52375Y424550D01*
X52236Y424781D01*
X52120Y424989D01*
X51982Y425174D01*
X51889Y425336D01*
X51773Y425475D01*
X51704Y425568D01*
X51634Y425637D01*
X51611Y425684D01*
X51588Y425707D01*
X51357Y425938D01*
X51125Y426146D01*
X50871Y426308D01*
X50640Y426470D01*
X50385Y426609D01*
X50154Y426702D01*
X49714Y426864D01*
X49344Y426956D01*
X49182Y426979D01*
X49043Y427002D01*
X48927Y427026D01*
D02*
G37*
G36*
X137204Y426516D02*
X136973D01*
X136510Y426493D01*
X136093Y426447D01*
X135677Y426354D01*
X135307Y426239D01*
X134959Y426100D01*
X134636Y425938D01*
X134335Y425753D01*
X134080Y425545D01*
X133571Y425059D01*
X133178Y424550D01*
X132854Y423971D01*
X132576Y423393D01*
X132368Y422814D01*
X132206Y422236D01*
X132113Y421727D01*
X132021Y421241D01*
X131974Y420847D01*
Y420685D01*
X131951Y420547D01*
Y420431D01*
Y420338D01*
Y420292D01*
Y420269D01*
X131974Y419667D01*
X131998Y419112D01*
X132067Y418603D01*
X132160Y418117D01*
X132275Y417654D01*
X132414Y417238D01*
X132553Y416844D01*
X132738Y416497D01*
X132900Y416173D01*
X133108Y415872D01*
X133317Y415595D01*
X133525Y415340D01*
X133756Y415109D01*
X133965Y414901D01*
X134427Y414553D01*
X134913Y414299D01*
X135353Y414091D01*
X135769Y413952D01*
X136140Y413836D01*
X136464Y413790D01*
X136718Y413767D01*
X136811Y413744D01*
X136926D01*
X137389Y413767D01*
X137852Y413813D01*
X138268Y413905D01*
X138639Y414021D01*
X139009Y414160D01*
X139333Y414322D01*
X139657Y414530D01*
X139935Y414739D01*
X140444Y415224D01*
X140860Y415757D01*
X141207Y416335D01*
X141485Y416937D01*
X141693Y417515D01*
X141855Y418094D01*
X141971Y418626D01*
X142040Y419112D01*
X142086Y419320D01*
Y419528D01*
X142110Y419690D01*
X142133Y419829D01*
Y419945D01*
Y420037D01*
Y420084D01*
Y420107D01*
X142110Y420662D01*
X142063Y421194D01*
X142017Y421680D01*
X141924Y422143D01*
X141832Y422560D01*
X141716Y422953D01*
X141577Y423300D01*
X141462Y423624D01*
X141346Y423902D01*
X141207Y424133D01*
X141091Y424341D01*
X140999Y424526D01*
X140906Y424665D01*
X140837Y424758D01*
X140814Y424804D01*
X140791Y424827D01*
X140513Y425128D01*
X140235Y425383D01*
X139935Y425614D01*
X139611Y425799D01*
X139310Y425961D01*
X138986Y426100D01*
X138662Y426216D01*
X138361Y426308D01*
X138083Y426378D01*
X137829Y426424D01*
X137574Y426470D01*
X137366Y426493D01*
X137204Y426516D01*
D02*
G37*
G36*
X111589D02*
X111381D01*
X111033Y426493D01*
X110686Y426447D01*
X110362Y426378D01*
X110062Y426285D01*
X109529Y426054D01*
X109043Y425799D01*
X108858Y425660D01*
X108673Y425545D01*
X108511Y425406D01*
X108396Y425313D01*
X108303Y425221D01*
X108233Y425151D01*
X108187Y425105D01*
X108164Y425082D01*
X107933Y424804D01*
X107724Y424526D01*
X107563Y424226D01*
X107401Y423925D01*
X107262Y423624D01*
X107169Y423323D01*
X107007Y422768D01*
X106961Y422513D01*
X106915Y422282D01*
X106891Y422051D01*
X106868Y421889D01*
X106845Y421727D01*
Y421611D01*
Y421541D01*
Y421518D01*
Y419760D01*
X106868Y419274D01*
X106891Y418811D01*
X106961Y418372D01*
X107053Y417955D01*
X107146Y417562D01*
X107262Y417215D01*
X107401Y416890D01*
X107516Y416590D01*
X107632Y416312D01*
X107771Y416081D01*
X107886Y415872D01*
X107979Y415710D01*
X108071Y415595D01*
X108118Y415479D01*
X108164Y415433D01*
X108187Y415410D01*
X108442Y415109D01*
X108719Y414854D01*
X108997Y414646D01*
X109275Y414438D01*
X109552Y414276D01*
X109830Y414160D01*
X110108Y414044D01*
X110362Y413952D01*
X110617Y413882D01*
X110848Y413836D01*
X111056Y413790D01*
X111219Y413767D01*
X111357D01*
X111473Y413744D01*
X111566D01*
X111959Y413767D01*
X112352Y413813D01*
X112699Y413882D01*
X113023Y413998D01*
X113347Y414114D01*
X113625Y414253D01*
X113879Y414392D01*
X114111Y414530D01*
X114319Y414669D01*
X114504Y414831D01*
X114666Y414947D01*
X114782Y415062D01*
X114874Y415178D01*
X114944Y415248D01*
X114990Y415294D01*
X115013Y415317D01*
X115222Y415641D01*
X115430Y415965D01*
X115592Y416335D01*
X115731Y416705D01*
X115962Y417446D01*
X116101Y418163D01*
X116147Y418510D01*
X116194Y418834D01*
X116217Y419112D01*
X116240Y419343D01*
X116263Y419552D01*
Y419690D01*
Y419806D01*
Y419829D01*
X116240Y420385D01*
X116217Y420917D01*
X116147Y421426D01*
X116055Y421889D01*
X115962Y422328D01*
X115846Y422722D01*
X115731Y423092D01*
X115615Y423416D01*
X115499Y423717D01*
X115384Y423971D01*
X115268Y424203D01*
X115175Y424388D01*
X115083Y424526D01*
X115013Y424619D01*
X114990Y424688D01*
X114967Y424712D01*
X114712Y425036D01*
X114435Y425313D01*
X114134Y425545D01*
X113856Y425753D01*
X113556Y425938D01*
X113255Y426077D01*
X112954Y426193D01*
X112676Y426285D01*
X112422Y426354D01*
X112167Y426424D01*
X111936Y426470D01*
X111751Y426493D01*
X111589Y426516D01*
D02*
G37*
G36*
X210296Y453924D02*
X209796D01*
X209408Y453896D01*
X208963D01*
X208436Y453840D01*
X207853Y453813D01*
X207242Y453757D01*
X206548Y453674D01*
X205854Y453591D01*
X204382Y453341D01*
X203633Y453202D01*
X202911Y453008D01*
X202189Y452813D01*
X201523Y452563D01*
Y445206D01*
X201551Y445234D01*
X201690Y445290D01*
X201884Y445401D01*
X202162Y445540D01*
X202495Y445706D01*
X202911Y445873D01*
X203383Y446067D01*
X203911Y446261D01*
X204494Y446456D01*
X205104Y446650D01*
X205798Y446817D01*
X206520Y446983D01*
X207270Y447122D01*
X208075Y447233D01*
X208880Y447289D01*
X209741Y447316D01*
X209963D01*
X210240Y447289D01*
X210601Y447261D01*
X211045Y447205D01*
X211545Y447150D01*
X212128Y447039D01*
X212739Y446900D01*
X213405Y446706D01*
X214072Y446483D01*
X214766Y446234D01*
X215460Y445900D01*
X216154Y445512D01*
X216848Y445068D01*
X217486Y444540D01*
X218097Y443957D01*
X218125Y443929D01*
X218236Y443791D01*
X218375Y443624D01*
X218597Y443346D01*
X218819Y443013D01*
X219097Y442625D01*
X219374Y442153D01*
X219652Y441625D01*
X219957Y441014D01*
X220235Y440376D01*
X220512Y439654D01*
X220735Y438877D01*
X220957Y438044D01*
X221095Y437155D01*
X221206Y436239D01*
X221234Y435240D01*
Y435212D01*
Y435184D01*
Y435101D01*
Y435018D01*
X221206Y434740D01*
X221179Y434379D01*
X221151Y433935D01*
X221068Y433408D01*
X220984Y432825D01*
X220873Y432214D01*
X220707Y431547D01*
X220512Y430881D01*
X220263Y430159D01*
X219985Y429465D01*
X219652Y428743D01*
X219235Y428049D01*
X218791Y427411D01*
X218264Y426772D01*
X218236Y426745D01*
X218125Y426633D01*
X217958Y426467D01*
X217708Y426273D01*
X217431Y426023D01*
X217042Y425773D01*
X216626Y425467D01*
X216154Y425190D01*
X215599Y424884D01*
X214988Y424579D01*
X214321Y424329D01*
X213600Y424079D01*
X212850Y423885D01*
X212017Y423718D01*
X211129Y423607D01*
X210213Y423580D01*
X209991D01*
X209741Y423607D01*
X209408D01*
X208991Y423663D01*
X208491Y423691D01*
X207936Y423774D01*
X207325Y423857D01*
X206687Y423996D01*
X205993Y424135D01*
X205271Y424329D01*
X204521Y424551D01*
X203772Y424829D01*
X203022Y425134D01*
X202273Y425467D01*
X201523Y425884D01*
Y418888D01*
X201579Y418860D01*
X201690Y418805D01*
X201912Y418721D01*
X202217Y418582D01*
X202606Y418444D01*
X203078Y418305D01*
X203633Y418111D01*
X204244Y417944D01*
X204938Y417777D01*
X205715Y417611D01*
X206548Y417444D01*
X207436Y417305D01*
X208408Y417167D01*
X209435Y417083D01*
X210546Y417028D01*
X211684Y417000D01*
X212045D01*
X212239Y417028D01*
X212461D01*
X212711Y417056D01*
X213017Y417083D01*
X213350Y417111D01*
X213711Y417139D01*
X214488Y417250D01*
X215376Y417416D01*
X216320Y417611D01*
X217320Y417861D01*
X218375Y418166D01*
X219430Y418555D01*
X220512Y419027D01*
X221567Y419582D01*
X222595Y420220D01*
X223594Y420970D01*
X224066Y421359D01*
X224510Y421803D01*
Y421831D01*
X224566Y421858D01*
X224704Y422025D01*
X224954Y422303D01*
X225260Y422691D01*
X225593Y423163D01*
X226009Y423746D01*
X226426Y424440D01*
X226870Y425218D01*
X227314Y426106D01*
X227731Y427078D01*
X228147Y428133D01*
X228480Y429271D01*
X228785Y430520D01*
X229035Y431825D01*
X229174Y433213D01*
X229230Y434685D01*
Y435073D01*
X229202Y435268D01*
Y435490D01*
X229174Y435767D01*
X229146Y436100D01*
X229119Y436434D01*
X229063Y436822D01*
X229008Y437211D01*
X228952Y437655D01*
X228785Y438571D01*
X228563Y439599D01*
X228286Y440681D01*
X227953Y441792D01*
X227508Y442930D01*
X227009Y444096D01*
X226398Y445262D01*
X225704Y446400D01*
X225315Y446955D01*
X224871Y447483D01*
X224427Y448038D01*
X223955Y448538D01*
X223927Y448566D01*
X223899Y448593D01*
X223816Y448677D01*
X223705Y448760D01*
X223566Y448899D01*
X223400Y449038D01*
X223205Y449204D01*
X222983Y449371D01*
X222733Y449565D01*
X222456Y449787D01*
X221845Y450231D01*
X221095Y450731D01*
X220263Y451231D01*
X219319Y451730D01*
X218291Y452230D01*
X217153Y452674D01*
X215959Y453091D01*
X214655Y453424D01*
X213294Y453702D01*
X211823Y453868D01*
X211073Y453896D01*
X210296Y453924D01*
D02*
G37*
G36*
X292000Y453313D02*
X271623D01*
Y447094D01*
X284393D01*
Y437905D01*
X272650D01*
Y431686D01*
X284393D01*
Y417611D01*
X292000D01*
Y453313D01*
D02*
G37*
G36*
X250051Y453924D02*
X249718D01*
X249524Y453896D01*
X249302D01*
X249052Y453868D01*
X248774Y453840D01*
X248469Y453813D01*
X248136Y453757D01*
X247386Y453646D01*
X246553Y453507D01*
X245637Y453285D01*
X244666Y453008D01*
X243666Y452674D01*
X242639Y452258D01*
X241612Y451758D01*
X240584Y451175D01*
X239585Y450509D01*
X239113Y450120D01*
X238641Y449704D01*
X238169Y449287D01*
X237725Y448815D01*
X237697Y448788D01*
X237669Y448760D01*
X237614Y448677D01*
X237531Y448593D01*
X237419Y448455D01*
X237281Y448288D01*
X237003Y447899D01*
X236642Y447400D01*
X236226Y446789D01*
X235809Y446067D01*
X235365Y445262D01*
X234949Y444374D01*
X234505Y443374D01*
X234116Y442319D01*
X233755Y441153D01*
X233477Y439904D01*
X233227Y438571D01*
X233089Y437183D01*
X233033Y435712D01*
Y435351D01*
X233061Y435157D01*
Y434907D01*
X233089Y434629D01*
X233116Y434324D01*
X233144Y433991D01*
X233172Y433630D01*
X233227Y433213D01*
X233283Y432797D01*
X233449Y431881D01*
X233644Y430909D01*
X233894Y429854D01*
X234227Y428743D01*
X234616Y427633D01*
X235088Y426495D01*
X235643Y425356D01*
X236281Y424274D01*
X237031Y423191D01*
X237447Y422691D01*
X237892Y422192D01*
Y422164D01*
X237947Y422136D01*
X238030Y422053D01*
X238114Y421969D01*
X238391Y421720D01*
X238780Y421386D01*
X239252Y420998D01*
X239835Y420554D01*
X240529Y420082D01*
X241306Y419610D01*
X242167Y419110D01*
X243139Y418638D01*
X244166Y418194D01*
X245304Y417805D01*
X246525Y417472D01*
X247803Y417222D01*
X249163Y417056D01*
X249885Y417028D01*
X250607Y417000D01*
X250940D01*
X251134Y417028D01*
X251356D01*
X251606Y417056D01*
X251884Y417083D01*
X252189Y417111D01*
X252522Y417167D01*
X253300Y417278D01*
X254132Y417416D01*
X255049Y417639D01*
X256020Y417888D01*
X257047Y418222D01*
X258075Y418638D01*
X259130Y419110D01*
X260157Y419693D01*
X261184Y420359D01*
X262156Y421137D01*
X262628Y421581D01*
X263100Y422025D01*
Y422053D01*
X263155Y422080D01*
X263211Y422164D01*
X263294Y422247D01*
X263405Y422386D01*
X263544Y422552D01*
X263849Y422941D01*
X264210Y423441D01*
X264599Y424024D01*
X265043Y424746D01*
X265487Y425523D01*
X265931Y426411D01*
X266376Y427411D01*
X266764Y428466D01*
X267125Y429604D01*
X267430Y430853D01*
X267680Y432158D01*
X267819Y433546D01*
X267847Y434268D01*
X267875Y434990D01*
Y435351D01*
X267847Y435573D01*
Y435795D01*
X267819Y436073D01*
X267791Y436378D01*
X267764Y436711D01*
X267736Y437100D01*
X267680Y437489D01*
X267625Y437933D01*
X267458Y438849D01*
X267264Y439848D01*
X267014Y440903D01*
X266681Y442014D01*
X266292Y443152D01*
X265820Y444290D01*
X265265Y445429D01*
X264599Y446539D01*
X263849Y447622D01*
X263433Y448149D01*
X262988Y448649D01*
X262961Y448677D01*
X262933Y448704D01*
X262850Y448788D01*
X262766Y448871D01*
X262489Y449149D01*
X262100Y449482D01*
X261600Y449870D01*
X261017Y450315D01*
X260323Y450787D01*
X259518Y451286D01*
X258658Y451786D01*
X257658Y452258D01*
X256603Y452702D01*
X255465Y453091D01*
X254216Y453424D01*
X252911Y453702D01*
X251523Y453868D01*
X250801Y453896D01*
X250051Y453924D01*
D02*
G37*
%LPD*%
G36*
X250690Y447289D02*
X251023Y447261D01*
X251384Y447205D01*
X251828Y447150D01*
X252300Y447039D01*
X252828Y446900D01*
X253383Y446733D01*
X253966Y446511D01*
X254549Y446234D01*
X255132Y445900D01*
X255715Y445540D01*
X256270Y445095D01*
X256825Y444568D01*
X257325Y443985D01*
X257353Y443957D01*
X257436Y443846D01*
X257547Y443652D01*
X257714Y443374D01*
X257908Y443069D01*
X258130Y442652D01*
X258352Y442208D01*
X258602Y441681D01*
X258852Y441098D01*
X259074Y440431D01*
X259296Y439737D01*
X259491Y438960D01*
X259629Y438155D01*
X259768Y437294D01*
X259851Y436378D01*
X259879Y435406D01*
Y435379D01*
Y435351D01*
Y435268D01*
Y435184D01*
X259851Y434907D01*
Y434546D01*
X259796Y434101D01*
X259740Y433574D01*
X259657Y433019D01*
X259574Y432380D01*
X259435Y431714D01*
X259268Y431020D01*
X259074Y430326D01*
X258824Y429604D01*
X258547Y428910D01*
X258213Y428188D01*
X257825Y427522D01*
X257381Y426883D01*
X257353Y426856D01*
X257269Y426745D01*
X257131Y426578D01*
X256909Y426356D01*
X256659Y426106D01*
X256353Y425828D01*
X255993Y425551D01*
X255576Y425245D01*
X255104Y424912D01*
X254577Y424635D01*
X254021Y424357D01*
X253411Y424107D01*
X252744Y423885D01*
X252022Y423718D01*
X251273Y423607D01*
X250468Y423580D01*
X250273D01*
X250051Y423607D01*
X249718Y423635D01*
X249357Y423691D01*
X248913Y423746D01*
X248441Y423857D01*
X247914Y423968D01*
X247386Y424135D01*
X246803Y424357D01*
X246220Y424607D01*
X245665Y424912D01*
X245082Y425273D01*
X244527Y425690D01*
X243999Y426189D01*
X243527Y426745D01*
X243500Y426772D01*
X243416Y426883D01*
X243305Y427078D01*
X243139Y427328D01*
X242944Y427633D01*
X242722Y428022D01*
X242500Y428494D01*
X242278Y428993D01*
X242056Y429576D01*
X241806Y430215D01*
X241612Y430909D01*
X241417Y431686D01*
X241251Y432491D01*
X241140Y433352D01*
X241056Y434296D01*
X241029Y435268D01*
Y435295D01*
Y435323D01*
Y435406D01*
Y435517D01*
X241056Y435795D01*
Y436184D01*
X241112Y436656D01*
X241167Y437211D01*
X241223Y437794D01*
X241334Y438460D01*
X241445Y439154D01*
X241612Y439876D01*
X241806Y440598D01*
X242056Y441348D01*
X242333Y442069D01*
X242639Y442763D01*
X243027Y443430D01*
X243444Y444068D01*
X243472Y444096D01*
X243555Y444207D01*
X243694Y444374D01*
X243888Y444568D01*
X244138Y444818D01*
X244443Y445095D01*
X244804Y445401D01*
X245193Y445706D01*
X245665Y445984D01*
X246165Y446289D01*
X246720Y446567D01*
X247331Y446817D01*
X247997Y447011D01*
X248719Y447178D01*
X249468Y447289D01*
X250273Y447316D01*
X250468D01*
X250690Y447289D01*
D02*
G37*
D10*
X205750Y164000D02*
X215750D01*
X205750Y133000D02*
X215750D01*
Y164000D01*
X205750Y133000D02*
Y164000D01*
X140802Y120698D02*
X140802Y132382D01*
X134198Y132382D02*
X140802Y132382D01*
X134198Y120698D02*
X134198Y132382D01*
X134198Y120698D02*
X140802Y120698D01*
X318000Y351995D02*
Y379995D01*
X352000Y351995D02*
Y379995D01*
X352500Y248000D02*
Y276000D01*
X318500Y248000D02*
Y276000D01*
X353000Y144100D02*
Y172100D01*
X319000Y144100D02*
Y172100D01*
D11*
X162832Y137520D02*
G03*
X162832Y137520I-762J0D01*
G01*
X157092Y151236D02*
G03*
X157092Y151236I-254J0D01*
G01*
D14*
X224750Y166250D02*
G03*
X224750Y166250I-1250J0D01*
G01*
X326750Y392026D02*
G03*
X326750Y392026I-1250J0D01*
G01*
X327250Y288031D02*
G03*
X327250Y288031I-1250J0D01*
G01*
X327750Y184131D02*
G03*
X327750Y184131I-1250J0D01*
G01*
D15*
X122011Y166700D02*
Y172659D01*
Y155661D02*
Y161620D01*
X131009Y166700D02*
Y172659D01*
X131009Y155661D02*
X131009Y161620D01*
X122011Y155661D02*
X131009Y155661D01*
X122009Y155662D02*
X122011Y155661D01*
X122009Y172659D02*
X131009Y172659D01*
X124986Y164160D02*
X128034D01*
X153540Y133499D02*
X159499Y133499D01*
X142501Y133499D02*
X148460D01*
X153540Y124501D02*
X159499Y124501D01*
X142501Y124501D02*
X148460D01*
X142501D02*
Y133499D01*
X142502Y133501D01*
X159499Y124501D02*
X159499Y133501D01*
X151000Y127476D02*
Y130524D01*
X184250Y159500D02*
X193250D01*
X184250Y176000D02*
X193250D01*
Y159500D02*
Y176000D01*
X184250Y159500D02*
Y176000D01*
Y141500D02*
X193250D01*
X184250Y158000D02*
X193250D01*
Y141500D02*
Y158000D01*
X184250Y141500D02*
Y158000D01*
X321201Y331801D02*
X327160D01*
X332240D02*
X338199D01*
X321201Y340799D02*
X327160D01*
X332240D02*
X338199D01*
Y331801D02*
Y340799D01*
X338198Y331799D02*
X338199Y331801D01*
X321201Y331799D02*
Y340799D01*
X329700Y334776D02*
Y337824D01*
X388000Y407500D02*
Y424000D01*
X379000Y407500D02*
Y424000D01*
Y407500D02*
X388000D01*
X379000Y424000D02*
X388000D01*
Y390500D02*
Y407000D01*
X379000Y390500D02*
Y407000D01*
Y390500D02*
X388000D01*
X379000Y407000D02*
X388000D01*
X331100Y230476D02*
Y233524D01*
X322601Y227499D02*
Y236499D01*
X339598Y227499D02*
X339599Y227501D01*
Y236499D01*
X333640D02*
X339599D01*
X322601D02*
X328560D01*
X333640Y227501D02*
X339599D01*
X322601D02*
X328560D01*
X308976Y145500D02*
X312024D01*
X306001Y137001D02*
X315001D01*
X314999Y153999D02*
X315001Y153998D01*
X306001Y153999D02*
X314999D01*
X306001Y148040D02*
Y153999D01*
Y137001D02*
Y142960D01*
X314999Y148040D02*
Y153999D01*
Y137001D02*
Y142960D01*
D16*
X161830Y147426D02*
Y160634D01*
X131830Y147426D02*
X131830Y160634D01*
X161830D01*
X131830Y147426D02*
X161830D01*
D66*
X164610Y159080D02*
Y171780D01*
X167150Y174320D01*
X170960D01*
X179850Y174320D01*
X182390Y171780D01*
Y159080D02*
Y171780D01*
X164610Y148920D02*
X164610Y134950D01*
X182390D01*
X182390Y148920D02*
X182390Y134950D01*
M02*
