G04*
G04 #@! TF.GenerationSoftware,Altium Limited,Altium Designer,23.8.1 (32)*
G04*
G04 Layer_Color=32768*
%FSLAX44Y44*%
%MOMM*%
G71*
G04*
G04 #@! TF.SameCoordinates,050FA7AA-ABA3-4C18-851E-56E06D371AC9*
G04*
G04*
G04 #@! TF.FilePolarity,Positive*
G04*
G01*
G75*
%ADD10C,0.1000*%
%ADD58C,0.0500*%
D10*
X143600Y168600D02*
Y217800D01*
X76400D02*
X76400Y168600D01*
X76400Y217800D02*
X143600D01*
X76400Y168600D02*
X143600Y168600D01*
X24400Y248100D02*
Y301100D01*
X77400Y248100D02*
Y301100D01*
X24400D02*
X77400D01*
X24400Y248100D02*
X77400D01*
X391600Y249900D02*
Y302900D01*
X444600Y249900D02*
Y302900D01*
X391600D02*
X444600D01*
X391600Y249900D02*
X444600D01*
X24400Y73400D02*
Y126400D01*
X77400Y73400D02*
Y126400D01*
X24400D02*
X77400D01*
X24400Y73400D02*
X77400D01*
X391800Y160500D02*
Y213500D01*
X444800Y160500D02*
Y213500D01*
X391800D02*
X444800D01*
X391800Y160500D02*
X444800D01*
X391900Y73500D02*
Y126500D01*
X444900Y73500D02*
Y126500D01*
X391900D02*
X444900D01*
X391900Y73500D02*
X444900D01*
X179300Y97000D02*
Y111400D01*
X209100Y97000D02*
Y111400D01*
X179300D02*
X209100D01*
X179300Y97000D02*
X209100D01*
X176700Y167400D02*
X192900D01*
X176700Y175600D02*
X192900D01*
X176700Y167400D02*
Y175600D01*
X192900Y167400D02*
Y175600D01*
X151000Y169700D02*
Y206700D01*
X133000Y169700D02*
Y206700D01*
Y169700D02*
X151000D01*
X133000Y206700D02*
X151000D01*
X144000Y233300D02*
X154000D01*
X149000Y228300D02*
Y238300D01*
X149101Y207049D02*
Y215249D01*
X132901D02*
X149101D01*
X132901Y207049D02*
Y215249D01*
Y207049D02*
X149101D01*
X165300Y207100D02*
Y215300D01*
X149100D02*
X165300D01*
X149100Y207100D02*
Y215300D01*
Y207100D02*
X165300D01*
X132640Y175010D02*
Y215650D01*
X99620Y175010D02*
X132640D01*
X99620D02*
X99620Y215650D01*
X132640Y215650D01*
X91400Y199500D02*
Y215700D01*
X99600Y199500D02*
Y215700D01*
X91400D02*
X99600D01*
X91400Y199500D02*
X99600D01*
X116500Y174400D02*
X132700D01*
X116500Y166200D02*
X132700D01*
Y174400D01*
X116500Y166200D02*
Y174400D01*
X85900Y71900D02*
X125300D01*
X85900Y91900D02*
X125300Y91900D01*
Y71900D02*
Y91900D01*
X85900Y71900D02*
Y91900D01*
X150750Y133500D02*
X150750Y143500D01*
X145750Y138500D02*
X155750D01*
X150500Y111700D02*
Y119900D01*
X166700D01*
Y111700D02*
Y119900D01*
X150500Y111700D02*
X166700D01*
X134100D02*
Y119900D01*
X150300D01*
Y111700D02*
Y119900D01*
X134100Y111700D02*
X150300D01*
X125400Y115200D02*
X133600D01*
X125400D02*
Y131400D01*
X133600D01*
Y115200D02*
Y131400D01*
X30600Y147200D02*
X70000D01*
X30600Y127200D02*
X70000D01*
X30600D02*
Y147200D01*
X70000Y127200D02*
Y147200D01*
X176100Y115600D02*
Y131800D01*
X167900Y115600D02*
Y131800D01*
X176100D01*
X167900Y115600D02*
X176100D01*
X126300Y166200D02*
X150700D01*
X126300Y154200D02*
X150700D01*
X126300D02*
Y166200D01*
X150700Y154200D02*
Y166200D01*
X151300D02*
X175700D01*
X151300Y154200D02*
X175700D01*
X151300D02*
Y166200D01*
X175700Y154200D02*
Y166200D01*
X394200Y126600D02*
Y151000D01*
Y126600D02*
X406200D01*
Y151000D01*
X394200D02*
X406200D01*
X299900Y29400D02*
X324300D01*
Y41400D01*
X299900D02*
X324300D01*
X299900Y29400D02*
Y41400D01*
X299600Y242100D02*
X324000D01*
Y254100D01*
X299600D02*
X324000D01*
X299600Y242100D02*
Y254100D01*
X392000Y213800D02*
Y238200D01*
Y213800D02*
X404000D01*
Y238200D01*
X392000D02*
X404000D01*
X403800Y320300D02*
Y344700D01*
X391800D02*
X403800D01*
X391800Y320300D02*
Y344700D01*
Y320300D02*
X403800D01*
X299800Y135800D02*
X324200D01*
Y147800D01*
X299800D02*
X324200D01*
X299800Y135800D02*
Y147800D01*
X209100Y84900D02*
Y96900D01*
X184700Y84900D02*
Y96900D01*
Y84900D02*
X209100D01*
X184700Y96900D02*
X209100D01*
X268500Y70800D02*
Y82800D01*
X244100Y70800D02*
Y82800D01*
Y70800D02*
X268500D01*
X244100Y82800D02*
X268500D01*
X209440Y83500D02*
Y159700D01*
X280560D01*
Y83500D02*
Y159700D01*
X209440Y83500D02*
X280560D01*
X179300Y150100D02*
X209100D01*
X179300Y164500D02*
X209100D01*
Y150100D02*
Y164500D01*
X179300Y150100D02*
Y164500D01*
X184700Y123400D02*
X209100D01*
X184700Y111400D02*
X209100D01*
X184700D02*
Y123400D01*
X209100Y111400D02*
Y123400D01*
X179300Y123500D02*
X209100D01*
X179300Y137900D02*
X209100D01*
Y123500D02*
Y137900D01*
X179300Y123500D02*
Y137900D01*
X184700Y150000D02*
X209100D01*
X184700Y138000D02*
X209100D01*
X184700D02*
Y150000D01*
X209100Y138000D02*
Y150000D01*
X84700Y70400D02*
X285700D01*
X84700Y29400D02*
X285700D01*
X84700D02*
Y70400D01*
X285700Y29400D02*
Y70400D01*
X84700Y346500D02*
X285700D01*
X84700Y305500D02*
X285700D01*
X84700D02*
Y346500D01*
X285700Y305500D02*
Y346500D01*
X271500Y271000D02*
Y279200D01*
X255300Y271000D02*
X271500D01*
X255300D02*
Y279200D01*
X271500D01*
X221200Y172800D02*
Y235600D01*
X274200Y172800D02*
Y235600D01*
X221200Y172800D02*
X274200D01*
X221200Y235600D02*
X274200D01*
X263700Y235900D02*
Y260300D01*
X275700Y235900D02*
Y260300D01*
X263700Y235900D02*
X275700D01*
X263700Y260300D02*
X275700D01*
X220300Y173500D02*
Y197900D01*
X208300Y173500D02*
Y197900D01*
X220300D01*
X208300Y173500D02*
X220300D01*
X202900Y198060D02*
Y239360D01*
X220300Y198060D02*
Y239360D01*
X202900Y198060D02*
X220300D01*
X202900Y239360D02*
X220300D01*
X202800Y239800D02*
Y279200D01*
X222800Y239800D02*
Y279200D01*
X202800Y239800D02*
X222800D01*
X202800Y279200D02*
X222800D01*
X223000Y271000D02*
Y279200D01*
X239200D01*
Y271000D02*
Y279200D01*
X223000Y271000D02*
X239200D01*
X239100D02*
Y279200D01*
X255300D01*
Y271000D02*
Y279200D01*
X239100Y271000D02*
X255300D01*
X70000Y207200D02*
X70000Y227200D01*
X30600Y207200D02*
Y227200D01*
Y207200D02*
X70000Y207200D01*
X30600Y227200D02*
X70000D01*
Y187200D02*
Y207200D01*
X30600Y187200D02*
Y207200D01*
Y187200D02*
X70000Y187200D01*
X30600Y207200D02*
X70000Y207200D01*
Y167200D02*
Y187200D01*
X30600Y167200D02*
Y187200D01*
Y167200D02*
X70000D01*
X30600Y187200D02*
X70000Y187200D01*
X85900Y152100D02*
X85900Y132100D01*
X125300D02*
Y152100D01*
X85900D02*
X125300D01*
X85900Y132100D02*
X125300D01*
X70000Y147200D02*
Y167200D01*
X30600Y147200D02*
Y167200D01*
Y147200D02*
X70000D01*
X30600Y167200D02*
X70000D01*
Y227200D02*
X70000Y247200D01*
X30600Y227200D02*
Y247200D01*
Y227200D02*
X70000D01*
X30600Y247200D02*
X70000D01*
X202000Y198100D02*
Y218100D01*
X162600D02*
X162600Y198100D01*
X202000D01*
X162600Y218100D02*
X202000D01*
X85900Y112000D02*
Y132000D01*
X125300Y112000D02*
Y132000D01*
X85900D02*
X125300D01*
X85900Y112000D02*
X125300D01*
X85900Y92000D02*
Y112000D01*
X125300Y92000D02*
Y112000D01*
X85900Y112000D02*
X125300Y112000D01*
X85900Y92000D02*
X125300D01*
X192900Y227400D02*
Y235600D01*
X176700Y227400D02*
Y235600D01*
X192900D01*
X176700Y227400D02*
X192900D01*
Y106900D02*
Y115100D01*
X176700Y106900D02*
Y115100D01*
X192900D01*
X176700Y106900D02*
X192900D01*
X288200Y344500D02*
X324200D01*
X288200Y272100D02*
X324200D01*
Y344500D01*
X288200Y272100D02*
Y344500D01*
Y238500D02*
X324200D01*
X288200Y166100D02*
X324200D01*
Y238500D01*
X288200Y166100D02*
Y238500D01*
Y132100D02*
X324200D01*
X288200Y59700D02*
X324200D01*
Y132100D01*
X288200Y59700D02*
Y132100D01*
X144500Y218200D02*
X160700D01*
X144500Y210000D02*
Y218200D01*
Y210000D02*
X160700D01*
Y218200D01*
X169300Y286200D02*
X185500Y286200D01*
X185500Y294400D02*
X185500Y286200D01*
X169300Y294400D02*
X185500Y294400D01*
X169300Y294400D02*
X169300Y286200D01*
X185600Y286200D02*
X201800Y286200D01*
X201800Y294400D01*
X185600Y294400D02*
X201800Y294400D01*
X185600Y286200D02*
X185600Y294400D01*
X211400Y288200D02*
X211400Y304400D01*
X219600D01*
Y288200D02*
Y304400D01*
X211400Y288200D02*
X219600Y288200D01*
X227900Y288200D02*
Y304400D01*
X219700Y288200D02*
X227900D01*
X219700D02*
Y304400D01*
X227900D01*
X179500Y171000D02*
X195700D01*
Y179200D01*
X179500D02*
X195700D01*
X179500Y171000D02*
Y179200D01*
X162500D02*
X178700D01*
X162500Y171000D02*
Y179200D01*
Y171000D02*
X178700D01*
Y179200D01*
X324500Y295410D02*
X391700D01*
X324500Y344610D02*
X391700D01*
X324500Y295410D02*
Y344610D01*
X391700Y295410D02*
Y344610D01*
X324500Y189000D02*
X391700D01*
X324500Y238200D02*
X391700D01*
X324500Y189000D02*
Y238200D01*
X391700Y189000D02*
Y238200D01*
X324500Y82600D02*
X391700D01*
X324500Y131800D02*
X391700D01*
X324500Y82600D02*
Y131800D01*
X391700Y82600D02*
Y131800D01*
X324300Y291400D02*
X391500D01*
X324300Y242200D02*
X391500D01*
Y291400D01*
X324300Y242200D02*
Y291400D01*
Y185000D02*
X391500D01*
X324300Y135800D02*
X391500D01*
Y185000D01*
X324300Y135800D02*
Y185000D01*
Y78600D02*
X391500D01*
X324300Y29400D02*
X391500D01*
Y78600D01*
X324300Y29400D02*
Y78600D01*
X152700Y285300D02*
X152700Y218100D01*
X201900D02*
Y285300D01*
X152700D02*
X201900D01*
X152700Y218100D02*
X201900D01*
X204000Y179900D02*
Y197300D01*
X162700Y179900D02*
Y197300D01*
Y179900D02*
X204000D01*
X162700Y197300D02*
X204000D01*
X144600Y168440D02*
X162000D01*
X144600Y209740D02*
X162000D01*
X144600Y168440D02*
Y209740D01*
X162000Y168440D02*
Y209740D01*
X78400Y260200D02*
Y293200D01*
X150100Y260200D02*
Y293200D01*
X78400D02*
X150100D01*
X78400Y260200D02*
X150100D01*
D58*
X119630Y195330D02*
G03*
X119630Y195330I-3500J0D01*
G01*
X248500Y121600D02*
G03*
X248500Y121600I-3500J0D01*
G01*
X215100Y218460D02*
G03*
X215100Y218460I-3500J0D01*
G01*
X186600Y188600D02*
G03*
X186600Y188600I-3500J0D01*
G01*
X156800Y189340D02*
G03*
X156800Y189340I-3500J0D01*
G01*
X165500Y215800D02*
Y250800D01*
X132500Y215800D02*
Y250800D01*
Y215800D02*
X165500D01*
X132500Y250800D02*
X165500D01*
X111130Y195330D02*
X121130D01*
X116130Y190330D02*
Y200330D01*
X134000Y153500D02*
X167500D01*
X134000Y123500D02*
X167500D01*
Y153500D01*
X134000Y123500D02*
Y153500D01*
X245000Y116600D02*
Y126600D01*
X240000Y121600D02*
X250000D01*
X211600Y213460D02*
Y223460D01*
X206600Y218460D02*
X216600D01*
X183100Y183600D02*
Y193600D01*
X178100Y188600D02*
X188100D01*
X148300Y189340D02*
X158300D01*
X153300Y184340D02*
Y194340D01*
M02*
