G04*
G04 #@! TF.GenerationSoftware,Altium Limited,Altium Designer,23.8.1 (32)*
G04*
G04 Layer_Color=32896*
%FSLAX44Y44*%
%MOMM*%
G71*
G04*
G04 #@! TF.SameCoordinates,050FA7AA-ABA3-4C18-851E-56E06D371AC9*
G04*
G04*
G04 #@! TF.FilePolarity,Positive*
G04*
G01*
G75*
%ADD11C,0.2000*%
G36*
X187489Y261697D02*
X187661Y261690D01*
X187827Y261679D01*
X187979Y261662D01*
X188124Y261645D01*
X188256Y261624D01*
X188373Y261600D01*
X188484Y261579D01*
X188580Y261555D01*
X188663Y261534D01*
X188736Y261514D01*
X188794Y261496D01*
X188839Y261479D01*
X188874Y261469D01*
X188895Y261462D01*
X188902Y261458D01*
X189009Y261410D01*
X189109Y261351D01*
X189202Y261292D01*
X189288Y261227D01*
X189368Y261161D01*
X189440Y261092D01*
X189506Y261023D01*
X189565Y260957D01*
X189620Y260895D01*
X189665Y260837D01*
X189703Y260781D01*
X189734Y260736D01*
X189762Y260698D01*
X189779Y260667D01*
X189789Y260650D01*
X189793Y260643D01*
X189848Y260532D01*
X189893Y260415D01*
X189934Y260298D01*
X189969Y260173D01*
X190000Y260052D01*
X190024Y259928D01*
X190045Y259811D01*
X190062Y259697D01*
X190076Y259590D01*
X190083Y259493D01*
X190090Y259403D01*
X190093Y259365D01*
X190097Y259327D01*
Y259265D01*
X190100Y259241D01*
Y259178D01*
X190097Y259009D01*
X190086Y258850D01*
X190069Y258698D01*
X190045Y258557D01*
X190017Y258425D01*
X189990Y258301D01*
X189955Y258190D01*
X189924Y258087D01*
X189889Y257997D01*
X189858Y257917D01*
X189831Y257848D01*
X189803Y257793D01*
X189779Y257748D01*
X189762Y257717D01*
X189751Y257696D01*
X189748Y257690D01*
X189679Y257586D01*
X189606Y257493D01*
X189534Y257406D01*
X189454Y257327D01*
X189378Y257254D01*
X189302Y257189D01*
X189226Y257133D01*
X189157Y257082D01*
X189088Y257037D01*
X189026Y257002D01*
X188971Y256971D01*
X188922Y256943D01*
X188884Y256926D01*
X188853Y256912D01*
X188836Y256905D01*
X188829Y256902D01*
X188718Y256864D01*
X188601Y256829D01*
X188477Y256802D01*
X188352Y256778D01*
X188224Y256753D01*
X188097Y256736D01*
X187972Y256722D01*
X187851Y256712D01*
X187741Y256702D01*
X187637Y256695D01*
X187540Y256691D01*
X187499Y256688D01*
X187461D01*
X187426D01*
X187395Y256684D01*
X187368D01*
X187344D01*
X187326D01*
X187312D01*
X187306D01*
X187302D01*
X183620D01*
Y257531D01*
X187299D01*
X187409D01*
X187513Y257534D01*
X187616Y257541D01*
X187713Y257548D01*
X187806Y257558D01*
X187893Y257569D01*
X187979Y257579D01*
X188059Y257593D01*
X188135Y257607D01*
X188207Y257624D01*
X188276Y257638D01*
X188338Y257655D01*
X188401Y257672D01*
X188456Y257693D01*
X188511Y257710D01*
X188559Y257728D01*
X188604Y257748D01*
X188649Y257766D01*
X188725Y257803D01*
X188787Y257835D01*
X188836Y257866D01*
X188874Y257890D01*
X188902Y257911D01*
X188919Y257924D01*
X188922Y257928D01*
X188995Y258007D01*
X189060Y258097D01*
X189119Y258197D01*
X189164Y258301D01*
X189205Y258408D01*
X189240Y258519D01*
X189268Y258629D01*
X189292Y258736D01*
X189309Y258840D01*
X189323Y258937D01*
X189330Y259023D01*
X189337Y259099D01*
X189340Y259133D01*
Y259161D01*
X189344Y259189D01*
Y259251D01*
X189340Y259351D01*
X189333Y259444D01*
X189323Y259538D01*
X189309Y259624D01*
X189295Y259704D01*
X189275Y259779D01*
X189257Y259849D01*
X189237Y259914D01*
X189216Y259970D01*
X189198Y260021D01*
X189178Y260066D01*
X189164Y260101D01*
X189150Y260132D01*
X189140Y260152D01*
X189133Y260166D01*
X189129Y260170D01*
X189088Y260239D01*
X189043Y260301D01*
X188995Y260360D01*
X188943Y260412D01*
X188895Y260460D01*
X188843Y260505D01*
X188794Y260543D01*
X188746Y260577D01*
X188701Y260609D01*
X188656Y260633D01*
X188618Y260653D01*
X188587Y260671D01*
X188559Y260685D01*
X188539Y260695D01*
X188525Y260698D01*
X188521Y260702D01*
X188442Y260729D01*
X188356Y260754D01*
X188262Y260774D01*
X188166Y260792D01*
X187962Y260819D01*
X187862Y260830D01*
X187761Y260837D01*
X187668Y260843D01*
X187582Y260850D01*
X187502Y260854D01*
X187433D01*
X187406D01*
X187378Y260857D01*
X187354D01*
X187337D01*
X187319D01*
X187309D01*
X187302D01*
X187299D01*
X183620D01*
Y261700D01*
X187302D01*
X187489Y261697D01*
D02*
G37*
G36*
X187164Y255631D02*
X187309Y255627D01*
X187451Y255620D01*
X187589Y255607D01*
X187717Y255593D01*
X187844Y255576D01*
X187965Y255558D01*
X188079Y255537D01*
X188190Y255513D01*
X188293Y255489D01*
X188394Y255465D01*
X188487Y255437D01*
X188577Y255410D01*
X188660Y255382D01*
X188743Y255354D01*
X188815Y255323D01*
X188884Y255296D01*
X188950Y255268D01*
X189012Y255240D01*
X189067Y255213D01*
X189119Y255185D01*
X189164Y255158D01*
X189205Y255133D01*
X189243Y255113D01*
X189275Y255092D01*
X189306Y255071D01*
X189326Y255057D01*
X189347Y255044D01*
X189361Y255030D01*
X189375Y255023D01*
X189378Y255016D01*
X189382D01*
X189447Y254957D01*
X189509Y254895D01*
X189565Y254833D01*
X189620Y254771D01*
X189668Y254705D01*
X189713Y254639D01*
X189796Y254505D01*
X189865Y254370D01*
X189924Y254239D01*
X189972Y254111D01*
X190010Y253986D01*
X190041Y253869D01*
X190062Y253762D01*
X190079Y253665D01*
X190083Y253624D01*
X190090Y253582D01*
X190093Y253548D01*
X190097Y253513D01*
Y253486D01*
X190100Y253461D01*
Y253420D01*
X190097Y253313D01*
X190090Y253213D01*
X190076Y253113D01*
X190059Y253019D01*
X190038Y252929D01*
X190014Y252843D01*
X189990Y252764D01*
X189962Y252691D01*
X189938Y252625D01*
X189914Y252567D01*
X189889Y252515D01*
X189869Y252473D01*
X189851Y252439D01*
X189838Y252415D01*
X189831Y252397D01*
X189827Y252394D01*
X189772Y252311D01*
X189713Y252235D01*
X189655Y252159D01*
X189589Y252093D01*
X189523Y252028D01*
X189458Y251969D01*
X189392Y251917D01*
X189330Y251869D01*
X189271Y251824D01*
X189216Y251789D01*
X189167Y251755D01*
X189123Y251731D01*
X189088Y251710D01*
X189064Y251693D01*
X189046Y251686D01*
X189040Y251682D01*
X188943Y251637D01*
X188843Y251596D01*
X188746Y251561D01*
X188649Y251534D01*
X188553Y251506D01*
X188459Y251486D01*
X188373Y251468D01*
X188290Y251454D01*
X188211Y251444D01*
X188141Y251437D01*
X188079Y251430D01*
X188024Y251427D01*
X187983Y251423D01*
X187952D01*
X187931D01*
X187924D01*
X187758Y251430D01*
X187599Y251448D01*
X187447Y251475D01*
X187306Y251510D01*
X187174Y251551D01*
X187053Y251599D01*
X186939Y251648D01*
X186836Y251700D01*
X186746Y251751D01*
X186667Y251800D01*
X186597Y251848D01*
X186539Y251890D01*
X186494Y251924D01*
X186463Y251952D01*
X186442Y251969D01*
X186435Y251976D01*
X186335Y252080D01*
X186245Y252190D01*
X186169Y252304D01*
X186100Y252415D01*
X186045Y252529D01*
X186000Y252639D01*
X185962Y252746D01*
X185931Y252847D01*
X185907Y252943D01*
X185889Y253030D01*
X185875Y253109D01*
X185868Y253175D01*
X185865Y253206D01*
X185862Y253230D01*
Y253254D01*
X185858Y253271D01*
Y253306D01*
X185862Y253389D01*
X185868Y253472D01*
X185879Y253551D01*
X185889Y253631D01*
X185907Y253703D01*
X185924Y253776D01*
X185944Y253841D01*
X185962Y253904D01*
X185982Y253959D01*
X186003Y254011D01*
X186021Y254056D01*
X186034Y254090D01*
X186048Y254121D01*
X186059Y254145D01*
X186065Y254159D01*
X186069Y254163D01*
X186110Y254239D01*
X186155Y254308D01*
X186204Y254377D01*
X186255Y254442D01*
X186307Y254505D01*
X186362Y254560D01*
X186414Y254612D01*
X186466Y254660D01*
X186514Y254705D01*
X186559Y254743D01*
X186601Y254774D01*
X186635Y254802D01*
X186667Y254826D01*
X186687Y254840D01*
X186705Y254850D01*
X186708Y254853D01*
X186535Y254850D01*
X186369Y254843D01*
X186217Y254829D01*
X186072Y254816D01*
X185941Y254798D01*
X185820Y254781D01*
X185710Y254760D01*
X185613Y254739D01*
X185523Y254719D01*
X185447Y254701D01*
X185381Y254681D01*
X185330Y254667D01*
X185288Y254653D01*
X185257Y254643D01*
X185240Y254636D01*
X185233Y254632D01*
X185140Y254591D01*
X185050Y254546D01*
X184967Y254498D01*
X184891Y254449D01*
X184822Y254401D01*
X184756Y254353D01*
X184697Y254304D01*
X184646Y254259D01*
X184597Y254218D01*
X184559Y254176D01*
X184525Y254142D01*
X184494Y254111D01*
X184473Y254083D01*
X184459Y254066D01*
X184449Y254052D01*
X184445Y254049D01*
X184407Y253993D01*
X184376Y253941D01*
X184349Y253883D01*
X184324Y253827D01*
X184304Y253772D01*
X184290Y253717D01*
X184262Y253617D01*
X184255Y253568D01*
X184248Y253527D01*
X184245Y253489D01*
X184242Y253454D01*
X184238Y253430D01*
Y253392D01*
X184242Y253306D01*
X184252Y253227D01*
X184269Y253147D01*
X184290Y253074D01*
X184314Y253005D01*
X184345Y252943D01*
X184373Y252881D01*
X184404Y252829D01*
X184438Y252781D01*
X184466Y252736D01*
X184494Y252698D01*
X184521Y252667D01*
X184542Y252643D01*
X184559Y252625D01*
X184570Y252615D01*
X184573Y252612D01*
X184615Y252577D01*
X184663Y252542D01*
X184711Y252511D01*
X184767Y252484D01*
X184877Y252432D01*
X184984Y252390D01*
X185036Y252373D01*
X185084Y252356D01*
X185129Y252346D01*
X185167Y252335D01*
X185198Y252325D01*
X185222Y252318D01*
X185236Y252314D01*
X185243D01*
X185181Y251537D01*
X185046Y251558D01*
X184918Y251589D01*
X184798Y251624D01*
X184687Y251665D01*
X184583Y251713D01*
X184487Y251762D01*
X184400Y251810D01*
X184321Y251862D01*
X184252Y251910D01*
X184190Y251955D01*
X184138Y252000D01*
X184093Y252038D01*
X184062Y252069D01*
X184038Y252093D01*
X184020Y252107D01*
X184017Y252114D01*
X183941Y252207D01*
X183879Y252304D01*
X183820Y252404D01*
X183772Y252508D01*
X183734Y252612D01*
X183699Y252715D01*
X183671Y252812D01*
X183647Y252909D01*
X183630Y252999D01*
X183616Y253081D01*
X183609Y253154D01*
X183602Y253220D01*
X183599Y253271D01*
X183596Y253292D01*
Y253344D01*
X183599Y253437D01*
X183602Y253527D01*
X183613Y253617D01*
X183627Y253703D01*
X183661Y253866D01*
X183710Y254021D01*
X183765Y254163D01*
X183827Y254294D01*
X183893Y254415D01*
X183958Y254525D01*
X184027Y254622D01*
X184093Y254708D01*
X184155Y254781D01*
X184210Y254840D01*
X184255Y254888D01*
X184293Y254923D01*
X184307Y254933D01*
X184317Y254943D01*
X184321Y254947D01*
X184324Y254950D01*
X184407Y255012D01*
X184494Y255071D01*
X184583Y255126D01*
X184680Y255175D01*
X184780Y255223D01*
X184884Y255268D01*
X185098Y255344D01*
X185319Y255413D01*
X185544Y255468D01*
X185765Y255513D01*
X185982Y255548D01*
X186086Y255565D01*
X186190Y255576D01*
X186290Y255589D01*
X186383Y255600D01*
X186473Y255607D01*
X186556Y255613D01*
X186635Y255620D01*
X186711Y255624D01*
X186777Y255627D01*
X186836Y255631D01*
X186887D01*
X186932Y255634D01*
X186967D01*
X186991D01*
X187005D01*
X187012D01*
X187164Y255631D01*
D02*
G37*
G36*
X187489Y201392D02*
X187661Y201385D01*
X187827Y201375D01*
X187979Y201357D01*
X188124Y201340D01*
X188256Y201319D01*
X188373Y201295D01*
X188483Y201274D01*
X188580Y201250D01*
X188663Y201229D01*
X188736Y201209D01*
X188794Y201192D01*
X188839Y201174D01*
X188874Y201164D01*
X188895Y201157D01*
X188901Y201154D01*
X189009Y201105D01*
X189109Y201046D01*
X189202Y200988D01*
X189288Y200922D01*
X189368Y200856D01*
X189440Y200787D01*
X189506Y200718D01*
X189565Y200653D01*
X189620Y200590D01*
X189665Y200532D01*
X189703Y200476D01*
X189734Y200431D01*
X189762Y200394D01*
X189779Y200362D01*
X189789Y200345D01*
X189793Y200338D01*
X189848Y200228D01*
X189893Y200110D01*
X189934Y199993D01*
X189969Y199868D01*
X190000Y199748D01*
X190024Y199623D01*
X190045Y199506D01*
X190062Y199392D01*
X190076Y199285D01*
X190083Y199188D01*
X190090Y199098D01*
X190093Y199060D01*
X190097Y199022D01*
Y198960D01*
X190100Y198936D01*
Y198874D01*
X190097Y198704D01*
X190086Y198545D01*
X190069Y198393D01*
X190045Y198252D01*
X190017Y198120D01*
X189990Y197996D01*
X189955Y197886D01*
X189924Y197782D01*
X189889Y197692D01*
X189858Y197613D01*
X189831Y197544D01*
X189803Y197488D01*
X189779Y197443D01*
X189762Y197412D01*
X189751Y197392D01*
X189748Y197385D01*
X189679Y197281D01*
X189606Y197188D01*
X189534Y197101D01*
X189454Y197022D01*
X189378Y196950D01*
X189302Y196884D01*
X189226Y196829D01*
X189157Y196777D01*
X189088Y196732D01*
X189026Y196697D01*
X188971Y196666D01*
X188922Y196639D01*
X188884Y196621D01*
X188853Y196607D01*
X188836Y196601D01*
X188829Y196597D01*
X188718Y196559D01*
X188601Y196525D01*
X188477Y196497D01*
X188352Y196473D01*
X188224Y196449D01*
X188097Y196431D01*
X187972Y196418D01*
X187851Y196407D01*
X187741Y196397D01*
X187637Y196390D01*
X187540Y196386D01*
X187499Y196383D01*
X187461D01*
X187426D01*
X187395Y196380D01*
X187368D01*
X187344D01*
X187326D01*
X187312D01*
X187306D01*
X187302D01*
X183620D01*
Y197226D01*
X187299D01*
X187409D01*
X187513Y197229D01*
X187616Y197236D01*
X187713Y197243D01*
X187806Y197253D01*
X187893Y197264D01*
X187979Y197274D01*
X188059Y197288D01*
X188134Y197302D01*
X188207Y197319D01*
X188276Y197333D01*
X188338Y197350D01*
X188400Y197367D01*
X188456Y197388D01*
X188511Y197405D01*
X188559Y197423D01*
X188604Y197443D01*
X188649Y197461D01*
X188725Y197499D01*
X188787Y197530D01*
X188836Y197561D01*
X188874Y197585D01*
X188901Y197606D01*
X188919Y197620D01*
X188922Y197623D01*
X188995Y197703D01*
X189060Y197792D01*
X189119Y197892D01*
X189164Y197996D01*
X189205Y198103D01*
X189240Y198214D01*
X189268Y198324D01*
X189292Y198431D01*
X189309Y198535D01*
X189323Y198632D01*
X189330Y198718D01*
X189337Y198794D01*
X189340Y198829D01*
Y198856D01*
X189344Y198884D01*
Y198946D01*
X189340Y199046D01*
X189333Y199140D01*
X189323Y199233D01*
X189309Y199319D01*
X189295Y199399D01*
X189275Y199475D01*
X189257Y199544D01*
X189237Y199609D01*
X189216Y199665D01*
X189198Y199716D01*
X189178Y199761D01*
X189164Y199796D01*
X189150Y199827D01*
X189140Y199848D01*
X189133Y199862D01*
X189129Y199865D01*
X189088Y199934D01*
X189043Y199996D01*
X188995Y200055D01*
X188943Y200107D01*
X188895Y200155D01*
X188843Y200200D01*
X188794Y200238D01*
X188746Y200273D01*
X188701Y200304D01*
X188656Y200328D01*
X188618Y200349D01*
X188587Y200366D01*
X188559Y200380D01*
X188539Y200390D01*
X188525Y200394D01*
X188521Y200397D01*
X188442Y200425D01*
X188356Y200449D01*
X188262Y200469D01*
X188166Y200487D01*
X187962Y200514D01*
X187862Y200525D01*
X187761Y200532D01*
X187668Y200539D01*
X187582Y200546D01*
X187502Y200549D01*
X187433D01*
X187406D01*
X187378Y200552D01*
X187354D01*
X187337D01*
X187319D01*
X187309D01*
X187302D01*
X187299D01*
X183620D01*
Y201395D01*
X187302D01*
X187489Y201392D01*
D02*
G37*
G36*
X184456Y192120D02*
X184587Y192231D01*
X184722Y192338D01*
X184860Y192445D01*
X185001Y192545D01*
X185143Y192645D01*
X185281Y192735D01*
X185416Y192825D01*
X185544Y192904D01*
X185665Y192977D01*
X185775Y193043D01*
X185872Y193101D01*
X185917Y193129D01*
X185958Y193150D01*
X185996Y193170D01*
X186027Y193191D01*
X186055Y193205D01*
X186079Y193219D01*
X186100Y193229D01*
X186114Y193236D01*
X186121Y193243D01*
X186124D01*
X186311Y193340D01*
X186497Y193429D01*
X186680Y193512D01*
X186863Y193592D01*
X187040Y193664D01*
X187209Y193733D01*
X187371Y193792D01*
X187523Y193847D01*
X187661Y193896D01*
X187727Y193916D01*
X187789Y193937D01*
X187848Y193955D01*
X187903Y193972D01*
X187952Y193989D01*
X187996Y194003D01*
X188038Y194013D01*
X188076Y194024D01*
X188107Y194034D01*
X188131Y194041D01*
X188152Y194048D01*
X188166Y194051D01*
X188176Y194055D01*
X188179D01*
X188376Y194103D01*
X188563Y194148D01*
X188743Y194186D01*
X188912Y194221D01*
X189071Y194248D01*
X189219Y194272D01*
X189357Y194293D01*
X189485Y194307D01*
X189599Y194321D01*
X189699Y194331D01*
X189744Y194335D01*
X189786Y194338D01*
X189824Y194341D01*
X189858D01*
X189889Y194345D01*
X189917D01*
X189941D01*
X189958Y194348D01*
X189972D01*
X189983D01*
X189990D01*
X189993D01*
Y193543D01*
X189817Y193530D01*
X189644Y193512D01*
X189478Y193492D01*
X189319Y193471D01*
X189167Y193447D01*
X189022Y193423D01*
X188888Y193398D01*
X188760Y193371D01*
X188646Y193347D01*
X188546Y193322D01*
X188501Y193312D01*
X188456Y193302D01*
X188418Y193291D01*
X188383Y193284D01*
X188349Y193274D01*
X188321Y193267D01*
X188297Y193260D01*
X188276Y193257D01*
X188262Y193253D01*
X188252Y193250D01*
X188245Y193246D01*
X188242D01*
X188031Y193181D01*
X187820Y193112D01*
X187616Y193039D01*
X187419Y192963D01*
X187226Y192887D01*
X187046Y192808D01*
X186874Y192735D01*
X186711Y192659D01*
X186639Y192625D01*
X186566Y192590D01*
X186497Y192559D01*
X186435Y192528D01*
X186373Y192497D01*
X186318Y192469D01*
X186266Y192442D01*
X186221Y192417D01*
X186179Y192397D01*
X186141Y192379D01*
X186110Y192362D01*
X186083Y192348D01*
X186062Y192334D01*
X186048Y192327D01*
X186038Y192321D01*
X186034D01*
X185837Y192210D01*
X185651Y192096D01*
X185475Y191989D01*
X185312Y191878D01*
X185157Y191775D01*
X185015Y191678D01*
X184887Y191581D01*
X184770Y191495D01*
X184663Y191412D01*
X184573Y191339D01*
X184494Y191274D01*
X184459Y191246D01*
X184428Y191219D01*
X184400Y191194D01*
X184376Y191174D01*
X184355Y191156D01*
X184342Y191143D01*
X184328Y191129D01*
X184317Y191122D01*
X184314Y191115D01*
X184310D01*
X183703D01*
Y195240D01*
X184456D01*
Y192120D01*
D02*
G37*
G36*
X187389Y141092D02*
X187561Y141085D01*
X187727Y141075D01*
X187879Y141057D01*
X188024Y141040D01*
X188155Y141019D01*
X188273Y140995D01*
X188384Y140974D01*
X188480Y140950D01*
X188563Y140929D01*
X188636Y140909D01*
X188694Y140892D01*
X188739Y140874D01*
X188774Y140864D01*
X188794Y140857D01*
X188801Y140854D01*
X188909Y140805D01*
X189009Y140746D01*
X189102Y140688D01*
X189188Y140622D01*
X189268Y140556D01*
X189340Y140487D01*
X189406Y140418D01*
X189465Y140353D01*
X189520Y140290D01*
X189565Y140232D01*
X189603Y140176D01*
X189634Y140132D01*
X189662Y140093D01*
X189679Y140062D01*
X189689Y140045D01*
X189693Y140038D01*
X189748Y139928D01*
X189793Y139810D01*
X189834Y139693D01*
X189869Y139569D01*
X189900Y139447D01*
X189924Y139323D01*
X189945Y139206D01*
X189962Y139092D01*
X189976Y138985D01*
X189983Y138888D01*
X189990Y138798D01*
X189993Y138760D01*
X189997Y138722D01*
Y138660D01*
X190000Y138636D01*
Y138574D01*
X189997Y138404D01*
X189986Y138245D01*
X189969Y138093D01*
X189945Y137952D01*
X189917Y137821D01*
X189890Y137696D01*
X189855Y137586D01*
X189824Y137482D01*
X189789Y137392D01*
X189758Y137313D01*
X189731Y137244D01*
X189703Y137188D01*
X189679Y137143D01*
X189662Y137112D01*
X189651Y137092D01*
X189648Y137085D01*
X189579Y136981D01*
X189506Y136888D01*
X189434Y136802D01*
X189354Y136722D01*
X189278Y136650D01*
X189202Y136584D01*
X189126Y136529D01*
X189057Y136477D01*
X188988Y136432D01*
X188926Y136397D01*
X188871Y136366D01*
X188822Y136339D01*
X188784Y136321D01*
X188753Y136307D01*
X188736Y136301D01*
X188729Y136297D01*
X188618Y136259D01*
X188501Y136225D01*
X188377Y136197D01*
X188252Y136173D01*
X188124Y136149D01*
X187997Y136131D01*
X187872Y136117D01*
X187751Y136107D01*
X187641Y136097D01*
X187537Y136090D01*
X187440Y136086D01*
X187399Y136083D01*
X187361D01*
X187326D01*
X187295Y136080D01*
X187268D01*
X187243D01*
X187226D01*
X187212D01*
X187206D01*
X187202D01*
X183520D01*
Y136926D01*
X187199D01*
X187309D01*
X187413Y136929D01*
X187516Y136936D01*
X187613Y136943D01*
X187706Y136953D01*
X187793Y136964D01*
X187879Y136974D01*
X187959Y136988D01*
X188035Y137002D01*
X188107Y137019D01*
X188176Y137033D01*
X188238Y137050D01*
X188301Y137067D01*
X188356Y137088D01*
X188411Y137106D01*
X188459Y137123D01*
X188504Y137143D01*
X188549Y137161D01*
X188625Y137199D01*
X188687Y137230D01*
X188736Y137261D01*
X188774Y137285D01*
X188801Y137306D01*
X188819Y137320D01*
X188822Y137323D01*
X188895Y137402D01*
X188960Y137492D01*
X189019Y137592D01*
X189064Y137696D01*
X189105Y137803D01*
X189140Y137914D01*
X189168Y138024D01*
X189192Y138131D01*
X189209Y138235D01*
X189223Y138332D01*
X189230Y138418D01*
X189237Y138494D01*
X189240Y138529D01*
Y138556D01*
X189244Y138584D01*
Y138646D01*
X189240Y138746D01*
X189233Y138840D01*
X189223Y138933D01*
X189209Y139019D01*
X189195Y139099D01*
X189174Y139175D01*
X189157Y139244D01*
X189137Y139309D01*
X189116Y139365D01*
X189098Y139417D01*
X189078Y139461D01*
X189064Y139496D01*
X189050Y139527D01*
X189040Y139548D01*
X189033Y139562D01*
X189029Y139565D01*
X188988Y139634D01*
X188943Y139696D01*
X188895Y139755D01*
X188843Y139807D01*
X188794Y139855D01*
X188743Y139900D01*
X188694Y139938D01*
X188646Y139973D01*
X188601Y140004D01*
X188556Y140028D01*
X188518Y140049D01*
X188487Y140066D01*
X188459Y140080D01*
X188439Y140090D01*
X188425Y140093D01*
X188421Y140097D01*
X188342Y140125D01*
X188256Y140149D01*
X188162Y140169D01*
X188066Y140187D01*
X187862Y140214D01*
X187762Y140225D01*
X187661Y140232D01*
X187568Y140239D01*
X187482Y140246D01*
X187402Y140249D01*
X187333D01*
X187306D01*
X187278Y140252D01*
X187254D01*
X187237D01*
X187219D01*
X187209D01*
X187202D01*
X187199D01*
X183520D01*
Y141095D01*
X187202D01*
X187389Y141092D01*
D02*
G37*
G36*
X188204Y134995D02*
X188349Y134978D01*
X188491Y134950D01*
X188622Y134912D01*
X188743Y134867D01*
X188857Y134819D01*
X188964Y134767D01*
X189060Y134712D01*
X189147Y134660D01*
X189223Y134608D01*
X189289Y134560D01*
X189344Y134515D01*
X189385Y134477D01*
X189420Y134449D01*
X189437Y134432D01*
X189444Y134425D01*
X189541Y134311D01*
X189627Y134193D01*
X189703Y134069D01*
X189765Y133941D01*
X189820Y133813D01*
X189865Y133689D01*
X189900Y133565D01*
X189931Y133444D01*
X189952Y133333D01*
X189969Y133230D01*
X189983Y133136D01*
X189986Y133095D01*
X189990Y133057D01*
X189993Y133022D01*
X189997Y132991D01*
Y132967D01*
X190000Y132943D01*
Y132901D01*
X189993Y132729D01*
X189976Y132566D01*
X189948Y132411D01*
X189914Y132266D01*
X189872Y132131D01*
X189824Y132007D01*
X189776Y131893D01*
X189724Y131789D01*
X189672Y131696D01*
X189624Y131613D01*
X189575Y131544D01*
X189534Y131485D01*
X189499Y131440D01*
X189472Y131409D01*
X189454Y131388D01*
X189447Y131382D01*
X189340Y131278D01*
X189230Y131192D01*
X189112Y131112D01*
X188998Y131046D01*
X188881Y130991D01*
X188767Y130943D01*
X188656Y130905D01*
X188553Y130874D01*
X188453Y130850D01*
X188359Y130832D01*
X188280Y130819D01*
X188211Y130812D01*
X188180Y130808D01*
X188152Y130805D01*
X188128D01*
X188107Y130801D01*
X188093D01*
X188083D01*
X188076D01*
X188073D01*
X187962Y130805D01*
X187858Y130815D01*
X187758Y130829D01*
X187665Y130850D01*
X187575Y130874D01*
X187492Y130898D01*
X187413Y130926D01*
X187344Y130953D01*
X187278Y130984D01*
X187223Y131012D01*
X187174Y131036D01*
X187133Y131060D01*
X187098Y131081D01*
X187078Y131095D01*
X187060Y131105D01*
X187057Y131109D01*
X186981Y131171D01*
X186908Y131236D01*
X186839Y131306D01*
X186781Y131378D01*
X186725Y131451D01*
X186674Y131527D01*
X186629Y131599D01*
X186587Y131668D01*
X186553Y131737D01*
X186521Y131799D01*
X186497Y131855D01*
X186473Y131903D01*
X186459Y131945D01*
X186449Y131976D01*
X186442Y131993D01*
X186439Y132000D01*
X186404Y131913D01*
X186366Y131834D01*
X186325Y131758D01*
X186283Y131689D01*
X186242Y131627D01*
X186200Y131568D01*
X186159Y131516D01*
X186117Y131471D01*
X186079Y131430D01*
X186045Y131392D01*
X186014Y131364D01*
X185986Y131340D01*
X185962Y131319D01*
X185945Y131306D01*
X185934Y131299D01*
X185931Y131295D01*
X185869Y131254D01*
X185803Y131219D01*
X185737Y131188D01*
X185672Y131160D01*
X185606Y131140D01*
X185544Y131119D01*
X185482Y131105D01*
X185423Y131091D01*
X185368Y131084D01*
X185316Y131077D01*
X185275Y131071D01*
X185233Y131067D01*
X185202Y131064D01*
X185181D01*
X185164D01*
X185161D01*
X185033Y131071D01*
X184908Y131084D01*
X184791Y131112D01*
X184680Y131143D01*
X184577Y131181D01*
X184480Y131223D01*
X184390Y131271D01*
X184307Y131316D01*
X184235Y131364D01*
X184169Y131409D01*
X184114Y131454D01*
X184065Y131492D01*
X184028Y131523D01*
X184000Y131551D01*
X183986Y131565D01*
X183979Y131572D01*
X183893Y131672D01*
X183820Y131775D01*
X183755Y131882D01*
X183699Y131996D01*
X183651Y132107D01*
X183613Y132221D01*
X183582Y132328D01*
X183554Y132435D01*
X183537Y132532D01*
X183520Y132625D01*
X183509Y132705D01*
X183502Y132777D01*
X183499Y132808D01*
Y132860D01*
X183496Y132877D01*
Y132915D01*
X183502Y133067D01*
X183516Y133209D01*
X183540Y133347D01*
X183568Y133471D01*
X183606Y133592D01*
X183644Y133699D01*
X183689Y133800D01*
X183730Y133889D01*
X183775Y133972D01*
X183820Y134041D01*
X183858Y134104D01*
X183896Y134155D01*
X183924Y134193D01*
X183948Y134221D01*
X183962Y134238D01*
X183969Y134245D01*
X184059Y134332D01*
X184155Y134411D01*
X184252Y134477D01*
X184352Y134535D01*
X184449Y134584D01*
X184546Y134625D01*
X184639Y134656D01*
X184729Y134684D01*
X184815Y134705D01*
X184891Y134719D01*
X184960Y134732D01*
X185019Y134739D01*
X185071Y134743D01*
X185105Y134746D01*
X185119D01*
X185129D01*
X185133D01*
X185136D01*
X185223Y134743D01*
X185302Y134736D01*
X185382Y134725D01*
X185454Y134708D01*
X185527Y134691D01*
X185592Y134670D01*
X185651Y134649D01*
X185706Y134629D01*
X185758Y134608D01*
X185803Y134584D01*
X185841Y134566D01*
X185872Y134549D01*
X185896Y134532D01*
X185917Y134522D01*
X185927Y134515D01*
X185931Y134511D01*
X185990Y134463D01*
X186048Y134411D01*
X186100Y134356D01*
X186148Y134300D01*
X186193Y134238D01*
X186235Y134180D01*
X186273Y134121D01*
X186307Y134062D01*
X186339Y134007D01*
X186366Y133955D01*
X186387Y133910D01*
X186404Y133869D01*
X186421Y133834D01*
X186432Y133810D01*
X186435Y133796D01*
X186439Y133789D01*
X186470Y133896D01*
X186508Y133993D01*
X186549Y134086D01*
X186591Y134173D01*
X186639Y134256D01*
X186687Y134328D01*
X186736Y134394D01*
X186781Y134456D01*
X186829Y134508D01*
X186870Y134556D01*
X186908Y134598D01*
X186943Y134629D01*
X186971Y134653D01*
X186995Y134674D01*
X187009Y134684D01*
X187012Y134687D01*
X187092Y134743D01*
X187178Y134791D01*
X187264Y134832D01*
X187351Y134871D01*
X187437Y134898D01*
X187523Y134926D01*
X187610Y134946D01*
X187689Y134964D01*
X187765Y134974D01*
X187834Y134985D01*
X187896Y134991D01*
X187948Y134998D01*
X187993D01*
X188024Y135002D01*
X188045D01*
X188048D01*
X188052D01*
X188204Y134995D01*
D02*
G37*
%LPC*%
G36*
X187969Y254733D02*
X187948D01*
X187934D01*
X187931D01*
X187817Y254729D01*
X187710Y254715D01*
X187610Y254698D01*
X187513Y254674D01*
X187426Y254646D01*
X187344Y254615D01*
X187267Y254581D01*
X187198Y254546D01*
X187140Y254512D01*
X187084Y254480D01*
X187040Y254449D01*
X187001Y254422D01*
X186970Y254398D01*
X186950Y254380D01*
X186936Y254366D01*
X186932Y254363D01*
X186867Y254290D01*
X186808Y254218D01*
X186756Y254142D01*
X186711Y254066D01*
X186677Y253990D01*
X186646Y253914D01*
X186621Y253841D01*
X186601Y253772D01*
X186583Y253710D01*
X186573Y253648D01*
X186563Y253596D01*
X186559Y253551D01*
X186556Y253513D01*
X186553Y253486D01*
Y253461D01*
X186556Y253365D01*
X186570Y253271D01*
X186587Y253182D01*
X186611Y253099D01*
X186639Y253019D01*
X186673Y252947D01*
X186708Y252881D01*
X186742Y252819D01*
X186777Y252764D01*
X186812Y252715D01*
X186843Y252674D01*
X186874Y252639D01*
X186898Y252612D01*
X186915Y252594D01*
X186929Y252581D01*
X186932Y252577D01*
X187005Y252515D01*
X187084Y252460D01*
X187171Y252415D01*
X187254Y252373D01*
X187344Y252339D01*
X187430Y252311D01*
X187513Y252287D01*
X187596Y252270D01*
X187672Y252256D01*
X187744Y252242D01*
X187806Y252235D01*
X187862Y252232D01*
X187910Y252228D01*
X187945Y252225D01*
X187955D01*
X187965D01*
X187969D01*
X187972D01*
X188097Y252228D01*
X188218Y252239D01*
X188328Y252256D01*
X188432Y252280D01*
X188528Y252308D01*
X188618Y252339D01*
X188701Y252370D01*
X188774Y252401D01*
X188839Y252435D01*
X188898Y252467D01*
X188946Y252498D01*
X188988Y252525D01*
X189019Y252546D01*
X189043Y252567D01*
X189057Y252577D01*
X189060Y252581D01*
X189129Y252650D01*
X189192Y252719D01*
X189247Y252791D01*
X189292Y252864D01*
X189330Y252936D01*
X189364Y253005D01*
X189389Y253074D01*
X189409Y253140D01*
X189426Y253202D01*
X189440Y253258D01*
X189447Y253306D01*
X189454Y253351D01*
X189458Y253385D01*
X189461Y253413D01*
Y253434D01*
X189458Y253496D01*
X189454Y253558D01*
X189430Y253679D01*
X189399Y253790D01*
X189382Y253838D01*
X189364Y253886D01*
X189347Y253928D01*
X189330Y253966D01*
X189312Y254000D01*
X189299Y254028D01*
X189285Y254052D01*
X189275Y254069D01*
X189271Y254080D01*
X189268Y254083D01*
X189230Y254138D01*
X189188Y254190D01*
X189098Y254287D01*
X189050Y254332D01*
X189005Y254370D01*
X188957Y254404D01*
X188912Y254439D01*
X188870Y254467D01*
X188832Y254491D01*
X188794Y254515D01*
X188767Y254532D01*
X188739Y254546D01*
X188722Y254556D01*
X188708Y254560D01*
X188705Y254563D01*
X188636Y254594D01*
X188566Y254619D01*
X188497Y254643D01*
X188428Y254660D01*
X188297Y254691D01*
X188235Y254701D01*
X188179Y254712D01*
X188128Y254719D01*
X188079Y254722D01*
X188034Y254726D01*
X188000Y254729D01*
X187969Y254733D01*
D02*
G37*
G36*
X185133Y133945D02*
X185116D01*
X185112D01*
X185040Y133941D01*
X184967Y133931D01*
X184901Y133917D01*
X184836Y133900D01*
X184774Y133876D01*
X184718Y133851D01*
X184667Y133824D01*
X184618Y133796D01*
X184573Y133772D01*
X184535Y133744D01*
X184504Y133720D01*
X184477Y133696D01*
X184452Y133679D01*
X184438Y133665D01*
X184428Y133654D01*
X184425Y133651D01*
X184373Y133592D01*
X184331Y133534D01*
X184290Y133471D01*
X184259Y133409D01*
X184231Y133347D01*
X184207Y133285D01*
X184190Y133223D01*
X184173Y133167D01*
X184162Y133112D01*
X184152Y133064D01*
X184148Y133019D01*
X184142Y132981D01*
Y132950D01*
X184138Y132926D01*
Y132905D01*
X184142Y132822D01*
X184152Y132746D01*
X184166Y132674D01*
X184183Y132604D01*
X184207Y132539D01*
X184231Y132477D01*
X184259Y132421D01*
X184283Y132369D01*
X184311Y132325D01*
X184338Y132283D01*
X184363Y132249D01*
X184387Y132218D01*
X184404Y132197D01*
X184418Y132179D01*
X184428Y132169D01*
X184432Y132166D01*
X184487Y132114D01*
X184546Y132065D01*
X184608Y132028D01*
X184667Y131993D01*
X184729Y131962D01*
X184787Y131938D01*
X184846Y131917D01*
X184901Y131903D01*
X184953Y131889D01*
X185002Y131882D01*
X185047Y131875D01*
X185081Y131869D01*
X185112D01*
X185133Y131865D01*
X185150D01*
X185154D01*
X185230Y131869D01*
X185302Y131879D01*
X185371Y131893D01*
X185437Y131910D01*
X185499Y131931D01*
X185558Y131958D01*
X185610Y131983D01*
X185658Y132010D01*
X185703Y132038D01*
X185741Y132062D01*
X185775Y132086D01*
X185803Y132110D01*
X185827Y132128D01*
X185841Y132142D01*
X185851Y132152D01*
X185855Y132155D01*
X185903Y132211D01*
X185948Y132269D01*
X185986Y132331D01*
X186017Y132394D01*
X186045Y132456D01*
X186069Y132518D01*
X186086Y132577D01*
X186104Y132635D01*
X186114Y132691D01*
X186124Y132739D01*
X186128Y132784D01*
X186135Y132822D01*
Y132853D01*
X186138Y132877D01*
Y132898D01*
X186135Y132984D01*
X186124Y133064D01*
X186110Y133140D01*
X186093Y133212D01*
X186073Y133278D01*
X186048Y133340D01*
X186021Y133399D01*
X185993Y133451D01*
X185969Y133496D01*
X185941Y133537D01*
X185917Y133572D01*
X185896Y133603D01*
X185879Y133623D01*
X185865Y133641D01*
X185855Y133651D01*
X185851Y133654D01*
X185796Y133706D01*
X185737Y133751D01*
X185675Y133789D01*
X185616Y133824D01*
X185554Y133851D01*
X185492Y133872D01*
X185430Y133893D01*
X185375Y133907D01*
X185319Y133920D01*
X185271Y133931D01*
X185226Y133934D01*
X185188Y133941D01*
X185157D01*
X185133Y133945D01*
D02*
G37*
G36*
X188090Y134197D02*
X188069D01*
X188059D01*
X188055D01*
X187955Y134193D01*
X187858Y134180D01*
X187769Y134162D01*
X187682Y134142D01*
X187599Y134114D01*
X187527Y134083D01*
X187458Y134048D01*
X187392Y134014D01*
X187337Y133983D01*
X187288Y133948D01*
X187243Y133917D01*
X187209Y133889D01*
X187181Y133869D01*
X187161Y133848D01*
X187147Y133838D01*
X187143Y133834D01*
X187078Y133765D01*
X187022Y133689D01*
X186974Y133617D01*
X186933Y133537D01*
X186895Y133461D01*
X186867Y133385D01*
X186843Y133313D01*
X186822Y133240D01*
X186808Y133174D01*
X186798Y133112D01*
X186787Y133057D01*
X186784Y133012D01*
X186781Y132971D01*
X186777Y132943D01*
Y132919D01*
X186781Y132815D01*
X186794Y132715D01*
X186812Y132622D01*
X186836Y132532D01*
X186863Y132449D01*
X186895Y132373D01*
X186926Y132300D01*
X186960Y132235D01*
X186995Y132179D01*
X187029Y132128D01*
X187060Y132083D01*
X187088Y132045D01*
X187112Y132017D01*
X187129Y131996D01*
X187143Y131983D01*
X187147Y131979D01*
X187219Y131913D01*
X187292Y131855D01*
X187371Y131803D01*
X187447Y131762D01*
X187527Y131723D01*
X187606Y131696D01*
X187682Y131668D01*
X187755Y131651D01*
X187820Y131634D01*
X187883Y131623D01*
X187941Y131613D01*
X187990Y131609D01*
X188028Y131606D01*
X188059Y131603D01*
X188076D01*
X188083D01*
X188183Y131606D01*
X188283Y131620D01*
X188373Y131637D01*
X188459Y131661D01*
X188542Y131689D01*
X188618Y131720D01*
X188687Y131751D01*
X188750Y131786D01*
X188808Y131820D01*
X188857Y131851D01*
X188902Y131882D01*
X188936Y131910D01*
X188964Y131934D01*
X188985Y131952D01*
X188998Y131965D01*
X189002Y131969D01*
X189064Y132038D01*
X189119Y132114D01*
X189168Y132190D01*
X189209Y132266D01*
X189244Y132342D01*
X189275Y132421D01*
X189295Y132494D01*
X189316Y132566D01*
X189330Y132632D01*
X189340Y132694D01*
X189351Y132750D01*
X189354Y132798D01*
X189358Y132836D01*
X189361Y132867D01*
Y132891D01*
X189358Y132957D01*
X189354Y133026D01*
X189333Y133150D01*
X189320Y133209D01*
X189306Y133264D01*
X189292Y133316D01*
X189275Y133364D01*
X189257Y133409D01*
X189244Y133451D01*
X189230Y133485D01*
X189216Y133513D01*
X189206Y133537D01*
X189195Y133554D01*
X189192Y133565D01*
X189188Y133568D01*
X189154Y133623D01*
X189119Y133679D01*
X189078Y133727D01*
X189040Y133772D01*
X188998Y133813D01*
X188960Y133855D01*
X188919Y133889D01*
X188881Y133920D01*
X188846Y133948D01*
X188812Y133972D01*
X188781Y133993D01*
X188757Y134007D01*
X188736Y134021D01*
X188718Y134031D01*
X188708Y134035D01*
X188705Y134038D01*
X188646Y134066D01*
X188587Y134090D01*
X188470Y134131D01*
X188359Y134159D01*
X188311Y134169D01*
X188263Y134176D01*
X188218Y134183D01*
X188176Y134190D01*
X188142Y134193D01*
X188114D01*
X188090Y134197D01*
D02*
G37*
%LPD*%
D11*
X170600Y287231D02*
X209600D01*
Y236169D02*
Y287231D01*
X170600Y236169D02*
X209600D01*
X170600D02*
Y287231D01*
X170600Y175864D02*
Y226926D01*
Y175864D02*
X209600D01*
Y226926D01*
X170600D02*
X209600D01*
X170500Y115564D02*
Y166626D01*
Y115564D02*
X209500D01*
Y166626D01*
X170500D02*
X209500D01*
M02*
