G04*
G04 #@! TF.GenerationSoftware,Altium Limited,Altium Designer,23.8.1 (32)*
G04*
G04 Layer_Color=32768*
%FSLAX44Y44*%
%MOMM*%
G71*
G04*
G04 #@! TF.SameCoordinates,92C49762-E6E1-4201-94AC-3A3CAB1C571E*
G04*
G04*
G04 #@! TF.FilePolarity,Positive*
G04*
G01*
G75*
%ADD49C,0.1000*%
%ADD70C,0.0500*%
%ADD72C,0.0254*%
D49*
X247900Y110440D02*
Y181560D01*
Y110440D02*
X324100D01*
Y181560D01*
X247900D02*
X324100D01*
X130320Y174350D02*
X163340Y174350D01*
X130320Y133710D02*
X130320Y174350D01*
X130320Y133710D02*
X163340D01*
Y174350D01*
X205750Y148500D02*
X215750D01*
X210750Y143500D02*
Y153500D01*
X126760Y190870D02*
Y261990D01*
X178760Y190870D02*
Y261990D01*
X126760Y190870D02*
X178760D01*
X126760Y261990D02*
X178760D01*
X203130Y411830D02*
Y421830D01*
X198130Y416830D02*
X208130D01*
X263030Y328480D02*
X315030D01*
X263030Y257360D02*
X315030D01*
Y328480D01*
X263030Y257360D02*
Y328480D01*
D70*
X435500Y103000D02*
G03*
X435500Y103000I-3500J0D01*
G01*
X402500Y457000D02*
G03*
X402500Y457000I-3500J0D01*
G01*
X476500Y61000D02*
G03*
X476500Y61000I-3500J0D01*
G01*
X444500D02*
G03*
X444500Y61000I-3500J0D01*
G01*
X486500Y103000D02*
G03*
X486500Y103000I-3500J0D01*
G01*
X498500Y428000D02*
G03*
X498500Y428000I-3500J0D01*
G01*
X476500Y470000D02*
G03*
X476500Y470000I-3500J0D01*
G01*
X444500D02*
G03*
X444500Y470000I-3500J0D01*
G01*
X289500Y146000D02*
G03*
X289500Y146000I-3500J0D01*
G01*
X150330Y154030D02*
G03*
X150330Y154030I-3500J0D01*
G01*
X177000Y154000D02*
G03*
X177000Y154000I-3500J0D01*
G01*
X243500Y204000D02*
G03*
X243500Y204000I-3500J0D01*
G01*
D02*
G03*
X243500Y204000I-3500J0D01*
G01*
X261500Y210000D02*
G03*
X261500Y210000I-3500J0D01*
G01*
X334500D02*
G03*
X334500Y210000I-3500J0D01*
G01*
X279500Y204000D02*
G03*
X279500Y204000I-3500J0D01*
G01*
D02*
G03*
X279500Y204000I-3500J0D01*
G01*
X298500Y210000D02*
G03*
X298500Y210000I-3500J0D01*
G01*
X316500Y204000D02*
G03*
X316500Y204000I-3500J0D01*
G01*
D02*
G03*
X316500Y204000I-3500J0D01*
G01*
X156260Y226430D02*
G03*
X156260Y226430I-3500J0D01*
G01*
X166793Y415000D02*
G03*
X166793Y415000I-3500J0D01*
G01*
Y398500D02*
G03*
X166793Y398500I-3500J0D01*
G01*
X239500Y425000D02*
G03*
X239500Y425000I-3500J0D01*
G01*
X152500Y436000D02*
G03*
X152500Y436000I-3500J0D01*
G01*
X295070Y246800D02*
G03*
X295070Y246800I-3500J0D01*
G01*
X292530Y346110D02*
G03*
X292530Y346110I-3500J0D01*
G01*
Y380150D02*
G03*
X292530Y380150I-3500J0D01*
G01*
X372200Y158000D02*
G03*
X372200Y158000I-3500J0D01*
G01*
Y262000D02*
G03*
X372200Y262000I-3500J0D01*
G01*
X371560Y365950D02*
G03*
X371560Y365950I-3500J0D01*
G01*
X162180Y313960D02*
G03*
X162180Y313960I-3500J0D01*
G01*
Y279670D02*
G03*
X162180Y279670I-3500J0D01*
G01*
X197000Y207540D02*
G03*
X197000Y207540I-3500J0D01*
G01*
X221130D02*
G03*
X221130Y207540I-3500J0D01*
G01*
X291260Y405550D02*
G03*
X291260Y405550I-3500J0D01*
G01*
D02*
G03*
X291260Y405550I-3500J0D01*
G01*
X162180Y340630D02*
G03*
X162180Y340630I-3500J0D01*
G01*
D02*
G03*
X162180Y340630I-3500J0D01*
G01*
X196500Y445000D02*
G03*
X196500Y445000I-3500J0D01*
G01*
D02*
G03*
X196500Y445000I-3500J0D01*
G01*
X66930Y327930D02*
G03*
X66930Y327930I-3500J0D01*
G01*
Y193310D02*
G03*
X66930Y193310I-3500J0D01*
G01*
Y294910D02*
G03*
X66930Y294910I-3500J0D01*
G01*
Y260620D02*
G03*
X66930Y260620I-3500J0D01*
G01*
Y362220D02*
G03*
X66930Y362220I-3500J0D01*
G01*
Y226330D02*
G03*
X66930Y226330I-3500J0D01*
G01*
X292530Y292920D02*
G03*
X292530Y292920I-3500J0D01*
G01*
X164720Y180610D02*
G03*
X164720Y180610I-3500J0D01*
G01*
D02*
G03*
X164720Y180610I-3500J0D01*
G01*
X111380Y136160D02*
G03*
X111380Y136160I-3500J0D01*
G01*
D02*
G03*
X111380Y136160I-3500J0D01*
G01*
X248080Y331890D02*
G03*
X248080Y331890I-3500J0D01*
G01*
D02*
G03*
X248080Y331890I-3500J0D01*
G01*
X432000Y98000D02*
Y108000D01*
X427000Y103000D02*
X437000D01*
X399000Y452000D02*
Y462000D01*
X394000Y457000D02*
X404000D01*
X468000Y61000D02*
X478000D01*
X473000Y56000D02*
Y66000D01*
X436000Y61000D02*
X446000D01*
X441000Y56000D02*
Y66000D01*
X483000Y98000D02*
Y108000D01*
X478000Y103000D02*
X488000D01*
X495000Y423000D02*
Y433000D01*
X490000Y428000D02*
X500000D01*
X468000Y470000D02*
X478000D01*
X473000Y465000D02*
Y475000D01*
X436000Y470000D02*
X446000D01*
X441000Y465000D02*
Y475000D01*
X286000Y141000D02*
Y151000D01*
X281000Y146000D02*
X291000D01*
X146830Y149030D02*
Y159030D01*
X141830Y154030D02*
X151830D01*
X173500Y149000D02*
Y159000D01*
X168500Y154000D02*
X178500D01*
X228250Y132000D02*
Y165000D01*
X193250Y132000D02*
Y165000D01*
X228250D01*
X193250Y132000D02*
X228250D01*
X235000Y204000D02*
X245000D01*
X240000Y199000D02*
Y209000D01*
Y199000D02*
Y209000D01*
X235000Y204000D02*
X245000D01*
X258000Y205000D02*
Y215000D01*
X253000Y210000D02*
X263000D01*
X326000D02*
X336000D01*
X331000Y205000D02*
Y215000D01*
X271000Y204000D02*
X281000D01*
X276000Y199000D02*
Y209000D01*
Y199000D02*
Y209000D01*
X271000Y204000D02*
X281000D01*
X295000Y205000D02*
Y215000D01*
X290000Y210000D02*
X300000D01*
X308000Y204000D02*
X318000D01*
X313000Y199000D02*
Y209000D01*
Y199000D02*
Y209000D01*
X308000Y204000D02*
X318000D01*
X152760Y221430D02*
Y231430D01*
X147760Y226430D02*
X157760D01*
X163293Y410000D02*
Y420000D01*
X158293Y415000D02*
X168293D01*
X163293Y393500D02*
Y403500D01*
X158293Y398500D02*
X168293D01*
X236000Y420000D02*
Y430000D01*
X231000Y425000D02*
X241000D01*
X144000Y436000D02*
X154000D01*
X149000Y431000D02*
Y441000D01*
X286570Y246800D02*
X296570D01*
X291570Y241800D02*
Y251800D01*
X284030Y346110D02*
X294030D01*
X289030Y341110D02*
Y351110D01*
X284030Y380150D02*
X294030D01*
X289030Y375150D02*
Y385150D01*
X368700Y153000D02*
Y163000D01*
X363700Y158000D02*
X373700D01*
X368700Y257000D02*
Y267000D01*
X363700Y262000D02*
X373700D01*
X368060Y360950D02*
Y370950D01*
X363060Y365950D02*
X373060D01*
X158680Y308960D02*
Y318960D01*
X153680Y313960D02*
X163680D01*
X158680Y274670D02*
Y284670D01*
X153680Y279670D02*
X163680D01*
X193500Y202540D02*
Y212540D01*
X188500Y207540D02*
X198500D01*
X217630Y202540D02*
Y212540D01*
X212630Y207540D02*
X222630D01*
X287760Y400550D02*
Y410550D01*
X282760Y405550D02*
X292760D01*
X282760D02*
X292760D01*
X287760Y400550D02*
Y410550D01*
X158680Y335630D02*
Y345630D01*
X153680Y340630D02*
X163680D01*
X153680D02*
X163680D01*
X158680Y335630D02*
Y345630D01*
X193000Y440000D02*
Y450000D01*
X188000Y445000D02*
X198000D01*
X188000D02*
X198000D01*
X193000Y440000D02*
Y450000D01*
X63430Y322930D02*
Y332930D01*
X58430Y327930D02*
X68430D01*
X63430Y188310D02*
Y198310D01*
X58430Y193310D02*
X68430D01*
X63430Y289910D02*
Y299910D01*
X58430Y294910D02*
X68430D01*
X63430Y255620D02*
Y265620D01*
X58430Y260620D02*
X68430D01*
X63430Y357220D02*
Y367220D01*
X58430Y362220D02*
X68430D01*
X63430Y221330D02*
Y231330D01*
X58430Y226330D02*
X68430D01*
X186630Y434580D02*
X219630Y434580D01*
X186630Y399080D02*
X219630D01*
Y434580D01*
X186630Y399080D02*
Y434580D01*
X284030Y292920D02*
X294030D01*
X289030Y287920D02*
X289030Y297920D01*
X161220Y175610D02*
Y185610D01*
X156220Y180610D02*
X166220D01*
X156220D02*
X166220D01*
X161220Y175610D02*
Y185610D01*
X102880Y136160D02*
X112880D01*
X107880Y131160D02*
Y141160D01*
Y131160D02*
Y141160D01*
X102880Y136160D02*
X112880D01*
X244580Y326890D02*
Y336890D01*
X239580Y331890D02*
X249580D01*
X239580D02*
X249580D01*
X244580Y326890D02*
Y336890D01*
D72*
X243270Y133000D02*
G03*
X243270Y133000I-1270J0D01*
G01*
X127780Y164160D02*
G03*
X127780Y164160I-1270J0D01*
G01*
X152270Y129000D02*
G03*
X152270Y129000I-1270J0D01*
G01*
X190019Y167999D02*
G03*
X190019Y167999I-1270J0D01*
G01*
Y149999D02*
G03*
X190019Y149999I-1270J0D01*
G01*
X330970Y336300D02*
G03*
X330970Y336300I-1270J0D01*
G01*
X457370Y424600D02*
G03*
X457370Y424600I-1270J0D01*
G01*
X384770Y415750D02*
G03*
X384770Y415750I-1270J0D01*
G01*
Y398750D02*
G03*
X384770Y398750I-1270J0D01*
G01*
X332370Y232000D02*
G03*
X332370Y232000I-1270J0D01*
G01*
X311770Y145500D02*
G03*
X311770Y145500I-1270J0D01*
G01*
X114230Y162830D02*
G03*
X114230Y162830I-1270J0D01*
G01*
X373140Y127190D02*
G03*
X373140Y127190I-1270J0D01*
G01*
Y231330D02*
G03*
X373140Y231330I-1270J0D01*
G01*
Y335470D02*
G03*
X373140Y335470I-1270J0D01*
G01*
X456960Y216090D02*
G03*
X456960Y216090I-1270J0D01*
G01*
Y320230D02*
G03*
X456960Y320230I-1270J0D01*
G01*
X109150Y176800D02*
G03*
X109150Y176800I-1270J0D01*
G01*
X104070Y162830D02*
G03*
X104070Y162830I-1270J0D01*
G01*
X331770Y302000D02*
G03*
X331770Y302000I-1270J0D01*
G01*
X342632Y420698D02*
G03*
X342632Y420698I-1270J0D01*
G01*
X342541Y438329D02*
G03*
X342541Y438329I-1270J0D01*
G01*
X123120Y241570D02*
G03*
X123120Y241570I-1270J0D01*
G01*
X128200Y176800D02*
G03*
X128200Y176800I-1270J0D01*
G01*
X331770Y320000D02*
G03*
X331770Y320000I-1270J0D01*
G01*
X321800Y302410D02*
G03*
X321800Y302410I-1270J0D01*
G01*
X217270Y444000D02*
G03*
X217270Y444000I-1270J0D01*
G01*
X242000Y131000D02*
Y135000D01*
X240000Y133000D02*
X244000D01*
X124510Y164160D02*
X128510D01*
X126510Y162160D02*
Y166160D01*
X151000Y127000D02*
Y131000D01*
X149000Y129000D02*
X153000D01*
X188749Y165999D02*
Y169999D01*
X186749Y167999D02*
X190749D01*
X188749Y147999D02*
Y151999D01*
X186749Y149999D02*
X190749D01*
X329700Y334300D02*
Y338300D01*
X327700Y336300D02*
X331700D01*
X454100Y424600D02*
X458100D01*
X456100Y422600D02*
Y426600D01*
X381500Y415750D02*
X385500D01*
X383500Y413750D02*
Y417750D01*
X381500Y398750D02*
X385500D01*
X383500Y396750D02*
Y400750D01*
X329100Y232000D02*
X333100D01*
X331100Y230000D02*
Y234000D01*
X310500Y143500D02*
Y147500D01*
X308500Y145500D02*
X312500D01*
X110960Y162830D02*
X114960D01*
X112960Y160830D02*
Y164830D01*
X369870Y127190D02*
X373870D01*
X371870Y125190D02*
Y129190D01*
X369870Y231330D02*
X373870D01*
X371870Y229330D02*
Y233330D01*
X369870Y335470D02*
X373870D01*
X371870Y333470D02*
Y337470D01*
X455690Y214090D02*
Y218090D01*
X453690Y216090D02*
X457690D01*
X455690Y318230D02*
Y322230D01*
X453690Y320230D02*
X457690D01*
X105880Y176800D02*
X109880D01*
X107880Y174800D02*
Y178800D01*
X100800Y162830D02*
X104800D01*
X102800Y160830D02*
Y164830D01*
X328500Y302000D02*
X332500Y302000D01*
X330500Y300000D02*
X330500Y304000D01*
X341362Y418698D02*
Y422698D01*
X339362Y420698D02*
X343362Y420698D01*
X341271Y436329D02*
Y440329D01*
X339271Y438329D02*
X343271D01*
X121850Y239570D02*
Y243570D01*
X119850Y241570D02*
X123850D01*
X124930Y176800D02*
X128930D01*
X126930Y174800D02*
Y178800D01*
X330500Y318000D02*
Y322000D01*
X328500Y320000D02*
X332500D01*
X320530Y300410D02*
Y304410D01*
X318530Y302410D02*
X322530Y302410D01*
X216000Y442000D02*
Y446000D01*
X214000Y444000D02*
X218000D01*
M02*
