G04*
G04 #@! TF.GenerationSoftware,Altium Limited,Altium Designer,23.8.1 (32)*
G04*
G04 Layer_Color=65535*
%FSLAX44Y44*%
%MOMM*%
G71*
G04*
G04 #@! TF.SameCoordinates,92C49762-E6E1-4201-94AC-3A3CAB1C571E*
G04*
G04*
G04 #@! TF.FilePolarity,Positive*
G04*
G01*
G75*
%ADD10C,0.2000*%
%ADD11C,0.2540*%
%ADD12C,0.2032*%
%ADD13C,0.5000*%
%ADD14C,0.2500*%
%ADD15C,0.1524*%
%ADD16C,0.1778*%
G36*
X504415Y125000D02*
X491188D01*
Y141297D01*
X504415D01*
Y125000D01*
D02*
G37*
G36*
X504175Y228000D02*
X491428D01*
Y243890D01*
X504175D01*
Y228000D01*
D02*
G37*
G36*
X505603Y333000D02*
X490000D01*
Y348890D01*
X505603D01*
Y333000D01*
D02*
G37*
G36*
X95996Y85000D02*
X31000D01*
Y113605D01*
X95996D01*
Y85000D01*
D02*
G37*
G36*
X89736Y442000D02*
X37000D01*
Y469995D01*
X89736D01*
Y442000D01*
D02*
G37*
%LPC*%
G36*
X499660Y139297D02*
X499493D01*
X499235Y139287D01*
X498985Y139278D01*
X498495Y139223D01*
X498042Y139130D01*
X497607Y139019D01*
X497210Y138881D01*
X496831Y138733D01*
X496489Y138566D01*
X496174Y138400D01*
X495897Y138233D01*
X495647Y138067D01*
X495444Y137919D01*
X495351Y137845D01*
X495268Y137780D01*
X495194Y137725D01*
X495130Y137669D01*
X495074Y137623D01*
X495028Y137577D01*
X494991Y137549D01*
X494963Y137521D01*
X494954Y137512D01*
X494945Y137503D01*
X494787Y137337D01*
X494640Y137152D01*
X494492Y136976D01*
X494362Y136791D01*
X494131Y136412D01*
X493928Y136024D01*
X493761Y135635D01*
X493613Y135256D01*
X493502Y134887D01*
X493410Y134526D01*
X493336Y134184D01*
X493280Y133879D01*
X493262Y133731D01*
X493243Y133601D01*
X493225Y133472D01*
X493216Y133361D01*
X493206Y133250D01*
X493197Y133158D01*
Y133084D01*
X493188Y133019D01*
Y132889D01*
X493206Y132399D01*
X493253Y131937D01*
X493336Y131503D01*
X493438Y131087D01*
X493549Y130708D01*
X493687Y130356D01*
X493826Y130033D01*
X493974Y129737D01*
X494122Y129478D01*
X494260Y129247D01*
X494399Y129052D01*
X494510Y128895D01*
X494612Y128766D01*
X494695Y128673D01*
X494741Y128618D01*
X494760Y128609D01*
Y128600D01*
X494908Y128452D01*
X495065Y128322D01*
X495398Y128073D01*
X495740Y127860D01*
X496091Y127675D01*
X496452Y127518D01*
X496803Y127388D01*
X497154Y127287D01*
X497487Y127203D01*
X497802Y127139D01*
X498097Y127083D01*
X498356Y127046D01*
X498476Y127037D01*
X498587Y127028D01*
X498689Y127018D01*
X498772Y127009D01*
X498846D01*
X498911Y127000D01*
X499031D01*
X499410Y127009D01*
X499780Y127028D01*
X500122Y127056D01*
X500446Y127102D01*
X500742Y127148D01*
X501019Y127203D01*
X501278Y127259D01*
X501509Y127314D01*
X501712Y127370D01*
X501897Y127435D01*
X502055Y127481D01*
X502184Y127527D01*
X502286Y127573D01*
X502360Y127601D01*
X502397Y127619D01*
X502415Y127629D01*
Y129959D01*
X502165Y129820D01*
X501916Y129709D01*
X501666Y129607D01*
X501417Y129515D01*
X501167Y129441D01*
X500927Y129376D01*
X500695Y129330D01*
X500483Y129284D01*
X500279Y129256D01*
X500094Y129228D01*
X499928Y129219D01*
X499789Y129200D01*
X499678D01*
X499595Y129191D01*
X499521D01*
X499216Y129200D01*
X498920Y129237D01*
X498643Y129293D01*
X498393Y129358D01*
X498153Y129441D01*
X497931Y129524D01*
X497728Y129626D01*
X497543Y129727D01*
X497385Y129820D01*
X497247Y129922D01*
X497117Y130005D01*
X497025Y130088D01*
X496942Y130153D01*
X496886Y130208D01*
X496849Y130245D01*
X496840Y130254D01*
X496664Y130467D01*
X496516Y130680D01*
X496378Y130911D01*
X496267Y131151D01*
X496174Y131382D01*
X496091Y131623D01*
X496026Y131845D01*
X495971Y132067D01*
X495934Y132270D01*
X495906Y132464D01*
X495878Y132640D01*
X495869Y132788D01*
X495860Y132908D01*
X495851Y133000D01*
Y133028D01*
Y133056D01*
Y133065D01*
Y133074D01*
X495860Y133407D01*
X495897Y133712D01*
X495943Y134008D01*
X496017Y134285D01*
X496091Y134544D01*
X496184Y134785D01*
X496276Y134997D01*
X496378Y135201D01*
X496470Y135377D01*
X496563Y135534D01*
X496655Y135663D01*
X496729Y135774D01*
X496803Y135866D01*
X496849Y135922D01*
X496886Y135968D01*
X496895Y135977D01*
X497099Y136172D01*
X497312Y136347D01*
X497543Y136495D01*
X497774Y136625D01*
X498005Y136736D01*
X498236Y136819D01*
X498458Y136893D01*
X498680Y136958D01*
X498883Y137004D01*
X499077Y137041D01*
X499244Y137059D01*
X499392Y137078D01*
X499512Y137087D01*
X499604Y137096D01*
X499678D01*
X499965Y137087D01*
X500233Y137069D01*
X500501Y137031D01*
X500751Y136985D01*
X500991Y136930D01*
X501222Y136874D01*
X501426Y136810D01*
X501620Y136745D01*
X501796Y136680D01*
X501953Y136615D01*
X502092Y136560D01*
X502202Y136504D01*
X502295Y136458D01*
X502360Y136421D01*
X502406Y136403D01*
X502415Y136393D01*
Y138844D01*
X502193Y138927D01*
X501953Y138991D01*
X501712Y139056D01*
X501463Y139102D01*
X500973Y139186D01*
X500742Y139213D01*
X500511Y139241D01*
X500307Y139260D01*
X500113Y139269D01*
X499937Y139287D01*
X499789D01*
X499660Y139297D01*
D02*
G37*
G36*
X497839Y241890D02*
X493428D01*
Y230000D01*
X497876D01*
X498236Y230009D01*
X498587Y230037D01*
X498911Y230093D01*
X499207Y230148D01*
X499493Y230222D01*
X499752Y230305D01*
X499984Y230388D01*
X500196Y230481D01*
X500390Y230564D01*
X500547Y230647D01*
X500695Y230730D01*
X500806Y230804D01*
X500899Y230869D01*
X500964Y230915D01*
X501010Y230943D01*
X501019Y230952D01*
X501222Y231137D01*
X501398Y231341D01*
X501555Y231544D01*
X501685Y231757D01*
X501796Y231969D01*
X501897Y232191D01*
X501971Y232395D01*
X502027Y232598D01*
X502082Y232792D01*
X502110Y232968D01*
X502138Y233125D01*
X502156Y233264D01*
X502165Y233375D01*
X502175Y233458D01*
Y233532D01*
X502165Y233745D01*
X502138Y233948D01*
X502101Y234142D01*
X502055Y234318D01*
X501999Y234493D01*
X501934Y234650D01*
X501860Y234799D01*
X501796Y234928D01*
X501722Y235048D01*
X501648Y235150D01*
X501583Y235242D01*
X501528Y235316D01*
X501481Y235381D01*
X501444Y235418D01*
X501417Y235446D01*
X501407Y235455D01*
X501259Y235594D01*
X501102Y235714D01*
X500945Y235825D01*
X500779Y235926D01*
X500603Y236010D01*
X500437Y236084D01*
X500279Y236148D01*
X500122Y236204D01*
X499974Y236250D01*
X499836Y236287D01*
X499715Y236324D01*
X499604Y236343D01*
X499521Y236361D01*
X499457Y236370D01*
X499420Y236380D01*
X499401D01*
Y236407D01*
X499586Y236463D01*
X499762Y236527D01*
X499928Y236601D01*
X500076Y236685D01*
X500224Y236768D01*
X500363Y236851D01*
X500483Y236934D01*
X500603Y237017D01*
X500705Y237091D01*
X500788Y237165D01*
X500871Y237239D01*
X500927Y237295D01*
X500982Y237350D01*
X501019Y237387D01*
X501038Y237406D01*
X501047Y237415D01*
X501167Y237554D01*
X501259Y237702D01*
X501352Y237840D01*
X501426Y237988D01*
X501491Y238127D01*
X501546Y238275D01*
X501583Y238404D01*
X501620Y238534D01*
X501648Y238654D01*
X501666Y238765D01*
X501685Y238857D01*
X501694Y238950D01*
X501703Y239014D01*
Y239061D01*
Y239098D01*
Y239107D01*
X501694Y239347D01*
X501657Y239569D01*
X501611Y239782D01*
X501537Y239976D01*
X501463Y240161D01*
X501370Y240327D01*
X501278Y240485D01*
X501176Y240623D01*
X501074Y240743D01*
X500982Y240854D01*
X500890Y240938D01*
X500816Y241012D01*
X500751Y241076D01*
X500695Y241113D01*
X500658Y241141D01*
X500649Y241150D01*
X500446Y241280D01*
X500215Y241391D01*
X499984Y241492D01*
X499734Y241576D01*
X499484Y241649D01*
X499235Y241714D01*
X498994Y241760D01*
X498754Y241797D01*
X498532Y241825D01*
X498319Y241853D01*
X498134Y241871D01*
X497977Y241881D01*
X497839Y241890D01*
D02*
G37*
%LPD*%
G36*
X497395Y239985D02*
X497552Y239967D01*
X497700Y239948D01*
X497839Y239911D01*
X497968Y239874D01*
X498088Y239837D01*
X498190Y239791D01*
X498384Y239689D01*
X498550Y239569D01*
X498680Y239449D01*
X498782Y239320D01*
X498865Y239190D01*
X498930Y239070D01*
X498966Y238950D01*
X499003Y238848D01*
X499022Y238765D01*
X499031Y238691D01*
Y238654D01*
Y238635D01*
X499022Y238497D01*
X499013Y238367D01*
X498957Y238136D01*
X498874Y237942D01*
X498782Y237775D01*
X498689Y237646D01*
X498652Y237591D01*
X498606Y237544D01*
X498578Y237517D01*
X498550Y237489D01*
X498541Y237480D01*
X498532Y237470D01*
X498439Y237397D01*
X498329Y237341D01*
X498116Y237239D01*
X497885Y237165D01*
X497672Y237119D01*
X497570Y237101D01*
X497478Y237082D01*
X497385Y237073D01*
X497321D01*
X497256Y237064D01*
X495962D01*
Y240004D01*
X497228D01*
X497395Y239985D01*
D02*
G37*
G36*
X497802Y235131D02*
X497959Y235113D01*
X498107Y235085D01*
X498245Y235057D01*
X498366Y235020D01*
X498486Y234983D01*
X498587Y234946D01*
X498671Y234900D01*
X498754Y234863D01*
X498819Y234826D01*
X498874Y234799D01*
X498920Y234771D01*
X498948Y234752D01*
X498966Y234743D01*
X498976Y234734D01*
X499068Y234650D01*
X499151Y234567D01*
X499225Y234475D01*
X499290Y234373D01*
X499336Y234281D01*
X499383Y234179D01*
X499447Y233994D01*
X499484Y233828D01*
X499493Y233754D01*
X499503Y233689D01*
X499512Y233643D01*
Y233606D01*
Y233578D01*
Y233569D01*
X499503Y233421D01*
X499484Y233291D01*
X499466Y233162D01*
X499429Y233042D01*
X499336Y232829D01*
X499290Y232737D01*
X499244Y232654D01*
X499188Y232579D01*
X499142Y232515D01*
X499096Y232459D01*
X499050Y232413D01*
X499013Y232376D01*
X498994Y232348D01*
X498976Y232339D01*
X498966Y232330D01*
X498865Y232256D01*
X498745Y232182D01*
X498504Y232071D01*
X498255Y231997D01*
X498014Y231942D01*
X497903Y231923D01*
X497802Y231914D01*
X497709Y231895D01*
X497626D01*
X497561Y231886D01*
X495962D01*
Y235150D01*
X497635D01*
X497802Y235131D01*
D02*
G37*
%LPC*%
G36*
X499341Y346890D02*
X496355D01*
X492000Y335000D01*
X494755D01*
X495634Y337718D01*
X499951D01*
X500839Y335000D01*
X503603D01*
X499341Y346890D01*
D02*
G37*
%LPD*%
G36*
X497843Y344606D02*
X497871Y344403D01*
X497899Y344227D01*
X497926Y344079D01*
X497954Y343959D01*
X497982Y343876D01*
X497991Y343820D01*
X498000Y343811D01*
Y343802D01*
X499350Y339678D01*
X496179D01*
X497538Y343829D01*
X497594Y344015D01*
X497640Y344190D01*
X497677Y344366D01*
X497705Y344514D01*
X497732Y344652D01*
X497742Y344745D01*
Y344791D01*
X497751Y344819D01*
Y344828D01*
Y344837D01*
X497816D01*
X497843Y344606D01*
D02*
G37*
%LPC*%
G36*
X46218Y108525D02*
X45940D01*
X45524Y108511D01*
X45136Y108497D01*
X44359Y108414D01*
X43638Y108275D01*
X42945Y108109D01*
X42321Y107915D01*
X41724Y107693D01*
X41184Y107443D01*
X40698Y107207D01*
X40268Y106958D01*
X39880Y106708D01*
X39713Y106597D01*
X39547Y106486D01*
X39408Y106389D01*
X39284Y106292D01*
X39159Y106195D01*
X39062Y106126D01*
X38979Y106056D01*
X38909Y105987D01*
X38854Y105946D01*
X38812Y105904D01*
X38798Y105890D01*
X38784Y105876D01*
X38535Y105626D01*
X38313Y105363D01*
X38091Y105099D01*
X37897Y104822D01*
X37703Y104545D01*
X37536Y104254D01*
X37217Y103685D01*
X36954Y103116D01*
X36746Y102534D01*
X36565Y101979D01*
X36413Y101452D01*
X36302Y100953D01*
X36219Y100481D01*
X36191Y100273D01*
X36163Y100065D01*
X36135Y99885D01*
X36122Y99719D01*
X36108Y99552D01*
X36094Y99413D01*
Y99303D01*
X36080Y99192D01*
Y99011D01*
X36094Y98623D01*
X36108Y98249D01*
X36191Y97541D01*
X36302Y96862D01*
X36468Y96238D01*
X36649Y95655D01*
X36857Y95114D01*
X37078Y94629D01*
X37314Y94185D01*
X37536Y93783D01*
X37758Y93450D01*
X37966Y93145D01*
X38146Y92909D01*
X38313Y92715D01*
X38424Y92576D01*
X38507Y92493D01*
X38535Y92479D01*
Y92465D01*
X38770Y92243D01*
X39020Y92049D01*
X39533Y91675D01*
X40074Y91356D01*
X40629Y91092D01*
X41184Y90857D01*
X41752Y90662D01*
X42293Y90510D01*
X42820Y90385D01*
X43319Y90274D01*
X43791Y90205D01*
X43999Y90177D01*
X44193Y90149D01*
X44387Y90135D01*
X44554Y90122D01*
X44720Y90108D01*
X44859Y90094D01*
X44970D01*
X45067Y90080D01*
X45261D01*
X45968Y90094D01*
X46634Y90149D01*
X47272Y90219D01*
X47882Y90316D01*
X48451Y90427D01*
X48978Y90552D01*
X49463Y90690D01*
X49907Y90829D01*
X50309Y90968D01*
X50669Y91106D01*
X50975Y91231D01*
X51224Y91342D01*
X51432Y91439D01*
X51515Y91481D01*
X51571Y91509D01*
X51627Y91536D01*
X51668Y91564D01*
X51682Y91578D01*
X51696D01*
Y100440D01*
X44290D01*
Y97389D01*
X47896D01*
Y93727D01*
X47521Y93575D01*
X47119Y93464D01*
X46717Y93381D01*
X46329Y93325D01*
X46148Y93311D01*
X45982Y93298D01*
X45843Y93284D01*
X45718D01*
X45608Y93270D01*
X45469D01*
X45011Y93284D01*
X44581Y93339D01*
X44179Y93408D01*
X43791Y93519D01*
X43444Y93630D01*
X43111Y93769D01*
X42820Y93908D01*
X42557Y94060D01*
X42307Y94199D01*
X42099Y94338D01*
X41933Y94476D01*
X41780Y94587D01*
X41669Y94698D01*
X41586Y94768D01*
X41530Y94823D01*
X41516Y94837D01*
X41267Y95142D01*
X41045Y95475D01*
X40851Y95822D01*
X40684Y96182D01*
X40546Y96543D01*
X40421Y96903D01*
X40338Y97264D01*
X40254Y97611D01*
X40199Y97929D01*
X40157Y98235D01*
X40116Y98512D01*
X40102Y98748D01*
X40088Y98942D01*
X40074Y99081D01*
Y99136D01*
Y99178D01*
Y99192D01*
Y99205D01*
X40088Y99705D01*
X40143Y100190D01*
X40227Y100634D01*
X40324Y101050D01*
X40448Y101452D01*
X40573Y101813D01*
X40726Y102146D01*
X40879Y102451D01*
X41017Y102714D01*
X41170Y102950D01*
X41294Y103158D01*
X41419Y103324D01*
X41516Y103463D01*
X41600Y103546D01*
X41655Y103616D01*
X41669Y103629D01*
X41988Y103934D01*
X42307Y104184D01*
X42654Y104420D01*
X43000Y104614D01*
X43347Y104767D01*
X43708Y104905D01*
X44040Y105016D01*
X44373Y105113D01*
X44678Y105183D01*
X44956Y105238D01*
X45205Y105266D01*
X45427Y105294D01*
X45608Y105308D01*
X45746Y105321D01*
X45857D01*
X46412Y105308D01*
X46939Y105266D01*
X47438Y105210D01*
X47910Y105127D01*
X48354Y105044D01*
X48770Y104947D01*
X49158Y104836D01*
X49518Y104725D01*
X49824Y104600D01*
X50101Y104503D01*
X50351Y104392D01*
X50545Y104309D01*
X50711Y104226D01*
X50822Y104170D01*
X50891Y104129D01*
X50919Y104115D01*
Y107721D01*
X50517Y107859D01*
X50101Y107984D01*
X49671Y108095D01*
X49241Y108192D01*
X48825Y108261D01*
X48409Y108331D01*
X48007Y108386D01*
X47632Y108428D01*
X47286Y108456D01*
X46953Y108483D01*
X46662Y108497D01*
X46426Y108511D01*
X46218Y108525D01*
D02*
G37*
G36*
X71098Y108220D02*
X67492D01*
Y98054D01*
Y97722D01*
Y97416D01*
X67506Y97153D01*
Y96903D01*
X67520Y96667D01*
X67533Y96473D01*
Y96293D01*
X67547Y96140D01*
X67561Y96002D01*
X67575Y95891D01*
Y95794D01*
X67589Y95711D01*
Y95655D01*
X67603Y95613D01*
Y95600D01*
Y95586D01*
X67547D01*
X67506Y95655D01*
X67464Y95738D01*
X67339Y95933D01*
X67201Y96168D01*
X67048Y96404D01*
X66896Y96640D01*
X66826Y96737D01*
X66771Y96820D01*
X66729Y96903D01*
X66687Y96959D01*
X66674Y96987D01*
X66660Y97000D01*
X59379Y108220D01*
X55232D01*
Y90385D01*
X58838D01*
Y100523D01*
Y100870D01*
Y101202D01*
X58824Y101508D01*
Y101785D01*
X58810Y102035D01*
Y102270D01*
X58796Y102478D01*
Y102673D01*
X58783Y102839D01*
X58769Y102978D01*
Y103089D01*
X58755Y103200D01*
Y103269D01*
X58741Y103324D01*
Y103352D01*
Y103366D01*
X58796D01*
X58907Y103144D01*
X59046Y102908D01*
X59185Y102673D01*
X59323Y102437D01*
X59448Y102243D01*
X59545Y102076D01*
X59587Y102007D01*
X59615Y101965D01*
X59642Y101938D01*
Y101924D01*
X67201Y90385D01*
X71098D01*
Y108220D01*
D02*
G37*
G36*
X81652D02*
X75244D01*
Y90385D01*
X81388D01*
X81776Y90399D01*
X82165Y90413D01*
X82886Y90496D01*
X83579Y90621D01*
X84231Y90773D01*
X84841Y90968D01*
X85410Y91176D01*
X85923Y91397D01*
X86395Y91633D01*
X86825Y91869D01*
X87185Y92091D01*
X87504Y92299D01*
X87643Y92396D01*
X87767Y92493D01*
X87879Y92576D01*
X87976Y92646D01*
X88059Y92715D01*
X88128Y92771D01*
X88184Y92826D01*
X88225Y92854D01*
X88239Y92881D01*
X88253D01*
X88489Y93117D01*
X88724Y93367D01*
X88933Y93630D01*
X89127Y93894D01*
X89487Y94421D01*
X89792Y94976D01*
X90056Y95530D01*
X90264Y96085D01*
X90444Y96626D01*
X90583Y97139D01*
X90694Y97638D01*
X90777Y98082D01*
X90832Y98484D01*
X90860Y98678D01*
X90874Y98845D01*
X90888Y98997D01*
X90902Y99122D01*
Y99247D01*
X90916Y99344D01*
Y99927D01*
X90888Y100315D01*
X90805Y101050D01*
X90680Y101743D01*
X90513Y102395D01*
X90292Y102992D01*
X90042Y103560D01*
X89751Y104073D01*
X89432Y104559D01*
X89085Y104988D01*
X88711Y105391D01*
X88322Y105765D01*
X87906Y106098D01*
X87490Y106403D01*
X87046Y106667D01*
X86616Y106916D01*
X86173Y107138D01*
X85715Y107318D01*
X85285Y107499D01*
X84841Y107637D01*
X84425Y107762D01*
X84009Y107873D01*
X83621Y107956D01*
X83246Y108026D01*
X82900Y108081D01*
X82581Y108123D01*
X82289Y108164D01*
X82040Y108192D01*
X81818Y108206D01*
X81652Y108220D01*
D02*
G37*
%LPD*%
G36*
X81582Y105099D02*
X82026Y105044D01*
X82456Y104975D01*
X82858Y104878D01*
X83219Y104767D01*
X83565Y104642D01*
X83884Y104503D01*
X84176Y104365D01*
X84425Y104226D01*
X84661Y104087D01*
X84841Y103962D01*
X85008Y103851D01*
X85133Y103754D01*
X85230Y103685D01*
X85285Y103629D01*
X85299Y103616D01*
X85590Y103324D01*
X85840Y103005D01*
X86048Y102686D01*
X86242Y102340D01*
X86395Y101993D01*
X86519Y101646D01*
X86630Y101313D01*
X86713Y100981D01*
X86783Y100675D01*
X86838Y100384D01*
X86866Y100135D01*
X86894Y99913D01*
X86908Y99719D01*
X86922Y99580D01*
Y99538D01*
Y99497D01*
Y99483D01*
Y99469D01*
X86908Y98970D01*
X86852Y98484D01*
X86783Y98041D01*
X86686Y97624D01*
X86561Y97236D01*
X86436Y96875D01*
X86284Y96543D01*
X86145Y96251D01*
X86006Y95988D01*
X85854Y95752D01*
X85729Y95558D01*
X85618Y95392D01*
X85507Y95267D01*
X85438Y95170D01*
X85382Y95114D01*
X85368Y95100D01*
X85063Y94823D01*
X84744Y94573D01*
X84411Y94352D01*
X84051Y94171D01*
X83704Y94019D01*
X83343Y93880D01*
X82997Y93783D01*
X82664Y93700D01*
X82359Y93630D01*
X82068Y93575D01*
X81804Y93547D01*
X81568Y93519D01*
X81388Y93505D01*
X81249Y93492D01*
X79044D01*
Y105113D01*
X81111D01*
X81582Y105099D01*
D02*
G37*
%LPC*%
G36*
X84656Y464915D02*
X81050D01*
Y454749D01*
Y454416D01*
Y454111D01*
X81064Y453848D01*
Y453598D01*
X81078Y453362D01*
X81092Y453168D01*
Y452988D01*
X81106Y452835D01*
X81119Y452697D01*
X81133Y452586D01*
Y452489D01*
X81147Y452406D01*
Y452350D01*
X81161Y452308D01*
Y452295D01*
Y452281D01*
X81106D01*
X81064Y452350D01*
X81023Y452433D01*
X80898Y452627D01*
X80759Y452863D01*
X80606Y453099D01*
X80454Y453335D01*
X80385Y453432D01*
X80329Y453515D01*
X80287Y453598D01*
X80246Y453654D01*
X80232Y453681D01*
X80218Y453695D01*
X72937Y464915D01*
X68790D01*
Y447080D01*
X72396D01*
Y457218D01*
Y457565D01*
Y457897D01*
X72382Y458203D01*
Y458480D01*
X72369Y458730D01*
Y458965D01*
X72355Y459173D01*
Y459367D01*
X72341Y459534D01*
X72327Y459673D01*
Y459784D01*
X72313Y459894D01*
Y459964D01*
X72299Y460019D01*
Y460047D01*
Y460061D01*
X72355D01*
X72466Y459839D01*
X72604Y459603D01*
X72743Y459367D01*
X72882Y459132D01*
X73007Y458937D01*
X73104Y458771D01*
X73145Y458702D01*
X73173Y458660D01*
X73201Y458632D01*
Y458619D01*
X80759Y447080D01*
X84656D01*
Y464915D01*
D02*
G37*
G36*
X58681D02*
X54714D01*
X50859Y452350D01*
X50748Y452003D01*
X50665Y451670D01*
X50595Y451365D01*
X50540Y451088D01*
X50498Y450866D01*
X50484Y450769D01*
X50470Y450700D01*
Y450630D01*
X50457Y450589D01*
Y450561D01*
Y450547D01*
X50387D01*
X50359Y450852D01*
X50304Y451171D01*
X50248Y451462D01*
X50193Y451740D01*
X50138Y451962D01*
X50110Y452059D01*
X50082Y452142D01*
X50068Y452211D01*
X50054Y452267D01*
X50040Y452295D01*
Y452308D01*
X46171Y464915D01*
X42080D01*
X48196Y447080D01*
X52481D01*
X58681Y464915D01*
D02*
G37*
G36*
X64658D02*
X60858D01*
Y447080D01*
X64658D01*
Y464915D01*
D02*
G37*
%LPD*%
D10*
X147500Y370144D02*
G03*
X147500Y384000I-4000J6928D01*
G01*
Y370144D02*
G03*
X147500Y356287I4000J-6928D01*
G01*
X210530Y278490D02*
G03*
X220530Y278490I5000J0D01*
G01*
X220530D02*
G03*
X230530Y278490I5000J0D01*
G01*
X230530D02*
G03*
X240530Y278490I5000J0D01*
G01*
X280920Y179020D02*
G03*
X291080Y179000I5080J-20D01*
G01*
X111500Y352000D02*
Y388000D01*
X184500Y352000D02*
Y388000D01*
X111500D02*
X137500D01*
X111500Y352000D02*
X137500D01*
X158500Y388000D02*
X184500D01*
X158500Y352000D02*
X184500D01*
X190530Y314490D02*
X206530D01*
X190530Y239490D02*
Y314490D01*
Y239490D02*
X206530D01*
X244530D02*
X260530D01*
Y314490D01*
X244530D02*
X260530D01*
X203530Y278490D02*
X210530D01*
X240530D02*
X247530D01*
X154000Y526900D02*
X408000D01*
X154000Y476100D02*
Y526900D01*
Y476100D02*
X408000D01*
Y526900D01*
X154000Y83900D02*
X408000D01*
X154000Y33100D02*
Y83900D01*
Y33100D02*
X408000D01*
Y83900D01*
X266950Y113000D02*
X305050D01*
Y179000D01*
X266950Y113000D02*
Y178995D01*
X280920Y179020D01*
X291080Y179000D02*
X305050D01*
X127760Y211190D02*
Y241670D01*
Y211190D02*
X177760D01*
X127760Y241670D02*
X177760D01*
X309750Y416300D02*
Y420950D01*
Y451050D02*
Y455700D01*
X262250D02*
X309750D01*
X262250Y416300D02*
Y420950D01*
Y451050D02*
Y455700D01*
Y416300D02*
X309750D01*
X218630Y411830D02*
Y421830D01*
X187630Y411830D02*
Y421830D01*
X218630D01*
X187630Y411830D02*
X218630D01*
X264030Y308160D02*
X314030Y308160D01*
X264030Y277680D02*
X314030D01*
X264030D02*
Y308160D01*
D11*
X254275Y181560D02*
G03*
X254275Y181560I-1295J0D01*
G01*
X151060Y138700D02*
G03*
X151060Y128540I0J-5080D01*
G01*
Y159020D02*
G03*
X151060Y148860I0J-5080D01*
G01*
D02*
G03*
X151060Y138700I0J-5080D01*
G01*
X406500Y119003D02*
X425650D01*
X438350D02*
X457500D01*
X438350Y86997D02*
X457500D01*
X406500D02*
X425650D01*
X406500D02*
Y119001D01*
X457500Y86997D02*
Y119001D01*
X373500Y473003D02*
X392650D01*
X405350D02*
X424500D01*
X405350Y440997D02*
X424500D01*
X373500D02*
X392650D01*
X373500D02*
Y473001D01*
X424500Y440997D02*
Y473001D01*
X456997Y35500D02*
Y54650D01*
Y67350D02*
Y86500D01*
X489003Y67350D02*
Y86500D01*
Y35500D02*
Y54650D01*
X456999Y35500D02*
X489003D01*
X456999Y86500D02*
X489003D01*
X424997Y35500D02*
Y54650D01*
Y67350D02*
Y86500D01*
X457003Y67350D02*
Y86500D01*
Y35500D02*
Y54650D01*
X424999Y35500D02*
X457003D01*
X424999Y86500D02*
X457003D01*
X489350Y86997D02*
X508500D01*
X457500D02*
X476650D01*
X457500Y119003D02*
X476650D01*
X489350D02*
X508500D01*
Y86999D02*
Y119003D01*
X457500Y86999D02*
Y119003D01*
X501350Y411997D02*
X520500D01*
X469500D02*
X488650D01*
X469500Y444003D02*
X488650D01*
X501350D02*
X520500D01*
Y411999D02*
Y444003D01*
X469500Y411999D02*
Y444003D01*
X489003Y476350D02*
Y495500D01*
Y444500D02*
Y463650D01*
X456997Y444500D02*
Y463650D01*
Y476350D02*
Y495500D01*
X489001D01*
X456997Y444500D02*
X489001D01*
X457003Y476350D02*
Y495500D01*
Y444500D02*
Y463650D01*
X424997Y444500D02*
Y463650D01*
Y476350D02*
Y495500D01*
X457001D01*
X424997Y444500D02*
X457001D01*
X257746Y209746D02*
X259270Y210254D01*
X256222Y211524D02*
X257746Y209746D01*
X256222Y211524D02*
X260540Y211270D01*
X329222Y211524D02*
X333540Y211270D01*
X329222Y211524D02*
X330746Y209746D01*
X332270Y210254D01*
X294746Y209746D02*
X296270Y210254D01*
X293222Y211524D02*
X294746Y209746D01*
X293222Y211524D02*
X297540Y211270D01*
X164563Y412460D02*
X164817Y416778D01*
X163039Y415254D02*
X164817Y416778D01*
X163039Y415254D02*
X163547Y413730D01*
X164563Y395960D02*
X164817Y400278D01*
X163039Y398754D02*
X164817Y400278D01*
X163039Y398754D02*
X163547Y397230D01*
X224824Y400500D02*
X247176D01*
X224824Y450000D02*
X247176D01*
X224824Y400500D02*
Y418650D01*
Y431350D02*
Y449500D01*
X247176Y431350D02*
Y449500D01*
Y400500D02*
Y418650D01*
X124500Y447176D02*
X124500Y424824D01*
X174000Y424824D02*
Y447176D01*
X124500D02*
X142650D01*
X155350D02*
X173500D01*
X155350Y424824D02*
X173500D01*
X124500Y424824D02*
X142650Y424824D01*
X288014Y247003D02*
X295736Y254725D01*
Y239053D02*
Y254725D01*
X287608Y247181D02*
X295736Y239053D01*
X302365Y237910D02*
X319510D01*
X302365Y255690D02*
X319510D01*
Y237910D02*
Y255690D01*
X287608Y238748D02*
Y255207D01*
X263122Y251372D02*
X267440Y255690D01*
X280775D01*
X267440Y237910D02*
X280775D01*
X263122Y242228D02*
X267440Y237910D01*
X263122Y242228D02*
Y251372D01*
X293856Y251118D02*
X294110Y241212D01*
X289030Y246800D02*
X293856Y251118D01*
X289030Y246800D02*
X291570Y244260D01*
Y246800D01*
Y249340D01*
X314530Y362111D02*
X314530Y330107D01*
X263530D02*
Y362111D01*
Y330107D02*
X282680Y330107D01*
X295380Y330107D02*
X314530D01*
X295380Y362113D02*
X314530Y362113D01*
X263530Y362113D02*
X282680D01*
X314530Y364147D02*
Y396151D01*
X263530Y364147D02*
Y396151D01*
Y364147D02*
X282680Y364147D01*
X295380Y364147D02*
X314530D01*
X295380Y396153D02*
X314530D01*
X263530Y396153D02*
X282680D01*
X357524Y133500D02*
Y183000D01*
X379876Y133500D02*
Y183000D01*
X357524Y133500D02*
X379876D01*
X357524Y183000D02*
X379876D01*
X357524Y237500D02*
Y287000D01*
X379876Y237500D02*
Y287000D01*
X357524Y237500D02*
X379876D01*
X357524Y287000D02*
X379876D01*
X356884Y341450D02*
Y390950D01*
X379236Y341450D02*
Y390950D01*
X356884Y341450D02*
X379236D01*
X356884Y390950D02*
X379236D01*
X165030Y297957D02*
X184180D01*
X133180D02*
X152330D01*
X133180Y329963D02*
X152330D01*
X165030D02*
X184180D01*
Y297959D02*
Y329963D01*
X133180Y297959D02*
Y329963D01*
X165030Y263667D02*
X184180D01*
X133180D02*
X152330D01*
X133180Y295673D02*
X152330D01*
X165030D02*
X184180D01*
Y263669D02*
Y295673D01*
X133180Y263669D02*
Y295673D01*
X182324Y232040D02*
X204676D01*
X182324Y182540D02*
X204676D01*
Y213890D02*
Y232040D01*
Y183040D02*
X204676Y201190D01*
X182324Y183040D02*
Y201190D01*
Y213890D02*
Y232040D01*
X206454Y232040D02*
X228806Y232040D01*
X206454Y182540D02*
X228806Y182540D01*
Y213890D02*
Y232040D01*
Y183040D02*
Y201190D01*
X206454Y183040D02*
Y201190D01*
Y213890D02*
X206454Y232040D01*
X37930Y343933D02*
X57080D01*
X69780D02*
X88930D01*
X69780Y311927D02*
X88930D01*
X37930D02*
X57080D01*
X37930D02*
Y343931D01*
X88930Y311927D02*
Y343931D01*
X37930Y209313D02*
X57080D01*
X69780D02*
X88930D01*
X69780Y177307D02*
X88930D01*
X37930D02*
X57080D01*
X37930D02*
Y209311D01*
X88930Y177307D02*
Y209311D01*
X37930Y310913D02*
X57080D01*
X69780D02*
X88930D01*
X69780Y278907D02*
X88930D01*
X37930D02*
X57080D01*
X37930D02*
Y310911D01*
X88930Y278907D02*
Y310911D01*
X37930Y276623D02*
X57080D01*
X69780D02*
X88930D01*
X69780Y244617D02*
X88930D01*
X37930D02*
X57080D01*
X37930D02*
Y276621D01*
X88930Y244617D02*
Y276621D01*
X37930Y378223D02*
X57080D01*
X69780D02*
X88930D01*
X69780Y346217D02*
X88930D01*
X37930D02*
X57080D01*
X37930D02*
Y378221D01*
X88930Y346217D02*
Y378221D01*
X37930Y242333D02*
X57080D01*
X69780D02*
X88930D01*
X69780Y210327D02*
X88930D01*
X37930D02*
X57080D01*
X37930D02*
Y242331D01*
X88930Y210327D02*
Y242331D01*
X119310Y118380D02*
X135820D01*
X119310D02*
Y169180D01*
X135820D01*
X161220D02*
X177730D01*
Y118380D02*
Y169180D01*
X161220Y118380D02*
X177730D01*
X151060Y123460D02*
Y128540D01*
Y159020D02*
Y164100D01*
X143440Y169180D02*
X153600D01*
X143440Y118380D02*
X153600D01*
D12*
X172680Y226430D02*
G03*
X177760Y221350I5080J0D01*
G01*
X177760Y231510D02*
G03*
X172680Y226430I0J-5080D01*
G01*
X314030Y298000D02*
G03*
X308950Y292920I0J-5080D01*
G01*
X308950D02*
G03*
X314030Y287840I5080J0D01*
G01*
X230857Y221000D02*
X249145D01*
X230857Y187000D02*
X249145D01*
X230857D02*
Y200190D01*
Y207810D02*
Y221000D01*
X249143Y207810D02*
Y221000D01*
Y187000D02*
Y200190D01*
X266857Y221000D02*
X285145D01*
X266857Y187000D02*
X285145D01*
X266857D02*
Y200190D01*
Y207810D02*
Y221000D01*
X285143Y207810D02*
Y221000D01*
Y187000D02*
Y200190D01*
X322143Y187000D02*
Y200190D01*
Y207810D02*
Y221000D01*
X303857Y207810D02*
Y221000D01*
Y187000D02*
Y200190D01*
Y187000D02*
X322145D01*
X303857Y221000D02*
X322145D01*
X177760Y211190D02*
Y221350D01*
Y231510D02*
Y241670D01*
X270760Y396407D02*
X283950D01*
X291570D02*
X304760D01*
X291570Y414693D02*
X304760D01*
X270760D02*
X283950D01*
X270760Y396405D02*
Y414693D01*
X304760Y396405D02*
Y414693D01*
X162490Y349773D02*
X175680D01*
X141680D02*
X154870D01*
X141680Y331487D02*
X154870D01*
X162490D02*
X175680D01*
Y349775D01*
X141680Y331487D02*
Y349775D01*
X196810Y454143D02*
X210000D01*
X176000D02*
X189190D01*
X176000Y435857D02*
X189190D01*
X196810D02*
X210000D01*
Y454145D01*
X176000Y435857D02*
Y454145D01*
X314030Y308160D02*
X314030Y298000D01*
X314030Y277680D02*
X314030Y287840D01*
X165030Y189753D02*
X178220D01*
X144220D02*
X157410D01*
X144220Y171467D02*
X157410D01*
X165030D02*
X178220D01*
Y189755D01*
X144220Y171467D02*
Y189755D01*
X98737Y139970D02*
Y153160D01*
Y119160D02*
Y132350D01*
X117023Y119160D02*
Y132350D01*
Y139970D02*
Y153160D01*
X98735D02*
X117023D01*
X98735Y119160D02*
X117023D01*
X227580Y322747D02*
X240770D01*
X248390D02*
X261580Y322747D01*
X248390Y341033D02*
X261580D01*
X227580D02*
X240770D01*
X227580Y322745D02*
Y341033D01*
X261580Y322745D02*
Y341033D01*
D13*
X184785Y251830D02*
G03*
X184785Y251830I-1545J0D01*
G01*
X321055Y318320D02*
G03*
X321055Y318320I-1545J0D01*
G01*
D14*
X222130Y429580D02*
G03*
X222130Y429580I-1250J0D01*
G01*
D15*
X426920Y103000D02*
X430730D01*
X433270D02*
X437080D01*
X433270Y96650D02*
Y109350D01*
X430730Y96650D02*
Y109350D01*
X393920Y457000D02*
X397730D01*
X400270D02*
X404080D01*
X400270Y450650D02*
Y463350D01*
X397730Y450650D02*
Y463350D01*
X473000Y55920D02*
Y59730D01*
Y62270D02*
Y66080D01*
X466650Y62270D02*
X479350D01*
X466650Y59730D02*
X479350D01*
X441000Y55920D02*
Y59730D01*
Y62270D02*
Y66080D01*
X434650Y62270D02*
X447350D01*
X434650Y59730D02*
X447350D01*
X484270Y103000D02*
X488080D01*
X477920D02*
X481730D01*
Y96650D02*
Y109350D01*
X484270Y96650D02*
Y109350D01*
X496270Y428000D02*
X500080D01*
X489920D02*
X493730D01*
Y421650D02*
Y434350D01*
X496270Y421650D02*
Y434350D01*
X473000Y471270D02*
Y475080D01*
Y464920D02*
Y468730D01*
X466650D02*
X479350D01*
X466650Y471270D02*
X479350D01*
X441000D02*
Y475080D01*
Y464920D02*
Y468730D01*
X434650D02*
X447350D01*
X434650Y471270D02*
X447350D01*
X240476Y133000D02*
X243524D01*
X237501Y141499D02*
X246501D01*
X246499Y124501D02*
X246501Y124502D01*
X237501Y124501D02*
X246499D01*
X237501D02*
Y130460D01*
Y135540D02*
Y141499D01*
X246499Y124501D02*
Y130460D01*
Y135540D02*
Y141499D01*
X451601Y416599D02*
Y433099D01*
X460601Y416599D02*
Y433099D01*
X451601Y416599D02*
X460601D01*
X451601Y433099D02*
X460601D01*
X236190Y202730D02*
X243810D01*
X236190Y205270D02*
X243810D01*
X240000D02*
Y206540D01*
Y201460D02*
Y202730D01*
X253428Y212286D02*
X262318D01*
X253428D02*
X257746Y208222D01*
X252920D02*
X263080D01*
X258254D02*
X262318Y212286D01*
X331254Y208222D02*
X335318Y212286D01*
X325920Y208222D02*
X336080D01*
X326428Y212286D02*
X330746Y208222D01*
X326428Y212286D02*
X335318D01*
X272190Y202730D02*
X279810D01*
X272190Y205270D02*
X279810D01*
X276000D02*
Y206540D01*
Y201460D02*
Y202730D01*
X290428Y212286D02*
X299318D01*
X290428D02*
X294746Y208222D01*
X289920D02*
X300080D01*
X295254D02*
X299318Y212286D01*
X313000Y201460D02*
Y202730D01*
Y205270D02*
Y206540D01*
X309190Y205270D02*
X316810D01*
X309190Y202730D02*
X316810D01*
X161515Y414746D02*
X165579Y410682D01*
X161515Y409920D02*
Y420080D01*
Y415254D02*
X165579Y419572D01*
X165579Y410682D02*
X165579Y419572D01*
X161515Y398246D02*
X165579Y394182D01*
X161515Y393420D02*
Y403580D01*
Y398754D02*
X165579Y403072D01*
Y394182D02*
Y403072D01*
X236000Y419920D02*
Y423730D01*
Y426270D02*
Y430080D01*
X229650Y426270D02*
X242350D01*
X229650Y423730D02*
X242350D01*
X143920Y436000D02*
X147730D01*
X150270D02*
X154080D01*
X150270Y429650D02*
Y442350D01*
X147730Y429650D02*
Y442350D01*
X117459Y154331D02*
Y170831D01*
X108459Y154331D02*
Y170831D01*
X117459D01*
X108459Y154331D02*
X117459D01*
X287760Y352460D02*
X287760Y339760D01*
X290300Y339760D02*
Y352460D01*
X290300Y346110D02*
X294110D01*
X283950D02*
X287760D01*
Y373800D02*
Y386500D01*
X290300Y373800D02*
Y386500D01*
Y380150D02*
X294110D01*
X283950D02*
X287760D01*
X363371Y122691D02*
Y131691D01*
X379871Y122691D02*
Y131691D01*
X363371D02*
X379871D01*
X363371Y122691D02*
X379871D01*
X363371Y226831D02*
Y235831D01*
X379871Y226831D02*
Y235831D01*
X363371D02*
X379871D01*
X363371Y226831D02*
X379871D01*
X363371Y330971D02*
Y339971D01*
X379871Y330971D02*
Y339971D01*
X363371D02*
X379871D01*
X363371Y330971D02*
X379871D01*
X451189Y207591D02*
X460189D01*
X451189Y224091D02*
X460189D01*
X451189Y207591D02*
Y224091D01*
X460189Y207591D02*
Y224091D01*
X451189Y311731D02*
X460189D01*
X451189Y328231D02*
X460189D01*
X451189Y311731D02*
Y328231D01*
X460189Y311731D02*
Y328231D01*
X116379Y172299D02*
Y181299D01*
X99879Y172299D02*
Y181299D01*
Y172299D02*
X116379D01*
X99879Y181299D02*
X116379D01*
X159950Y313960D02*
X163760D01*
X153600D02*
X157410D01*
Y307610D02*
Y320310D01*
X159950Y307610D02*
Y320310D01*
Y279670D02*
X163760D01*
X153600D02*
X157410D01*
Y273320D02*
Y286020D01*
X159950Y273320D02*
Y286020D01*
X193500Y208810D02*
Y212620D01*
X193500Y202460D02*
Y206270D01*
X187150Y206270D02*
X199850D01*
X187150Y208810D02*
X199850D01*
X217630D02*
Y212620D01*
Y202460D02*
Y206270D01*
X211280Y206270D02*
X223980D01*
X211280Y208810D02*
X223980D01*
X107299Y165370D02*
Y171329D01*
Y154331D02*
Y160290D01*
X98301Y165370D02*
Y171329D01*
Y154331D02*
Y160290D01*
Y154331D02*
X107299D01*
X107301Y154332D01*
X98301Y171329D02*
X107301D01*
X101276Y162830D02*
X104324D01*
X334999Y304540D02*
Y310499D01*
X334999Y299460D02*
X334999Y293501D01*
X326001Y304540D02*
Y310499D01*
Y293501D02*
Y299460D01*
Y293501D02*
X334999D01*
X335001Y293502D01*
X326001Y310499D02*
X335001D01*
X328976Y302000D02*
X332024Y302000D01*
X285220Y405550D02*
X286490Y405550D01*
X289030Y405550D02*
X290300D01*
X289030Y401740D02*
Y409360D01*
X286490Y401740D02*
X286490Y409360D01*
X159950Y340630D02*
X161220D01*
X156140D02*
X157410D01*
Y336820D02*
Y344440D01*
X159950Y336820D02*
Y344440D01*
X194270Y445000D02*
X195540D01*
X190460D02*
X191730D01*
Y441190D02*
Y448810D01*
X194270Y441190D02*
Y448810D01*
X336863Y429197D02*
X345863D01*
X336863Y412697D02*
X345863Y412697D01*
X345863Y429197D02*
X345863Y412697D01*
X336863Y412697D02*
Y429197D01*
X336772Y446828D02*
X345772D01*
X336772Y430328D02*
X345772Y430328D01*
Y446828D01*
X336772Y430328D02*
Y446828D01*
X117351Y250069D02*
X126351D01*
X117351Y233569D02*
X126351D01*
Y250069D01*
X117351Y233569D02*
Y250069D01*
X135429Y172299D02*
Y181299D01*
X118929Y172299D02*
Y181299D01*
Y172299D02*
X135429D01*
X118929Y181299D02*
X135429D01*
X326001Y328499D02*
X335001D01*
X326001Y311999D02*
X335001D01*
Y328499D01*
X326001Y311999D02*
Y328499D01*
X316029Y293911D02*
X325029D01*
X316029Y310411D02*
X325029D01*
X316029D02*
X316029Y293911D01*
X325029D02*
Y310411D01*
X211499Y435501D02*
X220499D01*
X211499Y452001D02*
X220499D01*
X211499Y435501D02*
Y452001D01*
X220499Y435501D02*
Y452001D01*
X58350Y327930D02*
X62160D01*
X64700D02*
X68510D01*
X64700Y321580D02*
Y334280D01*
X62160Y321580D02*
Y334280D01*
X58350Y193310D02*
X62160D01*
X64700D02*
X68510D01*
X64700Y186960D02*
Y199660D01*
X62160Y186960D02*
Y199660D01*
X58350Y294910D02*
X62160D01*
X64700D02*
X68510D01*
X64700Y288560D02*
Y301260D01*
X62160Y288560D02*
Y301260D01*
X58350Y260620D02*
X62160D01*
X64700D02*
X68510D01*
X64700Y254270D02*
Y266970D01*
X62160Y254270D02*
Y266970D01*
X58350Y362220D02*
X62160D01*
X64700D02*
X68510D01*
X64700Y355870D02*
Y368570D01*
X62160Y355870D02*
Y368570D01*
X58350Y226330D02*
X62160D01*
X64700D02*
X68510D01*
X64700Y219980D02*
Y232680D01*
X62160Y219980D02*
Y232680D01*
X162490Y180610D02*
X163760D01*
X158680D02*
X159950D01*
Y176800D02*
Y184420D01*
X162490Y176800D02*
Y184420D01*
X107880Y137430D02*
Y138700D01*
Y133620D02*
Y134890D01*
X104070D02*
X111690D01*
X104070Y137430D02*
X111690D01*
X242040Y331890D02*
X243310D01*
X245850D02*
X247120D01*
X245850Y328080D02*
Y335700D01*
X243310Y328080D02*
Y335700D01*
D16*
X250380Y231082D02*
X265620D01*
X250380Y217874D02*
Y231082D01*
X265620Y217874D02*
Y231082D01*
X261048Y188918D02*
X265620Y193490D01*
Y201364D01*
X250380Y193236D02*
X250380Y201364D01*
X250380Y193236D02*
X254698Y188918D01*
X261048Y188918D01*
X327698Y188918D02*
X334048Y188918D01*
X323380Y193236D02*
X327698Y188918D01*
X323380Y193236D02*
X323380Y201364D01*
X338620Y193490D02*
Y201364D01*
X334048Y188918D02*
X338620Y193490D01*
Y217874D02*
Y231082D01*
X323380Y217874D02*
Y231082D01*
X338620D01*
X287380D02*
X302620D01*
X287380Y217874D02*
Y231082D01*
X302620Y217874D02*
Y231082D01*
X298048Y188918D02*
X302620Y193490D01*
Y201364D01*
X287380Y193236D02*
X287380Y201364D01*
X287380Y193236D02*
X291698Y188918D01*
X298048Y188918D01*
X142211Y411952D02*
Y418302D01*
X146529Y422620D01*
X154657Y422620D01*
X146783Y407380D02*
X154657Y407380D01*
X142211Y411952D02*
X146783Y407380D01*
X171167Y407380D02*
X184375Y407380D01*
X171167Y422620D02*
X184375Y422620D01*
Y407380D02*
Y422620D01*
X142211Y395452D02*
Y401802D01*
X146529Y406120D01*
X154657Y406120D01*
X146783Y390880D02*
X154657D01*
X142211Y395452D02*
X146783Y390880D01*
X171167D02*
X184375D01*
X171167Y406120D02*
X184375D01*
Y390880D02*
Y406120D01*
M02*
