G04*
G04 #@! TF.GenerationSoftware,Altium Limited,Altium Designer,23.8.1 (32)*
G04*
G04 Layer_Physical_Order=4*
G04 Layer_Color=16711680*
%FSLAX44Y44*%
%MOMM*%
G71*
G04*
G04 #@! TF.SameCoordinates,050FA7AA-ABA3-4C18-851E-56E06D371AC9*
G04*
G04*
G04 #@! TF.FilePolarity,Positive*
G04*
G01*
G75*
%ADD10C,0.1000*%
%ADD11C,0.2000*%
%ADD16R,0.4700X0.5200*%
%ADD22R,0.5200X0.4700*%
%ADD34C,1.2000*%
%ADD35R,1.2000X1.2000*%
%ADD36C,3.2000*%
%ADD37C,0.3000*%
%ADD42C,0.4000*%
%ADD43C,0.3000*%
%ADD45C,0.5000*%
%ADD49R,1.5000X1.3000*%
G04:AMPARAMS|DCode=50|XSize=0.55mm|YSize=0.8mm|CornerRadius=0.0495mm|HoleSize=0mm|Usage=FLASHONLY|Rotation=180.000|XOffset=0mm|YOffset=0mm|HoleType=Round|Shape=RoundedRectangle|*
%AMROUNDEDRECTD50*
21,1,0.5500,0.7010,0,0,180.0*
21,1,0.4510,0.8000,0,0,180.0*
1,1,0.0990,-0.2255,0.3505*
1,1,0.0990,0.2255,0.3505*
1,1,0.0990,0.2255,-0.3505*
1,1,0.0990,-0.2255,-0.3505*
%
%ADD50ROUNDEDRECTD50*%
%ADD51R,0.4500X1.0000*%
G04:AMPARAMS|DCode=52|XSize=1.8052mm|YSize=0.6098mm|CornerRadius=0.3049mm|HoleSize=0mm|Usage=FLASHONLY|Rotation=270.000|XOffset=0mm|YOffset=0mm|HoleType=Round|Shape=RoundedRectangle|*
%AMROUNDEDRECTD52*
21,1,1.8052,0.0000,0,0,270.0*
21,1,1.1954,0.6098,0,0,270.0*
1,1,0.6098,0.0000,-0.5977*
1,1,0.6098,0.0000,0.5977*
1,1,0.6098,0.0000,0.5977*
1,1,0.6098,0.0000,-0.5977*
%
%ADD52ROUNDEDRECTD52*%
%ADD53R,0.6098X1.8052*%
G36*
X141500Y215249D02*
X141451D01*
Y207049D01*
X141500D01*
Y190000D01*
X123500D01*
Y224500D01*
X141500D01*
Y215249D01*
D02*
G37*
G36*
X371200Y84400D02*
X327844D01*
X326048Y86196D01*
X326152Y343100D01*
X371200D01*
Y84400D01*
D02*
G37*
G36*
X322500Y120000D02*
X308003D01*
X306796Y120500D01*
X305204D01*
X303997Y120000D01*
X291298D01*
X289504Y121798D01*
X289677Y198951D01*
X303951D01*
Y184988D01*
X303109Y184146D01*
X302500Y182676D01*
Y181084D01*
X303109Y179614D01*
X304234Y178489D01*
X305704Y177880D01*
X307296D01*
X308766Y178489D01*
X309891Y179614D01*
X310500Y181084D01*
Y182676D01*
X309891Y184146D01*
X309049Y184988D01*
Y200328D01*
X308855Y201304D01*
X308302Y202131D01*
Y203869D01*
X308855Y204696D01*
X309049Y205672D01*
Y219812D01*
X309891Y220654D01*
X310500Y222124D01*
Y223716D01*
X309891Y225186D01*
X308766Y226311D01*
X307296Y226920D01*
X305704D01*
X304234Y226311D01*
X303109Y225186D01*
X302500Y223716D01*
Y222124D01*
X303109Y220654D01*
X303951Y219812D01*
Y207049D01*
X291493D01*
X289699Y208847D01*
X289913Y304266D01*
X290398Y304751D01*
X304451D01*
Y291108D01*
X303609Y290266D01*
X303000Y288796D01*
Y287204D01*
X303609Y285734D01*
X304734Y284609D01*
X306204Y284000D01*
X307796D01*
X309266Y284609D01*
X310391Y285734D01*
X311000Y287204D01*
Y288796D01*
X310391Y290266D01*
X309549Y291108D01*
Y306128D01*
X309355Y307104D01*
X308802Y307931D01*
Y309669D01*
X309355Y310496D01*
X309549Y311472D01*
Y325812D01*
X310391Y326654D01*
X311000Y328124D01*
Y329716D01*
X310391Y331186D01*
X309266Y332311D01*
X307796Y332920D01*
X306204D01*
X304734Y332311D01*
X303609Y331186D01*
X303000Y329716D01*
Y328124D01*
X303609Y326654D01*
X304451Y325812D01*
Y312849D01*
X291730D01*
X289936Y314647D01*
X290000Y343000D01*
X322500D01*
Y120000D01*
D02*
G37*
D10*
X194953Y146476D02*
G03*
X194953Y146474I4547J147D01*
G01*
X194951Y146623D02*
G03*
X194953Y146476I4549J0D01*
G01*
X205985Y292000D02*
X215500D01*
X194649Y280664D02*
X205985Y292000D01*
X194649Y265343D02*
Y280664D01*
X190752Y261446D02*
X194649Y265343D01*
X185874Y261446D02*
X190752D01*
X180600Y256172D02*
X185874Y261446D01*
X180600Y250195D02*
Y256172D01*
X190100Y189890D02*
Y195868D01*
Y182900D02*
Y183913D01*
X194951Y146623D02*
Y160461D01*
Y146476D02*
Y146623D01*
X194953Y146474D02*
X194969Y145987D01*
X194951Y146476D02*
X194953Y146474D01*
X194951Y160461D02*
X201750Y167260D01*
Y176657D01*
X199043Y179364D02*
X201750Y176657D01*
X194649Y179364D02*
X199043D01*
X190100Y183913D02*
X194649Y179364D01*
X190100Y183913D02*
Y189890D01*
X190000Y140190D02*
X194707Y144897D01*
X194969Y145159D01*
Y145987D01*
X187150Y173600D02*
X187250D01*
X189100Y171750D01*
X185551Y175199D02*
X187150Y173600D01*
X189100Y171500D02*
Y171750D01*
X185551Y175199D02*
Y197752D01*
X190100Y202301D01*
Y212900D01*
X185149Y200417D02*
Y229851D01*
X180600Y195868D02*
X185149Y200417D01*
X180600Y189890D02*
Y195868D01*
X180550Y234450D02*
X185149Y229851D01*
X180600Y171600D02*
Y189890D01*
X190100Y195868D02*
X194649Y200417D01*
Y230694D01*
X197000Y233045D01*
Y234000D01*
X190000Y129590D02*
Y140190D01*
X183631Y141535D02*
X185049Y142952D01*
Y162248D01*
X181918Y141535D02*
X183631D01*
X180500Y234500D02*
X180550Y234450D01*
X180500Y171500D02*
X180600Y171600D01*
X180500Y166796D02*
Y171500D01*
Y166796D02*
X185049Y162248D01*
X180500Y129590D02*
Y140117D01*
X181918Y141535D01*
D11*
X129400Y127700D02*
Y133600D01*
Y127700D02*
X134200Y122900D01*
X153900D01*
X271000Y161000D02*
X282000D01*
X306500Y181880D02*
Y200328D01*
X305328Y201500D02*
X306500Y200328D01*
X204500Y76400D02*
X255800D01*
X181600Y99300D02*
X204500Y76400D01*
X143871Y307329D02*
X159629D01*
X135200Y316000D02*
X143871Y307329D01*
X159629D02*
X172000Y294957D01*
Y167500D02*
Y294957D01*
X153750Y252050D02*
X158500Y247300D01*
X136650Y252050D02*
X153750D01*
X115200Y273500D02*
X136650Y252050D01*
X158500Y244800D02*
X163926Y239374D01*
X158500Y244800D02*
Y247300D01*
X115200Y273500D02*
Y316000D01*
X95200Y289000D02*
X134328Y249872D01*
Y222128D02*
Y249872D01*
X95200Y289000D02*
Y316000D01*
X157500Y193700D02*
X161500Y197700D01*
Y211200D01*
X149000Y240000D02*
X154700Y234300D01*
X149000Y240000D02*
Y246050D01*
X163926Y234774D02*
Y239374D01*
Y234774D02*
X164500Y234200D01*
X215350Y300750D02*
Y315850D01*
Y300750D02*
X215500Y300600D01*
X215200Y316000D02*
X215350Y315850D01*
X215500Y300600D02*
X223800D01*
X223850Y287150D02*
Y291950D01*
Y287150D02*
X223900Y287100D01*
X223800Y292000D02*
X223850Y291950D01*
X207757Y204500D02*
X305328D01*
X209000Y201500D02*
X305328D01*
X203500Y199500D02*
X207000D01*
X203500Y202500D02*
X205757D01*
X207757Y204500D01*
X207000Y199500D02*
X209000Y201500D01*
X199600Y206400D02*
X203500Y202500D01*
X305328Y204500D02*
X306500Y205672D01*
Y222920D01*
X134300Y222100D02*
X134328Y222128D01*
X158500Y220550D02*
Y228200D01*
X164500Y234200D01*
X189100Y231500D02*
X189600Y231000D01*
Y213400D02*
X190100Y212900D01*
X189600Y213400D02*
Y231000D01*
X172000Y167500D02*
X178451Y161049D01*
Y154649D02*
X180500Y152600D01*
X178451Y154649D02*
Y161049D01*
X197750Y175000D02*
X198000D01*
X196938D02*
X197750D01*
X194450Y172512D02*
X196938Y175000D01*
X189100Y171500D02*
X190112Y172512D01*
X194450D01*
X189800Y273505D02*
Y298200D01*
X189500Y298500D02*
X189800Y298200D01*
Y273505D02*
X190100Y273205D01*
X189550Y153050D02*
Y171050D01*
X189100Y171500D02*
X189550Y171050D01*
Y153050D02*
X190000Y152600D01*
X199500Y135500D02*
X203500Y139500D01*
X266000Y95000D02*
X306000D01*
Y75580D02*
Y95000D01*
X199500Y146500D02*
X203500Y142500D01*
X199500Y146500D02*
Y152600D01*
X203500Y139500D02*
X221500D01*
X266000Y95000D01*
X199500Y129590D02*
Y135500D01*
X203500Y142500D02*
X223000D01*
X180550Y234450D02*
Y250145D01*
Y231550D02*
Y234450D01*
X189100Y111000D02*
X189926Y110174D01*
Y106574D02*
Y110174D01*
Y106574D02*
X190500Y106000D01*
X180500Y111000D02*
Y129590D01*
X190100Y244218D02*
X196426Y237892D01*
Y234574D02*
X197000Y234000D01*
X190100Y244218D02*
Y250195D01*
X196426Y234574D02*
Y237892D01*
X180500Y231500D02*
X180550Y231550D01*
Y250145D02*
X180600Y250195D01*
X139500Y231000D02*
Y246050D01*
X145301Y211149D02*
Y225199D01*
X139500Y231000D02*
X145301Y225199D01*
Y211149D02*
X145326Y211175D01*
X152875D02*
X152900Y211200D01*
X145326Y211175D02*
X152875D01*
X175000Y224477D02*
X180600Y218877D01*
X175000Y224477D02*
Y296200D01*
X155200Y316000D02*
X175000Y296200D01*
X180600Y212900D02*
Y218877D01*
X175200Y314072D02*
Y316000D01*
X180600Y273205D02*
Y308672D01*
X175200Y314072D02*
X180600Y308672D01*
X223000Y142500D02*
X267500Y98000D01*
X306000D01*
Y116500D01*
X199600Y195600D02*
X203500Y199500D01*
X199600Y189890D02*
Y195600D01*
Y206400D02*
Y212900D01*
X221200Y260700D02*
X227700Y267200D01*
X249243D01*
X203000Y260700D02*
X221200D01*
X202900Y263700D02*
X219900D01*
X226400Y270200D01*
X199600Y267000D02*
Y273205D01*
Y267000D02*
X202900Y263700D01*
X226400Y270200D02*
X248000D01*
X249243Y267200D02*
X289343Y307300D01*
X248000Y270200D02*
X288100Y310300D01*
X305828D01*
X199600Y250195D02*
Y257281D01*
X203000Y260681D01*
Y260700D01*
X307000Y311472D02*
Y328920D01*
Y288000D02*
Y306128D01*
X289343Y307300D02*
X305828D01*
Y310300D02*
X307000Y311472D01*
X305828Y307300D02*
X307000Y306128D01*
D16*
X180500Y171500D02*
D03*
X189100D02*
D03*
X136701Y211149D02*
D03*
X145301D02*
D03*
X152900Y211200D02*
D03*
X161500D02*
D03*
X128900Y170300D02*
D03*
X120300D02*
D03*
X189100Y231500D02*
D03*
X180500D02*
D03*
X189100Y111000D02*
D03*
X180500D02*
D03*
D22*
X95500Y211900D02*
D03*
Y203300D02*
D03*
X215500Y292000D02*
D03*
Y300600D02*
D03*
X223800D02*
D03*
Y292000D02*
D03*
D34*
X95200Y39900D02*
D03*
X115200D02*
D03*
X135200D02*
D03*
X155200D02*
D03*
X175200D02*
D03*
X195200D02*
D03*
X215200D02*
D03*
X235200D02*
D03*
X95200Y59900D02*
D03*
X115200D02*
D03*
X135200D02*
D03*
X155200D02*
D03*
X175200D02*
D03*
X195200D02*
D03*
X215200D02*
D03*
X235200D02*
D03*
X255200Y39900D02*
D03*
Y59900D02*
D03*
X275200Y39900D02*
D03*
X95200Y316000D02*
D03*
X115200D02*
D03*
X135200D02*
D03*
X155200D02*
D03*
X175200D02*
D03*
X195200D02*
D03*
X215200D02*
D03*
X235200D02*
D03*
X95200Y336000D02*
D03*
X115200D02*
D03*
X135200D02*
D03*
X155200D02*
D03*
X175200D02*
D03*
X195200D02*
D03*
X215200D02*
D03*
X235200D02*
D03*
X255200Y316000D02*
D03*
Y336000D02*
D03*
X275200Y316000D02*
D03*
D35*
Y59900D02*
D03*
Y336000D02*
D03*
D36*
X48000Y323100D02*
D03*
Y53000D02*
D03*
X428000Y323100D02*
D03*
Y53000D02*
D03*
D37*
X38700Y313900D02*
D03*
X57200D02*
D03*
X35000Y323100D02*
D03*
X48000Y336100D02*
D03*
X61000Y323100D02*
D03*
X48000Y310100D02*
D03*
X38300Y331900D02*
D03*
X58100Y331600D02*
D03*
Y61500D02*
D03*
X38300Y61800D02*
D03*
X48000Y40000D02*
D03*
X61000Y53000D02*
D03*
X48000Y66000D02*
D03*
X35000Y53000D02*
D03*
X57200Y43800D02*
D03*
X38700D02*
D03*
X438100Y331600D02*
D03*
X418300Y331900D02*
D03*
X428000Y310100D02*
D03*
X441000Y323100D02*
D03*
X428000Y336100D02*
D03*
X415000Y323100D02*
D03*
X437200Y313900D02*
D03*
X418700D02*
D03*
X438100Y61500D02*
D03*
X418300Y61800D02*
D03*
X428000Y40000D02*
D03*
X441000Y53000D02*
D03*
X428000Y66000D02*
D03*
X415000Y53000D02*
D03*
X437200Y43800D02*
D03*
X418700D02*
D03*
D42*
X145500Y160000D02*
Y160271D01*
X142000Y163771D02*
X145500Y160271D01*
X142000Y163771D02*
Y177700D01*
X116380Y174470D02*
X120300Y170550D01*
X116380Y174470D02*
Y181080D01*
X120300Y170300D02*
Y170550D01*
X116130Y181330D02*
X116380Y181080D01*
D43*
X116130Y181330D02*
Y198639D01*
X115000Y199769D02*
Y200757D01*
Y199769D02*
X116130Y198639D01*
X113243Y199000D02*
X115000Y200757D01*
X100050Y199000D02*
X113243D01*
X96350Y202450D02*
X96600D01*
X95500Y203300D02*
X96350Y202450D01*
X96600D02*
X100050Y199000D01*
X115000Y200757D02*
Y225000D01*
X175900Y110600D02*
X180100D01*
X180500Y111000D01*
X163250Y123250D02*
X175900Y110600D01*
X163250Y123250D02*
Y176450D01*
X142000Y196700D02*
X143000D01*
X163250Y176450D01*
X105880Y211900D02*
X106630Y211150D01*
X95500Y211900D02*
X105880D01*
X106630Y209330D02*
Y211150D01*
X126380Y177830D02*
X127143D01*
X125630Y178580D02*
X126380Y177830D01*
X125630Y178580D02*
Y181330D01*
X128900Y170300D02*
Y176073D01*
X127143Y177830D02*
X128900Y176073D01*
X129041Y163200D02*
Y170159D01*
X131500Y160200D02*
Y160741D01*
X128900Y170300D02*
X129041Y170159D01*
Y163200D02*
X131500Y160741D01*
X121915Y160200D02*
X131500D01*
X111880Y170235D02*
X121915Y160200D01*
X111880Y170235D02*
Y173330D01*
X106630Y178580D02*
X111880Y173330D01*
X106630Y178580D02*
Y181330D01*
D45*
X129400Y133600D02*
D03*
X156500Y160200D02*
D03*
X149000Y171898D02*
D03*
X143006Y178390D02*
D03*
X137006Y172288D02*
D03*
X137000Y185000D02*
D03*
X111000Y254000D02*
D03*
X122000Y247000D02*
D03*
Y234000D02*
D03*
X111000Y239000D02*
D03*
X115000Y225000D02*
D03*
X110500Y77000D02*
D03*
Y97500D02*
D03*
Y117000D02*
D03*
Y137000D02*
D03*
X101000Y87000D02*
D03*
Y107000D02*
D03*
Y127000D02*
D03*
Y147000D02*
D03*
X55000Y142000D02*
D03*
Y162000D02*
D03*
Y182000D02*
D03*
Y202000D02*
D03*
Y221000D02*
D03*
Y242000D02*
D03*
X282000Y161000D02*
D03*
X271000D02*
D03*
X143250Y138500D02*
D03*
X150750D02*
D03*
X306500Y181880D02*
D03*
X191000Y80000D02*
D03*
X174000D02*
D03*
X156000Y102000D02*
D03*
Y80000D02*
D03*
X44000Y133000D02*
D03*
Y153000D02*
D03*
Y173000D02*
D03*
Y193000D02*
D03*
Y213000D02*
D03*
Y234000D02*
D03*
X255800Y76400D02*
D03*
X181600Y99300D02*
D03*
X269700Y75000D02*
D03*
X208000Y277000D02*
D03*
X216000D02*
D03*
Y269000D02*
D03*
X208000D02*
D03*
X210000Y256000D02*
D03*
X218000D02*
D03*
X166000Y247000D02*
D03*
Y255000D02*
D03*
X158000D02*
D03*
Y263000D02*
D03*
X166000D02*
D03*
Y271000D02*
D03*
X158000D02*
D03*
X157500Y193700D02*
D03*
X154700Y234300D02*
D03*
X197700Y296100D02*
D03*
X223900Y287100D02*
D03*
X164500Y234200D02*
D03*
X145500Y160000D02*
D03*
X197750Y175000D02*
D03*
X189500Y298500D02*
D03*
X190500Y106000D02*
D03*
X197000Y234000D02*
D03*
X131500Y160200D02*
D03*
X245000Y256000D02*
D03*
X158250Y138500D02*
D03*
X153900Y122900D02*
D03*
X318000Y125000D02*
D03*
X310000D02*
D03*
X302000D02*
D03*
X294000D02*
D03*
X318000Y232000D02*
D03*
X310000D02*
D03*
X302000D02*
D03*
X294000D02*
D03*
X318000Y338000D02*
D03*
X310000D02*
D03*
X302000D02*
D03*
X294000D02*
D03*
X306000Y116500D02*
D03*
Y75580D02*
D03*
X306500Y222920D02*
D03*
X307000Y288000D02*
D03*
Y328920D02*
D03*
X360000Y91000D02*
D03*
X350000D02*
D03*
X340000D02*
D03*
X360000Y101000D02*
D03*
X350000D02*
D03*
X340000D02*
D03*
X360000Y111000D02*
D03*
X350000D02*
D03*
X340000D02*
D03*
X360000Y121000D02*
D03*
X350000D02*
D03*
X340000D02*
D03*
X360000Y201000D02*
D03*
X350000D02*
D03*
X340000D02*
D03*
X360000Y211000D02*
D03*
X350000D02*
D03*
X340000D02*
D03*
X360000Y221000D02*
D03*
X350000D02*
D03*
X340000D02*
D03*
X360000Y231000D02*
D03*
X350000D02*
D03*
X340000D02*
D03*
X360000Y306000D02*
D03*
X350000D02*
D03*
X340000D02*
D03*
X360000Y316000D02*
D03*
X350000D02*
D03*
X340000D02*
D03*
X360000Y326000D02*
D03*
X350000D02*
D03*
X340000D02*
D03*
X360000Y336000D02*
D03*
X350000D02*
D03*
X340000D02*
D03*
X214300Y192700D02*
D03*
X217200Y224700D02*
D03*
X208100Y224600D02*
D03*
D49*
X142000Y177700D02*
D03*
Y196700D02*
D03*
D50*
X139500Y220550D02*
D03*
X158500D02*
D03*
Y246050D02*
D03*
X149000D02*
D03*
X139500Y246050D02*
D03*
D51*
X106630Y181330D02*
D03*
X125630D02*
D03*
X116130D02*
D03*
X125630Y209330D02*
D03*
X106630Y209330D02*
D03*
D52*
X180600Y250195D02*
D03*
X190100D02*
D03*
X199600D02*
D03*
Y273205D02*
D03*
X190100D02*
D03*
X190100Y212900D02*
D03*
X199600D02*
D03*
Y189890D02*
D03*
X190100D02*
D03*
X180600D02*
D03*
X190000Y152600D02*
D03*
X199500D02*
D03*
Y129590D02*
D03*
X190000D02*
D03*
X180500D02*
D03*
D53*
X180600Y273205D02*
D03*
X180600Y212900D02*
D03*
X180500Y152600D02*
D03*
M02*
