M48
;Layer_Color=9474304
;FILE_FORMAT=4:4
METRIC,LZ
;TYPE=PLATED
T01F00S00C0.3000
T02F00S00C0.8000
T03F00S00C2.0500
%
T01
X00306Y0007558
Y001165
X0031Y00125
X00318
X00302
X00294
X0034Y00121
Y00111
Y00101
Y00091
X0035
X0036
Y00101
X0035
Y00111
X0036
Y00121
X0035
Y00201
X0036
Y00211
Y00221
X0035
Y00211
X0034
Y00221
Y00231
X0035
X0036
X00318Y00232
X0031
X00302
X00294
X003065Y0022292
Y0018188
X0034Y00201
Y00306
X0035
X0036
Y00316
X0035
X0034
Y00326
Y00336
X0035
Y00326
X0036
Y00336
X00318Y00338
X0031
X00302
X00294
X00307Y0032892
Y00288
X004187Y003139
X00415Y003231
X004183Y003319
X00428Y003361
X004381Y003316
X00441Y003231
X004372Y003139
X00428Y003101
Y00066
X004183Y000618
X00415Y00053
X004187Y000438
X00428Y0004
X004372Y000438
X00441Y00053
X004381Y000615
X002697Y00075
X002558Y000764
X00191Y0008
X00174
X00156
Y00102
X001539Y001229
X0015075Y001385
X0014325
X0015825
X001565Y001602
X001455Y0016
X001315Y001602
X00137006Y00172288
X00143006Y0017839
X00149Y00171898
X00137Y00185
X001575Y001937
X001547Y002343
X001645Y002342
X00166Y00247
Y00255
X00158
Y00263
Y00271
X00166
Y00263
X00208Y00269
Y00277
X00216
Y00269
X00218Y00256
X0021
X002081Y002246
X002172Y002247
X00197Y00234
X002143Y001927
X0019775Y00175
X001905Y00106
X001816Y000993
X001105Y000975
X00101Y00107
X001105Y00117
X00101Y00127
X001105Y00137
X00101Y00147
X001294Y001336
X00101Y00087
X001105Y00077
X000581Y000615
X00061Y00053
X000572Y000438
X00048Y0004
X000387Y000438
X00035Y00053
X000383Y000618
X00048Y00066
X00044Y00133
X00055Y00142
Y00162
Y00182
X00044Y00173
Y00193
X00055Y00202
Y00221
X00044Y00213
Y00234
X00055Y00242
X00111Y00239
Y00254
X00122Y00247
Y00234
X00115Y00225
X00044Y00153
X00048Y003101
X000572Y003139
X00061Y003231
X000581Y003316
X00048Y003361
X000383Y003319
X00035Y003231
X000387Y003139
X001895Y002985
X001977Y002961
X002239Y002871
X00245Y00256
X00271Y00161
X00282
T02
X000952Y000399
X001152
X001352
X001552
X001752
X001952
X002152
X002352
X002552
Y000599
X002352
X002152
X001952
X001752
X001552
X001352
X001152
X000952
X002752
Y000399
Y00316
X002552
X002352
X002152
X001952
X001752
X001552
X001352
X001152
X000952
Y00336
X001152
X001352
X001552
X001752
X001952
X002152
X002352
X002552
X002752
T03
X00428Y00053
Y003231
X00048
Y00053
M30
