G04*
G04 #@! TF.GenerationSoftware,Altium Limited,Altium Designer,23.8.1 (32)*
G04*
G04 Layer_Color=255*
%FSLAX44Y44*%
%MOMM*%
G71*
G04*
G04 #@! TF.SameCoordinates,050FA7AA-ABA3-4C18-851E-56E06D371AC9*
G04*
G04*
G04 #@! TF.FilePolarity,Positive*
G04*
G01*
G75*
%ADD16R,0.4700X0.5200*%
%ADD22R,0.5200X0.4700*%
%ADD34C,1.2000*%
%ADD35R,1.2000X1.2000*%
%ADD36C,3.2000*%
%ADD49R,1.5000X1.3000*%
G04:AMPARAMS|DCode=50|XSize=0.55mm|YSize=0.8mm|CornerRadius=0.0495mm|HoleSize=0mm|Usage=FLASHONLY|Rotation=180.000|XOffset=0mm|YOffset=0mm|HoleType=Round|Shape=RoundedRectangle|*
%AMROUNDEDRECTD50*
21,1,0.5500,0.7010,0,0,180.0*
21,1,0.4510,0.8000,0,0,180.0*
1,1,0.0990,-0.2255,0.3505*
1,1,0.0990,0.2255,0.3505*
1,1,0.0990,0.2255,-0.3505*
1,1,0.0990,-0.2255,-0.3505*
%
%ADD50ROUNDEDRECTD50*%
%ADD51R,0.4500X1.0000*%
G04:AMPARAMS|DCode=52|XSize=1.8052mm|YSize=0.6098mm|CornerRadius=0.3049mm|HoleSize=0mm|Usage=FLASHONLY|Rotation=270.000|XOffset=0mm|YOffset=0mm|HoleType=Round|Shape=RoundedRectangle|*
%AMROUNDEDRECTD52*
21,1,1.8052,0.0000,0,0,270.0*
21,1,1.1954,0.6098,0,0,270.0*
1,1,0.6098,0.0000,-0.5977*
1,1,0.6098,0.0000,0.5977*
1,1,0.6098,0.0000,0.5977*
1,1,0.6098,0.0000,-0.5977*
%
%ADD52ROUNDEDRECTD52*%
%ADD53R,0.6098X1.8052*%
D16*
X180500Y171500D02*
D03*
X189100D02*
D03*
X136701Y211149D02*
D03*
X145301D02*
D03*
X152900Y211200D02*
D03*
X161500D02*
D03*
X128900Y170300D02*
D03*
X120300D02*
D03*
X189100Y231500D02*
D03*
X180500D02*
D03*
X189100Y111000D02*
D03*
X180500D02*
D03*
D22*
X95500Y211900D02*
D03*
Y203300D02*
D03*
X215500Y292000D02*
D03*
Y300600D02*
D03*
X223800D02*
D03*
Y292000D02*
D03*
D34*
X95200Y39900D02*
D03*
X115200D02*
D03*
X135200D02*
D03*
X155200D02*
D03*
X175200D02*
D03*
X195200D02*
D03*
X215200D02*
D03*
X235200D02*
D03*
X95200Y59900D02*
D03*
X115200D02*
D03*
X135200D02*
D03*
X155200D02*
D03*
X175200D02*
D03*
X195200D02*
D03*
X215200D02*
D03*
X235200D02*
D03*
X255200Y39900D02*
D03*
Y59900D02*
D03*
X275200Y39900D02*
D03*
X95200Y316000D02*
D03*
X115200D02*
D03*
X135200D02*
D03*
X155200D02*
D03*
X175200D02*
D03*
X195200D02*
D03*
X215200D02*
D03*
X235200D02*
D03*
X95200Y336000D02*
D03*
X115200D02*
D03*
X135200D02*
D03*
X155200D02*
D03*
X175200D02*
D03*
X195200D02*
D03*
X215200D02*
D03*
X235200D02*
D03*
X255200Y316000D02*
D03*
Y336000D02*
D03*
X275200Y316000D02*
D03*
D35*
Y59900D02*
D03*
Y336000D02*
D03*
D36*
X48000Y323100D02*
D03*
Y53000D02*
D03*
X428000Y323100D02*
D03*
Y53000D02*
D03*
D49*
X142000Y177700D02*
D03*
Y196700D02*
D03*
D50*
X139500Y220550D02*
D03*
X158500D02*
D03*
Y246050D02*
D03*
X149000D02*
D03*
X139500Y246050D02*
D03*
D51*
X106630Y181330D02*
D03*
X125630D02*
D03*
X116130D02*
D03*
X125630Y209330D02*
D03*
X106630Y209330D02*
D03*
D52*
X180600Y250195D02*
D03*
X190100D02*
D03*
X199600D02*
D03*
Y273205D02*
D03*
X190100D02*
D03*
X190100Y212900D02*
D03*
X199600D02*
D03*
Y189890D02*
D03*
X190100D02*
D03*
X180600D02*
D03*
X190000Y152600D02*
D03*
X199500D02*
D03*
Y129590D02*
D03*
X190000D02*
D03*
X180500D02*
D03*
D53*
X180600Y273205D02*
D03*
X180600Y212900D02*
D03*
X180500Y152600D02*
D03*
M02*
