G04*
G04 #@! TF.GenerationSoftware,Altium Limited,Altium Designer,23.8.1 (32)*
G04*
G04 Layer_Color=1930808*
%FSLAX44Y44*%
%MOMM*%
G71*
G04*
G04 #@! TF.SameCoordinates,92C49762-E6E1-4201-94AC-3A3CAB1C571E*
G04*
G04*
G04 #@! TF.FilePolarity,Positive*
G04*
G01*
G75*
%ADD10C,0.2000*%
D10*
X185970Y347430D02*
Y397430D01*
Y347430D02*
X253970D01*
Y397430D01*
X185970D02*
X253970D01*
X381990Y382810D02*
X449990D01*
X381990D02*
Y432810D01*
X449990D01*
Y382810D02*
Y432810D01*
Y278670D02*
Y328670D01*
X381990D02*
X449990D01*
X381990Y278670D02*
Y328670D01*
Y278670D02*
X449990D01*
X381990Y174530D02*
X449990D01*
X381990D02*
Y224530D01*
X449990D01*
Y174530D02*
Y224530D01*
X381380Y330840D02*
Y380840D01*
Y330840D02*
X449380D01*
Y380840D01*
X381380D02*
X449380D01*
X381380Y276700D02*
X449380D01*
Y226700D02*
Y276700D01*
X381380Y226700D02*
X449380D01*
X381380D02*
Y276700D01*
Y122560D02*
Y172560D01*
Y122560D02*
X449380D01*
Y172560D01*
X381380D02*
X449380D01*
X188530Y320490D02*
X262530D01*
X188530Y233490D02*
X262530D01*
Y320490D01*
X188530Y233490D02*
Y320490D01*
X309750Y416300D02*
Y455700D01*
X262250D02*
X309750D01*
X262250Y416300D02*
Y455700D01*
Y416300D02*
X309750D01*
X35430Y438480D02*
X91430D01*
Y382480D02*
Y438480D01*
X35430Y382480D02*
X91430D01*
X35430D02*
Y438480D01*
X468790Y349460D02*
Y405460D01*
Y349460D02*
X524790D01*
Y405460D01*
X468790D02*
X524790D01*
X470422Y243944D02*
Y299944D01*
Y243944D02*
X526422D01*
Y299944D01*
X470422D02*
X526422D01*
X35430Y117050D02*
Y173050D01*
Y117050D02*
X91430D01*
Y173050D01*
X35430D02*
X91430D01*
X471330Y142450D02*
Y198450D01*
Y142450D02*
X527330D01*
Y198450D01*
X471330D02*
X527330D01*
M02*
