G04*
G04 #@! TF.GenerationSoftware,Altium Limited,Altium Designer,23.8.1 (32)*
G04*
G04 Layer_Color=32896*
%FSLAX44Y44*%
%MOMM*%
G71*
G04*
G04 #@! TF.SameCoordinates,92C49762-E6E1-4201-94AC-3A3CAB1C571E*
G04*
G04*
G04 #@! TF.FilePolarity,Positive*
G04*
G01*
G75*
%ADD10C,0.2000*%
G36*
X332379Y365991D02*
X332555Y365986D01*
X332721Y365972D01*
X332874Y365958D01*
X333017Y365940D01*
X333146Y365921D01*
X333266Y365898D01*
X333377Y365875D01*
X333475Y365852D01*
X333558Y365829D01*
X333632Y365810D01*
X333692Y365792D01*
X333738Y365778D01*
X333770Y365764D01*
X333789Y365760D01*
X333798Y365755D01*
X333904Y365704D01*
X334002Y365649D01*
X334099Y365588D01*
X334182Y365524D01*
X334265Y365459D01*
X334334Y365390D01*
X334404Y365320D01*
X334464Y365256D01*
X334515Y365191D01*
X334561Y365135D01*
X334603Y365080D01*
X334635Y365034D01*
X334658Y364997D01*
X334677Y364964D01*
X334686Y364946D01*
X334690Y364941D01*
X334746Y364830D01*
X334792Y364715D01*
X334834Y364590D01*
X334871Y364470D01*
X334898Y364345D01*
X334926Y364225D01*
X334945Y364105D01*
X334963Y363989D01*
X334972Y363883D01*
X334982Y363781D01*
X334991Y363693D01*
X334995Y363615D01*
X335000Y363554D01*
Y363467D01*
X334995Y363296D01*
X334986Y363138D01*
X334968Y362986D01*
X334945Y362842D01*
X334917Y362709D01*
X334889Y362588D01*
X334857Y362477D01*
X334824Y362371D01*
X334792Y362283D01*
X334760Y362200D01*
X334732Y362135D01*
X334704Y362075D01*
X334681Y362034D01*
X334663Y362001D01*
X334653Y361978D01*
X334649Y361973D01*
X334579Y361872D01*
X334506Y361775D01*
X334431Y361692D01*
X334353Y361613D01*
X334274Y361539D01*
X334200Y361474D01*
X334126Y361419D01*
X334052Y361368D01*
X333983Y361322D01*
X333923Y361285D01*
X333867Y361257D01*
X333817Y361229D01*
X333780Y361211D01*
X333747Y361197D01*
X333729Y361192D01*
X333724Y361188D01*
X333613Y361151D01*
X333493Y361114D01*
X333373Y361086D01*
X333243Y361058D01*
X332989Y361021D01*
X332864Y361007D01*
X332744Y360993D01*
X332633Y360984D01*
X332527Y360975D01*
X332434Y360970D01*
X332351D01*
X332286Y360966D01*
X332259D01*
X332236D01*
X332217D01*
X332203D01*
X332199D01*
X332194D01*
X328496D01*
Y361812D01*
X332189D01*
X332407Y361816D01*
X332606Y361830D01*
X332786Y361849D01*
X332952Y361872D01*
X333100Y361904D01*
X333234Y361936D01*
X333350Y361973D01*
X333451Y362010D01*
X333544Y362047D01*
X333618Y362084D01*
X333683Y362117D01*
X333733Y362149D01*
X333770Y362172D01*
X333798Y362191D01*
X333812Y362205D01*
X333817Y362209D01*
X333891Y362288D01*
X333955Y362380D01*
X334011Y362477D01*
X334062Y362584D01*
X334099Y362695D01*
X334136Y362805D01*
X334163Y362916D01*
X334187Y363023D01*
X334200Y363129D01*
X334214Y363226D01*
X334224Y363309D01*
X334233Y363388D01*
Y363453D01*
X334237Y363499D01*
Y363541D01*
X334233Y363642D01*
X334228Y363735D01*
X334219Y363827D01*
X334205Y363915D01*
X334187Y363998D01*
X334168Y364072D01*
X334150Y364142D01*
X334131Y364206D01*
X334113Y364266D01*
X334094Y364317D01*
X334076Y364359D01*
X334057Y364396D01*
X334043Y364428D01*
X334034Y364447D01*
X334025Y364460D01*
Y364465D01*
X333983Y364534D01*
X333937Y364595D01*
X333891Y364655D01*
X333840Y364706D01*
X333789Y364756D01*
X333738Y364798D01*
X333641Y364872D01*
X333553Y364927D01*
X333516Y364950D01*
X333484Y364964D01*
X333456Y364978D01*
X333438Y364987D01*
X333424Y364997D01*
X333419D01*
X333340Y365024D01*
X333253Y365048D01*
X333156Y365066D01*
X333059Y365085D01*
X332855Y365112D01*
X332753Y365122D01*
X332656Y365131D01*
X332559Y365135D01*
X332471Y365140D01*
X332393Y365145D01*
X332323D01*
X332268Y365149D01*
X332226D01*
X332199D01*
X332189D01*
X328496D01*
Y365995D01*
X332194D01*
X332379Y365991D01*
D02*
G37*
G36*
X329333Y356690D02*
X329462Y356800D01*
X329601Y356912D01*
X329883Y357119D01*
X330026Y357217D01*
X330165Y357314D01*
X330299Y357402D01*
X330428Y357480D01*
X330548Y357554D01*
X330659Y357623D01*
X330761Y357679D01*
X330844Y357730D01*
X330914Y357767D01*
X330941Y357785D01*
X330964Y357799D01*
X330988Y357808D01*
X331001Y357817D01*
X331006Y357822D01*
X331011D01*
X331195Y357919D01*
X331385Y358007D01*
X331570Y358095D01*
X331750Y358173D01*
X331926Y358243D01*
X332097Y358312D01*
X332259Y358372D01*
X332411Y358428D01*
X332555Y358474D01*
X332679Y358516D01*
X332795Y358553D01*
X332887Y358580D01*
X332929Y358594D01*
X332966Y358603D01*
X332998Y358613D01*
X333026Y358622D01*
X333045Y358627D01*
X333059Y358631D01*
X333068Y358636D01*
X333072D01*
X333266Y358687D01*
X333456Y358728D01*
X333636Y358765D01*
X333807Y358802D01*
X333969Y358830D01*
X334117Y358853D01*
X334256Y358871D01*
X334385Y358885D01*
X334496Y358899D01*
X334598Y358909D01*
X334686Y358918D01*
X334760Y358922D01*
X334815D01*
X334861Y358927D01*
X334884D01*
X334894D01*
Y358118D01*
X334718Y358104D01*
X334542Y358086D01*
X334376Y358067D01*
X334219Y358044D01*
X334066Y358021D01*
X333918Y357993D01*
X333784Y357970D01*
X333660Y357942D01*
X333544Y357919D01*
X333442Y357896D01*
X333354Y357873D01*
X333276Y357854D01*
X333216Y357841D01*
X333174Y357827D01*
X333146Y357822D01*
X333137Y357817D01*
X332924Y357753D01*
X332712Y357683D01*
X332508Y357614D01*
X332310Y357536D01*
X332116Y357462D01*
X331935Y357383D01*
X331759Y357309D01*
X331598Y357235D01*
X331450Y357166D01*
X331320Y357101D01*
X331205Y357041D01*
X331149Y357018D01*
X331103Y356990D01*
X331062Y356972D01*
X331025Y356949D01*
X330992Y356935D01*
X330964Y356921D01*
X330946Y356907D01*
X330932Y356898D01*
X330923Y356893D01*
X330918D01*
X330719Y356782D01*
X330535Y356666D01*
X330359Y356560D01*
X330192Y356449D01*
X330040Y356348D01*
X329897Y356246D01*
X329767Y356149D01*
X329651Y356061D01*
X329545Y355982D01*
X329453Y355908D01*
X329374Y355844D01*
X329309Y355788D01*
X329259Y355742D01*
X329217Y355710D01*
X329198Y355686D01*
X329189Y355682D01*
X328579D01*
Y359824D01*
X329333D01*
Y356690D01*
D02*
G37*
G36*
X332879Y261996D02*
X333055Y261991D01*
X333221Y261977D01*
X333374Y261963D01*
X333517Y261945D01*
X333646Y261926D01*
X333767Y261903D01*
X333877Y261880D01*
X333975Y261857D01*
X334058Y261834D01*
X334132Y261815D01*
X334192Y261797D01*
X334238Y261783D01*
X334271Y261769D01*
X334289Y261764D01*
X334298Y261760D01*
X334404Y261709D01*
X334502Y261653D01*
X334599Y261593D01*
X334682Y261529D01*
X334765Y261464D01*
X334834Y261395D01*
X334904Y261325D01*
X334964Y261261D01*
X335015Y261196D01*
X335061Y261140D01*
X335103Y261085D01*
X335135Y261039D01*
X335158Y261002D01*
X335177Y260969D01*
X335186Y260951D01*
X335190Y260946D01*
X335246Y260835D01*
X335292Y260720D01*
X335334Y260595D01*
X335371Y260475D01*
X335398Y260350D01*
X335426Y260230D01*
X335445Y260109D01*
X335463Y259994D01*
X335472Y259888D01*
X335482Y259786D01*
X335491Y259698D01*
X335495Y259619D01*
X335500Y259559D01*
Y259471D01*
X335495Y259300D01*
X335486Y259143D01*
X335468Y258991D01*
X335445Y258847D01*
X335417Y258713D01*
X335389Y258593D01*
X335357Y258482D01*
X335325Y258376D01*
X335292Y258288D01*
X335260Y258205D01*
X335232Y258140D01*
X335204Y258080D01*
X335181Y258038D01*
X335163Y258006D01*
X335153Y257983D01*
X335149Y257978D01*
X335079Y257877D01*
X335005Y257780D01*
X334931Y257696D01*
X334853Y257618D01*
X334774Y257544D01*
X334700Y257479D01*
X334626Y257424D01*
X334552Y257373D01*
X334483Y257327D01*
X334423Y257290D01*
X334367Y257262D01*
X334317Y257234D01*
X334280Y257215D01*
X334247Y257202D01*
X334229Y257197D01*
X334224Y257192D01*
X334113Y257155D01*
X333993Y257118D01*
X333873Y257091D01*
X333744Y257063D01*
X333489Y257026D01*
X333364Y257012D01*
X333244Y256998D01*
X333133Y256989D01*
X333027Y256980D01*
X332934Y256975D01*
X332851D01*
X332786Y256971D01*
X332759D01*
X332736D01*
X332717D01*
X332703D01*
X332699D01*
X332694D01*
X328996D01*
Y257817D01*
X332690D01*
X332907Y257821D01*
X333106Y257835D01*
X333286Y257854D01*
X333452Y257877D01*
X333600Y257909D01*
X333734Y257941D01*
X333850Y257978D01*
X333951Y258015D01*
X334044Y258052D01*
X334118Y258089D01*
X334183Y258122D01*
X334234Y258154D01*
X334271Y258177D01*
X334298Y258196D01*
X334312Y258209D01*
X334317Y258214D01*
X334391Y258293D01*
X334455Y258385D01*
X334511Y258482D01*
X334562Y258589D01*
X334599Y258699D01*
X334636Y258810D01*
X334663Y258921D01*
X334687Y259028D01*
X334700Y259134D01*
X334714Y259231D01*
X334724Y259314D01*
X334733Y259393D01*
Y259458D01*
X334737Y259504D01*
Y259545D01*
X334733Y259647D01*
X334728Y259740D01*
X334719Y259832D01*
X334705Y259920D01*
X334687Y260003D01*
X334668Y260077D01*
X334650Y260146D01*
X334631Y260211D01*
X334613Y260271D01*
X334594Y260322D01*
X334576Y260364D01*
X334557Y260401D01*
X334543Y260433D01*
X334534Y260452D01*
X334525Y260465D01*
Y260470D01*
X334483Y260539D01*
X334437Y260599D01*
X334391Y260660D01*
X334340Y260710D01*
X334289Y260761D01*
X334238Y260803D01*
X334141Y260877D01*
X334053Y260932D01*
X334016Y260955D01*
X333984Y260969D01*
X333956Y260983D01*
X333938Y260992D01*
X333924Y261002D01*
X333919D01*
X333840Y261029D01*
X333753Y261052D01*
X333656Y261071D01*
X333559Y261089D01*
X333355Y261117D01*
X333253Y261126D01*
X333156Y261136D01*
X333059Y261140D01*
X332971Y261145D01*
X332893Y261150D01*
X332823D01*
X332768Y261154D01*
X332726D01*
X332699D01*
X332690D01*
X328996D01*
Y262000D01*
X332694D01*
X332879Y261996D01*
D02*
G37*
G36*
X333697Y255884D02*
X333845Y255866D01*
X333984Y255833D01*
X334118Y255796D01*
X334238Y255755D01*
X334354Y255704D01*
X334460Y255653D01*
X334557Y255598D01*
X334645Y255547D01*
X334719Y255496D01*
X334784Y255445D01*
X334839Y255399D01*
X334885Y255366D01*
X334913Y255334D01*
X334936Y255316D01*
X334941Y255311D01*
X335038Y255195D01*
X335126Y255080D01*
X335200Y254955D01*
X335264Y254826D01*
X335320Y254696D01*
X335361Y254571D01*
X335398Y254447D01*
X335431Y254326D01*
X335454Y254215D01*
X335472Y254109D01*
X335482Y254017D01*
X335491Y253938D01*
X335495Y253873D01*
X335500Y253822D01*
Y253781D01*
X335495Y253610D01*
X335477Y253443D01*
X335449Y253291D01*
X335412Y253143D01*
X335371Y253009D01*
X335325Y252884D01*
X335274Y252768D01*
X335223Y252662D01*
X335172Y252570D01*
X335121Y252491D01*
X335075Y252417D01*
X335033Y252362D01*
X334996Y252315D01*
X334968Y252283D01*
X334950Y252260D01*
X334945Y252255D01*
X334839Y252154D01*
X334724Y252061D01*
X334613Y251987D01*
X334492Y251918D01*
X334377Y251862D01*
X334266Y251816D01*
X334155Y251775D01*
X334049Y251747D01*
X333947Y251724D01*
X333854Y251705D01*
X333776Y251691D01*
X333707Y251682D01*
X333646Y251677D01*
X333605Y251673D01*
X333577D01*
X333568D01*
X333457Y251677D01*
X333350Y251687D01*
X333253Y251700D01*
X333156Y251719D01*
X333069Y251747D01*
X332981Y251770D01*
X332907Y251798D01*
X332833Y251825D01*
X332768Y251858D01*
X332713Y251885D01*
X332662Y251909D01*
X332620Y251932D01*
X332588Y251955D01*
X332565Y251969D01*
X332551Y251978D01*
X332546Y251982D01*
X332468Y252043D01*
X332398Y252112D01*
X332329Y252181D01*
X332269Y252255D01*
X332213Y252329D01*
X332163Y252403D01*
X332116Y252477D01*
X332075Y252551D01*
X332038Y252616D01*
X332010Y252681D01*
X331982Y252736D01*
X331964Y252787D01*
X331945Y252829D01*
X331936Y252856D01*
X331927Y252879D01*
Y252884D01*
X331890Y252796D01*
X331853Y252718D01*
X331811Y252644D01*
X331769Y252570D01*
X331728Y252509D01*
X331686Y252449D01*
X331645Y252399D01*
X331603Y252348D01*
X331566Y252306D01*
X331529Y252274D01*
X331501Y252241D01*
X331474Y252218D01*
X331451Y252195D01*
X331432Y252181D01*
X331423Y252177D01*
X331418Y252172D01*
X331353Y252131D01*
X331289Y252094D01*
X331224Y252061D01*
X331159Y252033D01*
X331030Y251992D01*
X330910Y251964D01*
X330854Y251955D01*
X330803Y251950D01*
X330757Y251945D01*
X330720Y251941D01*
X330688Y251936D01*
X330665D01*
X330651D01*
X330646D01*
X330517Y251941D01*
X330396Y251959D01*
X330276Y251982D01*
X330165Y252015D01*
X330064Y252057D01*
X329967Y252098D01*
X329874Y252144D01*
X329791Y252191D01*
X329717Y252241D01*
X329652Y252288D01*
X329597Y252329D01*
X329551Y252371D01*
X329514Y252403D01*
X329486Y252426D01*
X329467Y252445D01*
X329463Y252449D01*
X329375Y252547D01*
X329301Y252653D01*
X329236Y252764D01*
X329181Y252875D01*
X329130Y252986D01*
X329093Y253097D01*
X329061Y253208D01*
X329033Y253314D01*
X329014Y253411D01*
X329001Y253503D01*
X328987Y253587D01*
X328982Y253656D01*
X328977Y253716D01*
X328973Y253758D01*
Y253795D01*
X328977Y253947D01*
X328991Y254090D01*
X329014Y254229D01*
X329047Y254354D01*
X329084Y254474D01*
X329125Y254585D01*
X329167Y254687D01*
X329208Y254775D01*
X329255Y254858D01*
X329296Y254927D01*
X329338Y254987D01*
X329375Y255038D01*
X329403Y255080D01*
X329430Y255107D01*
X329444Y255126D01*
X329449Y255131D01*
X329541Y255219D01*
X329634Y255297D01*
X329735Y255362D01*
X329833Y255417D01*
X329934Y255468D01*
X330031Y255510D01*
X330124Y255542D01*
X330216Y255565D01*
X330299Y255588D01*
X330378Y255602D01*
X330447Y255616D01*
X330508Y255621D01*
X330554Y255625D01*
X330591Y255630D01*
X330614D01*
X330623D01*
X330706Y255625D01*
X330789Y255621D01*
X330942Y255593D01*
X331011Y255574D01*
X331076Y255556D01*
X331136Y255533D01*
X331192Y255510D01*
X331242Y255491D01*
X331289Y255468D01*
X331326Y255450D01*
X331358Y255431D01*
X331386Y255417D01*
X331404Y255403D01*
X331414Y255399D01*
X331418Y255394D01*
X331478Y255348D01*
X331534Y255297D01*
X331636Y255182D01*
X331723Y255061D01*
X331797Y254941D01*
X331825Y254886D01*
X331853Y254835D01*
X331876Y254789D01*
X331894Y254747D01*
X331908Y254715D01*
X331917Y254692D01*
X331927Y254673D01*
Y254668D01*
X331959Y254775D01*
X331996Y254876D01*
X332038Y254969D01*
X332079Y255057D01*
X332126Y255140D01*
X332176Y255214D01*
X332223Y255279D01*
X332269Y255343D01*
X332315Y255394D01*
X332357Y255440D01*
X332398Y255482D01*
X332431Y255514D01*
X332458Y255542D01*
X332481Y255561D01*
X332495Y255570D01*
X332500Y255574D01*
X332583Y255630D01*
X332666Y255676D01*
X332754Y255718D01*
X332842Y255755D01*
X332930Y255787D01*
X333013Y255810D01*
X333101Y255833D01*
X333180Y255847D01*
X333253Y255861D01*
X333323Y255870D01*
X333387Y255879D01*
X333438Y255884D01*
X333485Y255889D01*
X333517D01*
X333535D01*
X333545D01*
X333697Y255884D01*
D02*
G37*
G36*
X333379Y158096D02*
X333555Y158091D01*
X333721Y158077D01*
X333874Y158063D01*
X334017Y158045D01*
X334146Y158026D01*
X334267Y158003D01*
X334378Y157980D01*
X334474Y157957D01*
X334558Y157934D01*
X334632Y157915D01*
X334692Y157897D01*
X334738Y157883D01*
X334770Y157869D01*
X334789Y157864D01*
X334798Y157860D01*
X334905Y157809D01*
X335001Y157753D01*
X335099Y157693D01*
X335182Y157629D01*
X335265Y157564D01*
X335334Y157495D01*
X335404Y157425D01*
X335464Y157360D01*
X335515Y157296D01*
X335561Y157240D01*
X335602Y157185D01*
X335635Y157139D01*
X335658Y157102D01*
X335676Y157069D01*
X335686Y157051D01*
X335690Y157046D01*
X335746Y156935D01*
X335792Y156820D01*
X335834Y156695D01*
X335871Y156575D01*
X335898Y156450D01*
X335926Y156330D01*
X335945Y156209D01*
X335963Y156094D01*
X335972Y155988D01*
X335982Y155886D01*
X335991Y155798D01*
X335995Y155719D01*
X336000Y155659D01*
Y155571D01*
X335995Y155400D01*
X335986Y155243D01*
X335968Y155091D01*
X335945Y154947D01*
X335917Y154813D01*
X335889Y154693D01*
X335857Y154582D01*
X335824Y154476D01*
X335792Y154388D01*
X335760Y154305D01*
X335732Y154240D01*
X335704Y154180D01*
X335681Y154138D01*
X335663Y154106D01*
X335653Y154083D01*
X335649Y154078D01*
X335579Y153977D01*
X335505Y153879D01*
X335432Y153796D01*
X335353Y153718D01*
X335274Y153644D01*
X335200Y153579D01*
X335126Y153524D01*
X335052Y153473D01*
X334983Y153427D01*
X334923Y153390D01*
X334868Y153362D01*
X334817Y153334D01*
X334780Y153315D01*
X334747Y153302D01*
X334729Y153297D01*
X334724Y153292D01*
X334613Y153255D01*
X334493Y153218D01*
X334373Y153191D01*
X334243Y153163D01*
X333989Y153126D01*
X333864Y153112D01*
X333744Y153098D01*
X333633Y153089D01*
X333527Y153080D01*
X333434Y153075D01*
X333351D01*
X333287Y153070D01*
X333259D01*
X333236D01*
X333217D01*
X333203D01*
X333199D01*
X333194D01*
X329496D01*
Y153917D01*
X333189D01*
X333407Y153921D01*
X333605Y153935D01*
X333786Y153954D01*
X333952Y153977D01*
X334100Y154009D01*
X334234Y154041D01*
X334350Y154078D01*
X334451Y154115D01*
X334544Y154152D01*
X334618Y154189D01*
X334683Y154222D01*
X334733Y154254D01*
X334770Y154277D01*
X334798Y154296D01*
X334812Y154309D01*
X334817Y154314D01*
X334891Y154393D01*
X334955Y154485D01*
X335011Y154582D01*
X335062Y154689D01*
X335099Y154799D01*
X335136Y154910D01*
X335163Y155021D01*
X335187Y155128D01*
X335200Y155234D01*
X335214Y155331D01*
X335223Y155414D01*
X335233Y155493D01*
Y155558D01*
X335237Y155604D01*
Y155645D01*
X335233Y155747D01*
X335228Y155840D01*
X335219Y155932D01*
X335205Y156020D01*
X335187Y156103D01*
X335168Y156177D01*
X335149Y156246D01*
X335131Y156311D01*
X335112Y156371D01*
X335094Y156422D01*
X335075Y156464D01*
X335057Y156501D01*
X335043Y156533D01*
X335034Y156552D01*
X335025Y156565D01*
Y156570D01*
X334983Y156639D01*
X334937Y156699D01*
X334891Y156760D01*
X334840Y156810D01*
X334789Y156861D01*
X334738Y156903D01*
X334641Y156977D01*
X334553Y157032D01*
X334516Y157055D01*
X334484Y157069D01*
X334456Y157083D01*
X334438Y157092D01*
X334424Y157102D01*
X334419D01*
X334341Y157129D01*
X334253Y157153D01*
X334156Y157171D01*
X334058Y157189D01*
X333855Y157217D01*
X333753Y157226D01*
X333656Y157236D01*
X333559Y157240D01*
X333471Y157245D01*
X333393Y157249D01*
X333324D01*
X333268Y157254D01*
X333226D01*
X333199D01*
X333189D01*
X329496D01*
Y158100D01*
X333194D01*
X333379Y158096D01*
D02*
G37*
G36*
X331807Y151975D02*
X331969Y151956D01*
X332126Y151929D01*
X332270Y151896D01*
X332403Y151855D01*
X332528Y151809D01*
X332644Y151758D01*
X332746Y151707D01*
X332838Y151656D01*
X332921Y151605D01*
X332991Y151559D01*
X333046Y151517D01*
X333092Y151485D01*
X333125Y151457D01*
X333148Y151439D01*
X333152Y151434D01*
X333254Y151328D01*
X333342Y151217D01*
X333416Y151106D01*
X333485Y150990D01*
X333541Y150879D01*
X333587Y150768D01*
X333624Y150657D01*
X333652Y150556D01*
X333679Y150459D01*
X333693Y150371D01*
X333707Y150288D01*
X333716Y150223D01*
X333721Y150167D01*
X333726Y150126D01*
Y150089D01*
X333721Y150001D01*
X333716Y149913D01*
X333689Y149751D01*
X333652Y149599D01*
X333633Y149534D01*
X333610Y149469D01*
X333587Y149409D01*
X333568Y149358D01*
X333550Y149317D01*
X333531Y149275D01*
X333518Y149248D01*
X333504Y149224D01*
X333499Y149211D01*
X333494Y149206D01*
X333402Y149058D01*
X333300Y148933D01*
X333250Y148873D01*
X333199Y148822D01*
X333152Y148771D01*
X333102Y148730D01*
X333060Y148688D01*
X333018Y148656D01*
X332981Y148628D01*
X332949Y148600D01*
X332921Y148582D01*
X332903Y148568D01*
X332889Y148563D01*
X332884Y148559D01*
X332921D01*
X332954D01*
X332981D01*
X333004D01*
X333018D01*
X333032D01*
X333037D01*
X333041D01*
X333222Y148563D01*
X333397Y148577D01*
X333559Y148596D01*
X333638Y148610D01*
X333707Y148619D01*
X333772Y148628D01*
X333827Y148642D01*
X333878Y148651D01*
X333920Y148660D01*
X333957Y148670D01*
X333980Y148674D01*
X333998Y148679D01*
X334003D01*
X334086Y148702D01*
X334169Y148725D01*
X334243Y148748D01*
X334317Y148771D01*
X334382Y148799D01*
X334442Y148822D01*
X334498Y148845D01*
X334548Y148868D01*
X334595Y148887D01*
X334636Y148910D01*
X334669Y148924D01*
X334696Y148942D01*
X334720Y148952D01*
X334733Y148961D01*
X334743Y148970D01*
X334747D01*
X334844Y149039D01*
X334932Y149113D01*
X335011Y149187D01*
X335071Y149257D01*
X335122Y149317D01*
X335159Y149368D01*
X335173Y149386D01*
X335182Y149400D01*
X335191Y149409D01*
Y149414D01*
X335247Y149520D01*
X335284Y149627D01*
X335311Y149738D01*
X335334Y149835D01*
X335344Y149922D01*
X335348Y149959D01*
Y149992D01*
X335353Y150015D01*
Y150052D01*
X335348Y150130D01*
X335344Y150204D01*
X335316Y150338D01*
X335279Y150454D01*
X335256Y150510D01*
X335233Y150556D01*
X335214Y150597D01*
X335191Y150639D01*
X335173Y150671D01*
X335154Y150694D01*
X335140Y150717D01*
X335126Y150731D01*
X335122Y150741D01*
X335117Y150745D01*
X335071Y150796D01*
X335015Y150838D01*
X334895Y150916D01*
X334766Y150981D01*
X334636Y151032D01*
X334581Y151050D01*
X334521Y151069D01*
X334470Y151083D01*
X334428Y151092D01*
X334391Y151101D01*
X334364Y151106D01*
X334345Y151110D01*
X334341D01*
X334410Y151864D01*
X334548Y151841D01*
X334678Y151813D01*
X334798Y151776D01*
X334914Y151735D01*
X335020Y151693D01*
X335112Y151642D01*
X335200Y151596D01*
X335279Y151545D01*
X335353Y151499D01*
X335413Y151453D01*
X335464Y151406D01*
X335505Y151369D01*
X335542Y151342D01*
X335565Y151314D01*
X335579Y151300D01*
X335584Y151295D01*
X335658Y151203D01*
X335723Y151106D01*
X335778Y151004D01*
X335824Y150902D01*
X335866Y150801D01*
X335898Y150699D01*
X335926Y150597D01*
X335949Y150500D01*
X335963Y150412D01*
X335977Y150329D01*
X335986Y150255D01*
X335995Y150190D01*
Y150140D01*
X336000Y150098D01*
Y150066D01*
X335995Y149936D01*
X335982Y149811D01*
X335963Y149691D01*
X335940Y149576D01*
X335912Y149465D01*
X335880Y149368D01*
X335848Y149271D01*
X335811Y149187D01*
X335774Y149109D01*
X335741Y149039D01*
X335709Y148979D01*
X335681Y148928D01*
X335658Y148887D01*
X335635Y148859D01*
X335626Y148841D01*
X335621Y148836D01*
X335547Y148739D01*
X335464Y148651D01*
X335376Y148568D01*
X335288Y148489D01*
X335196Y148420D01*
X335103Y148351D01*
X335015Y148295D01*
X334928Y148240D01*
X334844Y148194D01*
X334766Y148152D01*
X334696Y148119D01*
X334636Y148092D01*
X334585Y148069D01*
X334548Y148055D01*
X334525Y148046D01*
X334516Y148041D01*
X334373Y147995D01*
X334225Y147953D01*
X334068Y147916D01*
X333906Y147884D01*
X333744Y147861D01*
X333578Y147837D01*
X333420Y147819D01*
X333268Y147805D01*
X333125Y147796D01*
X332991Y147787D01*
X332870Y147782D01*
X332820Y147777D01*
X332769D01*
X332723D01*
X332681Y147773D01*
X332649D01*
X332621D01*
X332598D01*
X332579D01*
X332570D01*
X332565D01*
X332353Y147777D01*
X332149Y147787D01*
X331964Y147796D01*
X331789Y147814D01*
X331627Y147837D01*
X331484Y147861D01*
X331349Y147884D01*
X331229Y147907D01*
X331123Y147935D01*
X331031Y147958D01*
X330952Y147981D01*
X330887Y148004D01*
X330836Y148022D01*
X330799Y148032D01*
X330781Y148041D01*
X330772Y148046D01*
X330656Y148096D01*
X330550Y148156D01*
X330453Y148217D01*
X330360Y148281D01*
X330272Y148346D01*
X330194Y148411D01*
X330120Y148476D01*
X330055Y148540D01*
X330000Y148600D01*
X329949Y148651D01*
X329907Y148702D01*
X329870Y148748D01*
X329847Y148781D01*
X329824Y148808D01*
X329815Y148827D01*
X329810Y148831D01*
X329750Y148928D01*
X329699Y149026D01*
X329653Y149127D01*
X329616Y149224D01*
X329584Y149321D01*
X329556Y149418D01*
X329533Y149506D01*
X329514Y149594D01*
X329500Y149673D01*
X329491Y149742D01*
X329482Y149807D01*
X329477Y149862D01*
X329473Y149909D01*
Y149969D01*
X329477Y150126D01*
X329500Y150278D01*
X329528Y150422D01*
X329565Y150556D01*
X329611Y150685D01*
X329662Y150805D01*
X329713Y150912D01*
X329768Y151013D01*
X329824Y151101D01*
X329879Y151180D01*
X329930Y151249D01*
X329977Y151305D01*
X330014Y151346D01*
X330041Y151379D01*
X330064Y151402D01*
X330069Y151406D01*
X330185Y151508D01*
X330305Y151596D01*
X330434Y151670D01*
X330564Y151739D01*
X330693Y151795D01*
X330822Y151841D01*
X330952Y151878D01*
X331072Y151906D01*
X331188Y151933D01*
X331294Y151947D01*
X331391Y151961D01*
X331474Y151970D01*
X331544Y151975D01*
X331571D01*
X331595Y151980D01*
X331613D01*
X331627D01*
X331632D01*
X331636D01*
X331807Y151975D01*
D02*
G37*
%LPC*%
G36*
X330637Y254821D02*
X330614D01*
X330600D01*
X330595D01*
X330521Y254816D01*
X330452Y254807D01*
X330383Y254793D01*
X330323Y254775D01*
X330202Y254729D01*
X330151Y254701D01*
X330105Y254673D01*
X330059Y254650D01*
X330022Y254622D01*
X329990Y254599D01*
X329962Y254576D01*
X329939Y254557D01*
X329925Y254544D01*
X329916Y254534D01*
X329911Y254530D01*
X329860Y254474D01*
X329814Y254414D01*
X329777Y254349D01*
X329745Y254289D01*
X329712Y254225D01*
X329689Y254165D01*
X329657Y254044D01*
X329643Y253993D01*
X329634Y253943D01*
X329629Y253896D01*
X329624Y253859D01*
X329620Y253827D01*
Y253785D01*
X329624Y253702D01*
X329634Y253628D01*
X329648Y253554D01*
X329666Y253480D01*
X329689Y253416D01*
X329712Y253356D01*
X329740Y253300D01*
X329768Y253249D01*
X329796Y253203D01*
X329823Y253161D01*
X329846Y253129D01*
X329869Y253097D01*
X329888Y253078D01*
X329902Y253060D01*
X329911Y253050D01*
X329916Y253046D01*
X329971Y252995D01*
X330031Y252949D01*
X330091Y252907D01*
X330151Y252870D01*
X330216Y252842D01*
X330276Y252819D01*
X330387Y252782D01*
X330443Y252768D01*
X330489Y252759D01*
X330531Y252754D01*
X330568Y252750D01*
X330600Y252745D01*
X330623D01*
X330637D01*
X330642D01*
X330715Y252750D01*
X330789Y252759D01*
X330859Y252773D01*
X330924Y252792D01*
X331044Y252838D01*
X331095Y252866D01*
X331145Y252889D01*
X331187Y252916D01*
X331229Y252944D01*
X331261Y252967D01*
X331289Y252990D01*
X331312Y253009D01*
X331326Y253023D01*
X331335Y253032D01*
X331340Y253036D01*
X331390Y253092D01*
X331432Y253152D01*
X331469Y253212D01*
X331501Y253272D01*
X331529Y253337D01*
X331552Y253397D01*
X331585Y253513D01*
X331599Y253568D01*
X331608Y253619D01*
X331612Y253661D01*
X331617Y253702D01*
X331622Y253735D01*
Y253776D01*
X331617Y253859D01*
X331608Y253943D01*
X331594Y254021D01*
X331575Y254090D01*
X331557Y254160D01*
X331529Y254220D01*
X331506Y254280D01*
X331478Y254331D01*
X331451Y254377D01*
X331427Y254419D01*
X331400Y254451D01*
X331381Y254484D01*
X331363Y254502D01*
X331349Y254520D01*
X331340Y254530D01*
X331335Y254534D01*
X331279Y254585D01*
X331219Y254627D01*
X331159Y254668D01*
X331099Y254701D01*
X331035Y254729D01*
X330974Y254752D01*
X330859Y254784D01*
X330803Y254798D01*
X330752Y254807D01*
X330711Y254812D01*
X330669Y254816D01*
X330637Y254821D01*
D02*
G37*
G36*
X333582Y255080D02*
X333563D01*
X333554D01*
X333549D01*
X333448Y255075D01*
X333350Y255066D01*
X333263Y255047D01*
X333175Y255024D01*
X333092Y254997D01*
X333018Y254964D01*
X332948Y254932D01*
X332884Y254900D01*
X332828Y254867D01*
X332777Y254835D01*
X332736Y254802D01*
X332699Y254775D01*
X332671Y254752D01*
X332653Y254733D01*
X332639Y254724D01*
X332634Y254719D01*
X332569Y254650D01*
X332514Y254576D01*
X332463Y254502D01*
X332421Y254423D01*
X332384Y254345D01*
X332352Y254271D01*
X332329Y254197D01*
X332310Y254128D01*
X332296Y254058D01*
X332283Y253998D01*
X332273Y253943D01*
X332269Y253896D01*
X332264Y253859D01*
Y253804D01*
X332269Y253698D01*
X332278Y253601D01*
X332296Y253503D01*
X332324Y253416D01*
X332352Y253332D01*
X332384Y253254D01*
X332417Y253185D01*
X332449Y253120D01*
X332486Y253060D01*
X332518Y253009D01*
X332551Y252967D01*
X332579Y252930D01*
X332602Y252898D01*
X332620Y252879D01*
X332634Y252866D01*
X332639Y252861D01*
X332708Y252796D01*
X332786Y252736D01*
X332860Y252685D01*
X332939Y252644D01*
X333018Y252607D01*
X333096Y252574D01*
X333170Y252551D01*
X333244Y252528D01*
X333313Y252514D01*
X333374Y252500D01*
X333429Y252491D01*
X333480Y252486D01*
X333517D01*
X333549Y252482D01*
X333568D01*
X333572D01*
X333674Y252486D01*
X333771Y252496D01*
X333864Y252514D01*
X333951Y252537D01*
X334035Y252565D01*
X334109Y252597D01*
X334178Y252630D01*
X334243Y252662D01*
X334298Y252699D01*
X334349Y252731D01*
X334391Y252764D01*
X334428Y252792D01*
X334455Y252815D01*
X334474Y252833D01*
X334488Y252842D01*
X334492Y252847D01*
X334557Y252916D01*
X334613Y252990D01*
X334659Y253069D01*
X334700Y253148D01*
X334737Y253226D01*
X334765Y253300D01*
X334788Y253379D01*
X334807Y253448D01*
X334821Y253517D01*
X334834Y253577D01*
X334844Y253633D01*
X334848Y253684D01*
Y253721D01*
X334853Y253753D01*
Y253776D01*
X334844Y253910D01*
X334825Y254035D01*
X334798Y254146D01*
X334765Y254248D01*
X334751Y254294D01*
X334737Y254331D01*
X334724Y254368D01*
X334710Y254396D01*
X334696Y254419D01*
X334691Y254437D01*
X334682Y254447D01*
Y254451D01*
X334613Y254562D01*
X334534Y254659D01*
X334451Y254738D01*
X334377Y254802D01*
X334303Y254858D01*
X334275Y254876D01*
X334247Y254895D01*
X334224Y254904D01*
X334210Y254913D01*
X334201Y254923D01*
X334197D01*
X334076Y254974D01*
X333961Y255015D01*
X333854Y255043D01*
X333753Y255061D01*
X333711Y255066D01*
X333670Y255071D01*
X333637Y255075D01*
X333605D01*
X333582Y255080D01*
D02*
G37*
G36*
X331687Y151171D02*
X331664D01*
X331659D01*
X331534Y151166D01*
X331414Y151152D01*
X331303Y151134D01*
X331202Y151110D01*
X331100Y151083D01*
X331012Y151050D01*
X330929Y151013D01*
X330850Y150976D01*
X330785Y150944D01*
X330725Y150907D01*
X330675Y150875D01*
X330633Y150847D01*
X330596Y150824D01*
X330573Y150805D01*
X330559Y150792D01*
X330554Y150787D01*
X330480Y150713D01*
X330411Y150634D01*
X330356Y150560D01*
X330305Y150482D01*
X330263Y150403D01*
X330231Y150325D01*
X330203Y150255D01*
X330180Y150181D01*
X330162Y150117D01*
X330148Y150056D01*
X330138Y150006D01*
X330129Y149959D01*
Y149922D01*
X330125Y149895D01*
Y149872D01*
X330129Y149779D01*
X330143Y149691D01*
X330162Y149603D01*
X330185Y149525D01*
X330217Y149446D01*
X330249Y149377D01*
X330286Y149312D01*
X330323Y149252D01*
X330360Y149197D01*
X330397Y149146D01*
X330430Y149104D01*
X330462Y149072D01*
X330485Y149044D01*
X330504Y149026D01*
X330517Y149012D01*
X330522Y149007D01*
X330601Y148942D01*
X330684Y148887D01*
X330767Y148841D01*
X330855Y148799D01*
X330947Y148762D01*
X331035Y148734D01*
X331123Y148711D01*
X331206Y148693D01*
X331285Y148679D01*
X331359Y148665D01*
X331423Y148656D01*
X331484Y148651D01*
X331530Y148646D01*
X331567D01*
X331585D01*
X331595D01*
X331719Y148651D01*
X331835Y148660D01*
X331941Y148679D01*
X332043Y148702D01*
X332140Y148730D01*
X332228Y148757D01*
X332306Y148790D01*
X332376Y148822D01*
X332440Y148855D01*
X332496Y148887D01*
X332542Y148915D01*
X332584Y148942D01*
X332612Y148966D01*
X332635Y148984D01*
X332649Y148993D01*
X332653Y148998D01*
X332718Y149067D01*
X332778Y149136D01*
X332829Y149211D01*
X332870Y149284D01*
X332907Y149363D01*
X332940Y149437D01*
X332963Y149506D01*
X332986Y149576D01*
X333000Y149645D01*
X333014Y149705D01*
X333018Y149756D01*
X333028Y149802D01*
Y149844D01*
X333032Y149872D01*
Y149895D01*
X333028Y149996D01*
X333014Y150089D01*
X332995Y150181D01*
X332972Y150269D01*
X332944Y150348D01*
X332912Y150422D01*
X332880Y150491D01*
X332843Y150556D01*
X332806Y150611D01*
X332773Y150662D01*
X332741Y150704D01*
X332713Y150741D01*
X332690Y150768D01*
X332667Y150787D01*
X332658Y150801D01*
X332653Y150805D01*
X332579Y150870D01*
X332501Y150926D01*
X332417Y150976D01*
X332334Y151018D01*
X332251Y151050D01*
X332168Y151083D01*
X332089Y151106D01*
X332011Y151124D01*
X331941Y151138D01*
X331872Y151152D01*
X331812Y151161D01*
X331761Y151166D01*
X331719D01*
X331687Y151171D01*
D02*
G37*
%LPD*%
D10*
X315500Y391526D02*
X354500D01*
Y340464D02*
Y391526D01*
X315500Y340464D02*
X354500D01*
X315500D02*
Y391526D01*
X316000Y236469D02*
Y287531D01*
Y236469D02*
X355000D01*
Y287531D01*
X316000D02*
X355000D01*
X316500Y132569D02*
Y183631D01*
Y132569D02*
X355500D01*
Y183631D01*
X316500D02*
X355500D01*
M02*
