M48
;Layer_Color=9474304
;FILE_FORMAT=4:4
METRIC,LZ
;TYPE=PLATED
T01F00S00C0.3000
T02F00S00C0.9000
T03F00S00C2.0500
%
T01
X000407Y000403
X00037Y000495
X000403Y000583
X0005Y000625
X000601Y00058
X00063Y000495
X000592Y000403
X0005Y000365
X00111Y00072
X00112Y00095
Y00115
X001
X00095Y00127
X00093Y0014
X00125Y001395
X00123Y0006
X00141
X00201Y00123
X0022
X00268Y00129
X00278Y00134
X00291
X00297Y00125
X00282
X00292Y00103
X00258
X0033
X00324Y001235
X003275Y001295
X0003Y00136
Y00119
X00348Y00115
X00373
X00396
X004015Y000945
X004195Y000815
Y0006
X004175Y000345
X004325Y000295
X0045
X004665
X00485
X005022Y000403
X004985Y000495
X005018Y000583
X005115Y000625
X005216Y00058
X005245Y000495
X005207Y000403
X005115Y000365
X005135Y000925
Y001125
X004685Y001095
Y000955
X004665Y000755
X0048
X004945Y000815
X00447Y000755
X00435
X004465Y00096
Y001095
X00453Y001283
X00374Y001375
X003645
X00356Y00137
Y00147
X003645Y001465
X00374
X00346943Y0015479
Y00161269
X003495Y00227
X003565Y00242
X00366
Y00251
X003755
Y00242
X003565Y002515
X003465Y00259
Y002655
X00397Y00287
Y00298
Y00309
Y0032
X0041
Y00309
Y00298
Y00287
X00423
Y00298
Y00309
Y0032
X004529Y00335
X004635Y003156
X00481Y00316
X0051
X00532Y00329
X00533Y00297
Y00267
Y00233
X00514Y00213
X0048Y00212
X004633Y002114
X004528Y002323
X00424Y00216
Y00205
Y00194
Y00183
X00411
Y00194
Y00205
Y00216
X00398
Y00205
Y00194
Y00183
X00533Y0019
Y00149
X00532Y00372
X005255Y00419
Y00436
X005095Y00449
X0048Y00455
X004665
X00447
X00435
X004135Y0045
Y004645
X004165Y00485
X00434Y005005
X00447
X00466
X004805
X005022Y005018
X004985Y00511
X005018Y005198
X005115Y00524
X005216Y005195
X005245Y00511
X005207Y005018
X005115Y00498
X004955Y004845
X004805Y00435
Y00422
X00426Y00426
X00414
X00402
Y00414
Y00402
Y0039
X00414
X00426
Y00402
X00414
Y00414
X00426
X00355Y00425
X00348Y00443
X003685Y004475
Y00466
X003725Y003545
X003635
X00355
Y00345
X003635Y003455
X003725
X003585Y00335
X003623Y003266
X00347238Y003634
X00347143Y00369761
X00337Y00405
X00326Y00411
X00328Y00427
Y00441
X00295
Y00428
X00304Y0042
X00297259Y00405549
X00304Y00388
Y00373
X003039Y003509
X00304Y00337
X003Y00299
X00311
Y00288
X003
X00289
Y00299
X00277
Y00288
X00294Y00252
Y00241
X00309Y00238
X00308082Y0025584
X00199Y00272
X00188Y00286
X00199Y00306
X00187Y00321
X00198Y00337
X00181Y00343
X00213Y00356
Y00367
Y00378
Y00389
X00224
X00235
Y00378
X00224
Y00367
X00235
Y00356
X00224
X00259Y0035
Y00362
Y00374
Y00385
Y00396
X00254Y00407
X00264
X00268Y0042
X0028
Y00431
Y00441
X00256Y0042
X00236Y004395
X00169Y00452
X00158
X0015Y00442
Y00431
X00163Y00415
Y00398
X00119Y00428
X00105Y00442
X00094Y00353
Y00336
Y00323
Y00309
Y00296
Y00283
Y00269
Y00254
X00105Y00253
X00113Y00267
Y00284
X00128Y00285
Y00298
Y00311
Y00324
X00113Y00321
Y00301
X00128Y00271
X00129Y00232
X00141
X00153
X00164
Y0022
X00153
X00141
X00129
X00117Y00222
Y00207
Y00191
X00101Y00192
Y00207
Y00221
X00111Y00232
X00094Y00241
X00033Y00234
Y00217
Y00201
Y00184
X0003Y00169
Y00152
X00093Y00153
X00092Y00168
X00125Y0015
X001355
X00193Y00182
X001935Y0019304
X00205509Y00192982
X00206Y00182
X00218
X0021763Y0019304
X00218Y00206
X00206
X00193
X00183Y00259
X00135Y00343
X00121Y00342
X00106
X00033Y00336
Y00319
Y00303
Y00286
Y00269
Y00252
Y00354
Y00371
X000412Y005013
X000375Y005105
X000408Y005193
X000505Y005235
X000606Y00519
X000635Y005105
X000597Y005013
X000505Y004975
T02
X001667Y000458
X001921
Y000712
X002175
X002429
Y000458
X002683
Y000712
X002937
Y000458
X003191
Y000712
X002175Y000458
X001667Y000712
X003445
Y000458
X003699
Y000712
X003953
Y000458
Y004888
X003699
Y005142
X003953
X003445Y005142
Y004888
X003191Y004888
X002937
X002683
X002429
Y005142
X002683
X002937
X003191
X002175Y005142
Y004888
X001921Y004888
Y005142
X001667
Y004888
T03
X0005Y000495
X005115
Y00511
X000505Y005105
M30
