G04*
G04 #@! TF.GenerationSoftware,Altium Limited,Altium Designer,23.8.1 (32)*
G04*
G04 Layer_Color=8388736*
%FSLAX44Y44*%
%MOMM*%
G71*
G04*
G04 #@! TF.SameCoordinates,92C49762-E6E1-4201-94AC-3A3CAB1C571E*
G04*
G04*
G04 #@! TF.FilePolarity,Negative*
G04*
G01*
G75*
%ADD18R,1.0000X0.8000*%
%ADD19R,1.9600X3.1500*%
%ADD20R,3.2000X2.4000*%
%ADD21R,1.5240X2.5400*%
%ADD22R,2.5400X1.5240*%
%ADD23R,0.2540X0.2540*%
%ADD24O,1.2000X0.2500*%
%ADD25R,0.5000X0.4000*%
%ADD26R,1.2700X0.8890*%
G04:AMPARAMS|DCode=27|XSize=1mm|YSize=0.8mm|CornerRadius=0mm|HoleSize=0mm|Usage=FLASHONLY|Rotation=270.000|XOffset=0mm|YOffset=0mm|HoleType=Round|Shape=Octagon|*
%AMOCTAGOND27*
4,1,8,-0.2000,-0.5000,0.2000,-0.5000,0.4000,-0.3000,0.4000,0.3000,0.2000,0.5000,-0.2000,0.5000,-0.4000,0.3000,-0.4000,-0.3000,-0.2000,-0.5000,0.0*
%
%ADD27OCTAGOND27*%

%ADD28R,0.8000X1.0000*%
%ADD29O,0.5000X1.5000*%
%ADD30R,0.5000X1.5000*%
%ADD31R,1.0000X0.8000*%
G04:AMPARAMS|DCode=32|XSize=1mm|YSize=0.8mm|CornerRadius=0mm|HoleSize=0mm|Usage=FLASHONLY|Rotation=180.000|XOffset=0mm|YOffset=0mm|HoleType=Round|Shape=Octagon|*
%AMOCTAGOND32*
4,1,8,-0.5000,0.2000,-0.5000,-0.2000,-0.3000,-0.4000,0.3000,-0.4000,0.5000,-0.2000,0.5000,0.2000,0.3000,0.4000,-0.3000,0.4000,-0.5000,0.2000,0.0*
%
%ADD32OCTAGOND32*%

%ADD33R,1.5748X1.3970*%
%ADD34R,1.3970X1.5748*%
%ADD35R,2.1600X2.2600*%
%ADD36R,1.3000X1.0000*%
G04:AMPARAMS|DCode=37|XSize=1.3mm|YSize=1mm|CornerRadius=0mm|HoleSize=0mm|Usage=FLASHONLY|Rotation=180.000|XOffset=0mm|YOffset=0mm|HoleType=Round|Shape=Octagon|*
%AMOCTAGOND37*
4,1,8,-0.6500,0.2500,-0.6500,-0.2500,-0.4000,-0.5000,0.4000,-0.5000,0.6500,-0.2500,0.6500,0.2500,0.4000,0.5000,-0.4000,0.5000,-0.6500,0.2500,0.0*
%
%ADD37OCTAGOND37*%

G04:AMPARAMS|DCode=38|XSize=5mm|YSize=5mm|CornerRadius=1.25mm|HoleSize=0mm|Usage=FLASHONLY|Rotation=0.000|XOffset=0mm|YOffset=0mm|HoleType=Round|Shape=RoundedRectangle|*
%AMROUNDEDRECTD38*
21,1,5.0000,2.5000,0,0,0.0*
21,1,2.5000,5.0000,0,0,0.0*
1,1,2.5000,1.2500,-1.2500*
1,1,2.5000,-1.2500,-1.2500*
1,1,2.5000,-1.2500,1.2500*
1,1,2.5000,1.2500,1.2500*
%
%ADD38ROUNDEDRECTD38*%
%ADD39R,0.4000X0.5000*%
%ADD40R,0.8890X1.2700*%
G04:AMPARAMS|DCode=41|XSize=0.55mm|YSize=0.8mm|CornerRadius=0.0495mm|HoleSize=0mm|Usage=FLASHONLY|Rotation=0.000|XOffset=0mm|YOffset=0mm|HoleType=Round|Shape=RoundedRectangle|*
%AMROUNDEDRECTD41*
21,1,0.5500,0.7010,0,0,0.0*
21,1,0.4510,0.8000,0,0,0.0*
1,1,0.0990,0.2255,-0.3505*
1,1,0.0990,-0.2255,-0.3505*
1,1,0.0990,-0.2255,0.3505*
1,1,0.0990,0.2255,0.3505*
%
%ADD41ROUNDEDRECTD41*%
%ADD42R,1.7500X4.5000*%
%ADD43R,3.4000X2.5000*%
%ADD44C,1.6000*%
%ADD45R,1.6000X1.6000*%
%ADD46C,3.2000*%
G36*
X447380Y162660D02*
X438880D01*
Y157960D01*
X447380D01*
Y149960D01*
X438880D01*
Y145260D01*
X447380D01*
Y137260D01*
X438880D01*
Y132560D01*
X447380D01*
Y124560D01*
X402380D01*
Y170560D01*
X447380D01*
Y162660D01*
D02*
G37*
G36*
X428990Y176530D02*
X383990D01*
Y184430D01*
X392490D01*
Y189130D01*
X383990D01*
Y197130D01*
X392490D01*
Y201830D01*
X383990D01*
Y209830D01*
X392490D01*
Y214530D01*
X383990D01*
Y222530D01*
X428990D01*
Y176530D01*
D02*
G37*
G36*
X447380Y266800D02*
X438880D01*
Y262100D01*
X447380D01*
Y254100D01*
X438880D01*
Y249400D01*
X447380D01*
Y241400D01*
X438880D01*
Y236700D01*
X447380D01*
Y228700D01*
X402380D01*
Y274700D01*
X447380D01*
Y266800D01*
D02*
G37*
G36*
X428990Y384810D02*
X383990D01*
Y392710D01*
X392490D01*
Y397410D01*
X383990D01*
Y405410D01*
X392490D01*
Y410110D01*
X383990D01*
Y418110D01*
X392490D01*
Y422810D01*
X383990D01*
Y430810D01*
X428990D01*
Y384810D01*
D02*
G37*
G36*
X251970Y387530D02*
X243470D01*
Y382830D01*
X251970D01*
Y374830D01*
X243470D01*
Y370130D01*
X251970D01*
Y362130D01*
X243470D01*
Y357430D01*
X251970D01*
Y349430D01*
X206970D01*
Y395430D01*
X251970D01*
Y387530D01*
D02*
G37*
G36*
X447380Y370940D02*
X438880D01*
Y366240D01*
X447380D01*
Y358240D01*
X438880D01*
Y353540D01*
X447380D01*
Y345540D01*
X438880D01*
Y340840D01*
X447380D01*
Y332840D01*
X402380D01*
Y378840D01*
X447380D01*
Y370940D01*
D02*
G37*
G36*
X428990Y280670D02*
X383990D01*
Y288570D01*
X392490D01*
Y293270D01*
X383990D01*
Y301270D01*
X392490D01*
Y305970D01*
X383990D01*
Y313970D01*
X392490D01*
Y318670D01*
X383990D01*
Y326670D01*
X428990D01*
Y280670D01*
D02*
G37*
D18*
X192970Y391430D02*
D03*
Y378730D02*
D03*
Y366030D02*
D03*
Y353330D02*
D03*
X442990Y426910D02*
D03*
Y414210D02*
D03*
Y401510D02*
D03*
Y388810D02*
D03*
Y284670D02*
D03*
Y297370D02*
D03*
Y310070D02*
D03*
Y322770D02*
D03*
Y218630D02*
D03*
Y205930D02*
D03*
Y193230D02*
D03*
Y180530D02*
D03*
X388380Y374840D02*
D03*
Y362140D02*
D03*
Y349440D02*
D03*
Y336740D02*
D03*
Y232600D02*
D03*
Y245300D02*
D03*
Y258000D02*
D03*
Y270700D02*
D03*
Y166560D02*
D03*
Y153860D02*
D03*
Y141160D02*
D03*
Y128460D02*
D03*
D19*
X123500Y370000D02*
D03*
X172600D02*
D03*
D20*
X225530Y247490D02*
D03*
Y306490D02*
D03*
D21*
X446500Y103000D02*
D03*
X417500D02*
D03*
X413500Y457000D02*
D03*
X384500D02*
D03*
X468500Y103000D02*
D03*
X497500D02*
D03*
X480500Y428000D02*
D03*
X509500D02*
D03*
X274530Y346110D02*
D03*
X303530D02*
D03*
X274530Y380150D02*
D03*
X303530D02*
D03*
X144180Y313960D02*
D03*
X173180D02*
D03*
X144180Y279670D02*
D03*
X173180D02*
D03*
X77930Y327930D02*
D03*
X48930D02*
D03*
X77930Y193310D02*
D03*
X48930D02*
D03*
X77930Y294910D02*
D03*
X48930D02*
D03*
X77930Y260620D02*
D03*
X48930D02*
D03*
X77930Y362220D02*
D03*
X48930D02*
D03*
X77930Y226330D02*
D03*
X48930D02*
D03*
D22*
X473000Y75500D02*
D03*
Y46500D02*
D03*
X441000Y75500D02*
D03*
Y46500D02*
D03*
X473000Y455500D02*
D03*
Y484500D02*
D03*
X441000Y455500D02*
D03*
Y484500D02*
D03*
D23*
X353300Y364600D02*
D03*
X348220D02*
D03*
Y368600D02*
D03*
X353300D02*
D03*
X353265Y160043D02*
D03*
X348185D02*
D03*
X352700Y264300D02*
D03*
X347620D02*
D03*
X353265Y156043D02*
D03*
X348185D02*
D03*
X352680Y260200D02*
D03*
X347600D02*
D03*
D24*
X316000Y116750D02*
D03*
Y123250D02*
D03*
Y129750D02*
D03*
Y136250D02*
D03*
Y142750D02*
D03*
Y149250D02*
D03*
Y155750D02*
D03*
Y162250D02*
D03*
Y168750D02*
D03*
Y175250D02*
D03*
X256000Y116750D02*
D03*
Y123250D02*
D03*
Y129750D02*
D03*
Y136250D02*
D03*
Y142750D02*
D03*
Y149250D02*
D03*
Y155750D02*
D03*
Y162250D02*
D03*
Y168750D02*
D03*
Y175250D02*
D03*
D25*
X242001Y137499D02*
D03*
X242000Y128500D02*
D03*
X456101Y420599D02*
D03*
X456101Y429099D02*
D03*
X112959Y166831D02*
D03*
X112959Y158331D02*
D03*
X455689Y211591D02*
D03*
X455689Y220091D02*
D03*
X455689Y315731D02*
D03*
X455689Y324231D02*
D03*
X102800Y158330D02*
D03*
X102801Y167329D02*
D03*
X330500Y297500D02*
D03*
X330501Y306499D02*
D03*
X341363Y425197D02*
D03*
Y416697D02*
D03*
X341272Y442828D02*
D03*
Y434328D02*
D03*
X121851Y246069D02*
D03*
X121851Y237569D02*
D03*
X330501Y324499D02*
D03*
X330501Y315999D02*
D03*
X320529Y297911D02*
D03*
X320529Y306411D02*
D03*
X215999Y439501D02*
D03*
X215999Y448001D02*
D03*
D26*
X240001Y194499D02*
D03*
Y213499D02*
D03*
X276001Y194499D02*
D03*
Y213499D02*
D03*
X313001D02*
D03*
X313001Y194499D02*
D03*
X107879Y126661D02*
D03*
X107879Y145661D02*
D03*
D27*
X258000Y196000D02*
D03*
X331000D02*
D03*
X295000D02*
D03*
D28*
X258000Y224000D02*
D03*
X331000D02*
D03*
X295000D02*
D03*
D29*
X133710Y201430D02*
D03*
X146410Y201430D02*
D03*
X159110D02*
D03*
X171810Y201430D02*
D03*
X133710Y251430D02*
D03*
X146410Y251430D02*
D03*
X159110D02*
D03*
X295380Y317920D02*
D03*
X282680D02*
D03*
X269980Y317920D02*
D03*
X308080Y267920D02*
D03*
X295380Y267920D02*
D03*
X282680D02*
D03*
X269980Y267920D02*
D03*
D30*
X171810Y251430D02*
D03*
X308080Y317920D02*
D03*
D31*
X177293Y415000D02*
D03*
Y398500D02*
D03*
D32*
X149293Y415000D02*
D03*
Y398500D02*
D03*
D33*
X236000Y439500D02*
D03*
Y411000D02*
D03*
X368700Y172500D02*
D03*
Y144000D02*
D03*
Y276500D02*
D03*
Y248000D02*
D03*
X368060Y380450D02*
D03*
Y351950D02*
D03*
X193500Y193040D02*
D03*
Y221540D02*
D03*
X217630Y193040D02*
D03*
Y221540D02*
D03*
D34*
X163500Y436000D02*
D03*
X135000Y436000D02*
D03*
D35*
X261500Y436000D02*
D03*
X310500D02*
D03*
D36*
X310070Y246800D02*
D03*
D37*
X273070D02*
D03*
D38*
X63430Y410480D02*
D03*
X496790Y377460D02*
D03*
X498422Y271944D02*
D03*
X63430Y145050D02*
D03*
X499330Y170450D02*
D03*
D39*
X367371Y127191D02*
D03*
X375871Y127191D02*
D03*
X367371Y231331D02*
D03*
X375871Y231331D02*
D03*
X367371Y335471D02*
D03*
X375871Y335471D02*
D03*
X112379Y176799D02*
D03*
X103879D02*
D03*
X131429D02*
D03*
X122929D02*
D03*
D40*
X297259Y405549D02*
D03*
X278259Y405549D02*
D03*
X149181Y340631D02*
D03*
X168181Y340631D02*
D03*
X183501Y445001D02*
D03*
X202501Y445001D02*
D03*
X151721Y180611D02*
D03*
X170721Y180611D02*
D03*
X254079Y331889D02*
D03*
X235079D02*
D03*
D41*
X212630Y429580D02*
D03*
X203130D02*
D03*
X193630D02*
D03*
X193630Y404080D02*
D03*
X203130D02*
D03*
X212630D02*
D03*
D42*
X131020Y143780D02*
D03*
X166020D02*
D03*
D43*
X152760Y226430D02*
D03*
X289030Y292920D02*
D03*
D44*
X192100Y488800D02*
D03*
Y514200D02*
D03*
X242900D02*
D03*
Y488800D02*
D03*
X268300D02*
D03*
Y514200D02*
D03*
X293700Y488800D02*
D03*
Y514200D02*
D03*
X319100Y488800D02*
D03*
Y514200D02*
D03*
X344500Y488800D02*
D03*
Y514200D02*
D03*
X369900Y488800D02*
D03*
Y514200D02*
D03*
X395300Y488800D02*
D03*
X217500Y514200D02*
D03*
Y488800D02*
D03*
X166700Y514200D02*
D03*
Y488800D02*
D03*
X192100Y45800D02*
D03*
Y71200D02*
D03*
X242900D02*
D03*
Y45800D02*
D03*
X268300D02*
D03*
Y71200D02*
D03*
X293700Y45800D02*
D03*
Y71200D02*
D03*
X319100Y45800D02*
D03*
Y71200D02*
D03*
X344500Y45800D02*
D03*
Y71200D02*
D03*
X369900Y45800D02*
D03*
Y71200D02*
D03*
X395300Y45800D02*
D03*
X217500Y71200D02*
D03*
Y45800D02*
D03*
X166700Y71200D02*
D03*
Y45800D02*
D03*
D45*
X395300Y514200D02*
D03*
Y71200D02*
D03*
D46*
X50500Y510500D02*
D03*
X50000Y49500D02*
D03*
X511500Y511000D02*
D03*
Y49500D02*
D03*
M02*
