G04*
G04 #@! TF.GenerationSoftware,Altium Limited,Altium Designer,23.8.1 (32)*
G04*
G04 Layer_Physical_Order=1*
G04 Layer_Color=255*
%FSLAX44Y44*%
%MOMM*%
G71*
G04*
G04 #@! TF.SameCoordinates,050FA7AA-ABA3-4C18-851E-56E06D371AC9*
G04*
G04*
G04 #@! TF.FilePolarity,Positive*
G04*
G01*
G75*
%ADD10C,0.1000*%
%ADD11C,0.2000*%
%ADD14R,1.0000X0.8000*%
%ADD15R,1.2700X0.9400*%
%ADD16R,0.4700X0.5200*%
%ADD17R,2.1600X2.2600*%
%ADD18R,0.5900X0.4500*%
%ADD19R,0.9500X1.7000*%
%ADD20R,0.4000X0.5000*%
%ADD21R,1.9000X1.1000*%
%ADD22R,0.5200X0.4700*%
%ADD23R,0.7500X0.9000*%
%ADD24R,0.9000X0.7500*%
%ADD25O,0.2500X1.2000*%
%ADD26R,2.5000X1.8950*%
G04:AMPARAMS|DCode=27|XSize=1.1mm|YSize=0.6mm|CornerRadius=0.051mm|HoleSize=0mm|Usage=FLASHONLY|Rotation=180.000|XOffset=0mm|YOffset=0mm|HoleType=Round|Shape=RoundedRectangle|*
%AMROUNDEDRECTD27*
21,1,1.1000,0.4980,0,0,180.0*
21,1,0.9980,0.6000,0,0,180.0*
1,1,0.1020,-0.4990,0.2490*
1,1,0.1020,0.4990,0.2490*
1,1,0.1020,0.4990,-0.2490*
1,1,0.1020,-0.4990,-0.2490*
%
%ADD27ROUNDEDRECTD27*%
%ADD28R,1.7000X0.9500*%
%ADD29R,3.3000X1.0500*%
%ADD30R,0.8000X1.0000*%
%ADD31R,0.9400X1.2700*%
%ADD32R,1.9600X3.0000*%
G04:AMPARAMS|DCode=33|XSize=5mm|YSize=5mm|CornerRadius=1.25mm|HoleSize=0mm|Usage=FLASHONLY|Rotation=0.000|XOffset=0mm|YOffset=0mm|HoleType=Round|Shape=RoundedRectangle|*
%AMROUNDEDRECTD33*
21,1,5.0000,2.5000,0,0,0.0*
21,1,2.5000,5.0000,0,0,0.0*
1,1,2.5000,1.2500,-1.2500*
1,1,2.5000,-1.2500,-1.2500*
1,1,2.5000,-1.2500,1.2500*
1,1,2.5000,1.2500,1.2500*
%
%ADD33ROUNDEDRECTD33*%
%ADD34C,1.2000*%
%ADD35R,1.2000X1.2000*%
%ADD36C,3.2000*%
%ADD37C,0.3000*%
%AMCUSTOMSHAPE38*
4,1,16,2.2500,-2.3000,2.2500,2.3000,-2.2500,2.3000,-2.2500,1.5000,-1.4000,1.5000,-1.4000,1.0300,-2.2500,1.0300,-2.2500,0.2300,-1.4000,0.2300,-1.4000,-0.2400,-2.2500,-0.2400,-2.2500,-1.0400,-1.4000,-1.0400,-1.4000,-1.5100,-2.2500,-1.5100,-2.2500,-2.3000,2.2500,-2.3000,0.0*%
%ADD38CUSTOMSHAPE38*%

%ADD39R,0.2540X0.2540*%
%AMCUSTOMSHAPE40*
4,1,16,-2.2500,2.3000,-2.2500,-2.3000,2.2500,-2.3000,2.2500,-1.5000,1.4000,-1.5000,1.4000,-1.0300,2.2500,-1.0300,2.2500,-0.2300,1.4000,-0.2300,1.4000,0.2400,2.2500,0.2400,2.2500,1.0400,1.4000,1.0400,1.4000,1.5100,2.2500,1.5100,2.2500,2.3000,-2.2500,2.3000,0.0*%
%ADD40CUSTOMSHAPE40*%

%AMCUSTOMSHAPE41*
4,1,16,-2.3000,-2.2500,2.3000,-2.2500,2.3000,2.2500,1.5000,2.2500,1.5000,1.4000,1.0300,1.4000,1.0300,2.2500,0.2300,2.2500,0.2300,1.4000,-0.2400,1.4000,-0.2400,2.2500,-1.0400,2.2500,-1.0400,1.4000,-1.5100,1.4000,-1.5100,2.2500,-2.3000,2.2500,-2.3000,-2.2500,0.0*%
%ADD41CUSTOMSHAPE41*%

%ADD42C,0.4000*%
%ADD43C,0.3000*%
%ADD44R,0.2286X0.3048*%
%ADD45C,0.5000*%
G36*
X285544Y346325D02*
X285750Y345460D01*
X285345Y344854D01*
X285151Y343878D01*
Y297556D01*
X276598Y289002D01*
X276045Y288175D01*
X275851Y287200D01*
Y273151D01*
X273504Y272180D01*
X271550Y274134D01*
Y279200D01*
X263850D01*
Y279200D01*
X262950D01*
Y279200D01*
X247650D01*
Y271000D01*
X256551D01*
Y267339D01*
X252810D01*
X252026Y267183D01*
X251361Y266739D01*
X250917Y266074D01*
X250761Y265290D01*
Y260310D01*
X250917Y259526D01*
X251361Y258861D01*
X252026Y258417D01*
X252810Y258261D01*
X262790D01*
X263039Y257600D01*
X263300D01*
Y256911D01*
X263700Y255852D01*
Y252596D01*
X263651Y252350D01*
Y250756D01*
X261234Y248339D01*
X252810D01*
X252026Y248183D01*
X251361Y247739D01*
X250917Y247074D01*
X250761Y246290D01*
Y241310D01*
X248697Y239624D01*
X239772D01*
X237839Y241557D01*
Y246290D01*
X237824Y246370D01*
Y246800D01*
X237493Y247598D01*
X238348Y247952D01*
X238824Y249100D01*
Y257300D01*
X238348Y258448D01*
X237962Y258608D01*
X237683Y259526D01*
X237839Y260310D01*
Y264725D01*
X238021Y264996D01*
X238215Y265972D01*
Y271000D01*
X239250D01*
Y279200D01*
X231724D01*
Y280000D01*
X231248Y281148D01*
X230100Y281624D01*
X206873D01*
X202548Y285948D01*
X201400Y286424D01*
X193250D01*
Y294400D01*
X185550D01*
X184249Y296401D01*
Y301444D01*
X191995Y309190D01*
X192305Y309011D01*
X194213Y308500D01*
X196187D01*
X198095Y309011D01*
X199805Y309998D01*
X201201Y311395D01*
X202189Y313105D01*
X202700Y315013D01*
Y316987D01*
X202189Y318895D01*
X201201Y320605D01*
X199805Y322001D01*
X198095Y322989D01*
X196187Y323500D01*
X194213D01*
X192305Y322989D01*
X190595Y322001D01*
X189198Y320605D01*
X188211Y318895D01*
X187700Y316987D01*
Y315013D01*
X188211Y313105D01*
X188390Y312795D01*
X179898Y304302D01*
X179345Y303475D01*
X179151Y302500D01*
Y295218D01*
X176950Y294400D01*
X176950Y294400D01*
Y294400D01*
X176950Y294400D01*
X169250D01*
Y286424D01*
X154300D01*
X152224Y288313D01*
Y292700D01*
X151748Y293848D01*
X150600Y294324D01*
X131200D01*
X130052Y293848D01*
X129783Y293200D01*
X127500D01*
Y260200D01*
X129576D01*
X129576Y252100D01*
X127200D01*
Y226500D01*
X129576D01*
Y219600D01*
X129948Y218704D01*
X129828Y218415D01*
X129600Y218187D01*
X129600Y217864D01*
X129476Y217566D01*
Y207200D01*
X129952Y206052D01*
X131100Y205576D01*
X143728D01*
X144476Y204827D01*
Y198100D01*
X144952Y196952D01*
X146100Y196476D01*
X160600D01*
X161576Y195824D01*
Y181200D01*
X162052Y180052D01*
X163200Y179576D01*
X168666D01*
X171050Y179200D01*
Y171000D01*
X171581D01*
X173010Y168733D01*
X173001Y168684D01*
X171980Y166424D01*
X164000D01*
X162852Y165948D01*
X162376Y164800D01*
Y153624D01*
X151000D01*
X149852Y153148D01*
X149376Y152000D01*
Y146000D01*
X149852Y144852D01*
X151000Y144376D01*
X162327D01*
X172507Y134197D01*
X171535Y131850D01*
X167900D01*
Y130549D01*
X164000D01*
Y132000D01*
X142698D01*
X142400Y132124D01*
X140724D01*
Y144876D01*
X142900D01*
X143198Y145000D01*
X144500D01*
Y146301D01*
X144624Y146600D01*
Y151000D01*
X144500Y151299D01*
Y153000D01*
X138324D01*
X138324Y165573D01*
X138324Y165700D01*
X138323Y165700D01*
X138282Y165800D01*
X138282Y165800D01*
X138200Y165998D01*
X138200Y166321D01*
X138200Y166321D01*
X138159Y166421D01*
X137930Y166649D01*
X137807Y166948D01*
X137508Y167072D01*
X137282Y167298D01*
X137280Y167300D01*
X136957D01*
X136659Y167423D01*
X136659Y167424D01*
X136117Y167424D01*
X126600D01*
X124624Y169354D01*
Y217000D01*
X124148Y218148D01*
X123000Y218624D01*
X112673D01*
X104624Y226672D01*
Y252000D01*
X104148Y253148D01*
X103000Y253624D01*
X80000D01*
X78524Y255761D01*
Y259076D01*
X101000D01*
X102148Y259552D01*
X102624Y260700D01*
Y292700D01*
X102148Y293848D01*
X101000Y294324D01*
X78524D01*
Y300500D01*
X78048Y301648D01*
X76900Y302124D01*
X25540D01*
X23982Y303071D01*
X23000Y304086D01*
Y323091D01*
X23000Y323100D01*
X23033Y325629D01*
X23961Y330292D01*
X25845Y334842D01*
X28581Y338937D01*
X32063Y342419D01*
X36158Y345155D01*
X40708Y347039D01*
X45538Y348000D01*
X48000D01*
X284625Y348000D01*
X285544Y346325D01*
D02*
G37*
G36*
X324476Y335010D02*
X324952Y333862D01*
X324952Y331458D01*
X324476Y330310D01*
Y322310D01*
X324952Y321162D01*
X324952Y318758D01*
X324476Y317610D01*
Y309610D01*
X324952Y308462D01*
X324952Y306058D01*
X324476Y304910D01*
Y297010D01*
X322332Y295549D01*
X291029D01*
X290249Y296500D01*
Y342501D01*
X324476D01*
Y335010D01*
D02*
G37*
G36*
X335900Y256400D02*
X325900D01*
X289700Y273600D01*
Y284000D01*
X295400Y289700D01*
X302396D01*
X303000Y288796D01*
Y287204D01*
X303609Y285734D01*
X304233Y285110D01*
Y284016D01*
X304709Y282868D01*
X305857Y282393D01*
X308143D01*
X309291Y282868D01*
X309767Y284016D01*
Y285110D01*
X310391Y285734D01*
X311000Y287204D01*
Y288796D01*
X311604Y289700D01*
X335900D01*
Y256400D01*
D02*
G37*
G36*
X388900Y317300D02*
X403600Y302600D01*
X443800D01*
X444000Y302400D01*
Y250400D01*
X373900D01*
X373800Y250500D01*
X373702Y327603D01*
X375497Y329400D01*
X388900D01*
Y317300D01*
D02*
G37*
G36*
X206200Y280000D02*
X230100D01*
Y271200D01*
X223800D01*
Y265487D01*
X223761Y265290D01*
Y260310D01*
X223800Y260113D01*
Y257300D01*
X237200D01*
Y249100D01*
X226200D01*
X222900Y252400D01*
X202200D01*
Y238600D01*
X154300D01*
Y284800D01*
X201400D01*
X206200Y280000D01*
D02*
G37*
G36*
X76900Y292700D02*
X101000D01*
Y260700D01*
X76900D01*
Y248600D01*
X24900D01*
Y300500D01*
X76900D01*
Y292700D01*
D02*
G37*
G36*
X202400Y198200D02*
X204500Y196100D01*
Y180300D01*
X196800D01*
X194000Y177500D01*
Y176399D01*
X193750Y175796D01*
Y174595D01*
X191688Y173051D01*
X189500Y173658D01*
Y216700D01*
X191300Y218500D01*
Y230900D01*
X194443D01*
X194734Y230609D01*
X196204Y230000D01*
X197796D01*
X199266Y230609D01*
X199557Y230900D01*
X202400D01*
Y198200D01*
D02*
G37*
G36*
X224385Y248619D02*
X224252Y247948D01*
X223776Y246800D01*
Y246369D01*
X223761Y246290D01*
Y241310D01*
X223776Y241231D01*
X223776Y221073D01*
X219228Y216524D01*
X205200D01*
X204024Y218786D01*
Y230900D01*
X203548Y232048D01*
X203311Y232146D01*
X202124Y232690D01*
X201545Y234566D01*
X201451Y235536D01*
X202751Y237205D01*
X203348Y237452D01*
X203824Y238600D01*
Y250776D01*
X222227D01*
X224385Y248619D01*
D02*
G37*
G36*
X236200Y240900D02*
X239100Y238000D01*
X260900D01*
Y215000D01*
X260800Y214900D01*
X234900Y214900D01*
X219400Y199400D01*
X205300D01*
X205200Y199500D01*
Y214900D01*
X219900D01*
X225400Y220400D01*
X225400Y246800D01*
X236200D01*
Y240900D01*
D02*
G37*
G36*
X150700Y215180D02*
Y209200D01*
X154443D01*
X154500Y209176D01*
X160527D01*
X160600Y209104D01*
Y198100D01*
X146100D01*
Y205500D01*
X144400Y207200D01*
X131100D01*
Y217566D01*
X131124Y217576D01*
X148281Y217596D01*
X150700Y215180D01*
D02*
G37*
G36*
X261300Y195255D02*
X261300Y175600D01*
X222400D01*
X208200Y161400D01*
X200300D01*
X189100Y150200D01*
X184500D01*
Y102000D01*
X178400D01*
Y130600D01*
X163000Y146000D01*
X151000D01*
Y152000D01*
X164000D01*
Y164800D01*
X192300D01*
X198500Y171000D01*
X198546D01*
X200016Y171609D01*
X201141Y172734D01*
X201750Y174204D01*
Y174250D01*
X207700Y180200D01*
Y184400D01*
X217100Y184400D01*
X220150Y187450D01*
X220300D01*
Y187600D01*
X222000Y189300D01*
Y197000D01*
X229597D01*
X229649Y196949D01*
X259501Y197048D01*
X261300Y195255D01*
D02*
G37*
G36*
X310050Y242100D02*
X310410Y241729D01*
X310498Y241598D01*
X313798Y238298D01*
X314625Y237745D01*
X315600Y237551D01*
X323841D01*
X324476Y236600D01*
Y228600D01*
X324952Y227452D01*
X324952Y225048D01*
X324476Y223900D01*
Y215900D01*
X324952Y214752D01*
X324952Y212348D01*
X324476Y211200D01*
Y203200D01*
X324952Y202052D01*
X324952Y199648D01*
X324476Y198500D01*
Y191914D01*
X298187D01*
X297211Y191720D01*
X296384Y191168D01*
X292596Y187379D01*
X290249Y188351D01*
Y236823D01*
X295477Y242051D01*
X302050D01*
X302296Y242100D01*
X310050Y242100D01*
D02*
G37*
G36*
X335900Y183300D02*
Y149941D01*
X335800Y149900D01*
X326000D01*
X292200Y167700D01*
X292100Y167800D01*
Y178200D01*
X297300Y183400D01*
X302016D01*
X302500Y182676D01*
Y181084D01*
X303109Y179614D01*
X303734Y178990D01*
Y177816D01*
X304209Y176668D01*
X305357Y176193D01*
X307643D01*
X308791Y176668D01*
X309267Y177816D01*
Y178990D01*
X309891Y179614D01*
X310500Y181084D01*
Y182676D01*
X310984Y183400D01*
X335859D01*
X335900Y183300D01*
D02*
G37*
G36*
X150600Y230000D02*
X188900Y230000D01*
Y219000D01*
X186400Y216500D01*
Y171800D01*
X180000D01*
Y179300D01*
X178100Y181200D01*
X163200D01*
Y208800D01*
X161200Y210800D01*
X154500D01*
X154500Y215800D01*
X152150Y218150D01*
Y218200D01*
X152100D01*
X150700Y219600D01*
X131200Y219600D01*
X131200Y292700D01*
X150600D01*
Y230000D01*
D02*
G37*
G36*
X103000Y226000D02*
X112000Y217000D01*
X123000D01*
Y152624D01*
X106800D01*
X105652Y152148D01*
X105591Y152000D01*
X103798D01*
X103500Y152124D01*
X87500D01*
X87443Y152100D01*
X85850D01*
Y152000D01*
X85500D01*
Y73000D01*
X23000D01*
Y126000D01*
X70500D01*
Y246500D01*
X80000D01*
Y252000D01*
X103000D01*
Y226000D01*
D02*
G37*
G36*
X389500Y213000D02*
X444300D01*
Y161000D01*
X399500D01*
X390000Y151500D01*
Y138600D01*
X375000D01*
X374900Y138641D01*
Y223500D01*
X389500D01*
Y213000D01*
D02*
G37*
G36*
X47600Y129000D02*
X32100D01*
Y245600D01*
X47600D01*
Y129000D01*
D02*
G37*
G36*
X68876Y246500D02*
Y127624D01*
X51403D01*
X49224Y129000D01*
Y245600D01*
X51403Y246976D01*
X68558D01*
X68876Y246500D01*
D02*
G37*
G36*
X167900Y124150D02*
X176100D01*
X176776Y121890D01*
Y102000D01*
X177252Y100852D01*
X177294Y100835D01*
X177600Y100096D01*
Y98504D01*
X178209Y97034D01*
X179334Y95909D01*
X180804Y95300D01*
X182396D01*
X184650Y93484D01*
Y84900D01*
X195150D01*
Y90841D01*
X196110Y91571D01*
X198650Y90311D01*
Y84900D01*
X209150D01*
Y92489D01*
X210406Y93458D01*
X212946Y92275D01*
Y86850D01*
X213105Y86050D01*
Y83910D01*
X200644Y71449D01*
X184200D01*
X183225Y71255D01*
X182398Y70702D01*
X178405Y66710D01*
X178095Y66889D01*
X176187Y67400D01*
X174213D01*
X172305Y66889D01*
X170595Y65901D01*
X169198Y64505D01*
X169164Y64445D01*
X166624Y65125D01*
Y70000D01*
X166148Y71148D01*
X165000Y71624D01*
X143924D01*
Y111700D01*
X150350D01*
Y111700D01*
X150450D01*
Y111700D01*
X158150D01*
Y119900D01*
X158150D01*
X157982Y121540D01*
X159533Y124000D01*
X164000D01*
Y125451D01*
X167900D01*
Y124150D01*
D02*
G37*
G36*
X198650Y116811D02*
Y111400D01*
X203155D01*
X204420Y108860D01*
X203733Y107950D01*
X200250D01*
Y106856D01*
X199677Y106473D01*
X190103Y96900D01*
X188608D01*
X186763Y99058D01*
X187236Y100450D01*
X188150D01*
Y107950D01*
X186124D01*
Y111400D01*
X195150D01*
Y117341D01*
X196110Y118071D01*
X198650Y116811D01*
D02*
G37*
G36*
X299750Y136332D02*
Y135800D01*
X309595D01*
X309998Y135198D01*
X311698Y133498D01*
X312525Y132945D01*
X313500Y132751D01*
X323036D01*
X324481Y130211D01*
X324476Y130200D01*
Y122200D01*
X324952Y121052D01*
X324952Y118648D01*
X324476Y117500D01*
Y109500D01*
X324952Y108352D01*
X324952Y105948D01*
X324476Y104800D01*
Y96800D01*
X324952Y95652D01*
X324952Y93248D01*
X324476Y92100D01*
Y84200D01*
X323774Y83149D01*
X277907D01*
X277863Y83194D01*
X276713Y85587D01*
X276840Y85777D01*
X277054Y86850D01*
Y96350D01*
X276840Y97423D01*
X276799Y97485D01*
Y116973D01*
X297210Y137384D01*
X299750Y136332D01*
D02*
G37*
G36*
X123800Y73000D02*
X106800D01*
Y151000D01*
X123800D01*
Y73000D01*
D02*
G37*
G36*
X103500Y150202D02*
X105176Y148654D01*
Y73000D01*
X102997Y71624D01*
X89303D01*
X87124Y73000D01*
Y148116D01*
X87500Y150500D01*
Y150500D01*
X103500D01*
Y150202D01*
D02*
G37*
G36*
X335900Y43600D02*
X325900D01*
X289700Y61100D01*
Y71600D01*
X295000Y76900D01*
X301650D01*
X302000Y76376D01*
Y74784D01*
X302609Y73314D01*
X303234Y72689D01*
Y71517D01*
X303709Y70369D01*
X304857Y69894D01*
X307143D01*
X308291Y70369D01*
X308767Y71517D01*
Y72690D01*
X309391Y73314D01*
X310000Y74784D01*
Y76376D01*
X310350Y76900D01*
X335900D01*
Y43600D01*
D02*
G37*
G36*
X264946Y96350D02*
Y86850D01*
X265160Y85777D01*
X265297Y85572D01*
Y84416D01*
X265491Y83440D01*
X266043Y82613D01*
X278910Y69747D01*
X277938Y67400D01*
X271305D01*
X268717Y69988D01*
X267890Y70541D01*
X266914Y70735D01*
X259110D01*
X258516Y72029D01*
X258332Y73275D01*
X259191Y74134D01*
X259800Y75604D01*
Y77196D01*
X259191Y78666D01*
X258066Y79791D01*
X257055Y81975D01*
X257249Y82950D01*
Y85640D01*
X257340Y85777D01*
X257554Y86850D01*
Y96350D01*
X258129Y97051D01*
X264371D01*
X264946Y96350D01*
D02*
G37*
G36*
X136700Y165700D02*
Y151000D01*
X143000D01*
Y146600D01*
X142900Y146500D01*
X139100D01*
Y130500D01*
X142400D01*
Y113400D01*
X142300D01*
Y70000D01*
X165000D01*
Y52000D01*
X85000D01*
Y70000D01*
X126600D01*
Y113400D01*
Y122500D01*
X133700D01*
Y131800D01*
X133700D01*
X133258Y132462D01*
X133400Y132804D01*
Y134396D01*
X132791Y135866D01*
X131666Y136991D01*
X130196Y137600D01*
X128604D01*
X126600Y139519D01*
Y165800D01*
X136659D01*
X136700Y165700D01*
D02*
G37*
G36*
X444400Y74000D02*
X403200D01*
X391000Y61800D01*
Y29700D01*
X375600D01*
Y117600D01*
X393000D01*
X401400Y126000D01*
X444400D01*
Y74000D01*
D02*
G37*
G36*
X83376Y70000D02*
Y52000D01*
X83852Y50852D01*
X85000Y50376D01*
X165000D01*
X166148Y50852D01*
X166624Y52000D01*
Y54675D01*
X169164Y55355D01*
X169198Y55295D01*
X170595Y53899D01*
X172305Y52911D01*
X174213Y52400D01*
X176187D01*
X178095Y52911D01*
X179805Y53899D01*
X181201Y55295D01*
X182189Y57005D01*
X182700Y58913D01*
Y60887D01*
X182189Y62795D01*
X182010Y63105D01*
X185027Y66123D01*
X187691Y66098D01*
X187979Y65794D01*
X188798Y63811D01*
X188211Y62795D01*
X187700Y60887D01*
Y58913D01*
X188211Y57005D01*
X189198Y55295D01*
X190595Y53899D01*
X192305Y52911D01*
X194213Y52400D01*
X196187D01*
X198095Y52911D01*
X199805Y53899D01*
X201201Y55295D01*
X202189Y57005D01*
X202700Y58913D01*
Y60517D01*
X203066Y60762D01*
X205760Y63455D01*
X208035Y62138D01*
X207700Y60887D01*
Y58913D01*
X208211Y57005D01*
X209198Y55295D01*
X210595Y53899D01*
X212305Y52911D01*
X214213Y52400D01*
X216187D01*
X218095Y52911D01*
X219805Y53899D01*
X221201Y55295D01*
X222189Y57005D01*
X222700Y58913D01*
Y60887D01*
X222189Y62795D01*
X222010Y63105D01*
X230136Y71231D01*
X231761Y70855D01*
X232676Y70254D01*
Y66988D01*
X232305Y66889D01*
X230595Y65901D01*
X229198Y64505D01*
X228211Y62795D01*
X227700Y60887D01*
Y58913D01*
X228211Y57005D01*
X229198Y55295D01*
X230595Y53899D01*
X232305Y52911D01*
X234213Y52400D01*
X236187D01*
X238095Y52911D01*
X239805Y53899D01*
X241201Y55295D01*
X242189Y57005D01*
X242700Y58913D01*
Y59103D01*
X245240Y60155D01*
X245984Y59412D01*
X246811Y58859D01*
X247765Y58669D01*
X248211Y57005D01*
X249198Y55295D01*
X250595Y53899D01*
X252305Y52911D01*
X254213Y52400D01*
X256187D01*
X258095Y52911D01*
X259805Y53899D01*
X261201Y55295D01*
X262189Y57005D01*
X262700Y58913D01*
Y60887D01*
X262189Y62795D01*
X262015Y63097D01*
X263481Y65637D01*
X265858D01*
X267700Y63795D01*
Y52400D01*
X282700D01*
Y52400D01*
X285240Y52405D01*
X299850Y37795D01*
Y30540D01*
X297890Y28000D01*
X48000Y28000D01*
Y28000D01*
X45538D01*
X40708Y28961D01*
X36158Y30845D01*
X32063Y33581D01*
X28581Y37063D01*
X25845Y41158D01*
X23961Y45708D01*
X23000Y50538D01*
Y53000D01*
Y71376D01*
X81197D01*
X83376Y70000D01*
D02*
G37*
G36*
X428000Y348000D02*
X430462D01*
X435292Y347039D01*
X439842Y345155D01*
X443937Y342419D01*
X447419Y338937D01*
X450155Y334842D01*
X452039Y330292D01*
X453000Y325462D01*
Y323000D01*
X453000Y53000D01*
X453000Y53000D01*
X453000Y50538D01*
X452039Y45708D01*
X450155Y41158D01*
X447419Y37063D01*
X443937Y33581D01*
X439842Y30845D01*
X435292Y28961D01*
X430462Y28000D01*
X428000D01*
X394669D01*
X392624Y29700D01*
Y61128D01*
X403872Y72376D01*
X444400D01*
X445548Y72852D01*
X446024Y74000D01*
Y126000D01*
X445548Y127148D01*
X444400Y127624D01*
X406200D01*
Y137050D01*
X401218D01*
X399857Y139590D01*
X400495Y140550D01*
X406200D01*
Y151050D01*
X395438D01*
X394386Y153590D01*
X400173Y159376D01*
X444300D01*
X445448Y159852D01*
X445924Y161000D01*
Y213000D01*
X445448Y214148D01*
X444300Y214624D01*
X404000D01*
Y224250D01*
X399181D01*
X398581Y225210D01*
X399988Y227750D01*
X404000D01*
Y238250D01*
X395605D01*
X391952Y241902D01*
X391157Y242562D01*
X391524Y243800D01*
Y248776D01*
X444000D01*
X445148Y249252D01*
X445624Y250400D01*
Y302400D01*
X445148Y303548D01*
X444948Y303748D01*
X443800Y304224D01*
X404272D01*
X391600Y316896D01*
Y317793D01*
X391720Y319269D01*
X393709Y320250D01*
X403800D01*
Y330750D01*
X396933D01*
X396860Y330801D01*
X396387Y331710D01*
X397929Y334250D01*
X403800D01*
Y344750D01*
X391800D01*
Y344750D01*
X391600Y344610D01*
X378600D01*
Y344610D01*
X377457Y344553D01*
X376770Y345460D01*
X378032Y348000D01*
X428000D01*
Y348000D01*
D02*
G37*
%LPC*%
G36*
X216187Y323500D02*
X214213D01*
X212305Y322989D01*
X210595Y322001D01*
X209198Y320605D01*
X208211Y318895D01*
X207700Y316987D01*
Y315013D01*
X208211Y313105D01*
X209198Y311395D01*
X210595Y309998D01*
X212305Y309011D01*
X214213Y308500D01*
X216187D01*
X218095Y309011D01*
X219805Y309998D01*
X221201Y311395D01*
X222189Y313105D01*
X222700Y315013D01*
Y316987D01*
X222189Y318895D01*
X221201Y320605D01*
X219805Y322001D01*
X218095Y322989D01*
X216187Y323500D01*
D02*
G37*
G36*
X176187D02*
X174213D01*
X172305Y322989D01*
X170595Y322001D01*
X169198Y320605D01*
X168211Y318895D01*
X167700Y316987D01*
Y315013D01*
X168211Y313105D01*
X169198Y311395D01*
X170595Y309998D01*
X172305Y309011D01*
X174213Y308500D01*
X176187D01*
X178095Y309011D01*
X179805Y309998D01*
X181201Y311395D01*
X182189Y313105D01*
X182700Y315013D01*
Y316987D01*
X182189Y318895D01*
X181201Y320605D01*
X179805Y322001D01*
X178095Y322989D01*
X176187Y323500D01*
D02*
G37*
G36*
X156187D02*
X154213D01*
X152305Y322989D01*
X150595Y322001D01*
X149199Y320605D01*
X148211Y318895D01*
X147700Y316987D01*
Y315013D01*
X148211Y313105D01*
X149199Y311395D01*
X150595Y309998D01*
X152305Y309011D01*
X154213Y308500D01*
X156187D01*
X158095Y309011D01*
X159805Y309998D01*
X161201Y311395D01*
X162189Y313105D01*
X162700Y315013D01*
Y316987D01*
X162189Y318895D01*
X161201Y320605D01*
X159805Y322001D01*
X158095Y322989D01*
X156187Y323500D01*
D02*
G37*
G36*
X136187D02*
X134213D01*
X132305Y322989D01*
X130595Y322001D01*
X129199Y320605D01*
X128211Y318895D01*
X127700Y316987D01*
Y315013D01*
X128211Y313105D01*
X129199Y311395D01*
X130595Y309998D01*
X132305Y309011D01*
X134213Y308500D01*
X136187D01*
X138095Y309011D01*
X139805Y309998D01*
X141201Y311395D01*
X142189Y313105D01*
X142700Y315013D01*
Y316987D01*
X142189Y318895D01*
X141201Y320605D01*
X139805Y322001D01*
X138095Y322989D01*
X136187Y323500D01*
D02*
G37*
G36*
X116187D02*
X114213D01*
X112305Y322989D01*
X110595Y322001D01*
X109199Y320605D01*
X108211Y318895D01*
X107700Y316987D01*
Y315013D01*
X108211Y313105D01*
X109199Y311395D01*
X110595Y309998D01*
X112305Y309011D01*
X114213Y308500D01*
X116187D01*
X118095Y309011D01*
X119805Y309998D01*
X121201Y311395D01*
X122189Y313105D01*
X122700Y315013D01*
Y316987D01*
X122189Y318895D01*
X121201Y320605D01*
X119805Y322001D01*
X118095Y322989D01*
X116187Y323500D01*
D02*
G37*
G36*
X96187D02*
X94213D01*
X92305Y322989D01*
X90595Y322001D01*
X89199Y320605D01*
X88211Y318895D01*
X87700Y316987D01*
Y315013D01*
X88211Y313105D01*
X89199Y311395D01*
X90595Y309998D01*
X92305Y309011D01*
X94213Y308500D01*
X96187D01*
X98095Y309011D01*
X99805Y309998D01*
X101201Y311395D01*
X102189Y313105D01*
X102700Y315013D01*
Y316987D01*
X102189Y318895D01*
X101201Y320605D01*
X99805Y322001D01*
X98095Y322989D01*
X96187Y323500D01*
D02*
G37*
G36*
X308144Y334608D02*
X305858D01*
X304710Y334132D01*
X304235Y332984D01*
Y331811D01*
X303609Y331186D01*
X303000Y329716D01*
Y328124D01*
X303609Y326654D01*
X304734Y325529D01*
X306204Y324920D01*
X307796D01*
X309266Y325529D01*
X310391Y326654D01*
X311000Y328124D01*
Y329716D01*
X310391Y331186D01*
X309768Y331809D01*
Y332984D01*
X309292Y334132D01*
X308144Y334608D01*
D02*
G37*
G36*
X307644Y228608D02*
X305358D01*
X304210Y228132D01*
X303735Y226984D01*
Y225812D01*
X303109Y225186D01*
X302500Y223716D01*
Y222124D01*
X303109Y220654D01*
X304234Y219529D01*
X305704Y218920D01*
X307296D01*
X308766Y219529D01*
X309891Y220654D01*
X310500Y222124D01*
Y223716D01*
X309891Y225186D01*
X309268Y225809D01*
Y226984D01*
X308792Y228132D01*
X307644Y228608D01*
D02*
G37*
G36*
X307144Y122188D02*
X304858D01*
X303710Y121712D01*
X303234Y120564D01*
Y119391D01*
X302609Y118766D01*
X302000Y117296D01*
Y115704D01*
X302609Y114234D01*
X303734Y113109D01*
X305204Y112500D01*
X306796D01*
X308266Y113109D01*
X309391Y114234D01*
X310000Y115704D01*
Y117296D01*
X309391Y118766D01*
X308767Y119389D01*
Y120564D01*
X308292Y121712D01*
X307144Y122188D01*
D02*
G37*
%LPD*%
D10*
X250725Y183700D02*
X259700Y192675D01*
X275700Y208675D02*
Y267100D01*
X259700Y192675D02*
X275700Y208675D01*
X259700Y192675D02*
Y192675D01*
X247700Y183700D02*
X250725D01*
X267700Y274850D02*
X269550Y273000D01*
X269800D02*
X275700Y267100D01*
X267700Y274850D02*
Y275100D01*
X269550Y273000D02*
X269800D01*
D11*
X129450Y127650D02*
X129500Y127600D01*
X129450Y127650D02*
Y133550D01*
X129400Y133600D02*
X129450Y133550D01*
X287700Y166700D02*
Y178878D01*
X282000Y161000D02*
X287700Y166700D01*
X275500Y157736D02*
Y161764D01*
X284700Y170964D01*
X251100Y165700D02*
X275100D01*
X281700Y172300D02*
Y181364D01*
X275100Y165700D02*
X281700Y172300D01*
X284700Y170964D02*
Y180121D01*
X266869Y161574D02*
X270426D01*
X254500Y162600D02*
X265843D01*
X270426Y161574D02*
X271000Y161000D01*
X265843Y162600D02*
X266869Y161574D01*
X228750Y156350D02*
X241200Y168800D01*
X222250Y156350D02*
X237700Y171800D01*
X241750Y156350D02*
X251100Y165700D01*
X237700Y171800D02*
X272200D01*
X241200Y168800D02*
X273700D01*
X278700Y173800D01*
X272200Y171800D02*
X275700Y175300D01*
X274250Y156486D02*
X275500Y157736D01*
X367400Y54000D02*
X376500Y63100D01*
Y80600D01*
X377928Y170928D02*
Y194600D01*
X367400Y160400D02*
X377928Y170928D01*
X380700Y280100D02*
Y293000D01*
X367400Y266800D02*
X380700Y280100D01*
X287700Y178878D02*
X298187Y189365D01*
X324506D02*
X325272Y188600D01*
X371928D01*
X377928Y194600D01*
X298187Y189365D02*
X324506D01*
X257800Y243800D02*
X260300D01*
X266200Y249700D01*
Y252350D01*
X268950Y255100D01*
X269700D01*
X249700Y76400D02*
X255800D01*
X249300Y76800D02*
X249700Y76400D01*
X183424Y104200D02*
X183700D01*
X182174Y102950D02*
X183424Y104200D01*
X182174Y99874D02*
Y102950D01*
X181600Y99300D02*
X182174Y99874D01*
X285561Y55689D02*
Y66700D01*
X267846Y84416D02*
X285561Y66700D01*
X271000Y85504D02*
X275904Y80600D01*
X376500D01*
X265100Y75000D02*
X269700D01*
X263300Y76800D02*
X265100Y75000D01*
X261250Y86715D02*
Y91600D01*
X263300Y76800D02*
Y84665D01*
X261250Y86715D02*
X263300Y84665D01*
X254700Y91550D02*
X254750Y91600D01*
X254700Y82950D02*
Y91550D01*
X249300Y77550D02*
X254700Y82950D01*
X249300Y76800D02*
Y77550D01*
X239200Y69800D02*
X247786Y61214D01*
X239200Y84300D02*
X241587Y86687D01*
X239200Y69800D02*
Y84300D01*
X243100Y82100D02*
X247754Y86755D01*
X243100Y71922D02*
Y82100D01*
Y71922D02*
X246836Y68186D01*
X241587Y91437D02*
X241750Y91600D01*
X241587Y86687D02*
Y91437D01*
X247754Y86755D02*
X248019D01*
X248250Y86986D01*
Y91600D01*
X246836Y68186D02*
X266914D01*
X247786Y61214D02*
X253886D01*
X255200Y59900D01*
X181700Y290300D02*
Y302500D01*
X195200Y316000D01*
X197700Y296100D02*
X197850Y295950D01*
Y290450D02*
X198000Y290300D01*
X197850Y290450D02*
Y295950D01*
X181700Y290300D02*
X189400D01*
X164600Y234100D02*
X196900D01*
X197000Y234000D01*
X164500Y234200D02*
X164600Y234100D01*
X160500Y128000D02*
X172000D01*
X153950Y122950D02*
Y127950D01*
X147000Y116300D02*
Y127500D01*
X153950Y127950D02*
X154000Y128000D01*
X147000Y127500D02*
X147500Y128000D01*
X146500Y115800D02*
X147000Y116300D01*
X153900Y122900D02*
X153950Y122950D01*
X146500Y115800D02*
X154300D01*
X288800Y293000D02*
X380700D01*
X281400Y285600D02*
X288800Y293000D01*
X382882Y295182D02*
Y298792D01*
X385100Y301010D01*
X380700Y293000D02*
X382882Y295182D01*
X309722Y148900D02*
X311800Y146822D01*
Y137000D02*
Y146822D01*
X286400Y143500D02*
X291800Y148900D01*
X309722D01*
X287700Y296500D02*
Y343878D01*
X278400Y186549D02*
Y287200D01*
X287700Y296500D01*
X281400Y185306D02*
Y285600D01*
X330500Y248100D02*
X330900Y247700D01*
X318800Y248100D02*
X330500D01*
X319000Y141800D02*
X330400D01*
X330900Y141300D01*
X305100Y35400D02*
Y36150D01*
X285561Y55689D02*
X305100Y36150D01*
X267750Y91600D02*
X267846Y91504D01*
Y84416D02*
Y91504D01*
X319100Y35400D02*
X319600Y34900D01*
X330900D01*
X394648Y126300D02*
X396700Y128352D01*
Y129050D02*
X399450Y131800D01*
X385100Y126300D02*
X394648D01*
X396700Y128352D02*
Y129050D01*
X399450Y131800D02*
X400148D01*
X390628Y135300D02*
X396700Y141372D01*
Y143050D01*
X399450Y145800D02*
X400200D01*
X396700Y143050D02*
X399450Y145800D01*
X313500Y135300D02*
X390628D01*
X311800Y137000D02*
X313500Y135300D01*
X264600Y143500D02*
X286400D01*
X261250Y146850D02*
X264600Y143500D01*
X261250Y146850D02*
Y151600D01*
X397250Y233000D02*
X398000D01*
X390150Y240100D02*
X397250Y233000D01*
X315600Y240100D02*
X390150D01*
X394500Y221750D02*
X397250Y219000D01*
X385100Y232700D02*
X386100D01*
X394500Y224300D01*
Y221750D02*
Y224300D01*
X397250Y219000D02*
X398000D01*
X275700Y183849D02*
X278400Y186549D01*
X278700Y182606D02*
X281400Y185306D01*
X284700Y180121D02*
X287700Y183121D01*
X281700Y181364D02*
X284600Y184264D01*
X275700Y175300D02*
Y183849D01*
X278700Y173800D02*
Y182606D01*
X284600Y184264D02*
Y239021D01*
X300179Y254600D01*
X311128D01*
X287700Y183121D02*
Y237878D01*
X312300Y243400D02*
Y253428D01*
X287700Y237878D02*
X294422Y244600D01*
X311128Y254600D02*
X312300Y253428D01*
X259904Y159600D02*
X264600D01*
X267750Y156450D01*
X248250Y156350D02*
X254500Y162600D01*
X258000Y157696D02*
X259904Y159600D01*
X267750Y151600D02*
Y156450D01*
X258000Y144600D02*
Y157696D01*
X274250Y151600D02*
Y156486D01*
X397410Y339110D02*
X397800Y339500D01*
X385100Y339110D02*
X397410D01*
X392343Y330207D02*
Y330996D01*
X390928Y332410D02*
X392343Y330996D01*
X397050Y325500D02*
X397800D01*
X392343Y330207D02*
X397050Y325500D01*
X379972Y332410D02*
X390928D01*
X287700Y343878D02*
X288871Y345050D01*
X371888D01*
X375950Y340988D01*
Y336432D02*
Y340988D01*
Y336432D02*
X379972Y332410D01*
X222250Y151600D02*
Y156350D01*
X228750Y151600D02*
Y156350D01*
X312300Y243400D02*
X315600Y240100D01*
X294422Y244600D02*
X302050D01*
X304800Y247350D01*
X248250Y151600D02*
Y156350D01*
X241750Y151600D02*
Y156350D01*
X248154Y151504D02*
X248250Y151600D01*
X304800Y247350D02*
Y248100D01*
X377928Y194600D02*
X385100D01*
X224000Y110600D02*
X258000Y144600D01*
X298022Y141800D02*
X305000D01*
X274250Y91600D02*
Y118028D01*
X298022Y141800D01*
X222850Y110600D02*
X224000D01*
X211850Y99600D02*
X222850Y110600D01*
X254500Y146465D02*
X254750Y146715D01*
X254500Y146300D02*
Y146465D01*
X221800Y113600D02*
X254500Y146300D01*
X254750Y146715D02*
Y151600D01*
X214100Y113600D02*
X221800D01*
X211850Y99600D02*
X269096D01*
X271000Y85504D02*
Y97696D01*
X384100Y88200D02*
X385100D01*
X376500Y80600D02*
X384100Y88200D01*
X269096Y99600D02*
X271000Y97696D01*
X203900Y91650D02*
X211850Y99600D01*
X203900Y90900D02*
Y91650D01*
X214665Y157300D02*
X215750Y156215D01*
X204700Y157300D02*
X214665D01*
X215750Y151600D02*
Y156215D01*
X204700Y130700D02*
X220000D01*
X206650Y105450D02*
Y106150D01*
X205400Y104200D02*
X206650Y105450D01*
Y106150D02*
X214100Y113600D01*
X204700Y104200D02*
X205400D01*
X219300Y117400D02*
X248154Y146254D01*
X203900Y117400D02*
X219300D01*
X248154Y146254D02*
Y151504D01*
X235154D02*
X235250Y151600D01*
X220000Y130700D02*
X235154Y145854D01*
Y151504D01*
X210700Y144000D02*
X212400Y142300D01*
X226400D02*
X228800Y144700D01*
X212400Y142300D02*
X226400D01*
X228800Y144700D02*
Y151550D01*
X203900Y144000D02*
X210700D01*
X228750Y151600D02*
X228800Y151550D01*
X215200Y59900D02*
X228750Y73450D01*
Y91600D01*
X195200Y59900D02*
X197906D01*
X222250Y83550D02*
Y91600D01*
X201264Y62564D02*
X222250Y83550D01*
X200570Y62564D02*
X201264D01*
X197906Y59900D02*
X200570Y62564D01*
X184200Y68900D02*
X201700D01*
X215654Y82854D01*
Y91504D01*
X175200Y59900D02*
X184200Y68900D01*
X215654Y91504D02*
X215750Y91600D01*
X235200Y59900D02*
X235225Y59925D01*
Y91575D01*
X235250Y91600D01*
X266914Y68186D02*
X275200Y59900D01*
X257800Y262800D02*
X259100Y264100D01*
Y275100D01*
X251500D02*
X259100D01*
X230800Y262800D02*
X233300D01*
X235300Y264800D02*
Y265606D01*
X235400Y275100D02*
X235666Y274834D01*
X235300Y265606D02*
X235666Y265972D01*
Y274834D01*
X233300Y262800D02*
X235300Y264800D01*
X173100Y283900D02*
Y290300D01*
X173100Y283900D02*
X173100Y283900D01*
X174900Y170700D02*
X176400Y169200D01*
X190878D02*
X192050Y170372D01*
Y174950D01*
X176400Y169200D02*
X190878D01*
X174900Y175100D02*
X174900Y175100D01*
X174900Y170700D02*
Y175100D01*
X191900Y175100D02*
X192050Y174950D01*
D14*
X137000Y174200D02*
D03*
Y186900D02*
D03*
Y199600D02*
D03*
Y212300D02*
D03*
X385100Y339110D02*
D03*
Y326410D02*
D03*
Y313710D02*
D03*
Y301010D02*
D03*
Y232700D02*
D03*
Y220000D02*
D03*
Y207300D02*
D03*
Y194600D02*
D03*
Y126300D02*
D03*
Y113600D02*
D03*
Y100900D02*
D03*
Y88200D02*
D03*
X330900Y247700D02*
D03*
Y260400D02*
D03*
Y273100D02*
D03*
Y285800D02*
D03*
Y141300D02*
D03*
Y154000D02*
D03*
Y166700D02*
D03*
Y179400D02*
D03*
Y34900D02*
D03*
Y47600D02*
D03*
Y60300D02*
D03*
Y73000D02*
D03*
D15*
X153300Y174640D02*
D03*
X211600Y233160D02*
D03*
Y204200D02*
D03*
X153300Y203600D02*
D03*
D16*
X166300Y175100D02*
D03*
X162900Y115800D02*
D03*
X154300D02*
D03*
X146500D02*
D03*
X137900D02*
D03*
X259100Y275100D02*
D03*
X267700D02*
D03*
X235400D02*
D03*
X226800D02*
D03*
X251500D02*
D03*
X242900D02*
D03*
X156900Y214100D02*
D03*
X148300D02*
D03*
X173100Y290300D02*
D03*
X181700D02*
D03*
X189400D02*
D03*
X198000D02*
D03*
X183300Y175100D02*
D03*
X191900D02*
D03*
X174900D02*
D03*
D17*
X90500Y239300D02*
D03*
X139500D02*
D03*
D18*
X183700Y104200D02*
D03*
X204700D02*
D03*
Y157300D02*
D03*
X183700D02*
D03*
X204700Y130700D02*
D03*
X183700D02*
D03*
D19*
X92100Y81900D02*
D03*
X119100D02*
D03*
X63800Y137200D02*
D03*
X36800D02*
D03*
Y217200D02*
D03*
X63800D02*
D03*
X36800Y197200D02*
D03*
X63800D02*
D03*
X36800Y177200D02*
D03*
X63800D02*
D03*
X119100Y142100D02*
D03*
X92100D02*
D03*
X36800Y157200D02*
D03*
X63800D02*
D03*
X36800Y237200D02*
D03*
X63800Y237200D02*
D03*
X168800Y208100D02*
D03*
X195800D02*
D03*
X119100Y122000D02*
D03*
X92100D02*
D03*
X119100Y102000D02*
D03*
X92100Y102000D02*
D03*
D20*
X154000Y128000D02*
D03*
X160500Y149000D02*
D03*
X154000D02*
D03*
X147500D02*
D03*
X141000D02*
D03*
X160500Y128000D02*
D03*
X147500D02*
D03*
X141000D02*
D03*
D21*
X150750Y138500D02*
D03*
D22*
X129500Y127600D02*
D03*
Y119000D02*
D03*
X172000Y128000D02*
D03*
Y119400D02*
D03*
D23*
X145500Y160200D02*
D03*
X131500D02*
D03*
X170500D02*
D03*
X156500D02*
D03*
X319100Y35400D02*
D03*
X305100D02*
D03*
X318800Y248100D02*
D03*
X304800D02*
D03*
X319000Y141800D02*
D03*
X305000D02*
D03*
X189900Y90900D02*
D03*
X203900D02*
D03*
X249300Y76800D02*
D03*
X263300D02*
D03*
X203900Y117400D02*
D03*
X189900D02*
D03*
X203900Y144000D02*
D03*
X189900D02*
D03*
D24*
X400200Y131800D02*
D03*
Y145800D02*
D03*
X398000Y219000D02*
D03*
Y233000D02*
D03*
X397800Y339500D02*
D03*
Y325500D02*
D03*
X269700Y255100D02*
D03*
Y241100D02*
D03*
X214300Y178700D02*
D03*
Y192700D02*
D03*
D25*
X215750Y91600D02*
D03*
X222250D02*
D03*
X228750D02*
D03*
X235250D02*
D03*
X241750D02*
D03*
X248250D02*
D03*
X254750D02*
D03*
X261250D02*
D03*
X267750D02*
D03*
X274250D02*
D03*
X215750Y151600D02*
D03*
X222250D02*
D03*
X228750D02*
D03*
X235250D02*
D03*
X241750D02*
D03*
X248250D02*
D03*
X254750D02*
D03*
X261250D02*
D03*
X267750D02*
D03*
X274250D02*
D03*
D26*
X247700Y224600D02*
D03*
Y183700D02*
D03*
D27*
X230800Y243800D02*
D03*
Y253300D02*
D03*
Y262800D02*
D03*
X257800D02*
D03*
Y253300D02*
D03*
Y243800D02*
D03*
D28*
X212800Y273000D02*
D03*
Y246000D02*
D03*
D29*
X306200Y337800D02*
D03*
Y278800D02*
D03*
Y231800D02*
D03*
Y172800D02*
D03*
Y125400D02*
D03*
Y66400D02*
D03*
D30*
X196400Y224700D02*
D03*
X183700D02*
D03*
X171000D02*
D03*
X158300D02*
D03*
D31*
X168840Y188600D02*
D03*
X197800D02*
D03*
D32*
X89700Y276700D02*
D03*
X138800D02*
D03*
D33*
X50900Y99900D02*
D03*
Y274600D02*
D03*
X418100Y276400D02*
D03*
X418300Y187000D02*
D03*
X418400Y100000D02*
D03*
D34*
X95200Y39900D02*
D03*
X115200D02*
D03*
X135200D02*
D03*
X155200D02*
D03*
X175200D02*
D03*
X195200D02*
D03*
X215200D02*
D03*
X235200D02*
D03*
X95200Y59900D02*
D03*
X115200D02*
D03*
X135200D02*
D03*
X155200D02*
D03*
X175200D02*
D03*
X195200D02*
D03*
X215200D02*
D03*
X235200D02*
D03*
X255200Y39900D02*
D03*
Y59900D02*
D03*
X275200Y39900D02*
D03*
X95200Y316000D02*
D03*
X115200D02*
D03*
X135200D02*
D03*
X155200D02*
D03*
X175200D02*
D03*
X195200D02*
D03*
X215200D02*
D03*
X235200D02*
D03*
X95200Y336000D02*
D03*
X115200D02*
D03*
X135200D02*
D03*
X155200D02*
D03*
X175200D02*
D03*
X195200D02*
D03*
X215200D02*
D03*
X235200D02*
D03*
X255200Y316000D02*
D03*
Y336000D02*
D03*
X275200Y316000D02*
D03*
D35*
Y59900D02*
D03*
Y336000D02*
D03*
D36*
X48000Y323100D02*
D03*
Y53000D02*
D03*
X428000Y323100D02*
D03*
Y53000D02*
D03*
D37*
X38700Y313900D02*
D03*
X57200D02*
D03*
X35000Y323100D02*
D03*
X48000Y336100D02*
D03*
X61000Y323100D02*
D03*
X48000Y310100D02*
D03*
X38300Y331900D02*
D03*
X58100Y331600D02*
D03*
Y61500D02*
D03*
X38300Y61800D02*
D03*
X48000Y40000D02*
D03*
X61000Y53000D02*
D03*
X48000Y66000D02*
D03*
X35000Y53000D02*
D03*
X57200Y43800D02*
D03*
X38700D02*
D03*
X438100Y331600D02*
D03*
X418300Y331900D02*
D03*
X428000Y310100D02*
D03*
X441000Y323100D02*
D03*
X428000Y336100D02*
D03*
X415000Y323100D02*
D03*
X437200Y313900D02*
D03*
X418700D02*
D03*
X438100Y61500D02*
D03*
X418300Y61800D02*
D03*
X428000Y40000D02*
D03*
X441000Y53000D02*
D03*
X428000Y66000D02*
D03*
X415000Y53000D02*
D03*
X437200Y43800D02*
D03*
X418700D02*
D03*
D38*
X100500Y193200D02*
D03*
X348600Y320010D02*
D03*
Y213600D02*
D03*
Y107200D02*
D03*
D39*
X306500Y181880D02*
D03*
Y176800D02*
D03*
X306000Y75580D02*
D03*
Y70500D02*
D03*
Y116500D02*
D03*
Y121580D02*
D03*
X306500Y222920D02*
D03*
Y228000D02*
D03*
X307000Y328920D02*
D03*
Y334000D02*
D03*
Y288080D02*
D03*
Y283000D02*
D03*
D40*
X367400Y266800D02*
D03*
Y160400D02*
D03*
Y54000D02*
D03*
D41*
X177300Y261200D02*
D03*
D42*
X202200Y157050D02*
X204450D01*
X204700Y157300D01*
X189900Y144000D02*
Y144750D01*
X202200Y157050D01*
X189900Y118150D02*
X202200Y130450D01*
X204450D01*
X189900Y117400D02*
Y118150D01*
X204450Y130450D02*
X204700Y130700D01*
X202200Y103950D02*
X204450D01*
X189900Y90900D02*
Y91650D01*
X202200Y103950D01*
X204450D02*
X204700Y104200D01*
D43*
X262125Y232575D02*
X270650Y241100D01*
X255675Y232575D02*
X262125D01*
X247700Y224600D02*
X255675Y232575D01*
X270650Y241100D02*
X271400D01*
D44*
X306500Y179340D02*
D03*
X306000Y73041D02*
D03*
X306001Y119040D02*
D03*
X306501Y225460D02*
D03*
X307001Y331460D02*
D03*
X307000Y285540D02*
D03*
D45*
X129400Y133600D02*
D03*
X156500Y160200D02*
D03*
X149000Y171898D02*
D03*
X143006Y178390D02*
D03*
X137006Y172288D02*
D03*
X137000Y185000D02*
D03*
X111000Y254000D02*
D03*
X122000Y247000D02*
D03*
Y234000D02*
D03*
X111000Y239000D02*
D03*
X115000Y225000D02*
D03*
X110500Y77000D02*
D03*
Y97500D02*
D03*
Y117000D02*
D03*
Y137000D02*
D03*
X101000Y87000D02*
D03*
Y107000D02*
D03*
Y127000D02*
D03*
Y147000D02*
D03*
X55000Y142000D02*
D03*
Y162000D02*
D03*
Y182000D02*
D03*
Y202000D02*
D03*
Y221000D02*
D03*
Y242000D02*
D03*
X282000Y161000D02*
D03*
X271000D02*
D03*
X143250Y138500D02*
D03*
X150750D02*
D03*
X306500Y181880D02*
D03*
X191000Y80000D02*
D03*
X174000D02*
D03*
X156000Y102000D02*
D03*
Y80000D02*
D03*
X44000Y133000D02*
D03*
Y153000D02*
D03*
Y173000D02*
D03*
Y193000D02*
D03*
Y213000D02*
D03*
Y234000D02*
D03*
X255800Y76400D02*
D03*
X181600Y99300D02*
D03*
X269700Y75000D02*
D03*
X208000Y277000D02*
D03*
X216000D02*
D03*
Y269000D02*
D03*
X208000D02*
D03*
X210000Y256000D02*
D03*
X218000D02*
D03*
X166000Y247000D02*
D03*
Y255000D02*
D03*
X158000D02*
D03*
Y263000D02*
D03*
X166000D02*
D03*
Y271000D02*
D03*
X158000D02*
D03*
X157500Y193700D02*
D03*
X154700Y234300D02*
D03*
X197700Y296100D02*
D03*
X223900Y287100D02*
D03*
X164500Y234200D02*
D03*
X145500Y160000D02*
D03*
X197750Y175000D02*
D03*
X189500Y298500D02*
D03*
X190500Y106000D02*
D03*
X197000Y234000D02*
D03*
X131500Y160200D02*
D03*
X245000Y256000D02*
D03*
X158250Y138500D02*
D03*
X153900Y122900D02*
D03*
X318000Y125000D02*
D03*
X310000D02*
D03*
X302000D02*
D03*
X294000D02*
D03*
X318000Y232000D02*
D03*
X310000D02*
D03*
X302000D02*
D03*
X294000D02*
D03*
X318000Y338000D02*
D03*
X310000D02*
D03*
X302000D02*
D03*
X294000D02*
D03*
X306000Y116500D02*
D03*
Y75580D02*
D03*
X306500Y222920D02*
D03*
X307000Y288000D02*
D03*
Y328920D02*
D03*
X360000Y91000D02*
D03*
X350000D02*
D03*
X340000D02*
D03*
X360000Y101000D02*
D03*
X350000D02*
D03*
X340000D02*
D03*
X360000Y111000D02*
D03*
X350000D02*
D03*
X340000D02*
D03*
X360000Y121000D02*
D03*
X350000D02*
D03*
X340000D02*
D03*
X360000Y201000D02*
D03*
X350000D02*
D03*
X340000D02*
D03*
X360000Y211000D02*
D03*
X350000D02*
D03*
X340000D02*
D03*
X360000Y221000D02*
D03*
X350000D02*
D03*
X340000D02*
D03*
X360000Y231000D02*
D03*
X350000D02*
D03*
X340000D02*
D03*
X360000Y306000D02*
D03*
X350000D02*
D03*
X340000D02*
D03*
X360000Y316000D02*
D03*
X350000D02*
D03*
X340000D02*
D03*
X360000Y326000D02*
D03*
X350000D02*
D03*
X340000D02*
D03*
X360000Y336000D02*
D03*
X350000D02*
D03*
X340000D02*
D03*
X214300Y192700D02*
D03*
X217200Y224700D02*
D03*
X208100Y224600D02*
D03*
M02*
