G04*
G04 #@! TF.GenerationSoftware,Altium Limited,Altium Designer,23.8.1 (32)*
G04*
G04 Layer_Color=16711935*
%FSLAX44Y44*%
%MOMM*%
G71*
G04*
G04 #@! TF.SameCoordinates,050FA7AA-ABA3-4C18-851E-56E06D371AC9*
G04*
G04*
G04 #@! TF.FilePolarity,Positive*
G04*
G01*
G75*
%ADD11C,0.2000*%
%ADD55C,0.1270*%
%ADD56C,0.0508*%
%ADD57C,0.0762*%
D11*
X48000Y348000D02*
G03*
X23000Y323000I0J-25000D01*
G01*
X453000Y323000D02*
G03*
X428000Y348000I-25000J0D01*
G01*
Y28000D02*
G03*
X453000Y53000I0J25000D01*
G01*
X23000D02*
G03*
X48000Y28000I25000J0D01*
G01*
X23000Y53000D02*
Y323100D01*
X48100Y348000D02*
X428000D01*
X453000Y53000D02*
Y323000D01*
X48000Y28000D02*
X428000D01*
D55*
X87580Y378060D02*
X95200Y380600D01*
X87580Y383140D02*
X95200Y380600D01*
X23000D02*
X30620Y383140D01*
X23000Y380600D02*
X30620Y378060D01*
X76239Y380600D02*
X95200D01*
X23000D02*
X39420D01*
X15380Y352660D02*
X23000Y355200D01*
X15380Y357740D02*
X23000Y355200D01*
X48000D02*
X55620Y357740D01*
X48000Y355200D02*
X55620Y352660D01*
X7760Y355200D02*
X23000D01*
X48000D02*
X63240D01*
X471800Y348000D02*
X474340Y340380D01*
X469260D02*
X471800Y348000D01*
X469260Y35620D02*
X471800Y28000D01*
X474340Y35620D01*
X471800Y208948D02*
Y348000D01*
Y28000D02*
Y164512D01*
X23000Y391100D02*
X30620Y393640D01*
X23000Y391100D02*
X30620Y388560D01*
X445380D02*
X453000Y391100D01*
X445380Y393640D02*
X453000Y391100D01*
X23000D02*
X214512D01*
X258948D02*
X453000D01*
D56*
X95200Y322508D02*
Y381108D01*
X23000Y324508D02*
Y381108D01*
X48000Y339608D02*
Y355708D01*
X23000Y324608D02*
Y355708D01*
X429508Y348000D02*
X472308D01*
X429508Y28000D02*
X472308D01*
X23000Y324508D02*
Y391608D01*
X453000Y324508D02*
Y391608D01*
D57*
X40690Y383647D02*
X45769D01*
Y382377D01*
X40690Y377299D01*
Y376029D01*
X48308D02*
Y377299D01*
X49578D01*
Y376029D01*
X48308D01*
X59734D02*
X54656D01*
X59734Y381108D01*
Y382377D01*
X58465Y383647D01*
X55926D01*
X54656Y382377D01*
X62274Y376029D02*
Y381108D01*
X63543D01*
X64813Y379838D01*
Y376029D01*
Y379838D01*
X66082Y381108D01*
X67352Y379838D01*
Y376029D01*
X69891D02*
Y381108D01*
X71161D01*
X72430Y379838D01*
Y376029D01*
Y379838D01*
X73700Y381108D01*
X74969Y379838D01*
Y376029D01*
X22169Y364342D02*
X17091D01*
X22169Y369420D01*
Y370690D01*
X20899Y371959D01*
X18360D01*
X17091Y370690D01*
X24708Y364342D02*
Y365611D01*
X25978D01*
Y364342D01*
X24708D01*
X36134Y371959D02*
X31056D01*
Y368150D01*
X33595Y369420D01*
X34865D01*
X36134Y368150D01*
Y365611D01*
X34865Y364342D01*
X32326D01*
X31056Y365611D01*
X38674Y364342D02*
Y369420D01*
X39943D01*
X41213Y368150D01*
Y364342D01*
Y368150D01*
X42482Y369420D01*
X43752Y368150D01*
Y364342D01*
X46291D02*
Y369420D01*
X47561D01*
X48830Y368150D01*
Y364342D01*
Y368150D01*
X50100Y369420D01*
X51370Y368150D01*
Y364342D01*
X470023Y165782D02*
X468753Y167051D01*
Y169591D01*
X470023Y170860D01*
X471292D01*
X472562Y169591D01*
Y168321D01*
Y169591D01*
X473832Y170860D01*
X475101D01*
X476371Y169591D01*
Y167051D01*
X475101Y165782D01*
X476371Y178478D02*
Y173399D01*
X471292Y178478D01*
X470023D01*
X468753Y177208D01*
Y174669D01*
X470023Y173399D01*
X476371Y181017D02*
X475101D01*
Y182286D01*
X476371D01*
Y181017D01*
X470023Y187365D02*
X468753Y188634D01*
Y191174D01*
X470023Y192443D01*
X475101D01*
X476371Y191174D01*
Y188634D01*
X475101Y187365D01*
X470023D01*
X476371Y194982D02*
X471292D01*
Y196252D01*
X472562Y197521D01*
X476371D01*
X472562D01*
X471292Y198791D01*
X472562Y200061D01*
X476371D01*
Y202600D02*
X471292D01*
Y203869D01*
X472562Y205139D01*
X476371D01*
X472562D01*
X471292Y206409D01*
X472562Y207678D01*
X476371D01*
X219590Y386529D02*
Y394147D01*
X215782Y390338D01*
X220860D01*
X223399Y392877D02*
X224669Y394147D01*
X227208D01*
X228478Y392877D01*
Y391608D01*
X227208Y390338D01*
X225938D01*
X227208D01*
X228478Y389068D01*
Y387799D01*
X227208Y386529D01*
X224669D01*
X223399Y387799D01*
X231017Y386529D02*
Y387799D01*
X232286D01*
Y386529D01*
X231017D01*
X237365Y392877D02*
X238634Y394147D01*
X241174D01*
X242443Y392877D01*
Y387799D01*
X241174Y386529D01*
X238634D01*
X237365Y387799D01*
Y392877D01*
X244982Y386529D02*
Y391608D01*
X246252D01*
X247521Y390338D01*
Y386529D01*
Y390338D01*
X248791Y391608D01*
X250061Y390338D01*
Y386529D01*
X252600D02*
Y391608D01*
X253869D01*
X255139Y390338D01*
Y386529D01*
Y390338D01*
X256409Y391608D01*
X257678Y390338D01*
Y386529D01*
M02*
