G04*
G04 #@! TF.GenerationSoftware,Altium Limited,Altium Designer,23.8.1 (32)*
G04*
G04 Layer_Color=8388736*
%FSLAX44Y44*%
%MOMM*%
G71*
G04*
G04 #@! TF.SameCoordinates,050FA7AA-ABA3-4C18-851E-56E06D371AC9*
G04*
G04*
G04 #@! TF.FilePolarity,Negative*
G04*
G01*
G75*
%ADD14R,1.0000X0.8000*%
%ADD15R,1.2700X0.9400*%
%ADD16R,0.4700X0.5200*%
%ADD17R,2.1600X2.2600*%
%ADD18R,0.5900X0.4500*%
%ADD19R,0.9500X1.7000*%
%ADD20R,0.4000X0.5000*%
%ADD21R,1.9000X1.1000*%
%ADD22R,0.5200X0.4700*%
%ADD23R,0.7500X0.9000*%
%ADD24R,0.9000X0.7500*%
%ADD25O,0.2500X1.2000*%
%ADD26R,2.5000X1.8950*%
G04:AMPARAMS|DCode=27|XSize=1.1mm|YSize=0.6mm|CornerRadius=0.051mm|HoleSize=0mm|Usage=FLASHONLY|Rotation=180.000|XOffset=0mm|YOffset=0mm|HoleType=Round|Shape=RoundedRectangle|*
%AMROUNDEDRECTD27*
21,1,1.1000,0.4980,0,0,180.0*
21,1,0.9980,0.6000,0,0,180.0*
1,1,0.1020,-0.4990,0.2490*
1,1,0.1020,0.4990,0.2490*
1,1,0.1020,0.4990,-0.2490*
1,1,0.1020,-0.4990,-0.2490*
%
%ADD27ROUNDEDRECTD27*%
%ADD28R,1.7000X0.9500*%
%ADD29R,3.3000X1.0500*%
%ADD30R,0.8000X1.0000*%
%ADD31R,0.9400X1.2700*%
%ADD32R,1.9600X3.0000*%
G04:AMPARAMS|DCode=33|XSize=5mm|YSize=5mm|CornerRadius=1.25mm|HoleSize=0mm|Usage=FLASHONLY|Rotation=0.000|XOffset=0mm|YOffset=0mm|HoleType=Round|Shape=RoundedRectangle|*
%AMROUNDEDRECTD33*
21,1,5.0000,2.5000,0,0,0.0*
21,1,2.5000,5.0000,0,0,0.0*
1,1,2.5000,1.2500,-1.2500*
1,1,2.5000,-1.2500,-1.2500*
1,1,2.5000,-1.2500,1.2500*
1,1,2.5000,1.2500,1.2500*
%
%ADD33ROUNDEDRECTD33*%
%ADD34C,1.2000*%
%ADD35R,1.2000X1.2000*%
%ADD36C,3.2000*%
%ADD37C,0.3000*%
G36*
X371100Y297010D02*
X326100D01*
Y304910D01*
X334600D01*
Y309610D01*
X326100D01*
Y317610D01*
X334600D01*
Y322310D01*
X326100D01*
Y330310D01*
X334600D01*
Y335010D01*
X326100D01*
Y343010D01*
X371100D01*
Y297010D01*
D02*
G37*
G36*
X200300Y238700D02*
X154300D01*
Y283700D01*
X162200D01*
Y275200D01*
X166900D01*
Y283700D01*
X174900D01*
Y275200D01*
X179600D01*
Y283700D01*
X187600D01*
Y275200D01*
X192300D01*
Y283700D01*
X200300D01*
Y238700D01*
D02*
G37*
G36*
X389900Y281900D02*
X381400D01*
Y277200D01*
X389900D01*
Y269200D01*
X381400D01*
Y264500D01*
X389900D01*
Y256500D01*
X381400D01*
Y251800D01*
X389900D01*
Y243800D01*
X344900D01*
Y289800D01*
X389900D01*
Y281900D01*
D02*
G37*
G36*
X371100Y190600D02*
X326100D01*
Y198500D01*
X334600D01*
Y203200D01*
X326100D01*
Y211200D01*
X334600D01*
Y215900D01*
X326100D01*
Y223900D01*
X334600D01*
Y228600D01*
X326100D01*
Y236600D01*
X371100D01*
Y190600D01*
D02*
G37*
G36*
X123000Y170200D02*
X78000D01*
Y178100D01*
X86500D01*
Y182800D01*
X78000D01*
Y190800D01*
X86500D01*
Y195500D01*
X78000D01*
Y203500D01*
X86500D01*
Y208200D01*
X78000D01*
Y216200D01*
X123000D01*
Y170200D01*
D02*
G37*
G36*
X389900Y175500D02*
X381400D01*
Y170800D01*
X389900D01*
Y162800D01*
X381400D01*
Y158100D01*
X389900D01*
Y150100D01*
X381400D01*
Y145400D01*
X389900D01*
Y137400D01*
X344900D01*
Y183400D01*
X389900D01*
Y175500D01*
D02*
G37*
G36*
X371100Y84200D02*
X326100D01*
Y92100D01*
X334600D01*
Y96800D01*
X326100D01*
Y104800D01*
X334600D01*
Y109500D01*
X326100D01*
Y117500D01*
X334600D01*
Y122200D01*
X326100D01*
Y130200D01*
X371100D01*
Y84200D01*
D02*
G37*
G36*
X389900Y69100D02*
X381400D01*
Y64400D01*
X389900D01*
Y56400D01*
X381400D01*
Y51700D01*
X389900D01*
Y43700D01*
X381400D01*
Y39000D01*
X389900D01*
Y31000D01*
X344900D01*
Y77000D01*
X389900D01*
Y69100D01*
D02*
G37*
D14*
X137000Y174200D02*
D03*
Y186900D02*
D03*
Y199600D02*
D03*
Y212300D02*
D03*
X385100Y339110D02*
D03*
Y326410D02*
D03*
Y313710D02*
D03*
Y301010D02*
D03*
Y232700D02*
D03*
Y220000D02*
D03*
Y207300D02*
D03*
Y194600D02*
D03*
Y126300D02*
D03*
Y113600D02*
D03*
Y100900D02*
D03*
Y88200D02*
D03*
X330900Y247700D02*
D03*
Y260400D02*
D03*
Y273100D02*
D03*
Y285800D02*
D03*
Y141300D02*
D03*
Y154000D02*
D03*
Y166700D02*
D03*
Y179400D02*
D03*
Y34900D02*
D03*
Y47600D02*
D03*
Y60300D02*
D03*
Y73000D02*
D03*
D15*
X153300Y174640D02*
D03*
X211600Y233160D02*
D03*
Y204200D02*
D03*
X153300Y203600D02*
D03*
D16*
X166300Y175100D02*
D03*
X162900Y115800D02*
D03*
X154300D02*
D03*
X146500D02*
D03*
X137900D02*
D03*
X259100Y275100D02*
D03*
X267700D02*
D03*
X235400D02*
D03*
X226800D02*
D03*
X251500D02*
D03*
X242900D02*
D03*
X156900Y214100D02*
D03*
X148300D02*
D03*
X173100Y290300D02*
D03*
X181700D02*
D03*
X189400D02*
D03*
X198000D02*
D03*
X183300Y175100D02*
D03*
X191900D02*
D03*
X174900D02*
D03*
D17*
X90500Y239300D02*
D03*
X139500D02*
D03*
D18*
X183700Y104200D02*
D03*
X204700D02*
D03*
Y157300D02*
D03*
X183700D02*
D03*
X204700Y130700D02*
D03*
X183700D02*
D03*
D19*
X92100Y81900D02*
D03*
X119100D02*
D03*
X63800Y137200D02*
D03*
X36800D02*
D03*
Y217200D02*
D03*
X63800D02*
D03*
X36800Y197200D02*
D03*
X63800D02*
D03*
X36800Y177200D02*
D03*
X63800D02*
D03*
X119100Y142100D02*
D03*
X92100D02*
D03*
X36800Y157200D02*
D03*
X63800D02*
D03*
X36800Y237200D02*
D03*
X63800Y237200D02*
D03*
X168800Y208100D02*
D03*
X195800D02*
D03*
X119100Y122000D02*
D03*
X92100D02*
D03*
X119100Y102000D02*
D03*
X92100Y102000D02*
D03*
D20*
X154000Y128000D02*
D03*
X160500Y149000D02*
D03*
X154000D02*
D03*
X147500D02*
D03*
X141000D02*
D03*
X160500Y128000D02*
D03*
X147500D02*
D03*
X141000D02*
D03*
D21*
X150750Y138500D02*
D03*
D22*
X129500Y127600D02*
D03*
Y119000D02*
D03*
X172000Y128000D02*
D03*
Y119400D02*
D03*
D23*
X145500Y160200D02*
D03*
X131500D02*
D03*
X170500D02*
D03*
X156500D02*
D03*
X319100Y35400D02*
D03*
X305100D02*
D03*
X318800Y248100D02*
D03*
X304800D02*
D03*
X319000Y141800D02*
D03*
X305000D02*
D03*
X189900Y90900D02*
D03*
X203900D02*
D03*
X249300Y76800D02*
D03*
X263300D02*
D03*
X203900Y117400D02*
D03*
X189900D02*
D03*
X203900Y144000D02*
D03*
X189900D02*
D03*
D24*
X400200Y131800D02*
D03*
Y145800D02*
D03*
X398000Y219000D02*
D03*
Y233000D02*
D03*
X397800Y339500D02*
D03*
Y325500D02*
D03*
X269700Y255100D02*
D03*
Y241100D02*
D03*
X214300Y178700D02*
D03*
Y192700D02*
D03*
D25*
X215750Y91600D02*
D03*
X222250D02*
D03*
X228750D02*
D03*
X235250D02*
D03*
X241750D02*
D03*
X248250D02*
D03*
X254750D02*
D03*
X261250D02*
D03*
X267750D02*
D03*
X274250D02*
D03*
X215750Y151600D02*
D03*
X222250D02*
D03*
X228750D02*
D03*
X235250D02*
D03*
X241750D02*
D03*
X248250D02*
D03*
X254750D02*
D03*
X261250D02*
D03*
X267750D02*
D03*
X274250D02*
D03*
D26*
X247700Y224600D02*
D03*
Y183700D02*
D03*
D27*
X230800Y243800D02*
D03*
Y253300D02*
D03*
Y262800D02*
D03*
X257800D02*
D03*
Y253300D02*
D03*
Y243800D02*
D03*
D28*
X212800Y273000D02*
D03*
Y246000D02*
D03*
D29*
X306200Y337800D02*
D03*
Y278800D02*
D03*
Y231800D02*
D03*
Y172800D02*
D03*
Y125400D02*
D03*
Y66400D02*
D03*
D30*
X196400Y224700D02*
D03*
X183700D02*
D03*
X171000D02*
D03*
X158300D02*
D03*
D31*
X168840Y188600D02*
D03*
X197800D02*
D03*
D32*
X89700Y276700D02*
D03*
X138800D02*
D03*
D33*
X50900Y99900D02*
D03*
Y274600D02*
D03*
X418100Y276400D02*
D03*
X418300Y187000D02*
D03*
X418400Y100000D02*
D03*
D34*
X95200Y39900D02*
D03*
X115200D02*
D03*
X135200D02*
D03*
X155200D02*
D03*
X175200D02*
D03*
X195200D02*
D03*
X215200D02*
D03*
X235200D02*
D03*
X95200Y59900D02*
D03*
X115200D02*
D03*
X135200D02*
D03*
X155200D02*
D03*
X175200D02*
D03*
X195200D02*
D03*
X215200D02*
D03*
X235200D02*
D03*
X255200Y39900D02*
D03*
Y59900D02*
D03*
X275200Y39900D02*
D03*
X95200Y316000D02*
D03*
X115200D02*
D03*
X135200D02*
D03*
X155200D02*
D03*
X175200D02*
D03*
X195200D02*
D03*
X215200D02*
D03*
X235200D02*
D03*
X95200Y336000D02*
D03*
X115200D02*
D03*
X135200D02*
D03*
X155200D02*
D03*
X175200D02*
D03*
X195200D02*
D03*
X215200D02*
D03*
X235200D02*
D03*
X255200Y316000D02*
D03*
Y336000D02*
D03*
X275200Y316000D02*
D03*
D35*
Y59900D02*
D03*
Y336000D02*
D03*
D36*
X48000Y323100D02*
D03*
Y53000D02*
D03*
X428000Y323100D02*
D03*
Y53000D02*
D03*
D37*
X38700Y313900D02*
D03*
X57200D02*
D03*
X35000Y323100D02*
D03*
X48000Y336100D02*
D03*
X61000Y323100D02*
D03*
X48000Y310100D02*
D03*
X38300Y331900D02*
D03*
X58100Y331600D02*
D03*
Y61500D02*
D03*
X38300Y61800D02*
D03*
X48000Y40000D02*
D03*
X61000Y53000D02*
D03*
X48000Y66000D02*
D03*
X35000Y53000D02*
D03*
X57200Y43800D02*
D03*
X38700D02*
D03*
X438100Y331600D02*
D03*
X418300Y331900D02*
D03*
X428000Y310100D02*
D03*
X441000Y323100D02*
D03*
X428000Y336100D02*
D03*
X415000Y323100D02*
D03*
X437200Y313900D02*
D03*
X418700D02*
D03*
X438100Y61500D02*
D03*
X418300Y61800D02*
D03*
X428000Y40000D02*
D03*
X441000Y53000D02*
D03*
X428000Y66000D02*
D03*
X415000Y53000D02*
D03*
X437200Y43800D02*
D03*
X418700D02*
D03*
M02*
