G04*
G04 #@! TF.GenerationSoftware,Altium Limited,Altium Designer,23.8.1 (32)*
G04*
G04 Layer_Color=2752767*
%FSLAX44Y44*%
%MOMM*%
G71*
G04*
G04 #@! TF.SameCoordinates,92C49762-E6E1-4201-94AC-3A3CAB1C571E*
G04*
G04*
G04 #@! TF.FilePolarity,Positive*
G04*
G01*
G75*
%ADD11C,0.2540*%
%ADD67C,0.1270*%
%ADD73C,0.1693*%
%ADD74C,0.4064*%
%ADD75C,0.1185*%
D11*
X666711Y354203D02*
X668377Y355869D01*
X671710D01*
X673376Y354203D01*
Y352537D01*
X671710Y350871D01*
X670043D01*
X671710D01*
X673376Y349204D01*
Y347538D01*
X671710Y345872D01*
X668377D01*
X666711Y347538D01*
X676708Y354203D02*
X678374Y355869D01*
X681706D01*
X683372Y354203D01*
Y347538D01*
X681706Y345872D01*
X678374D01*
X676708Y347538D01*
Y354203D01*
X693369Y355869D02*
X686705D01*
Y350871D01*
X690037Y352537D01*
X691703D01*
X693369Y350871D01*
Y347538D01*
X691703Y345872D01*
X688371D01*
X686705Y347538D01*
X786872Y354203D02*
X788538Y355869D01*
X791871D01*
X793537Y354203D01*
Y347538D01*
X791871Y345872D01*
X788538D01*
X786872Y347538D01*
Y354203D01*
X796869Y345872D02*
Y347538D01*
X798535D01*
Y345872D01*
X796869D01*
X805200Y354203D02*
X806866Y355869D01*
X810198D01*
X811864Y354203D01*
Y352537D01*
X810198Y350871D01*
X808532D01*
X810198D01*
X811864Y349204D01*
Y347538D01*
X810198Y345872D01*
X806866D01*
X805200Y347538D01*
X815196Y345872D02*
Y352537D01*
X816863D01*
X818529Y350871D01*
Y345872D01*
Y350871D01*
X820195Y352537D01*
X821861Y350871D01*
Y345872D01*
X825193D02*
Y352537D01*
X826859D01*
X828525Y350871D01*
Y345872D01*
Y350871D01*
X830192Y352537D01*
X831858Y350871D01*
Y345872D01*
X848519D02*
X845187Y349204D01*
Y352537D01*
X848519Y355869D01*
X853517Y345872D02*
X856850D01*
X855183D01*
Y355869D01*
X853517Y354203D01*
X861848Y345872D02*
X865180D01*
X863514D01*
Y355869D01*
X861848Y354203D01*
X870179Y345872D02*
Y347538D01*
X871845D01*
Y345872D01*
X870179D01*
X878509Y354203D02*
X880175Y355869D01*
X883508D01*
X885174Y354203D01*
Y352537D01*
X883508Y350871D01*
X885174Y349204D01*
Y347538D01*
X883508Y345872D01*
X880175D01*
X878509Y347538D01*
Y349204D01*
X880175Y350871D01*
X878509Y352537D01*
Y354203D01*
X880175Y350871D02*
X883508D01*
X888506Y345872D02*
X891838D01*
X890172D01*
Y355869D01*
X888506Y354203D01*
X896837Y345872D02*
X900169D01*
X898503D01*
Y355869D01*
X896837Y354203D01*
X905167Y345872D02*
Y352537D01*
X906833D01*
X908500Y350871D01*
Y345872D01*
Y350871D01*
X910166Y352537D01*
X911832Y350871D01*
Y345872D01*
X915164D02*
X918496D01*
X916830D01*
Y352537D01*
X915164D01*
X923495Y345872D02*
X926827D01*
X925161D01*
Y355869D01*
X923495D01*
X931825Y345872D02*
X935158Y349204D01*
Y352537D01*
X931825Y355869D01*
X1014998Y345872D02*
Y355869D01*
X1019997D01*
X1021663Y354203D01*
Y350871D01*
X1019997Y349204D01*
X1014998D01*
X1024995Y355869D02*
X1031659D01*
X1028327D01*
Y345872D01*
X1034992Y355869D02*
Y345872D01*
Y350871D01*
X1041656D01*
Y355869D01*
Y345872D01*
X1103170D02*
Y355869D01*
X1108168D01*
X1109834Y354203D01*
Y350871D01*
X1108168Y349204D01*
X1103170D01*
X1106502D02*
X1109834Y345872D01*
X1114833D02*
X1118165D01*
X1119831Y347538D01*
Y350871D01*
X1118165Y352537D01*
X1114833D01*
X1113166Y350871D01*
Y347538D01*
X1114833Y345872D01*
X1123163Y352537D02*
Y347538D01*
X1124829Y345872D01*
X1129828D01*
Y352537D01*
X1133160Y345872D02*
Y352537D01*
X1138158D01*
X1139824Y350871D01*
Y345872D01*
X1149821Y355869D02*
Y345872D01*
X1144823D01*
X1143157Y347538D01*
Y350871D01*
X1144823Y352537D01*
X1149821D01*
X671710Y325872D02*
Y335869D01*
X666711Y330871D01*
X673376D01*
X676708Y334203D02*
X678374Y335869D01*
X681706D01*
X683372Y334203D01*
Y327538D01*
X681706Y325872D01*
X678374D01*
X676708Y327538D01*
Y334203D01*
X786872D02*
X788538Y335869D01*
X791871D01*
X793537Y334203D01*
Y327538D01*
X791871Y325872D01*
X788538D01*
X786872Y327538D01*
Y334203D01*
X796869Y325872D02*
Y327538D01*
X798535D01*
Y325872D01*
X796869D01*
X805200Y327538D02*
X806866Y325872D01*
X810198D01*
X811864Y327538D01*
Y334203D01*
X810198Y335869D01*
X806866D01*
X805200Y334203D01*
Y332537D01*
X806866Y330871D01*
X811864D01*
X815196Y325872D02*
Y332537D01*
X816863D01*
X818529Y330871D01*
Y325872D01*
Y330871D01*
X820195Y332537D01*
X821861Y330871D01*
Y325872D01*
X825193D02*
Y332537D01*
X826859D01*
X828525Y330871D01*
Y325872D01*
Y330871D01*
X830192Y332537D01*
X831858Y330871D01*
Y325872D01*
X848519D02*
X845187Y329204D01*
Y332537D01*
X848519Y335869D01*
X853517Y334203D02*
X855183Y335869D01*
X858516D01*
X860182Y334203D01*
Y332537D01*
X858516Y330871D01*
X856850D01*
X858516D01*
X860182Y329204D01*
Y327538D01*
X858516Y325872D01*
X855183D01*
X853517Y327538D01*
X870179Y335869D02*
X863514D01*
Y330871D01*
X866846Y332537D01*
X868513D01*
X870179Y330871D01*
Y327538D01*
X868513Y325872D01*
X865180D01*
X863514Y327538D01*
X873511Y325872D02*
Y327538D01*
X875177D01*
Y325872D01*
X873511D01*
X886840D02*
Y335869D01*
X881842Y330871D01*
X888506D01*
X891838Y334203D02*
X893504Y335869D01*
X896837D01*
X898503Y334203D01*
Y332537D01*
X896837Y330871D01*
X895171D01*
X896837D01*
X898503Y329204D01*
Y327538D01*
X896837Y325872D01*
X893504D01*
X891838Y327538D01*
X901835Y334203D02*
X903501Y335869D01*
X906833D01*
X908500Y334203D01*
Y332537D01*
X906833Y330871D01*
X905167D01*
X906833D01*
X908500Y329204D01*
Y327538D01*
X906833Y325872D01*
X903501D01*
X901835Y327538D01*
X911832Y325872D02*
Y332537D01*
X913498D01*
X915164Y330871D01*
Y325872D01*
Y330871D01*
X916830Y332537D01*
X918496Y330871D01*
Y325872D01*
X921829D02*
X925161D01*
X923495D01*
Y332537D01*
X921829D01*
X930159Y325872D02*
X933492D01*
X931825D01*
Y335869D01*
X930159D01*
X938490Y325872D02*
X941822Y329204D01*
Y332537D01*
X938490Y335869D01*
X1014998Y325872D02*
Y335869D01*
X1019997D01*
X1021663Y334203D01*
Y330871D01*
X1019997Y329204D01*
X1014998D01*
X1024995Y335869D02*
X1031659D01*
X1028327D01*
Y325872D01*
X1034992Y335869D02*
Y325872D01*
Y330871D01*
X1041656D01*
Y335869D01*
Y325872D01*
X1103170D02*
Y335869D01*
X1108168D01*
X1109834Y334203D01*
Y330871D01*
X1108168Y329204D01*
X1103170D01*
X1106502D02*
X1109834Y325872D01*
X1114833D02*
X1118165D01*
X1119831Y327538D01*
Y330871D01*
X1118165Y332537D01*
X1114833D01*
X1113166Y330871D01*
Y327538D01*
X1114833Y325872D01*
X1123163Y332537D02*
Y327538D01*
X1124829Y325872D01*
X1129828D01*
Y332537D01*
X1133160Y325872D02*
Y332537D01*
X1138158D01*
X1139824Y330871D01*
Y325872D01*
X1149821Y335869D02*
Y325872D01*
X1144823D01*
X1143157Y327538D01*
Y330871D01*
X1144823Y332537D01*
X1149821D01*
X671710Y305872D02*
Y315869D01*
X666711Y310871D01*
X673376D01*
X793537Y305872D02*
X786872D01*
X793537Y312537D01*
Y314203D01*
X791871Y315869D01*
X788538D01*
X786872Y314203D01*
X796869Y305872D02*
Y307538D01*
X798535D01*
Y305872D01*
X796869D01*
X805200Y314203D02*
X806866Y315869D01*
X810198D01*
X811864Y314203D01*
Y307538D01*
X810198Y305872D01*
X806866D01*
X805200Y307538D01*
Y314203D01*
X821861Y315869D02*
X815196D01*
Y310871D01*
X818529Y312537D01*
X820195D01*
X821861Y310871D01*
Y307538D01*
X820195Y305872D01*
X816863D01*
X815196Y307538D01*
X825193Y305872D02*
Y312537D01*
X826859D01*
X828525Y310871D01*
Y305872D01*
Y310871D01*
X830192Y312537D01*
X831858Y310871D01*
Y305872D01*
X835190D02*
Y312537D01*
X836856D01*
X838522Y310871D01*
Y305872D01*
Y310871D01*
X840188Y312537D01*
X841854Y310871D01*
Y305872D01*
X858516D02*
X855183Y309205D01*
Y312537D01*
X858516Y315869D01*
X863514Y314203D02*
X865180Y315869D01*
X868513D01*
X870179Y314203D01*
Y312537D01*
X868513Y310871D01*
X870179Y309205D01*
Y307538D01*
X868513Y305872D01*
X865180D01*
X863514Y307538D01*
Y309205D01*
X865180Y310871D01*
X863514Y312537D01*
Y314203D01*
X865180Y310871D02*
X868513D01*
X873511Y314203D02*
X875177Y315869D01*
X878509D01*
X880175Y314203D01*
Y307538D01*
X878509Y305872D01*
X875177D01*
X873511Y307538D01*
Y314203D01*
X883508Y305872D02*
Y307538D01*
X885174D01*
Y305872D01*
X883508D01*
X891838Y315869D02*
X898503D01*
Y314203D01*
X891838Y307538D01*
Y305872D01*
X901835Y314203D02*
X903501Y315869D01*
X906833D01*
X908500Y314203D01*
Y307538D01*
X906833Y305872D01*
X903501D01*
X901835Y307538D01*
Y314203D01*
X911832Y307538D02*
X913498Y305872D01*
X916830D01*
X918496Y307538D01*
Y314203D01*
X916830Y315869D01*
X913498D01*
X911832Y314203D01*
Y312537D01*
X913498Y310871D01*
X918496D01*
X921829Y305872D02*
Y312537D01*
X923495D01*
X925161Y310871D01*
Y305872D01*
Y310871D01*
X926827Y312537D01*
X928493Y310871D01*
Y305872D01*
X931825D02*
X935158D01*
X933492D01*
Y312537D01*
X931825D01*
X940156Y305872D02*
X943488D01*
X941822D01*
Y315869D01*
X940156D01*
X948487Y305872D02*
X951819Y309205D01*
Y312537D01*
X948487Y315869D01*
X1014998Y305872D02*
Y315869D01*
X1019997D01*
X1021663Y314203D01*
Y310871D01*
X1019997Y309205D01*
X1014998D01*
X1024995Y315869D02*
X1031659D01*
X1028327D01*
Y305872D01*
X1034992Y315869D02*
Y305872D01*
Y310871D01*
X1041656D01*
Y315869D01*
Y305872D01*
X1103170D02*
Y315869D01*
X1108168D01*
X1109834Y314203D01*
Y310871D01*
X1108168Y309205D01*
X1103170D01*
X1106502D02*
X1109834Y305872D01*
X1114833D02*
X1118165D01*
X1119831Y307538D01*
Y310871D01*
X1118165Y312537D01*
X1114833D01*
X1113166Y310871D01*
Y307538D01*
X1114833Y305872D01*
X1123163Y312537D02*
Y307538D01*
X1124829Y305872D01*
X1129828D01*
Y312537D01*
X1133160Y305872D02*
Y312537D01*
X1138158D01*
X1139824Y310871D01*
Y305872D01*
X1149821Y315869D02*
Y305872D01*
X1144823D01*
X1143157Y307538D01*
Y310871D01*
X1144823Y312537D01*
X1149821D01*
X666711Y294203D02*
X668377Y295869D01*
X671710D01*
X673376Y294203D01*
Y292537D01*
X671710Y290871D01*
X670043D01*
X671710D01*
X673376Y289205D01*
Y287538D01*
X671710Y285872D01*
X668377D01*
X666711Y287538D01*
X681706Y285872D02*
Y295869D01*
X676708Y290871D01*
X683372D01*
X686705Y287538D02*
X688371Y285872D01*
X691703D01*
X693369Y287538D01*
Y294203D01*
X691703Y295869D01*
X688371D01*
X686705Y294203D01*
Y292537D01*
X688371Y290871D01*
X693369D01*
X714513Y295869D02*
X721178D01*
X717846D01*
Y285872D01*
X726176D02*
X729509D01*
X731175Y287538D01*
Y290871D01*
X729509Y292537D01*
X726176D01*
X724510Y290871D01*
Y287538D01*
X726176Y285872D01*
X736173Y294203D02*
Y292537D01*
X734507D01*
X737839D01*
X736173D01*
Y287538D01*
X737839Y285872D01*
X744504Y292537D02*
X747836D01*
X749502Y290871D01*
Y285872D01*
X744504D01*
X742838Y287538D01*
X744504Y289205D01*
X749502D01*
X752834Y285872D02*
X756167D01*
X754500D01*
Y295869D01*
X752834D01*
D67*
X192100Y483720D02*
X187020Y493880D01*
X197180D01*
X192100Y483720D01*
Y509120D02*
X187020Y519280D01*
X197180D01*
X192100Y509120D01*
X242900D02*
X237820Y519280D01*
X247980D01*
X242900Y509120D01*
Y483720D02*
X237820Y493880D01*
X247980D01*
X242900Y483720D01*
X268300D02*
X263220Y493880D01*
X273380D01*
X268300Y483720D01*
Y509120D02*
X263220Y519280D01*
X273380D01*
X268300Y509120D01*
X293700Y483720D02*
X288620Y493880D01*
X298780D01*
X293700Y483720D01*
Y509120D02*
X288620Y519280D01*
X298780D01*
X293700Y509120D01*
X319100Y483720D02*
X314020Y493880D01*
X324180D01*
X319100Y483720D01*
Y509120D02*
X314020Y519280D01*
X324180D01*
X319100Y509120D01*
X344500Y483720D02*
X339420Y493880D01*
X349580D01*
X344500Y483720D01*
Y509120D02*
X339420Y519280D01*
X349580D01*
X344500Y509120D01*
X369900Y483720D02*
X364820Y493880D01*
X374980D01*
X369900Y483720D01*
Y509120D02*
X364820Y519280D01*
X374980D01*
X369900Y509120D01*
X395300Y483720D02*
X390220Y493880D01*
X400380D01*
X395300Y483720D01*
Y509120D02*
X390220Y519280D01*
X400380D01*
X395300Y509120D01*
X217500Y509120D02*
X212420Y519280D01*
X222580D01*
X217500Y509120D01*
Y483720D02*
X212420Y493880D01*
X222580D01*
X217500Y483720D01*
X166700Y509120D02*
X161620Y519280D01*
X171780D01*
X166700Y509120D01*
Y483720D02*
X161620Y493880D01*
X171780D01*
X166700Y483720D01*
X192100Y40720D02*
X187020Y50880D01*
X197180D01*
X192100Y40720D01*
Y66120D02*
X187020Y76280D01*
X197180D01*
X192100Y66120D01*
X242900D02*
X237820Y76280D01*
X247980D01*
X242900Y66120D01*
Y40720D02*
X237820Y50880D01*
X247980D01*
X242900Y40720D01*
X268300D02*
X263220Y50880D01*
X273380D01*
X268300Y40720D01*
Y66120D02*
X263220Y76280D01*
X273380D01*
X268300Y66120D01*
X293700Y40720D02*
X288620Y50880D01*
X298780D01*
X293700Y40720D01*
Y66120D02*
X288620Y76280D01*
X298780D01*
X293700Y66120D01*
X319100Y40720D02*
X314020Y50880D01*
X324180D01*
X319100Y40720D01*
Y66120D02*
X314020Y76280D01*
X324180D01*
X319100Y66120D01*
X344500Y40720D02*
X339420Y50880D01*
X349580D01*
X344500Y40720D01*
Y66120D02*
X339420Y76280D01*
X349580D01*
X344500Y66120D01*
X369900Y40720D02*
X364820Y50880D01*
X374980D01*
X369900Y40720D01*
Y66120D02*
X364820Y76280D01*
X374980D01*
X369900Y66120D01*
X395300Y40720D02*
X390220Y50880D01*
X400380D01*
X395300Y40720D01*
Y66120D02*
X390220Y76280D01*
X400380D01*
X395300Y66120D01*
X217500D02*
X212420Y76280D01*
X222580D01*
X217500Y66120D01*
Y40720D02*
X212420Y50880D01*
X222580D01*
X217500Y40720D01*
X166700Y66120D02*
X161620Y76280D01*
X171780D01*
X166700Y66120D01*
Y40720D02*
X161620Y50880D01*
X171780D01*
X166700Y40720D01*
X45420Y505420D02*
Y515580D01*
X55580D01*
Y505420D01*
X45420D01*
X44920Y44420D02*
Y54580D01*
X55080D01*
Y44420D01*
X44920D01*
X506420Y505920D02*
Y516080D01*
X516580D01*
Y505920D01*
X506420D01*
Y44420D02*
Y54580D01*
X516580D01*
Y44420D01*
X506420D01*
X582096Y327316D02*
X578540Y334428D01*
X585652D01*
X582096Y327316D01*
X578540Y307316D02*
Y314428D01*
X585652D01*
Y307316D01*
X578540D01*
D73*
X263080Y103000D02*
G03*
X263080Y103000I-5080J0D01*
G01*
X297080D02*
G03*
X297080Y103000I-5080J0D01*
G01*
X335080D02*
G03*
X335080Y103000I-5080J0D01*
G01*
X537080Y372000D02*
G03*
X537080Y372000I-5080J0D01*
G01*
X518580Y112500D02*
G03*
X518580Y112500I-5080J0D01*
G01*
Y92500D02*
G03*
X518580Y92500I-5080J0D01*
G01*
X499580Y81500D02*
G03*
X499580Y81500I-5080J0D01*
G01*
X490080Y29500D02*
G03*
X490080Y29500I-5080J0D01*
G01*
X471580D02*
G03*
X471580Y29500I-5080J0D01*
G01*
X455080D02*
G03*
X455080Y29500I-5080J0D01*
G01*
X437580D02*
G03*
X437580Y29500I-5080J0D01*
G01*
X422580Y34500D02*
G03*
X422580Y34500I-5080J0D01*
G01*
X424580Y60000D02*
G03*
X424580Y60000I-5080J0D01*
G01*
Y81500D02*
G03*
X424580Y81500I-5080J0D01*
G01*
X406580Y94500D02*
G03*
X406580Y94500I-5080J0D01*
G01*
X485080Y75500D02*
G03*
X485080Y75500I-5080J0D01*
G01*
X471580D02*
G03*
X471580Y75500I-5080J0D01*
G01*
X452080D02*
G03*
X452080Y75500I-5080J0D01*
G01*
X440080D02*
G03*
X440080Y75500I-5080J0D01*
G01*
X473580Y95500D02*
G03*
X473580Y95500I-5080J0D01*
G01*
Y109500D02*
G03*
X473580Y109500I-5080J0D01*
G01*
X451580Y96000D02*
G03*
X451580Y96000I-5080J0D01*
G01*
Y109500D02*
G03*
X451580Y109500I-5080J0D01*
G01*
X514580Y449000D02*
G03*
X514580Y449000I-5080J0D01*
G01*
X500580Y484500D02*
G03*
X500580Y484500I-5080J0D01*
G01*
X421580Y485000D02*
G03*
X421580Y485000I-5080J0D01*
G01*
X530580Y419000D02*
G03*
X530580Y419000I-5080J0D01*
G01*
Y436000D02*
G03*
X530580Y436000I-5080J0D01*
G01*
X485580Y500500D02*
G03*
X485580Y500500I-5080J0D01*
G01*
X471080D02*
G03*
X471080Y500500I-5080J0D01*
G01*
X452080D02*
G03*
X452080Y500500I-5080J0D01*
G01*
X439080D02*
G03*
X439080Y500500I-5080J0D01*
G01*
X373580Y447500D02*
G03*
X373580Y447500I-5080J0D01*
G01*
Y466000D02*
G03*
X373580Y466000I-5080J0D01*
G01*
X485580Y422000D02*
G03*
X485580Y422000I-5080J0D01*
G01*
Y435000D02*
G03*
X485580Y435000I-5080J0D01*
G01*
X485080Y455000D02*
G03*
X485080Y455000I-5080J0D01*
G01*
X471580D02*
G03*
X471580Y455000I-5080J0D01*
G01*
X452080D02*
G03*
X452080Y455000I-5080J0D01*
G01*
X440080D02*
G03*
X440080Y455000I-5080J0D01*
G01*
X418580Y450000D02*
G03*
X418580Y450000I-5080J0D01*
G01*
Y464500D02*
G03*
X418580Y464500I-5080J0D01*
G01*
X188080Y259000D02*
G03*
X188080Y259000I-5080J0D01*
G01*
X98080Y153000D02*
G03*
X98080Y153000I-5080J0D01*
G01*
Y140000D02*
G03*
X98080Y140000I-5080J0D01*
G01*
X407080Y390000D02*
G03*
X407080Y390000I-5080J0D01*
G01*
X419080D02*
G03*
X419080Y390000I-5080J0D01*
G01*
X431080D02*
G03*
X431080Y390000I-5080J0D01*
G01*
Y402000D02*
G03*
X431080Y402000I-5080J0D01*
G01*
X407080D02*
G03*
X407080Y402000I-5080J0D01*
G01*
X419080D02*
G03*
X419080Y402000I-5080J0D01*
G01*
X407080Y426000D02*
G03*
X407080Y426000I-5080J0D01*
G01*
X419080D02*
G03*
X419080Y426000I-5080J0D01*
G01*
X431080D02*
G03*
X431080Y426000I-5080J0D01*
G01*
X419080Y414000D02*
G03*
X419080Y414000I-5080J0D01*
G01*
X407080D02*
G03*
X407080Y414000I-5080J0D01*
G01*
X431080D02*
G03*
X431080Y414000I-5080J0D01*
G01*
X206080Y123000D02*
G03*
X206080Y123000I-5080J0D01*
G01*
X225080D02*
G03*
X225080Y123000I-5080J0D01*
G01*
X110080Y442000D02*
G03*
X110080Y442000I-5080J0D01*
G01*
X124080Y428000D02*
G03*
X124080Y428000I-5080J0D01*
G01*
X378080Y115000D02*
G03*
X378080Y115000I-5080J0D01*
G01*
X353080D02*
G03*
X353080Y115000I-5080J0D01*
G01*
X401080D02*
G03*
X401080Y115000I-5080J0D01*
G01*
X538080Y149000D02*
G03*
X538080Y149000I-5080J0D01*
G01*
Y190000D02*
G03*
X538080Y190000I-5080J0D01*
G01*
X519080Y213000D02*
G03*
X519080Y213000I-5080J0D01*
G01*
X485080Y212000D02*
G03*
X485080Y212000I-5080J0D01*
G01*
X538080Y233000D02*
G03*
X538080Y233000I-5080J0D01*
G01*
Y267000D02*
G03*
X538080Y267000I-5080J0D01*
G01*
Y297000D02*
G03*
X538080Y297000I-5080J0D01*
G01*
X537080Y329000D02*
G03*
X537080Y329000I-5080J0D01*
G01*
X515080Y316000D02*
G03*
X515080Y316000I-5080J0D01*
G01*
X486080D02*
G03*
X486080Y316000I-5080J0D01*
G01*
X342080Y405000D02*
G03*
X342080Y405000I-5080J0D01*
G01*
X360080Y425000D02*
G03*
X360080Y425000I-5080J0D01*
G01*
X313162Y255840D02*
G03*
X313162Y255840I-5080J0D01*
G01*
X314080Y238000D02*
G03*
X314080Y238000I-5080J0D01*
G01*
X299080Y241000D02*
G03*
X299080Y241000I-5080J0D01*
G01*
Y252000D02*
G03*
X299080Y252000I-5080J0D01*
G01*
X97080Y168000D02*
G03*
X97080Y168000I-5080J0D01*
G01*
X100080Y127000D02*
G03*
X100080Y127000I-5080J0D01*
G01*
X117080Y115000D02*
G03*
X117080Y115000I-5080J0D01*
G01*
X105080D02*
G03*
X105080Y115000I-5080J0D01*
G01*
X241080Y439500D02*
G03*
X241080Y439500I-5080J0D01*
G01*
X168080Y415000D02*
G03*
X168080Y415000I-5080J0D01*
G01*
Y398000D02*
G03*
X168080Y398000I-5080J0D01*
G01*
X155080Y442000D02*
G03*
X155080Y442000I-5080J0D01*
G01*
Y431000D02*
G03*
X155080Y431000I-5080J0D01*
G01*
X163080Y452000D02*
G03*
X163080Y452000I-5080J0D01*
G01*
X174080D02*
G03*
X174080Y452000I-5080J0D01*
G01*
X116080Y72000D02*
G03*
X116080Y72000I-5080J0D01*
G01*
X117080Y95000D02*
G03*
X117080Y95000I-5080J0D01*
G01*
X146080Y60000D02*
G03*
X146080Y60000I-5080J0D01*
G01*
X128080D02*
G03*
X128080Y60000I-5080J0D01*
G01*
X35080Y136000D02*
G03*
X35080Y136000I-5080J0D01*
G01*
Y119000D02*
G03*
X35080Y119000I-5080J0D01*
G01*
Y169000D02*
G03*
X35080Y169000I-5080J0D01*
G01*
Y152000D02*
G03*
X35080Y152000I-5080J0D01*
G01*
X38080Y201000D02*
G03*
X38080Y201000I-5080J0D01*
G01*
Y184000D02*
G03*
X38080Y184000I-5080J0D01*
G01*
Y234000D02*
G03*
X38080Y234000I-5080J0D01*
G01*
Y217000D02*
G03*
X38080Y217000I-5080J0D01*
G01*
Y269000D02*
G03*
X38080Y269000I-5080J0D01*
G01*
Y252000D02*
G03*
X38080Y252000I-5080J0D01*
G01*
Y303000D02*
G03*
X38080Y303000I-5080J0D01*
G01*
Y286000D02*
G03*
X38080Y286000I-5080J0D01*
G01*
Y336000D02*
G03*
X38080Y336000I-5080J0D01*
G01*
Y319000D02*
G03*
X38080Y319000I-5080J0D01*
G01*
Y354000D02*
G03*
X38080Y354000I-5080J0D01*
G01*
Y371000D02*
G03*
X38080Y371000I-5080J0D01*
G01*
X283080Y134000D02*
G03*
X283080Y134000I-5080J0D01*
G01*
X296080D02*
G03*
X296080Y134000I-5080J0D01*
G01*
X302080Y125000D02*
G03*
X302080Y125000I-5080J0D01*
G01*
X287080D02*
G03*
X287080Y125000I-5080J0D01*
G01*
X273080Y129000D02*
G03*
X273080Y129000I-5080J0D01*
G01*
X223080Y182000D02*
G03*
X223080Y182000I-5080J0D01*
G01*
X211080D02*
G03*
X211080Y182000I-5080J0D01*
G01*
X198080D02*
G03*
X198080Y182000I-5080J0D01*
G01*
X222710Y193040D02*
G03*
X222710Y193040I-5080J0D01*
G01*
X210589Y192982D02*
G03*
X210589Y192982I-5080J0D01*
G01*
X198580Y193040D02*
G03*
X198580Y193040I-5080J0D01*
G01*
X223080Y206000D02*
G03*
X223080Y206000I-5080J0D01*
G01*
X211080D02*
G03*
X211080Y206000I-5080J0D01*
G01*
X198080D02*
G03*
X198080Y206000I-5080J0D01*
G01*
X309080Y373000D02*
G03*
X309080Y373000I-5080J0D01*
G01*
Y388000D02*
G03*
X309080Y388000I-5080J0D01*
G01*
X353080Y443000D02*
G03*
X353080Y443000I-5080J0D01*
G01*
X329080Y123500D02*
G03*
X329080Y123500I-5080J0D01*
G01*
X332580Y129500D02*
G03*
X332580Y129500I-5080J0D01*
G01*
X65680Y519000D02*
G03*
X65680Y519000I-5080J0D01*
G01*
X45880Y519300D02*
G03*
X45880Y519300I-5080J0D01*
G01*
X55580Y497500D02*
G03*
X55580Y497500I-5080J0D01*
G01*
X68580Y510500D02*
G03*
X68580Y510500I-5080J0D01*
G01*
X55580Y523500D02*
G03*
X55580Y523500I-5080J0D01*
G01*
X42580Y510500D02*
G03*
X42580Y510500I-5080J0D01*
G01*
X64780Y501300D02*
G03*
X64780Y501300I-5080J0D01*
G01*
X46280D02*
G03*
X46280Y501300I-5080J0D01*
G01*
X308980Y350900D02*
G03*
X308980Y350900I-5080J0D01*
G01*
X354580Y227000D02*
G03*
X354580Y227000I-5080J0D01*
G01*
X140580Y150000D02*
G03*
X140580Y150000I-5080J0D01*
G01*
X130080Y139500D02*
G03*
X130080Y139500I-5080J0D01*
G01*
Y150000D02*
G03*
X130080Y150000I-5080J0D01*
G01*
X352023Y154790D02*
G03*
X352023Y154790I-5080J0D01*
G01*
Y161269D02*
G03*
X352023Y161269I-5080J0D01*
G01*
X351580Y259000D02*
G03*
X351580Y259000I-5080J0D01*
G01*
Y265500D02*
G03*
X351580Y265500I-5080J0D01*
G01*
X369580Y146500D02*
G03*
X369580Y146500I-5080J0D01*
G01*
X361080Y147000D02*
G03*
X361080Y147000I-5080J0D01*
G01*
X379080Y146500D02*
G03*
X379080Y146500I-5080J0D01*
G01*
Y137500D02*
G03*
X379080Y137500I-5080J0D01*
G01*
X361080Y137000D02*
G03*
X361080Y137000I-5080J0D01*
G01*
X369580Y137500D02*
G03*
X369580Y137500I-5080J0D01*
G01*
X352223Y369761D02*
G03*
X352223Y369761I-5080J0D01*
G01*
X352318Y363400D02*
G03*
X352318Y363400I-5080J0D01*
G01*
X361580Y242000D02*
G03*
X361580Y242000I-5080J0D01*
G01*
X380580D02*
G03*
X380580Y242000I-5080J0D01*
G01*
Y251000D02*
G03*
X380580Y251000I-5080J0D01*
G01*
X361580Y251500D02*
G03*
X361580Y251500I-5080J0D01*
G01*
X371080Y251000D02*
G03*
X371080Y251000I-5080J0D01*
G01*
Y242000D02*
G03*
X371080Y242000I-5080J0D01*
G01*
X360080Y345000D02*
G03*
X360080Y345000I-5080J0D01*
G01*
X368580Y354500D02*
G03*
X368580Y354500I-5080J0D01*
G01*
X377580Y345500D02*
G03*
X377580Y345500I-5080J0D01*
G01*
Y354500D02*
G03*
X377580Y354500I-5080J0D01*
G01*
X360080D02*
G03*
X360080Y354500I-5080J0D01*
G01*
X368580Y345500D02*
G03*
X368580Y345500I-5080J0D01*
G01*
X429080Y216000D02*
G03*
X429080Y216000I-5080J0D01*
G01*
X416080D02*
G03*
X416080Y216000I-5080J0D01*
G01*
X403080D02*
G03*
X403080Y216000I-5080J0D01*
G01*
X416080Y205000D02*
G03*
X416080Y205000I-5080J0D01*
G01*
X403080D02*
G03*
X403080Y205000I-5080J0D01*
G01*
X429080D02*
G03*
X429080Y205000I-5080J0D01*
G01*
X416080Y194000D02*
G03*
X416080Y194000I-5080J0D01*
G01*
X429080D02*
G03*
X429080Y194000I-5080J0D01*
G01*
X403080D02*
G03*
X403080Y194000I-5080J0D01*
G01*
X416080Y183000D02*
G03*
X416080Y183000I-5080J0D01*
G01*
X403080D02*
G03*
X403080Y183000I-5080J0D01*
G01*
X429080D02*
G03*
X429080Y183000I-5080J0D01*
G01*
X428080Y320000D02*
G03*
X428080Y320000I-5080J0D01*
G01*
X415080D02*
G03*
X415080Y320000I-5080J0D01*
G01*
X402080D02*
G03*
X402080Y320000I-5080J0D01*
G01*
X415080Y309000D02*
G03*
X415080Y309000I-5080J0D01*
G01*
X402080D02*
G03*
X402080Y309000I-5080J0D01*
G01*
X428080D02*
G03*
X428080Y309000I-5080J0D01*
G01*
X415080Y298000D02*
G03*
X415080Y298000I-5080J0D01*
G01*
X428080D02*
G03*
X428080Y298000I-5080J0D01*
G01*
X402080D02*
G03*
X402080Y298000I-5080J0D01*
G01*
X415080Y287000D02*
G03*
X415080Y287000I-5080J0D01*
G01*
X402080D02*
G03*
X402080Y287000I-5080J0D01*
G01*
X428080D02*
G03*
X428080Y287000I-5080J0D01*
G01*
X457980Y335000D02*
G03*
X457980Y335000I-5080J0D01*
G01*
X363580D02*
G03*
X363580Y335000I-5080J0D01*
G01*
X367380Y326600D02*
G03*
X367380Y326600I-5080J0D01*
G01*
X468580Y315600D02*
G03*
X468580Y315600I-5080J0D01*
G01*
X457880Y232300D02*
G03*
X457880Y232300I-5080J0D01*
G01*
X468380Y211400D02*
G03*
X468380Y211400I-5080J0D01*
G01*
X458080Y128300D02*
G03*
X458080Y128300I-5080J0D01*
G01*
X316080Y288000D02*
G03*
X316080Y288000I-5080J0D01*
G01*
Y299000D02*
G03*
X316080Y299000I-5080J0D01*
G01*
X305080Y288000D02*
G03*
X305080Y288000I-5080J0D01*
G01*
Y299000D02*
G03*
X305080Y299000I-5080J0D01*
G01*
X294080Y288000D02*
G03*
X294080Y288000I-5080J0D01*
G01*
Y299000D02*
G03*
X294080Y299000I-5080J0D01*
G01*
X282080Y288000D02*
G03*
X282080Y288000I-5080J0D01*
G01*
Y299000D02*
G03*
X282080Y299000I-5080J0D01*
G01*
X300080Y428000D02*
G03*
X300080Y428000I-5080J0D01*
G01*
X203080Y337000D02*
G03*
X203080Y337000I-5080J0D01*
G01*
X186080Y343000D02*
G03*
X186080Y343000I-5080J0D01*
G01*
X204080Y272000D02*
G03*
X204080Y272000I-5080J0D01*
G01*
Y306000D02*
G03*
X204080Y306000I-5080J0D01*
G01*
X192080Y321000D02*
G03*
X192080Y321000I-5080J0D01*
G01*
X193080Y286000D02*
G03*
X193080Y286000I-5080J0D01*
G01*
X169080Y220000D02*
G03*
X169080Y220000I-5080J0D01*
G01*
Y232000D02*
G03*
X169080Y232000I-5080J0D01*
G01*
X158080Y220000D02*
G03*
X158080Y220000I-5080J0D01*
G01*
Y232000D02*
G03*
X158080Y232000I-5080J0D01*
G01*
X146080Y220000D02*
G03*
X146080Y220000I-5080J0D01*
G01*
Y232000D02*
G03*
X146080Y232000I-5080J0D01*
G01*
X134080Y220000D02*
G03*
X134080Y220000I-5080J0D01*
G01*
Y232000D02*
G03*
X134080Y232000I-5080J0D01*
G01*
X116080D02*
G03*
X116080Y232000I-5080J0D01*
G01*
X122080Y222000D02*
G03*
X122080Y222000I-5080J0D01*
G01*
Y207000D02*
G03*
X122080Y207000I-5080J0D01*
G01*
Y191000D02*
G03*
X122080Y191000I-5080J0D01*
G01*
X106080Y192000D02*
G03*
X106080Y192000I-5080J0D01*
G01*
Y207000D02*
G03*
X106080Y207000I-5080J0D01*
G01*
Y221000D02*
G03*
X106080Y221000I-5080J0D01*
G01*
X110080Y253000D02*
G03*
X110080Y253000I-5080J0D01*
G01*
X133080Y271000D02*
G03*
X133080Y271000I-5080J0D01*
G01*
Y285000D02*
G03*
X133080Y285000I-5080J0D01*
G01*
Y298000D02*
G03*
X133080Y298000I-5080J0D01*
G01*
Y311000D02*
G03*
X133080Y311000I-5080J0D01*
G01*
Y324000D02*
G03*
X133080Y324000I-5080J0D01*
G01*
X118080Y267000D02*
G03*
X118080Y267000I-5080J0D01*
G01*
Y284000D02*
G03*
X118080Y284000I-5080J0D01*
G01*
Y301000D02*
G03*
X118080Y301000I-5080J0D01*
G01*
Y321000D02*
G03*
X118080Y321000I-5080J0D01*
G01*
X99080Y241000D02*
G03*
X99080Y241000I-5080J0D01*
G01*
Y254000D02*
G03*
X99080Y254000I-5080J0D01*
G01*
Y269000D02*
G03*
X99080Y269000I-5080J0D01*
G01*
Y283000D02*
G03*
X99080Y283000I-5080J0D01*
G01*
Y296000D02*
G03*
X99080Y296000I-5080J0D01*
G01*
Y309000D02*
G03*
X99080Y309000I-5080J0D01*
G01*
Y323000D02*
G03*
X99080Y323000I-5080J0D01*
G01*
Y336000D02*
G03*
X99080Y336000I-5080J0D01*
G01*
Y353000D02*
G03*
X99080Y353000I-5080J0D01*
G01*
X111080Y342000D02*
G03*
X111080Y342000I-5080J0D01*
G01*
X126080D02*
G03*
X126080Y342000I-5080J0D01*
G01*
X140080Y343000D02*
G03*
X140080Y343000I-5080J0D01*
G01*
X309080Y337000D02*
G03*
X309080Y337000I-5080J0D01*
G01*
X302339Y405549D02*
G03*
X302339Y405549I-5080J0D01*
G01*
X331080Y411000D02*
G03*
X331080Y411000I-5080J0D01*
G01*
X300080Y441000D02*
G03*
X300080Y441000I-5080J0D01*
G01*
X309080Y420000D02*
G03*
X309080Y420000I-5080J0D01*
G01*
X333080Y427000D02*
G03*
X333080Y427000I-5080J0D01*
G01*
Y441000D02*
G03*
X333080Y441000I-5080J0D01*
G01*
X285080Y420000D02*
G03*
X285080Y420000I-5080J0D01*
G01*
X273080D02*
G03*
X273080Y420000I-5080J0D01*
G01*
X261080D02*
G03*
X261080Y420000I-5080J0D01*
G01*
X264080Y350000D02*
G03*
X264080Y350000I-5080J0D01*
G01*
Y362000D02*
G03*
X264080Y362000I-5080J0D01*
G01*
Y374000D02*
G03*
X264080Y374000I-5080J0D01*
G01*
Y385000D02*
G03*
X264080Y385000I-5080J0D01*
G01*
Y396000D02*
G03*
X264080Y396000I-5080J0D01*
G01*
X269080Y407000D02*
G03*
X269080Y407000I-5080J0D01*
G01*
X259080D02*
G03*
X259080Y407000I-5080J0D01*
G01*
X285080Y431000D02*
G03*
X285080Y431000I-5080J0D01*
G01*
Y441000D02*
G03*
X285080Y441000I-5080J0D01*
G01*
X240080Y389000D02*
G03*
X240080Y389000I-5080J0D01*
G01*
Y378000D02*
G03*
X240080Y378000I-5080J0D01*
G01*
Y367000D02*
G03*
X240080Y367000I-5080J0D01*
G01*
Y356000D02*
G03*
X240080Y356000I-5080J0D01*
G01*
X218080Y367000D02*
G03*
X218080Y367000I-5080J0D01*
G01*
Y378000D02*
G03*
X218080Y378000I-5080J0D01*
G01*
Y389000D02*
G03*
X218080Y389000I-5080J0D01*
G01*
Y356000D02*
G03*
X218080Y356000I-5080J0D01*
G01*
X229080Y389000D02*
G03*
X229080Y389000I-5080J0D01*
G01*
Y367000D02*
G03*
X229080Y367000I-5080J0D01*
G01*
Y378000D02*
G03*
X229080Y378000I-5080J0D01*
G01*
Y356000D02*
G03*
X229080Y356000I-5080J0D01*
G01*
X45780Y40300D02*
G03*
X45780Y40300I-5080J0D01*
G01*
X64280D02*
G03*
X64280Y40300I-5080J0D01*
G01*
X42080Y49500D02*
G03*
X42080Y49500I-5080J0D01*
G01*
X55080Y62500D02*
G03*
X55080Y62500I-5080J0D01*
G01*
X68080Y49500D02*
G03*
X68080Y49500I-5080J0D01*
G01*
X55080Y36500D02*
G03*
X55080Y36500I-5080J0D01*
G01*
X45380Y58300D02*
G03*
X45380Y58300I-5080J0D01*
G01*
X65180Y58000D02*
G03*
X65180Y58000I-5080J0D01*
G01*
X507280Y501800D02*
G03*
X507280Y501800I-5080J0D01*
G01*
X525780D02*
G03*
X525780Y501800I-5080J0D01*
G01*
X503580Y511000D02*
G03*
X503580Y511000I-5080J0D01*
G01*
X516580Y524000D02*
G03*
X516580Y524000I-5080J0D01*
G01*
X529580Y511000D02*
G03*
X529580Y511000I-5080J0D01*
G01*
X516580Y498000D02*
G03*
X516580Y498000I-5080J0D01*
G01*
X506880Y519800D02*
G03*
X506880Y519800I-5080J0D01*
G01*
X526680Y519500D02*
G03*
X526680Y519500I-5080J0D01*
G01*
X507280Y40300D02*
G03*
X507280Y40300I-5080J0D01*
G01*
X525780D02*
G03*
X525780Y40300I-5080J0D01*
G01*
X503580Y49500D02*
G03*
X503580Y49500I-5080J0D01*
G01*
X516580Y62500D02*
G03*
X516580Y62500I-5080J0D01*
G01*
X529580Y49500D02*
G03*
X529580Y49500I-5080J0D01*
G01*
X516580Y36500D02*
G03*
X516580Y36500I-5080J0D01*
G01*
X506880Y58300D02*
G03*
X506880Y58300I-5080J0D01*
G01*
X526680Y58000D02*
G03*
X526680Y58000I-5080J0D01*
G01*
D74*
X586537Y379869D02*
X584538Y381868D01*
X580539D01*
X578540Y379869D01*
Y377870D01*
X580539Y375870D01*
X584538D01*
X586537Y373871D01*
Y371872D01*
X584538Y369872D01*
X580539D01*
X578540Y371872D01*
X590536Y377870D02*
Y371872D01*
X592536Y369872D01*
X598534D01*
Y367873D01*
X596534Y365874D01*
X594535D01*
X598534Y369872D02*
Y377870D01*
X602532Y369872D02*
Y377870D01*
X604532D01*
X606531Y375870D01*
Y369872D01*
Y375870D01*
X608530Y377870D01*
X610530Y375870D01*
Y369872D01*
X614528Y381868D02*
Y369872D01*
X620526D01*
X622526Y371872D01*
Y373871D01*
Y375870D01*
X620526Y377870D01*
X614528D01*
X628524Y369872D02*
X632523D01*
X634522Y371872D01*
Y375870D01*
X632523Y377870D01*
X628524D01*
X626525Y375870D01*
Y371872D01*
X628524Y369872D01*
X638521D02*
X642519D01*
X640520D01*
Y381868D01*
X638521D01*
X666711D02*
Y369872D01*
Y375870D01*
X674709D01*
Y381868D01*
Y369872D01*
X678707D02*
X682706D01*
X680707D01*
Y377870D01*
X678707D01*
X690704Y379869D02*
Y377870D01*
X688704D01*
X692703D01*
X690704D01*
Y371872D01*
X692703Y369872D01*
X718695Y379869D02*
X716695Y381868D01*
X712696D01*
X710697Y379869D01*
Y371872D01*
X712696Y369872D01*
X716695D01*
X718695Y371872D01*
X724693Y369872D02*
X728691D01*
X730691Y371872D01*
Y375870D01*
X728691Y377870D01*
X724693D01*
X722693Y375870D01*
Y371872D01*
X724693Y369872D01*
X734689Y377870D02*
Y371872D01*
X736689Y369872D01*
X742687D01*
Y377870D01*
X746685Y369872D02*
Y377870D01*
X752683D01*
X754683Y375870D01*
Y369872D01*
X760681Y379869D02*
Y377870D01*
X758681D01*
X762680D01*
X760681D01*
Y371872D01*
X762680Y369872D01*
X794870Y381868D02*
X786872D01*
Y375870D01*
X790871D01*
X786872D01*
Y369872D01*
X798868D02*
X802867D01*
X800868D01*
Y377870D01*
X798868D01*
X808865Y369872D02*
Y377870D01*
X814863D01*
X816862Y375870D01*
Y369872D01*
X820861D02*
X824860D01*
X822861D01*
Y377870D01*
X820861D01*
X830858Y369872D02*
X836856D01*
X838855Y371872D01*
X836856Y373871D01*
X832857D01*
X830858Y375870D01*
X832857Y377870D01*
X838855D01*
X842854Y381868D02*
Y369872D01*
Y375870D01*
X844854Y377870D01*
X848852D01*
X850852Y375870D01*
Y369872D01*
X860848D02*
X856850D01*
X854850Y371872D01*
Y375870D01*
X856850Y377870D01*
X860848D01*
X862848Y375870D01*
Y373871D01*
X854850D01*
X874844Y381868D02*
Y369872D01*
X868846D01*
X866846Y371872D01*
Y375870D01*
X868846Y377870D01*
X874844D01*
X890839Y381868D02*
Y369872D01*
Y375870D01*
X898836D01*
Y381868D01*
Y369872D01*
X904834D02*
X908833D01*
X910832Y371872D01*
Y375870D01*
X908833Y377870D01*
X904834D01*
X902835Y375870D01*
Y371872D01*
X904834Y369872D01*
X914831D02*
X918829D01*
X916830D01*
Y381868D01*
X914831D01*
X930826Y369872D02*
X926827D01*
X924828Y371872D01*
Y375870D01*
X926827Y377870D01*
X930826D01*
X932825Y375870D01*
Y373871D01*
X924828D01*
X956817Y379869D02*
X954818Y381868D01*
X950819D01*
X948820Y379869D01*
Y377870D01*
X950819Y375870D01*
X954818D01*
X956817Y373871D01*
Y371872D01*
X954818Y369872D01*
X950819D01*
X948820Y371872D01*
X960816Y369872D02*
X964815D01*
X962815D01*
Y377870D01*
X960816D01*
X970813D02*
X978810D01*
X970813Y369872D01*
X978810D01*
X988807D02*
X984808D01*
X982809Y371872D01*
Y375870D01*
X984808Y377870D01*
X988807D01*
X990806Y375870D01*
Y373871D01*
X982809D01*
X1014998Y369872D02*
Y381868D01*
X1020996D01*
X1022996Y379869D01*
Y375870D01*
X1020996Y373871D01*
X1014998D01*
X1026994Y369872D02*
X1030993D01*
X1028994D01*
Y381868D01*
X1026994D01*
X1038990Y377870D02*
X1042989D01*
X1044989Y375870D01*
Y369872D01*
X1038990D01*
X1036991Y371872D01*
X1038990Y373871D01*
X1044989D01*
X1050987Y379869D02*
Y377870D01*
X1048987D01*
X1052986D01*
X1050987D01*
Y371872D01*
X1052986Y369872D01*
X1064982D02*
X1060983D01*
X1058984Y371872D01*
Y375870D01*
X1060983Y377870D01*
X1064982D01*
X1066982Y375870D01*
Y373871D01*
X1058984D01*
X1078978Y381868D02*
Y369872D01*
X1072980D01*
X1070980Y371872D01*
Y375870D01*
X1072980Y377870D01*
X1078978D01*
X1103170Y381868D02*
Y369872D01*
Y375870D01*
X1111167D01*
Y381868D01*
Y369872D01*
X1117165D02*
X1121164D01*
X1123163Y371872D01*
Y375870D01*
X1121164Y377870D01*
X1117165D01*
X1115166Y375870D01*
Y371872D01*
X1117165Y369872D01*
X1127162D02*
X1131161D01*
X1129161D01*
Y381868D01*
X1127162D01*
X1143157Y369872D02*
X1139158D01*
X1137159Y371872D01*
Y375870D01*
X1139158Y377870D01*
X1143157D01*
X1145156Y375870D01*
Y373871D01*
X1137159D01*
X1161151Y381868D02*
X1169148D01*
X1165150D01*
Y369872D01*
X1173147Y377870D02*
Y371872D01*
X1175146Y369872D01*
X1181144D01*
Y367873D01*
X1179145Y365874D01*
X1177146D01*
X1181144Y369872D02*
Y377870D01*
X1185143Y365874D02*
Y377870D01*
X1191141D01*
X1193140Y375870D01*
Y371872D01*
X1191141Y369872D01*
X1185143D01*
X1203137D02*
X1199138D01*
X1197139Y371872D01*
Y375870D01*
X1199138Y377870D01*
X1203137D01*
X1205137Y375870D01*
Y373871D01*
X1197139D01*
X562476Y387872D02*
X1229329D01*
X562476Y360872D02*
X1229329D01*
X562476Y387872D02*
Y280872D01*
X1229329Y387872D02*
Y280872D01*
X658679Y387872D02*
Y280872D01*
X778840Y387872D02*
Y280872D01*
X1006966Y387872D02*
Y280872D01*
X1095138Y387872D02*
Y280872D01*
X562476Y300872D02*
X1229329D01*
X562476Y280872D02*
X1229329D01*
D75*
X585652Y350872D02*
G03*
X585652Y350872I-3556J0D01*
G01*
M02*
